G75*
%MOIN*%
%OFA0B0*%
%FSLAX25Y25*%
%IPPOS*%
%LPD*%
%AMOC8*
5,1,8,0,0,1.08239X$1,22.5*
%
%ADD10OC8,0.04800*%
%ADD11C,0.06299*%
%ADD12C,0.04800*%
%ADD13C,0.07400*%
%ADD14C,0.04724*%
%ADD15C,0.06000*%
%ADD16C,0.01000*%
%ADD17C,0.00500*%
D10*
X0041400Y0036000D03*
X0051400Y0036000D03*
X0051400Y0051000D03*
X0041400Y0051000D03*
X0046400Y0071000D03*
X0037148Y0071276D03*
X0037148Y0091276D03*
X0046400Y0091000D03*
X0041400Y0151000D03*
X0031400Y0151000D03*
X0076400Y0016000D03*
X0096400Y0016000D03*
D11*
X0025022Y0049307D03*
X0025022Y0057181D03*
X0025022Y0072929D03*
X0025022Y0080803D03*
X0025022Y0088677D03*
X0025022Y0096551D03*
X0154943Y0108362D03*
X0154943Y0116236D03*
X0154943Y0131984D03*
X0154943Y0139858D03*
D12*
X0148800Y0086000D02*
X0144000Y0086000D01*
X0164000Y0086000D02*
X0168800Y0086000D01*
X0168800Y0056000D02*
X0164000Y0056000D01*
X0164000Y0046000D02*
X0168800Y0046000D01*
X0148800Y0046000D02*
X0144000Y0046000D01*
X0144000Y0056000D02*
X0148800Y0056000D01*
X0126400Y0018400D02*
X0126400Y0013600D01*
X0116400Y0013600D02*
X0116400Y0018400D01*
X0106400Y0018400D02*
X0106400Y0013600D01*
X0056200Y0111000D02*
X0051400Y0111000D01*
X0051400Y0121000D02*
X0056200Y0121000D01*
X0056200Y0131000D02*
X0051400Y0131000D01*
X0051400Y0141000D02*
X0056200Y0141000D01*
X0021400Y0141000D02*
X0016600Y0141000D01*
X0016600Y0131000D02*
X0021400Y0131000D01*
X0021400Y0121000D02*
X0016600Y0121000D01*
X0016600Y0111000D02*
X0021400Y0111000D01*
D13*
X0056400Y0096000D03*
X0056400Y0066000D03*
X0066400Y0016000D03*
X0036400Y0016000D03*
D14*
X0069038Y0031000D02*
X0073762Y0031000D01*
X0073762Y0041000D02*
X0069038Y0041000D01*
X0069038Y0051000D02*
X0073762Y0051000D01*
X0073762Y0061000D02*
X0069038Y0061000D01*
X0069038Y0071000D02*
X0073762Y0071000D01*
X0073762Y0081000D02*
X0069038Y0081000D01*
X0069038Y0091000D02*
X0073762Y0091000D01*
X0073762Y0101000D02*
X0069038Y0101000D01*
X0069038Y0111000D02*
X0073762Y0111000D01*
X0073762Y0121000D02*
X0069038Y0121000D01*
X0069038Y0131000D02*
X0073762Y0131000D01*
X0073762Y0141000D02*
X0069038Y0141000D01*
X0076400Y0148638D02*
X0076400Y0153362D01*
X0086400Y0153362D02*
X0086400Y0148638D01*
X0096400Y0148638D02*
X0096400Y0153362D01*
X0106400Y0153362D02*
X0106400Y0148638D01*
X0116400Y0148638D02*
X0116400Y0153362D01*
X0126400Y0153362D02*
X0126400Y0148638D01*
X0129038Y0141000D02*
X0133762Y0141000D01*
X0133762Y0131000D02*
X0129038Y0131000D01*
X0129038Y0121000D02*
X0133762Y0121000D01*
X0133762Y0111000D02*
X0129038Y0111000D01*
X0129038Y0101000D02*
X0133762Y0101000D01*
X0133762Y0091000D02*
X0129038Y0091000D01*
X0129038Y0081000D02*
X0133762Y0081000D01*
X0133762Y0071000D02*
X0129038Y0071000D01*
X0129038Y0061000D02*
X0133762Y0061000D01*
X0133762Y0051000D02*
X0129038Y0051000D01*
X0129038Y0041000D02*
X0133762Y0041000D01*
X0133762Y0031000D02*
X0129038Y0031000D01*
X0118762Y0056000D02*
X0114038Y0056000D01*
X0114038Y0066000D02*
X0118762Y0066000D01*
X0118762Y0096000D02*
X0114038Y0096000D01*
X0114038Y0106000D02*
X0118762Y0106000D01*
D15*
X0116400Y0168000D02*
X0116400Y0174000D01*
X0106400Y0174000D02*
X0106400Y0168000D01*
X0096400Y0168000D02*
X0096400Y0174000D01*
X0086400Y0174000D02*
X0086400Y0168000D01*
X0076400Y0168000D02*
X0076400Y0174000D01*
X0126400Y0174000D02*
X0126400Y0168000D01*
D16*
X0131400Y0141000D02*
X0131400Y0139000D01*
X0138400Y0132000D01*
X0138400Y0120000D01*
X0133400Y0115000D01*
X0113400Y0115000D01*
X0075400Y0077000D01*
X0046400Y0077000D01*
X0041400Y0072000D01*
X0041400Y0051000D01*
X0037400Y0052000D02*
X0037400Y0040000D01*
X0041400Y0036000D01*
X0051400Y0036000D02*
X0082400Y0036000D01*
X0102400Y0016000D01*
X0106400Y0016000D01*
X0107400Y0009000D02*
X0073400Y0009000D01*
X0066400Y0016000D01*
X0037400Y0052000D02*
X0025400Y0064000D01*
X0025400Y0072000D01*
X0025022Y0072929D01*
X0024400Y0073000D01*
X0017400Y0080000D01*
X0017400Y0099000D01*
X0031400Y0113000D01*
X0031400Y0151000D01*
X0041400Y0151000D02*
X0041400Y0120000D01*
X0019400Y0098000D01*
X0019400Y0086000D01*
X0024400Y0081000D01*
X0025022Y0080803D01*
X0025022Y0088677D02*
X0025400Y0089000D01*
X0028400Y0089000D01*
X0046400Y0107000D01*
X0058400Y0107000D01*
X0072400Y0121000D01*
X0071400Y0121000D01*
X0072400Y0121000D01*
X0131400Y0121000D01*
X0131400Y0131000D02*
X0079400Y0131000D01*
X0073400Y0137000D01*
X0066400Y0137000D01*
X0052400Y0151000D01*
X0041400Y0151000D01*
X0057400Y0075000D02*
X0103400Y0075000D01*
X0125400Y0097000D01*
X0135400Y0097000D01*
X0154400Y0116000D01*
X0154943Y0116236D01*
X0154943Y0108362D02*
X0154400Y0108000D01*
X0149400Y0108000D01*
X0136400Y0095000D01*
X0126400Y0095000D01*
X0097400Y0066000D01*
X0056400Y0066000D01*
X0053400Y0071000D02*
X0057400Y0075000D01*
X0053400Y0071000D02*
X0046400Y0071000D01*
X0107400Y0009000D02*
X0114400Y0016000D01*
X0116400Y0016000D01*
X0146400Y0046000D02*
X0146400Y0048000D01*
X0159400Y0061000D01*
X0159400Y0106000D01*
X0160400Y0107000D01*
X0160400Y0134000D01*
X0155400Y0139000D01*
X0154943Y0139858D01*
D17*
X0003618Y0180947D02*
X0003618Y0008218D01*
X0071707Y0008218D01*
X0068439Y0011487D01*
X0067385Y0011050D01*
X0065415Y0011050D01*
X0063596Y0011804D01*
X0062204Y0013196D01*
X0061450Y0015015D01*
X0061450Y0016985D01*
X0062204Y0018804D01*
X0063596Y0020196D01*
X0065415Y0020950D01*
X0067385Y0020950D01*
X0069204Y0020196D01*
X0070596Y0018804D01*
X0071350Y0016985D01*
X0071350Y0015015D01*
X0070913Y0013961D01*
X0074125Y0010750D01*
X0104096Y0010750D01*
X0104073Y0010765D01*
X0103565Y0011273D01*
X0103165Y0011871D01*
X0102890Y0012535D01*
X0102750Y0013240D01*
X0102750Y0015750D01*
X0106150Y0015750D01*
X0106150Y0016250D01*
X0106150Y0022050D01*
X0106040Y0022050D01*
X0105335Y0021910D01*
X0104671Y0021635D01*
X0104073Y0021235D01*
X0103565Y0020727D01*
X0103165Y0020129D01*
X0102890Y0019465D01*
X0102750Y0018759D01*
X0102750Y0016250D01*
X0106150Y0016250D01*
X0106650Y0016250D01*
X0110050Y0016250D01*
X0110050Y0018759D01*
X0109910Y0019465D01*
X0109635Y0020129D01*
X0109235Y0020727D01*
X0108727Y0021235D01*
X0108129Y0021635D01*
X0107465Y0021910D01*
X0106759Y0022050D01*
X0106650Y0022050D01*
X0106650Y0016250D01*
X0106650Y0015750D01*
X0110050Y0015750D01*
X0110050Y0014125D01*
X0112750Y0016825D01*
X0112750Y0019126D01*
X0113306Y0020468D01*
X0114332Y0021494D01*
X0115674Y0022050D01*
X0117126Y0022050D01*
X0118468Y0021494D01*
X0119494Y0020468D01*
X0120050Y0019126D01*
X0120050Y0012874D01*
X0119494Y0011532D01*
X0118468Y0010506D01*
X0117126Y0009950D01*
X0115674Y0009950D01*
X0114332Y0010506D01*
X0113306Y0011532D01*
X0113043Y0012168D01*
X0109150Y0008275D01*
X0109093Y0008218D01*
X0176347Y0008218D01*
X0176347Y0180947D01*
X0003618Y0180947D01*
X0003618Y0180479D02*
X0176347Y0180479D01*
X0176347Y0179980D02*
X0003618Y0179980D01*
X0003618Y0179482D02*
X0176347Y0179482D01*
X0176347Y0178983D02*
X0003618Y0178983D01*
X0003618Y0178485D02*
X0176347Y0178485D01*
X0176347Y0177986D02*
X0127882Y0177986D01*
X0127245Y0178250D02*
X0128807Y0177603D01*
X0130003Y0176407D01*
X0130650Y0174845D01*
X0130650Y0167155D01*
X0130003Y0165593D01*
X0128807Y0164397D01*
X0127245Y0163750D01*
X0125555Y0163750D01*
X0123993Y0164397D01*
X0122797Y0165593D01*
X0122150Y0167155D01*
X0122150Y0174845D01*
X0122797Y0176407D01*
X0123993Y0177603D01*
X0125555Y0178250D01*
X0127245Y0178250D01*
X0128922Y0177488D02*
X0176347Y0177488D01*
X0176347Y0176989D02*
X0129421Y0176989D01*
X0129920Y0176491D02*
X0176347Y0176491D01*
X0176347Y0175992D02*
X0130175Y0175992D01*
X0130381Y0175494D02*
X0176347Y0175494D01*
X0176347Y0174995D02*
X0130588Y0174995D01*
X0130650Y0174497D02*
X0176347Y0174497D01*
X0176347Y0173998D02*
X0130650Y0173998D01*
X0130650Y0173500D02*
X0176347Y0173500D01*
X0176347Y0173001D02*
X0130650Y0173001D01*
X0130650Y0172503D02*
X0176347Y0172503D01*
X0176347Y0172004D02*
X0130650Y0172004D01*
X0130650Y0171506D02*
X0155998Y0171506D01*
X0157186Y0171998D02*
X0154055Y0170701D01*
X0151659Y0168305D01*
X0150363Y0165175D01*
X0150363Y0161786D01*
X0151659Y0158655D01*
X0154055Y0156259D01*
X0157186Y0154963D01*
X0160575Y0154963D01*
X0163705Y0156259D01*
X0166101Y0158655D01*
X0167398Y0161786D01*
X0167398Y0165175D01*
X0166101Y0168305D01*
X0163705Y0170701D01*
X0160575Y0171998D01*
X0157186Y0171998D01*
X0154794Y0171007D02*
X0130650Y0171007D01*
X0130650Y0170509D02*
X0153863Y0170509D01*
X0153364Y0170010D02*
X0130650Y0170010D01*
X0130650Y0169512D02*
X0152866Y0169512D01*
X0152367Y0169013D02*
X0130650Y0169013D01*
X0130650Y0168515D02*
X0151869Y0168515D01*
X0151540Y0168016D02*
X0130650Y0168016D01*
X0130650Y0167518D02*
X0151333Y0167518D01*
X0151127Y0167019D02*
X0130594Y0167019D01*
X0130387Y0166521D02*
X0150920Y0166521D01*
X0150714Y0166022D02*
X0130181Y0166022D01*
X0129934Y0165524D02*
X0150507Y0165524D01*
X0150363Y0165025D02*
X0129436Y0165025D01*
X0128937Y0164527D02*
X0150363Y0164527D01*
X0150363Y0164028D02*
X0127917Y0164028D01*
X0124883Y0164028D02*
X0117917Y0164028D01*
X0117245Y0163750D02*
X0118807Y0164397D01*
X0120003Y0165593D01*
X0120650Y0167155D01*
X0120650Y0174845D01*
X0120003Y0176407D01*
X0118807Y0177603D01*
X0117245Y0178250D01*
X0115555Y0178250D01*
X0113993Y0177603D01*
X0112797Y0176407D01*
X0112150Y0174845D01*
X0112150Y0167155D01*
X0112797Y0165593D01*
X0113993Y0164397D01*
X0115555Y0163750D01*
X0117245Y0163750D01*
X0118937Y0164527D02*
X0123863Y0164527D01*
X0123364Y0165025D02*
X0119436Y0165025D01*
X0119934Y0165524D02*
X0122866Y0165524D01*
X0122619Y0166022D02*
X0120181Y0166022D01*
X0120387Y0166521D02*
X0122413Y0166521D01*
X0122206Y0167019D02*
X0120594Y0167019D01*
X0120650Y0167518D02*
X0122150Y0167518D01*
X0122150Y0168016D02*
X0120650Y0168016D01*
X0120650Y0168515D02*
X0122150Y0168515D01*
X0122150Y0169013D02*
X0120650Y0169013D01*
X0120650Y0169512D02*
X0122150Y0169512D01*
X0122150Y0170010D02*
X0120650Y0170010D01*
X0120650Y0170509D02*
X0122150Y0170509D01*
X0122150Y0171007D02*
X0120650Y0171007D01*
X0120650Y0171506D02*
X0122150Y0171506D01*
X0122150Y0172004D02*
X0120650Y0172004D01*
X0120650Y0172503D02*
X0122150Y0172503D01*
X0122150Y0173001D02*
X0120650Y0173001D01*
X0120650Y0173500D02*
X0122150Y0173500D01*
X0122150Y0173998D02*
X0120650Y0173998D01*
X0120650Y0174497D02*
X0122150Y0174497D01*
X0122212Y0174995D02*
X0120588Y0174995D01*
X0120381Y0175494D02*
X0122419Y0175494D01*
X0122625Y0175992D02*
X0120175Y0175992D01*
X0119920Y0176491D02*
X0122880Y0176491D01*
X0123379Y0176989D02*
X0119421Y0176989D01*
X0118922Y0177488D02*
X0123877Y0177488D01*
X0124918Y0177986D02*
X0117882Y0177986D01*
X0114918Y0177986D02*
X0107882Y0177986D01*
X0107245Y0178250D02*
X0105555Y0178250D01*
X0103993Y0177603D01*
X0102797Y0176407D01*
X0102150Y0174845D01*
X0102150Y0167155D01*
X0102797Y0165593D01*
X0103993Y0164397D01*
X0105555Y0163750D01*
X0107245Y0163750D01*
X0108807Y0164397D01*
X0110003Y0165593D01*
X0110650Y0167155D01*
X0110650Y0174845D01*
X0110003Y0176407D01*
X0108807Y0177603D01*
X0107245Y0178250D01*
X0108922Y0177488D02*
X0113877Y0177488D01*
X0113379Y0176989D02*
X0109421Y0176989D01*
X0109920Y0176491D02*
X0112880Y0176491D01*
X0112625Y0175992D02*
X0110175Y0175992D01*
X0110381Y0175494D02*
X0112419Y0175494D01*
X0112212Y0174995D02*
X0110588Y0174995D01*
X0110650Y0174497D02*
X0112150Y0174497D01*
X0112150Y0173998D02*
X0110650Y0173998D01*
X0110650Y0173500D02*
X0112150Y0173500D01*
X0112150Y0173001D02*
X0110650Y0173001D01*
X0110650Y0172503D02*
X0112150Y0172503D01*
X0112150Y0172004D02*
X0110650Y0172004D01*
X0110650Y0171506D02*
X0112150Y0171506D01*
X0112150Y0171007D02*
X0110650Y0171007D01*
X0110650Y0170509D02*
X0112150Y0170509D01*
X0112150Y0170010D02*
X0110650Y0170010D01*
X0110650Y0169512D02*
X0112150Y0169512D01*
X0112150Y0169013D02*
X0110650Y0169013D01*
X0110650Y0168515D02*
X0112150Y0168515D01*
X0112150Y0168016D02*
X0110650Y0168016D01*
X0110650Y0167518D02*
X0112150Y0167518D01*
X0112206Y0167019D02*
X0110594Y0167019D01*
X0110387Y0166521D02*
X0112413Y0166521D01*
X0112619Y0166022D02*
X0110181Y0166022D01*
X0109934Y0165524D02*
X0112866Y0165524D01*
X0113364Y0165025D02*
X0109436Y0165025D01*
X0108937Y0164527D02*
X0113863Y0164527D01*
X0114883Y0164028D02*
X0107917Y0164028D01*
X0104883Y0164028D02*
X0097917Y0164028D01*
X0097245Y0163750D02*
X0098807Y0164397D01*
X0100003Y0165593D01*
X0100650Y0167155D01*
X0100650Y0174845D01*
X0100003Y0176407D01*
X0098807Y0177603D01*
X0097245Y0178250D01*
X0095555Y0178250D01*
X0093993Y0177603D01*
X0092797Y0176407D01*
X0092150Y0174845D01*
X0092150Y0167155D01*
X0092797Y0165593D01*
X0093993Y0164397D01*
X0095555Y0163750D01*
X0097245Y0163750D01*
X0098937Y0164527D02*
X0103863Y0164527D01*
X0103364Y0165025D02*
X0099436Y0165025D01*
X0099934Y0165524D02*
X0102866Y0165524D01*
X0102619Y0166022D02*
X0100181Y0166022D01*
X0100387Y0166521D02*
X0102413Y0166521D01*
X0102206Y0167019D02*
X0100594Y0167019D01*
X0100650Y0167518D02*
X0102150Y0167518D01*
X0102150Y0168016D02*
X0100650Y0168016D01*
X0100650Y0168515D02*
X0102150Y0168515D01*
X0102150Y0169013D02*
X0100650Y0169013D01*
X0100650Y0169512D02*
X0102150Y0169512D01*
X0102150Y0170010D02*
X0100650Y0170010D01*
X0100650Y0170509D02*
X0102150Y0170509D01*
X0102150Y0171007D02*
X0100650Y0171007D01*
X0100650Y0171506D02*
X0102150Y0171506D01*
X0102150Y0172004D02*
X0100650Y0172004D01*
X0100650Y0172503D02*
X0102150Y0172503D01*
X0102150Y0173001D02*
X0100650Y0173001D01*
X0100650Y0173500D02*
X0102150Y0173500D01*
X0102150Y0173998D02*
X0100650Y0173998D01*
X0100650Y0174497D02*
X0102150Y0174497D01*
X0102212Y0174995D02*
X0100588Y0174995D01*
X0100381Y0175494D02*
X0102419Y0175494D01*
X0102625Y0175992D02*
X0100175Y0175992D01*
X0099920Y0176491D02*
X0102880Y0176491D01*
X0103379Y0176989D02*
X0099421Y0176989D01*
X0098922Y0177488D02*
X0103877Y0177488D01*
X0104918Y0177986D02*
X0097882Y0177986D01*
X0094918Y0177986D02*
X0087882Y0177986D01*
X0087245Y0178250D02*
X0085555Y0178250D01*
X0083993Y0177603D01*
X0082797Y0176407D01*
X0082150Y0174845D01*
X0082150Y0167155D01*
X0082797Y0165593D01*
X0083993Y0164397D01*
X0085555Y0163750D01*
X0087245Y0163750D01*
X0088807Y0164397D01*
X0090003Y0165593D01*
X0090650Y0167155D01*
X0090650Y0174845D01*
X0090003Y0176407D01*
X0088807Y0177603D01*
X0087245Y0178250D01*
X0088922Y0177488D02*
X0093877Y0177488D01*
X0093379Y0176989D02*
X0089421Y0176989D01*
X0089920Y0176491D02*
X0092880Y0176491D01*
X0092625Y0175992D02*
X0090175Y0175992D01*
X0090381Y0175494D02*
X0092419Y0175494D01*
X0092212Y0174995D02*
X0090588Y0174995D01*
X0090650Y0174497D02*
X0092150Y0174497D01*
X0092150Y0173998D02*
X0090650Y0173998D01*
X0090650Y0173500D02*
X0092150Y0173500D01*
X0092150Y0173001D02*
X0090650Y0173001D01*
X0090650Y0172503D02*
X0092150Y0172503D01*
X0092150Y0172004D02*
X0090650Y0172004D01*
X0090650Y0171506D02*
X0092150Y0171506D01*
X0092150Y0171007D02*
X0090650Y0171007D01*
X0090650Y0170509D02*
X0092150Y0170509D01*
X0092150Y0170010D02*
X0090650Y0170010D01*
X0090650Y0169512D02*
X0092150Y0169512D01*
X0092150Y0169013D02*
X0090650Y0169013D01*
X0090650Y0168515D02*
X0092150Y0168515D01*
X0092150Y0168016D02*
X0090650Y0168016D01*
X0090650Y0167518D02*
X0092150Y0167518D01*
X0092206Y0167019D02*
X0090594Y0167019D01*
X0090387Y0166521D02*
X0092413Y0166521D01*
X0092619Y0166022D02*
X0090181Y0166022D01*
X0089934Y0165524D02*
X0092866Y0165524D01*
X0093364Y0165025D02*
X0089436Y0165025D01*
X0088937Y0164527D02*
X0093863Y0164527D01*
X0094883Y0164028D02*
X0087917Y0164028D01*
X0084883Y0164028D02*
X0077917Y0164028D01*
X0077245Y0163750D02*
X0078807Y0164397D01*
X0080003Y0165593D01*
X0080650Y0167155D01*
X0080650Y0174845D01*
X0080003Y0176407D01*
X0078807Y0177603D01*
X0077245Y0178250D01*
X0075555Y0178250D01*
X0073993Y0177603D01*
X0072797Y0176407D01*
X0072150Y0174845D01*
X0072150Y0167155D01*
X0072797Y0165593D01*
X0073993Y0164397D01*
X0075555Y0163750D01*
X0077245Y0163750D01*
X0078937Y0164527D02*
X0083863Y0164527D01*
X0083364Y0165025D02*
X0079436Y0165025D01*
X0079934Y0165524D02*
X0082866Y0165524D01*
X0082619Y0166022D02*
X0080181Y0166022D01*
X0080387Y0166521D02*
X0082413Y0166521D01*
X0082206Y0167019D02*
X0080594Y0167019D01*
X0080650Y0167518D02*
X0082150Y0167518D01*
X0082150Y0168016D02*
X0080650Y0168016D01*
X0080650Y0168515D02*
X0082150Y0168515D01*
X0082150Y0169013D02*
X0080650Y0169013D01*
X0080650Y0169512D02*
X0082150Y0169512D01*
X0082150Y0170010D02*
X0080650Y0170010D01*
X0080650Y0170509D02*
X0082150Y0170509D01*
X0082150Y0171007D02*
X0080650Y0171007D01*
X0080650Y0171506D02*
X0082150Y0171506D01*
X0082150Y0172004D02*
X0080650Y0172004D01*
X0080650Y0172503D02*
X0082150Y0172503D01*
X0082150Y0173001D02*
X0080650Y0173001D01*
X0080650Y0173500D02*
X0082150Y0173500D01*
X0082150Y0173998D02*
X0080650Y0173998D01*
X0080650Y0174497D02*
X0082150Y0174497D01*
X0082212Y0174995D02*
X0080588Y0174995D01*
X0080381Y0175494D02*
X0082419Y0175494D01*
X0082625Y0175992D02*
X0080175Y0175992D01*
X0079920Y0176491D02*
X0082880Y0176491D01*
X0083379Y0176989D02*
X0079421Y0176989D01*
X0078922Y0177488D02*
X0083877Y0177488D01*
X0084918Y0177986D02*
X0077882Y0177986D01*
X0074918Y0177986D02*
X0003618Y0177986D01*
X0003618Y0177488D02*
X0073877Y0177488D01*
X0073379Y0176989D02*
X0003618Y0176989D01*
X0003618Y0176491D02*
X0072880Y0176491D01*
X0072625Y0175992D02*
X0003618Y0175992D01*
X0003618Y0175494D02*
X0072419Y0175494D01*
X0072212Y0174995D02*
X0003618Y0174995D01*
X0003618Y0174497D02*
X0072150Y0174497D01*
X0072150Y0173998D02*
X0003618Y0173998D01*
X0003618Y0173500D02*
X0072150Y0173500D01*
X0072150Y0173001D02*
X0003618Y0173001D01*
X0003618Y0172503D02*
X0072150Y0172503D01*
X0072150Y0172004D02*
X0003618Y0172004D01*
X0003618Y0171506D02*
X0018202Y0171506D01*
X0019391Y0171998D02*
X0016260Y0170701D01*
X0013864Y0168305D01*
X0012567Y0165175D01*
X0012567Y0161786D01*
X0013864Y0158655D01*
X0016260Y0156259D01*
X0019391Y0154963D01*
X0022779Y0154963D01*
X0025910Y0156259D01*
X0028306Y0158655D01*
X0029603Y0161786D01*
X0029603Y0165175D01*
X0028306Y0168305D01*
X0025910Y0170701D01*
X0022779Y0171998D01*
X0019391Y0171998D01*
X0016999Y0171007D02*
X0003618Y0171007D01*
X0003618Y0170509D02*
X0016068Y0170509D01*
X0015569Y0170010D02*
X0003618Y0170010D01*
X0003618Y0169512D02*
X0015071Y0169512D01*
X0014572Y0169013D02*
X0003618Y0169013D01*
X0003618Y0168515D02*
X0014074Y0168515D01*
X0013744Y0168016D02*
X0003618Y0168016D01*
X0003618Y0167518D02*
X0013538Y0167518D01*
X0013331Y0167019D02*
X0003618Y0167019D01*
X0003618Y0166521D02*
X0013125Y0166521D01*
X0012918Y0166022D02*
X0003618Y0166022D01*
X0003618Y0165524D02*
X0012712Y0165524D01*
X0012567Y0165025D02*
X0003618Y0165025D01*
X0003618Y0164527D02*
X0012567Y0164527D01*
X0012567Y0164028D02*
X0003618Y0164028D01*
X0003618Y0163530D02*
X0012567Y0163530D01*
X0012567Y0163031D02*
X0003618Y0163031D01*
X0003618Y0162533D02*
X0012567Y0162533D01*
X0012567Y0162034D02*
X0003618Y0162034D01*
X0003618Y0161536D02*
X0012671Y0161536D01*
X0012878Y0161037D02*
X0003618Y0161037D01*
X0003618Y0160539D02*
X0013084Y0160539D01*
X0013291Y0160040D02*
X0003618Y0160040D01*
X0003618Y0159541D02*
X0013497Y0159541D01*
X0013704Y0159043D02*
X0003618Y0159043D01*
X0003618Y0158544D02*
X0013975Y0158544D01*
X0014474Y0158046D02*
X0003618Y0158046D01*
X0003618Y0157547D02*
X0014972Y0157547D01*
X0015471Y0157049D02*
X0003618Y0157049D01*
X0003618Y0156550D02*
X0015969Y0156550D01*
X0016761Y0156052D02*
X0003618Y0156052D01*
X0003618Y0155553D02*
X0017964Y0155553D01*
X0019168Y0155055D02*
X0003618Y0155055D01*
X0003618Y0154556D02*
X0029795Y0154556D01*
X0029888Y0154650D02*
X0027750Y0152512D01*
X0027750Y0149488D01*
X0029650Y0147588D01*
X0029650Y0113725D01*
X0016675Y0100750D01*
X0015650Y0099725D01*
X0015650Y0079275D01*
X0020768Y0074157D01*
X0020622Y0073804D01*
X0020622Y0072054D01*
X0021292Y0070437D01*
X0022530Y0069199D01*
X0023650Y0068735D01*
X0023650Y0063275D01*
X0025344Y0061581D01*
X0025272Y0061581D01*
X0025272Y0057431D01*
X0029422Y0057431D01*
X0029422Y0057503D01*
X0035650Y0051275D01*
X0035650Y0039275D01*
X0037750Y0037175D01*
X0037750Y0034488D01*
X0039888Y0032350D01*
X0042912Y0032350D01*
X0045050Y0034488D01*
X0045050Y0037512D01*
X0042912Y0039650D01*
X0040225Y0039650D01*
X0039150Y0040725D01*
X0039150Y0048088D01*
X0039888Y0047350D01*
X0042912Y0047350D01*
X0045050Y0049488D01*
X0045050Y0052512D01*
X0043150Y0054412D01*
X0043150Y0069088D01*
X0044888Y0067350D01*
X0047912Y0067350D01*
X0049812Y0069250D01*
X0052650Y0069250D01*
X0052204Y0068804D01*
X0051450Y0066985D01*
X0051450Y0065015D01*
X0052204Y0063196D01*
X0053596Y0061804D01*
X0055415Y0061050D01*
X0057385Y0061050D01*
X0059204Y0061804D01*
X0060596Y0063196D01*
X0061033Y0064250D01*
X0067445Y0064250D01*
X0066992Y0064062D01*
X0065976Y0063046D01*
X0065426Y0061719D01*
X0065426Y0060281D01*
X0065976Y0058954D01*
X0066992Y0057938D01*
X0068319Y0057388D01*
X0074481Y0057388D01*
X0075808Y0057938D01*
X0076824Y0058954D01*
X0077374Y0060281D01*
X0077374Y0061719D01*
X0076824Y0063046D01*
X0075808Y0064062D01*
X0075355Y0064250D01*
X0098125Y0064250D01*
X0099150Y0065275D01*
X0125426Y0091551D01*
X0125426Y0090281D01*
X0125976Y0088954D01*
X0126992Y0087938D01*
X0128319Y0087388D01*
X0134481Y0087388D01*
X0135808Y0087938D01*
X0136824Y0088954D01*
X0137374Y0090281D01*
X0137374Y0091719D01*
X0136824Y0093046D01*
X0136621Y0093250D01*
X0137125Y0093250D01*
X0138150Y0094275D01*
X0150125Y0106250D01*
X0151056Y0106250D01*
X0151213Y0105870D01*
X0152451Y0104632D01*
X0154068Y0103963D01*
X0155818Y0103963D01*
X0157435Y0104632D01*
X0157650Y0104847D01*
X0157650Y0061725D01*
X0152450Y0056525D01*
X0152450Y0056726D01*
X0151894Y0058068D01*
X0150868Y0059094D01*
X0149526Y0059650D01*
X0143274Y0059650D01*
X0141932Y0059094D01*
X0140906Y0058068D01*
X0140350Y0056726D01*
X0140350Y0055274D01*
X0140906Y0053932D01*
X0141932Y0052906D01*
X0143274Y0052350D01*
X0148275Y0052350D01*
X0145575Y0049650D01*
X0143274Y0049650D01*
X0141932Y0049094D01*
X0140906Y0048068D01*
X0140350Y0046726D01*
X0140350Y0045274D01*
X0140906Y0043932D01*
X0141932Y0042906D01*
X0143274Y0042350D01*
X0149526Y0042350D01*
X0150868Y0042906D01*
X0151894Y0043932D01*
X0152450Y0045274D01*
X0152450Y0046726D01*
X0151894Y0048068D01*
X0150868Y0049094D01*
X0150232Y0049357D01*
X0160125Y0059250D01*
X0161150Y0060275D01*
X0161150Y0083688D01*
X0161932Y0082906D01*
X0163274Y0082350D01*
X0169526Y0082350D01*
X0170868Y0082906D01*
X0171894Y0083932D01*
X0172450Y0085274D01*
X0172450Y0086726D01*
X0171894Y0088068D01*
X0170868Y0089094D01*
X0169526Y0089650D01*
X0163274Y0089650D01*
X0161932Y0089094D01*
X0161150Y0088312D01*
X0161150Y0105275D01*
X0162150Y0106275D01*
X0162150Y0134725D01*
X0158918Y0137957D01*
X0159343Y0138983D01*
X0159343Y0140733D01*
X0158673Y0142350D01*
X0157435Y0143588D01*
X0155818Y0144258D01*
X0154068Y0144258D01*
X0152451Y0143588D01*
X0151213Y0142350D01*
X0150544Y0140733D01*
X0150544Y0138983D01*
X0151213Y0137366D01*
X0152451Y0136128D01*
X0152951Y0135921D01*
X0152451Y0135714D01*
X0151213Y0134476D01*
X0150544Y0132859D01*
X0150544Y0131109D01*
X0151213Y0129492D01*
X0152451Y0128254D01*
X0154068Y0127585D01*
X0155818Y0127585D01*
X0157435Y0128254D01*
X0158650Y0129469D01*
X0158650Y0118751D01*
X0157435Y0119966D01*
X0155818Y0120636D01*
X0154068Y0120636D01*
X0152451Y0119966D01*
X0151213Y0118728D01*
X0150544Y0117111D01*
X0150544Y0115361D01*
X0150761Y0114836D01*
X0137374Y0101449D01*
X0137374Y0101719D01*
X0136824Y0103046D01*
X0135808Y0104062D01*
X0134481Y0104612D01*
X0128319Y0104612D01*
X0126992Y0104062D01*
X0125976Y0103046D01*
X0125426Y0101719D01*
X0125426Y0100281D01*
X0125976Y0098954D01*
X0126179Y0098750D01*
X0124675Y0098750D01*
X0123650Y0097725D01*
X0122374Y0096449D01*
X0122374Y0096719D01*
X0121824Y0098046D01*
X0120808Y0099062D01*
X0119481Y0099612D01*
X0113319Y0099612D01*
X0111992Y0099062D01*
X0110976Y0098046D01*
X0110426Y0096719D01*
X0110426Y0095281D01*
X0110976Y0093954D01*
X0111992Y0092938D01*
X0113319Y0092388D01*
X0118313Y0092388D01*
X0102675Y0076750D01*
X0077625Y0076750D01*
X0114125Y0113250D01*
X0126179Y0113250D01*
X0125976Y0113046D01*
X0125426Y0111719D01*
X0125426Y0110281D01*
X0125976Y0108954D01*
X0126992Y0107938D01*
X0128319Y0107388D01*
X0134481Y0107388D01*
X0135808Y0107938D01*
X0136824Y0108954D01*
X0137374Y0110281D01*
X0137374Y0111719D01*
X0136824Y0113046D01*
X0135808Y0114062D01*
X0135192Y0114317D01*
X0140150Y0119275D01*
X0140150Y0132725D01*
X0139125Y0133750D01*
X0135192Y0137683D01*
X0135808Y0137938D01*
X0136824Y0138954D01*
X0137374Y0140281D01*
X0137374Y0141719D01*
X0136824Y0143046D01*
X0135808Y0144062D01*
X0134481Y0144612D01*
X0128319Y0144612D01*
X0126992Y0144062D01*
X0125976Y0143046D01*
X0125426Y0141719D01*
X0125426Y0140281D01*
X0125976Y0138954D01*
X0126992Y0137938D01*
X0128319Y0137388D01*
X0130537Y0137388D01*
X0133313Y0134612D01*
X0131650Y0134612D01*
X0131650Y0131250D01*
X0131150Y0131250D01*
X0131150Y0134612D01*
X0128682Y0134612D01*
X0127984Y0134473D01*
X0127327Y0134201D01*
X0126735Y0133806D01*
X0126232Y0133303D01*
X0125837Y0132711D01*
X0125564Y0132054D01*
X0125426Y0131356D01*
X0125426Y0131250D01*
X0131150Y0131250D01*
X0131150Y0130750D01*
X0131650Y0130750D01*
X0131650Y0127388D01*
X0134118Y0127388D01*
X0134816Y0127527D01*
X0135473Y0127799D01*
X0136065Y0128194D01*
X0136568Y0128697D01*
X0136650Y0128820D01*
X0136650Y0123221D01*
X0135808Y0124062D01*
X0134481Y0124612D01*
X0128319Y0124612D01*
X0126992Y0124062D01*
X0125976Y0123046D01*
X0125853Y0122750D01*
X0076947Y0122750D01*
X0076824Y0123046D01*
X0075808Y0124062D01*
X0074481Y0124612D01*
X0068319Y0124612D01*
X0066992Y0124062D01*
X0065976Y0123046D01*
X0065426Y0121719D01*
X0065426Y0120281D01*
X0065976Y0118954D01*
X0066927Y0118002D01*
X0059850Y0110925D01*
X0059850Y0111726D01*
X0059294Y0113068D01*
X0058268Y0114094D01*
X0056926Y0114650D01*
X0050674Y0114650D01*
X0049332Y0114094D01*
X0048306Y0113068D01*
X0047750Y0111726D01*
X0047750Y0110274D01*
X0048306Y0108932D01*
X0048488Y0108750D01*
X0045675Y0108750D01*
X0044650Y0107725D01*
X0028423Y0091498D01*
X0027514Y0092407D01*
X0027014Y0092614D01*
X0027514Y0092821D01*
X0028752Y0094059D01*
X0029422Y0095676D01*
X0029422Y0097426D01*
X0028752Y0099043D01*
X0027514Y0100281D01*
X0025897Y0100951D01*
X0024147Y0100951D01*
X0022530Y0100281D01*
X0021292Y0099043D01*
X0020622Y0097426D01*
X0020622Y0095676D01*
X0021292Y0094059D01*
X0022530Y0092821D01*
X0023030Y0092614D01*
X0022530Y0092407D01*
X0021292Y0091169D01*
X0020622Y0089552D01*
X0020622Y0087802D01*
X0021292Y0086185D01*
X0022530Y0084947D01*
X0023045Y0084734D01*
X0022716Y0084566D01*
X0022156Y0084159D01*
X0021666Y0083669D01*
X0021259Y0083109D01*
X0020945Y0082492D01*
X0020731Y0081833D01*
X0020622Y0081149D01*
X0020622Y0081053D01*
X0024772Y0081053D01*
X0024772Y0080553D01*
X0020622Y0080553D01*
X0020622Y0080457D01*
X0020731Y0079773D01*
X0020945Y0079114D01*
X0021136Y0078739D01*
X0019150Y0080725D01*
X0019150Y0098275D01*
X0033150Y0112275D01*
X0033150Y0147588D01*
X0035050Y0149488D01*
X0035050Y0152512D01*
X0032912Y0154650D01*
X0029888Y0154650D01*
X0029296Y0154058D02*
X0003618Y0154058D01*
X0003618Y0153559D02*
X0028797Y0153559D01*
X0028299Y0153061D02*
X0003618Y0153061D01*
X0003618Y0152562D02*
X0027800Y0152562D01*
X0027750Y0152064D02*
X0003618Y0152064D01*
X0003618Y0151565D02*
X0027750Y0151565D01*
X0027750Y0151067D02*
X0003618Y0151067D01*
X0003618Y0150568D02*
X0027750Y0150568D01*
X0027750Y0150070D02*
X0003618Y0150070D01*
X0003618Y0149571D02*
X0027750Y0149571D01*
X0028165Y0149073D02*
X0003618Y0149073D01*
X0003618Y0148574D02*
X0028664Y0148574D01*
X0029162Y0148076D02*
X0003618Y0148076D01*
X0003618Y0147577D02*
X0029650Y0147577D01*
X0029650Y0147079D02*
X0003618Y0147079D01*
X0003618Y0146580D02*
X0029650Y0146580D01*
X0029650Y0146082D02*
X0003618Y0146082D01*
X0003618Y0145583D02*
X0029650Y0145583D01*
X0029650Y0145085D02*
X0003618Y0145085D01*
X0003618Y0144586D02*
X0015720Y0144586D01*
X0015874Y0144650D02*
X0014532Y0144094D01*
X0013506Y0143068D01*
X0012950Y0141726D01*
X0012950Y0140274D01*
X0013506Y0138932D01*
X0014532Y0137906D01*
X0015874Y0137350D01*
X0022126Y0137350D01*
X0023468Y0137906D01*
X0024494Y0138932D01*
X0025050Y0140274D01*
X0025050Y0141726D01*
X0024494Y0143068D01*
X0023468Y0144094D01*
X0022126Y0144650D01*
X0015874Y0144650D01*
X0014526Y0144088D02*
X0003618Y0144088D01*
X0003618Y0143589D02*
X0014027Y0143589D01*
X0013529Y0143091D02*
X0003618Y0143091D01*
X0003618Y0142592D02*
X0013309Y0142592D01*
X0013102Y0142094D02*
X0003618Y0142094D01*
X0003618Y0141595D02*
X0012950Y0141595D01*
X0012950Y0141097D02*
X0003618Y0141097D01*
X0003618Y0140598D02*
X0012950Y0140598D01*
X0013022Y0140100D02*
X0003618Y0140100D01*
X0003618Y0139601D02*
X0013229Y0139601D01*
X0013435Y0139103D02*
X0003618Y0139103D01*
X0003618Y0138604D02*
X0013834Y0138604D01*
X0014333Y0138105D02*
X0003618Y0138105D01*
X0003618Y0137607D02*
X0015254Y0137607D01*
X0015874Y0134650D02*
X0014532Y0134094D01*
X0013506Y0133068D01*
X0012950Y0131726D01*
X0012950Y0130274D01*
X0013506Y0128932D01*
X0014532Y0127906D01*
X0015874Y0127350D01*
X0022126Y0127350D01*
X0023468Y0127906D01*
X0024494Y0128932D01*
X0025050Y0130274D01*
X0025050Y0131726D01*
X0024494Y0133068D01*
X0023468Y0134094D01*
X0022126Y0134650D01*
X0015874Y0134650D01*
X0015792Y0134616D02*
X0003618Y0134616D01*
X0003618Y0135114D02*
X0029650Y0135114D01*
X0029650Y0134616D02*
X0022208Y0134616D01*
X0023412Y0134117D02*
X0029650Y0134117D01*
X0029650Y0133619D02*
X0023943Y0133619D01*
X0024441Y0133120D02*
X0029650Y0133120D01*
X0029650Y0132622D02*
X0024679Y0132622D01*
X0024885Y0132123D02*
X0029650Y0132123D01*
X0029650Y0131625D02*
X0025050Y0131625D01*
X0025050Y0131126D02*
X0029650Y0131126D01*
X0029650Y0130628D02*
X0025050Y0130628D01*
X0024990Y0130129D02*
X0029650Y0130129D01*
X0029650Y0129631D02*
X0024784Y0129631D01*
X0024577Y0129132D02*
X0029650Y0129132D01*
X0029650Y0128634D02*
X0024196Y0128634D01*
X0023697Y0128135D02*
X0029650Y0128135D01*
X0029650Y0127637D02*
X0022818Y0127637D01*
X0022126Y0124650D02*
X0015874Y0124650D01*
X0014532Y0124094D01*
X0013506Y0123068D01*
X0012950Y0121726D01*
X0012950Y0120274D01*
X0013506Y0118932D01*
X0014532Y0117906D01*
X0015874Y0117350D01*
X0022126Y0117350D01*
X0023468Y0117906D01*
X0024494Y0118932D01*
X0025050Y0120274D01*
X0025050Y0121726D01*
X0024494Y0123068D01*
X0023468Y0124094D01*
X0022126Y0124650D01*
X0022136Y0124646D02*
X0029650Y0124646D01*
X0029650Y0125144D02*
X0003618Y0125144D01*
X0003618Y0124646D02*
X0015864Y0124646D01*
X0014660Y0124147D02*
X0003618Y0124147D01*
X0003618Y0123649D02*
X0014087Y0123649D01*
X0013588Y0123150D02*
X0003618Y0123150D01*
X0003618Y0122652D02*
X0013333Y0122652D01*
X0013127Y0122153D02*
X0003618Y0122153D01*
X0003618Y0121655D02*
X0012950Y0121655D01*
X0012950Y0121156D02*
X0003618Y0121156D01*
X0003618Y0120658D02*
X0012950Y0120658D01*
X0012998Y0120159D02*
X0003618Y0120159D01*
X0003618Y0119661D02*
X0013204Y0119661D01*
X0013411Y0119162D02*
X0003618Y0119162D01*
X0003618Y0118664D02*
X0013775Y0118664D01*
X0014273Y0118165D02*
X0003618Y0118165D01*
X0003618Y0117667D02*
X0015110Y0117667D01*
X0015874Y0114650D02*
X0014532Y0114094D01*
X0013506Y0113068D01*
X0012950Y0111726D01*
X0012950Y0110274D01*
X0013506Y0108932D01*
X0014532Y0107906D01*
X0015874Y0107350D01*
X0022126Y0107350D01*
X0023468Y0107906D01*
X0024494Y0108932D01*
X0025050Y0110274D01*
X0025050Y0111726D01*
X0024494Y0113068D01*
X0023468Y0114094D01*
X0022126Y0114650D01*
X0015874Y0114650D01*
X0014732Y0114177D02*
X0003618Y0114177D01*
X0003618Y0114675D02*
X0029650Y0114675D01*
X0029650Y0114177D02*
X0023268Y0114177D01*
X0023883Y0113678D02*
X0029604Y0113678D01*
X0029105Y0113180D02*
X0024382Y0113180D01*
X0024654Y0112681D02*
X0028607Y0112681D01*
X0028108Y0112183D02*
X0024861Y0112183D01*
X0025050Y0111684D02*
X0027610Y0111684D01*
X0027111Y0111186D02*
X0025050Y0111186D01*
X0025050Y0110687D02*
X0026613Y0110687D01*
X0026114Y0110189D02*
X0025015Y0110189D01*
X0024808Y0109690D02*
X0025615Y0109690D01*
X0025117Y0109192D02*
X0024602Y0109192D01*
X0024618Y0108693D02*
X0024255Y0108693D01*
X0024120Y0108195D02*
X0023757Y0108195D01*
X0023621Y0107696D02*
X0022962Y0107696D01*
X0023123Y0107198D02*
X0003618Y0107198D01*
X0003618Y0107696D02*
X0015038Y0107696D01*
X0014243Y0108195D02*
X0003618Y0108195D01*
X0003618Y0108693D02*
X0013745Y0108693D01*
X0013398Y0109192D02*
X0003618Y0109192D01*
X0003618Y0109690D02*
X0013192Y0109690D01*
X0012985Y0110189D02*
X0003618Y0110189D01*
X0003618Y0110687D02*
X0012950Y0110687D01*
X0012950Y0111186D02*
X0003618Y0111186D01*
X0003618Y0111684D02*
X0012950Y0111684D01*
X0013139Y0112183D02*
X0003618Y0112183D01*
X0003618Y0112681D02*
X0013346Y0112681D01*
X0013618Y0113180D02*
X0003618Y0113180D01*
X0003618Y0113678D02*
X0014117Y0113678D01*
X0021129Y0105204D02*
X0003618Y0105204D01*
X0003618Y0105702D02*
X0021627Y0105702D01*
X0022126Y0106201D02*
X0003618Y0106201D01*
X0003618Y0106699D02*
X0022624Y0106699D01*
X0020630Y0104705D02*
X0003618Y0104705D01*
X0003618Y0104207D02*
X0020132Y0104207D01*
X0019633Y0103708D02*
X0003618Y0103708D01*
X0003618Y0103210D02*
X0019135Y0103210D01*
X0018636Y0102711D02*
X0003618Y0102711D01*
X0003618Y0102213D02*
X0018138Y0102213D01*
X0017639Y0101714D02*
X0003618Y0101714D01*
X0003618Y0101216D02*
X0017141Y0101216D01*
X0016642Y0100717D02*
X0003618Y0100717D01*
X0003618Y0100219D02*
X0016144Y0100219D01*
X0015650Y0099720D02*
X0003618Y0099720D01*
X0003618Y0099222D02*
X0015650Y0099222D01*
X0015650Y0098723D02*
X0003618Y0098723D01*
X0003618Y0098225D02*
X0015650Y0098225D01*
X0015650Y0097726D02*
X0003618Y0097726D01*
X0003618Y0097228D02*
X0015650Y0097228D01*
X0015650Y0096729D02*
X0003618Y0096729D01*
X0003618Y0096231D02*
X0015650Y0096231D01*
X0015650Y0095732D02*
X0003618Y0095732D01*
X0003618Y0095234D02*
X0015650Y0095234D01*
X0015650Y0094735D02*
X0003618Y0094735D01*
X0003618Y0094237D02*
X0015650Y0094237D01*
X0015650Y0093738D02*
X0003618Y0093738D01*
X0003618Y0093239D02*
X0015650Y0093239D01*
X0015650Y0092741D02*
X0003618Y0092741D01*
X0003618Y0092242D02*
X0015650Y0092242D01*
X0015650Y0091744D02*
X0003618Y0091744D01*
X0003618Y0091245D02*
X0015650Y0091245D01*
X0015650Y0090747D02*
X0003618Y0090747D01*
X0003618Y0090248D02*
X0015650Y0090248D01*
X0015650Y0089750D02*
X0003618Y0089750D01*
X0003618Y0089251D02*
X0015650Y0089251D01*
X0015650Y0088753D02*
X0003618Y0088753D01*
X0003618Y0088254D02*
X0015650Y0088254D01*
X0015650Y0087756D02*
X0003618Y0087756D01*
X0003618Y0087257D02*
X0015650Y0087257D01*
X0015650Y0086759D02*
X0003618Y0086759D01*
X0003618Y0086260D02*
X0015650Y0086260D01*
X0015650Y0085762D02*
X0003618Y0085762D01*
X0003618Y0085263D02*
X0015650Y0085263D01*
X0015650Y0084765D02*
X0003618Y0084765D01*
X0003618Y0084266D02*
X0015650Y0084266D01*
X0015650Y0083768D02*
X0003618Y0083768D01*
X0003618Y0083269D02*
X0015650Y0083269D01*
X0015650Y0082771D02*
X0003618Y0082771D01*
X0003618Y0082272D02*
X0015650Y0082272D01*
X0015650Y0081774D02*
X0003618Y0081774D01*
X0003618Y0081275D02*
X0015650Y0081275D01*
X0015650Y0080777D02*
X0003618Y0080777D01*
X0003618Y0080278D02*
X0015650Y0080278D01*
X0015650Y0079780D02*
X0003618Y0079780D01*
X0003618Y0079281D02*
X0015650Y0079281D01*
X0016142Y0078783D02*
X0003618Y0078783D01*
X0003618Y0078284D02*
X0016641Y0078284D01*
X0017139Y0077786D02*
X0003618Y0077786D01*
X0003618Y0077287D02*
X0017638Y0077287D01*
X0018137Y0076789D02*
X0003618Y0076789D01*
X0003618Y0076290D02*
X0018635Y0076290D01*
X0019134Y0075792D02*
X0003618Y0075792D01*
X0003618Y0075293D02*
X0019632Y0075293D01*
X0020131Y0074795D02*
X0003618Y0074795D01*
X0003618Y0074296D02*
X0020629Y0074296D01*
X0020622Y0073798D02*
X0003618Y0073798D01*
X0003618Y0073299D02*
X0020622Y0073299D01*
X0020622Y0072801D02*
X0003618Y0072801D01*
X0003618Y0072302D02*
X0020622Y0072302D01*
X0020726Y0071803D02*
X0003618Y0071803D01*
X0003618Y0071305D02*
X0020933Y0071305D01*
X0021139Y0070806D02*
X0003618Y0070806D01*
X0003618Y0070308D02*
X0021421Y0070308D01*
X0021920Y0069809D02*
X0003618Y0069809D01*
X0003618Y0069311D02*
X0022418Y0069311D01*
X0023464Y0068812D02*
X0003618Y0068812D01*
X0003618Y0068314D02*
X0023650Y0068314D01*
X0023650Y0067815D02*
X0003618Y0067815D01*
X0003618Y0067317D02*
X0023650Y0067317D01*
X0023650Y0066818D02*
X0003618Y0066818D01*
X0003618Y0066320D02*
X0023650Y0066320D01*
X0023650Y0065821D02*
X0003618Y0065821D01*
X0003618Y0065323D02*
X0023650Y0065323D01*
X0023650Y0064824D02*
X0003618Y0064824D01*
X0003618Y0064326D02*
X0023650Y0064326D01*
X0023650Y0063827D02*
X0003618Y0063827D01*
X0003618Y0063329D02*
X0023650Y0063329D01*
X0024095Y0062830D02*
X0003618Y0062830D01*
X0003618Y0062332D02*
X0024593Y0062332D01*
X0025092Y0061833D02*
X0003618Y0061833D01*
X0003618Y0061335D02*
X0023568Y0061335D01*
X0023333Y0061258D02*
X0023992Y0061472D01*
X0024676Y0061581D01*
X0024772Y0061581D01*
X0024772Y0057431D01*
X0024772Y0056931D01*
X0020622Y0056931D01*
X0020622Y0056835D01*
X0020731Y0056151D01*
X0020945Y0055492D01*
X0021259Y0054875D01*
X0021666Y0054315D01*
X0022156Y0053825D01*
X0022716Y0053418D01*
X0023045Y0053250D01*
X0022530Y0053037D01*
X0021292Y0051799D01*
X0020622Y0050182D01*
X0020622Y0048432D01*
X0021292Y0046815D01*
X0022530Y0045577D01*
X0024147Y0044907D01*
X0025897Y0044907D01*
X0027514Y0045577D01*
X0028752Y0046815D01*
X0029422Y0048432D01*
X0029422Y0050182D01*
X0028752Y0051799D01*
X0027514Y0053037D01*
X0026999Y0053250D01*
X0027328Y0053418D01*
X0027888Y0053825D01*
X0028378Y0054315D01*
X0028785Y0054875D01*
X0029099Y0055492D01*
X0029313Y0056151D01*
X0029422Y0056835D01*
X0029422Y0056931D01*
X0025272Y0056931D01*
X0025272Y0057431D01*
X0024772Y0057431D01*
X0020622Y0057431D01*
X0020622Y0057527D01*
X0020731Y0058211D01*
X0020945Y0058870D01*
X0021259Y0059487D01*
X0021666Y0060047D01*
X0022156Y0060537D01*
X0022716Y0060944D01*
X0023333Y0061258D01*
X0022568Y0060836D02*
X0003618Y0060836D01*
X0003618Y0060338D02*
X0021957Y0060338D01*
X0021515Y0059839D02*
X0003618Y0059839D01*
X0003618Y0059341D02*
X0021185Y0059341D01*
X0020936Y0058842D02*
X0003618Y0058842D01*
X0003618Y0058344D02*
X0020774Y0058344D01*
X0020673Y0057845D02*
X0003618Y0057845D01*
X0003618Y0057347D02*
X0024772Y0057347D01*
X0024772Y0057845D02*
X0025272Y0057845D01*
X0025272Y0057347D02*
X0029578Y0057347D01*
X0029422Y0056848D02*
X0030077Y0056848D01*
X0030575Y0056350D02*
X0029345Y0056350D01*
X0029216Y0055851D02*
X0031074Y0055851D01*
X0031573Y0055353D02*
X0029028Y0055353D01*
X0028770Y0054854D02*
X0032071Y0054854D01*
X0032570Y0054356D02*
X0028407Y0054356D01*
X0027920Y0053857D02*
X0033068Y0053857D01*
X0033567Y0053359D02*
X0027211Y0053359D01*
X0027691Y0052860D02*
X0034065Y0052860D01*
X0034564Y0052362D02*
X0028190Y0052362D01*
X0028688Y0051863D02*
X0035062Y0051863D01*
X0035561Y0051365D02*
X0028932Y0051365D01*
X0029138Y0050866D02*
X0035650Y0050866D01*
X0035650Y0050368D02*
X0029345Y0050368D01*
X0029422Y0049869D02*
X0035650Y0049869D01*
X0035650Y0049370D02*
X0029422Y0049370D01*
X0029422Y0048872D02*
X0035650Y0048872D01*
X0035650Y0048373D02*
X0029397Y0048373D01*
X0029191Y0047875D02*
X0035650Y0047875D01*
X0035650Y0047376D02*
X0028984Y0047376D01*
X0028778Y0046878D02*
X0035650Y0046878D01*
X0035650Y0046379D02*
X0028316Y0046379D01*
X0027818Y0045881D02*
X0035650Y0045881D01*
X0035650Y0045382D02*
X0027044Y0045382D01*
X0023000Y0045382D02*
X0003618Y0045382D01*
X0003618Y0044884D02*
X0035650Y0044884D01*
X0035650Y0044385D02*
X0003618Y0044385D01*
X0003618Y0043887D02*
X0035650Y0043887D01*
X0035650Y0043388D02*
X0003618Y0043388D01*
X0003618Y0042890D02*
X0035650Y0042890D01*
X0035650Y0042391D02*
X0003618Y0042391D01*
X0003618Y0041893D02*
X0035650Y0041893D01*
X0035650Y0041394D02*
X0003618Y0041394D01*
X0003618Y0040896D02*
X0035650Y0040896D01*
X0035650Y0040397D02*
X0003618Y0040397D01*
X0003618Y0039899D02*
X0035650Y0039899D01*
X0035650Y0039400D02*
X0003618Y0039400D01*
X0003618Y0038902D02*
X0036023Y0038902D01*
X0036522Y0038403D02*
X0003618Y0038403D01*
X0003618Y0037905D02*
X0037020Y0037905D01*
X0037519Y0037406D02*
X0003618Y0037406D01*
X0003618Y0036908D02*
X0037750Y0036908D01*
X0037750Y0036409D02*
X0003618Y0036409D01*
X0003618Y0035911D02*
X0037750Y0035911D01*
X0037750Y0035412D02*
X0003618Y0035412D01*
X0003618Y0034914D02*
X0037750Y0034914D01*
X0037823Y0034415D02*
X0003618Y0034415D01*
X0003618Y0033917D02*
X0018700Y0033917D01*
X0019391Y0034203D02*
X0016260Y0032906D01*
X0013864Y0030510D01*
X0012567Y0027379D01*
X0012567Y0023991D01*
X0013864Y0020860D01*
X0016260Y0018464D01*
X0019391Y0017167D01*
X0022779Y0017167D01*
X0025910Y0018464D01*
X0028306Y0020860D01*
X0029603Y0023991D01*
X0029603Y0027379D01*
X0028306Y0030510D01*
X0025910Y0032906D01*
X0022779Y0034203D01*
X0019391Y0034203D01*
X0017497Y0033418D02*
X0003618Y0033418D01*
X0003618Y0032920D02*
X0016293Y0032920D01*
X0015775Y0032421D02*
X0003618Y0032421D01*
X0003618Y0031923D02*
X0015277Y0031923D01*
X0014778Y0031424D02*
X0003618Y0031424D01*
X0003618Y0030926D02*
X0014280Y0030926D01*
X0013830Y0030427D02*
X0003618Y0030427D01*
X0003618Y0029929D02*
X0013623Y0029929D01*
X0013417Y0029430D02*
X0003618Y0029430D01*
X0003618Y0028932D02*
X0013210Y0028932D01*
X0013004Y0028433D02*
X0003618Y0028433D01*
X0003618Y0027934D02*
X0012797Y0027934D01*
X0012591Y0027436D02*
X0003618Y0027436D01*
X0003618Y0026937D02*
X0012567Y0026937D01*
X0012567Y0026439D02*
X0003618Y0026439D01*
X0003618Y0025940D02*
X0012567Y0025940D01*
X0012567Y0025442D02*
X0003618Y0025442D01*
X0003618Y0024943D02*
X0012567Y0024943D01*
X0012567Y0024445D02*
X0003618Y0024445D01*
X0003618Y0023946D02*
X0012586Y0023946D01*
X0012792Y0023448D02*
X0003618Y0023448D01*
X0003618Y0022949D02*
X0012999Y0022949D01*
X0013205Y0022451D02*
X0003618Y0022451D01*
X0003618Y0021952D02*
X0013412Y0021952D01*
X0013618Y0021454D02*
X0003618Y0021454D01*
X0003618Y0020955D02*
X0013825Y0020955D01*
X0014267Y0020457D02*
X0003618Y0020457D01*
X0003618Y0019958D02*
X0014766Y0019958D01*
X0015264Y0019460D02*
X0003618Y0019460D01*
X0003618Y0018961D02*
X0015763Y0018961D01*
X0016263Y0018463D02*
X0003618Y0018463D01*
X0003618Y0017964D02*
X0017467Y0017964D01*
X0018670Y0017466D02*
X0003618Y0017466D01*
X0003618Y0016967D02*
X0031450Y0016967D01*
X0031450Y0016985D02*
X0031450Y0015015D01*
X0032204Y0013196D01*
X0033596Y0011804D01*
X0035415Y0011050D01*
X0037385Y0011050D01*
X0039204Y0011804D01*
X0040596Y0013196D01*
X0041350Y0015015D01*
X0041350Y0016985D01*
X0040596Y0018804D01*
X0039204Y0020196D01*
X0037385Y0020950D01*
X0035415Y0020950D01*
X0033596Y0020196D01*
X0032204Y0018804D01*
X0031450Y0016985D01*
X0031450Y0016469D02*
X0003618Y0016469D01*
X0003618Y0015970D02*
X0031450Y0015970D01*
X0031450Y0015472D02*
X0003618Y0015472D01*
X0003618Y0014973D02*
X0031467Y0014973D01*
X0031674Y0014475D02*
X0003618Y0014475D01*
X0003618Y0013976D02*
X0031880Y0013976D01*
X0032087Y0013478D02*
X0003618Y0013478D01*
X0003618Y0012979D02*
X0032420Y0012979D01*
X0032919Y0012481D02*
X0003618Y0012481D01*
X0003618Y0011982D02*
X0033418Y0011982D01*
X0034369Y0011484D02*
X0003618Y0011484D01*
X0003618Y0010985D02*
X0068940Y0010985D01*
X0069439Y0010487D02*
X0003618Y0010487D01*
X0003618Y0009988D02*
X0069937Y0009988D01*
X0070436Y0009490D02*
X0003618Y0009490D01*
X0003618Y0008991D02*
X0070934Y0008991D01*
X0071433Y0008493D02*
X0003618Y0008493D01*
X0023500Y0017466D02*
X0031649Y0017466D01*
X0031856Y0017964D02*
X0024703Y0017964D01*
X0025907Y0018463D02*
X0032062Y0018463D01*
X0032361Y0018961D02*
X0026407Y0018961D01*
X0026906Y0019460D02*
X0032859Y0019460D01*
X0033358Y0019958D02*
X0027404Y0019958D01*
X0027903Y0020457D02*
X0034225Y0020457D01*
X0038575Y0020457D02*
X0064225Y0020457D01*
X0063358Y0019958D02*
X0039442Y0019958D01*
X0039941Y0019460D02*
X0062859Y0019460D01*
X0062361Y0018961D02*
X0040439Y0018961D01*
X0040738Y0018463D02*
X0062062Y0018463D01*
X0061856Y0017964D02*
X0040944Y0017964D01*
X0041151Y0017466D02*
X0061649Y0017466D01*
X0061450Y0016967D02*
X0041350Y0016967D01*
X0041350Y0016469D02*
X0061450Y0016469D01*
X0061450Y0015970D02*
X0041350Y0015970D01*
X0041350Y0015472D02*
X0061450Y0015472D01*
X0061467Y0014973D02*
X0041333Y0014973D01*
X0041126Y0014475D02*
X0061674Y0014475D01*
X0061880Y0013976D02*
X0040920Y0013976D01*
X0040713Y0013478D02*
X0062087Y0013478D01*
X0062420Y0012979D02*
X0040380Y0012979D01*
X0039881Y0012481D02*
X0062919Y0012481D01*
X0063418Y0011982D02*
X0039382Y0011982D01*
X0038431Y0011484D02*
X0064369Y0011484D01*
X0068431Y0011484D02*
X0068441Y0011484D01*
X0070920Y0013976D02*
X0073262Y0013976D01*
X0073760Y0013478D02*
X0071397Y0013478D01*
X0071896Y0012979D02*
X0074259Y0012979D01*
X0074757Y0012481D02*
X0072394Y0012481D01*
X0072893Y0011982D02*
X0103119Y0011982D01*
X0102913Y0012481D02*
X0098043Y0012481D01*
X0097912Y0012350D02*
X0100050Y0014488D01*
X0100050Y0017512D01*
X0097912Y0019650D01*
X0094888Y0019650D01*
X0092750Y0017512D01*
X0092750Y0014488D01*
X0094888Y0012350D01*
X0097912Y0012350D01*
X0098541Y0012979D02*
X0102802Y0012979D01*
X0102750Y0013478D02*
X0099040Y0013478D01*
X0099538Y0013976D02*
X0102750Y0013976D01*
X0102750Y0014475D02*
X0100037Y0014475D01*
X0100050Y0014973D02*
X0102750Y0014973D01*
X0102750Y0015472D02*
X0100050Y0015472D01*
X0100050Y0015970D02*
X0106150Y0015970D01*
X0106150Y0016469D02*
X0106650Y0016469D01*
X0106650Y0016967D02*
X0106150Y0016967D01*
X0106150Y0017466D02*
X0106650Y0017466D01*
X0106650Y0017964D02*
X0106150Y0017964D01*
X0106150Y0018463D02*
X0106650Y0018463D01*
X0106650Y0018961D02*
X0106150Y0018961D01*
X0106150Y0019460D02*
X0106650Y0019460D01*
X0106650Y0019958D02*
X0106150Y0019958D01*
X0106150Y0020457D02*
X0106650Y0020457D01*
X0106650Y0020955D02*
X0106150Y0020955D01*
X0106150Y0021454D02*
X0106650Y0021454D01*
X0106650Y0021952D02*
X0106150Y0021952D01*
X0105550Y0021952D02*
X0028758Y0021952D01*
X0028552Y0021454D02*
X0104401Y0021454D01*
X0103793Y0020955D02*
X0028345Y0020955D01*
X0028965Y0022451D02*
X0151000Y0022451D01*
X0150794Y0022949D02*
X0029171Y0022949D01*
X0029378Y0023448D02*
X0150587Y0023448D01*
X0150381Y0023946D02*
X0029584Y0023946D01*
X0029603Y0024445D02*
X0150363Y0024445D01*
X0150363Y0023991D02*
X0151659Y0020860D01*
X0154055Y0018464D01*
X0157186Y0017167D01*
X0160575Y0017167D01*
X0163705Y0018464D01*
X0166101Y0020860D01*
X0167398Y0023991D01*
X0167398Y0027379D01*
X0166101Y0030510D01*
X0163705Y0032906D01*
X0160575Y0034203D01*
X0157186Y0034203D01*
X0154055Y0032906D01*
X0151659Y0030510D01*
X0150363Y0027379D01*
X0150363Y0023991D01*
X0150363Y0024943D02*
X0029603Y0024943D01*
X0029603Y0025442D02*
X0150363Y0025442D01*
X0150363Y0025940D02*
X0029603Y0025940D01*
X0029603Y0026439D02*
X0150363Y0026439D01*
X0150363Y0026937D02*
X0029603Y0026937D01*
X0029579Y0027436D02*
X0068203Y0027436D01*
X0068319Y0027388D02*
X0074481Y0027388D01*
X0075808Y0027938D01*
X0076824Y0028954D01*
X0077374Y0030281D01*
X0077374Y0031719D01*
X0076824Y0033046D01*
X0075808Y0034062D01*
X0074481Y0034612D01*
X0068319Y0034612D01*
X0066992Y0034062D01*
X0065976Y0033046D01*
X0065426Y0031719D01*
X0065426Y0030281D01*
X0065976Y0028954D01*
X0066992Y0027938D01*
X0068319Y0027388D01*
X0066999Y0027934D02*
X0029373Y0027934D01*
X0029166Y0028433D02*
X0066496Y0028433D01*
X0065998Y0028932D02*
X0028960Y0028932D01*
X0028753Y0029430D02*
X0065778Y0029430D01*
X0065572Y0029929D02*
X0028547Y0029929D01*
X0028340Y0030427D02*
X0065426Y0030427D01*
X0065426Y0030926D02*
X0027890Y0030926D01*
X0027392Y0031424D02*
X0065426Y0031424D01*
X0065510Y0031923D02*
X0026893Y0031923D01*
X0026395Y0032421D02*
X0039817Y0032421D01*
X0039319Y0032920D02*
X0025877Y0032920D01*
X0024674Y0033418D02*
X0038820Y0033418D01*
X0038321Y0033917D02*
X0023470Y0033917D01*
X0022226Y0045881D02*
X0003618Y0045881D01*
X0003618Y0046379D02*
X0021728Y0046379D01*
X0021266Y0046878D02*
X0003618Y0046878D01*
X0003618Y0047376D02*
X0021060Y0047376D01*
X0020853Y0047875D02*
X0003618Y0047875D01*
X0003618Y0048373D02*
X0020647Y0048373D01*
X0020622Y0048872D02*
X0003618Y0048872D01*
X0003618Y0049370D02*
X0020622Y0049370D01*
X0020622Y0049869D02*
X0003618Y0049869D01*
X0003618Y0050368D02*
X0020699Y0050368D01*
X0020906Y0050866D02*
X0003618Y0050866D01*
X0003618Y0051365D02*
X0021112Y0051365D01*
X0021356Y0051863D02*
X0003618Y0051863D01*
X0003618Y0052362D02*
X0021855Y0052362D01*
X0022353Y0052860D02*
X0003618Y0052860D01*
X0003618Y0053359D02*
X0022833Y0053359D01*
X0022124Y0053857D02*
X0003618Y0053857D01*
X0003618Y0054356D02*
X0021637Y0054356D01*
X0021274Y0054854D02*
X0003618Y0054854D01*
X0003618Y0055353D02*
X0021016Y0055353D01*
X0020828Y0055851D02*
X0003618Y0055851D01*
X0003618Y0056350D02*
X0020699Y0056350D01*
X0020622Y0056848D02*
X0003618Y0056848D01*
X0024772Y0058344D02*
X0025272Y0058344D01*
X0025272Y0058842D02*
X0024772Y0058842D01*
X0024772Y0059341D02*
X0025272Y0059341D01*
X0025272Y0059839D02*
X0024772Y0059839D01*
X0024772Y0060338D02*
X0025272Y0060338D01*
X0025272Y0060836D02*
X0024772Y0060836D01*
X0024772Y0061335D02*
X0025272Y0061335D01*
X0028048Y0063827D02*
X0039650Y0063827D01*
X0039650Y0063329D02*
X0028546Y0063329D01*
X0029045Y0062830D02*
X0039650Y0062830D01*
X0039650Y0062332D02*
X0029543Y0062332D01*
X0030042Y0061833D02*
X0039650Y0061833D01*
X0039650Y0061335D02*
X0030540Y0061335D01*
X0031039Y0060836D02*
X0039650Y0060836D01*
X0039650Y0060338D02*
X0031537Y0060338D01*
X0032036Y0059839D02*
X0039650Y0059839D01*
X0039650Y0059341D02*
X0032534Y0059341D01*
X0033033Y0058842D02*
X0039650Y0058842D01*
X0039650Y0058344D02*
X0033531Y0058344D01*
X0034030Y0057845D02*
X0039650Y0057845D01*
X0039650Y0057347D02*
X0034528Y0057347D01*
X0035027Y0056848D02*
X0039650Y0056848D01*
X0039650Y0056350D02*
X0035525Y0056350D01*
X0036024Y0055851D02*
X0039650Y0055851D01*
X0039650Y0055353D02*
X0036522Y0055353D01*
X0037021Y0054854D02*
X0039650Y0054854D01*
X0039650Y0054412D02*
X0038556Y0053318D01*
X0038125Y0053750D01*
X0027150Y0064725D01*
X0027150Y0069048D01*
X0027514Y0069199D01*
X0028752Y0070437D01*
X0029422Y0072054D01*
X0029422Y0073804D01*
X0028752Y0075421D01*
X0027514Y0076659D01*
X0026999Y0076872D01*
X0027328Y0077040D01*
X0027888Y0077447D01*
X0028378Y0077937D01*
X0028785Y0078497D01*
X0029099Y0079114D01*
X0029313Y0079773D01*
X0029422Y0080457D01*
X0029422Y0080553D01*
X0025272Y0080553D01*
X0025272Y0081053D01*
X0029422Y0081053D01*
X0029422Y0081149D01*
X0029313Y0081833D01*
X0029099Y0082492D01*
X0028785Y0083109D01*
X0028378Y0083669D01*
X0027888Y0084159D01*
X0027328Y0084566D01*
X0026999Y0084734D01*
X0027514Y0084947D01*
X0028752Y0086185D01*
X0029241Y0087366D01*
X0033498Y0091623D01*
X0033498Y0089764D01*
X0035636Y0087626D01*
X0038660Y0087626D01*
X0040798Y0089764D01*
X0040798Y0092787D01*
X0038660Y0094926D01*
X0036800Y0094926D01*
X0047125Y0105250D01*
X0059125Y0105250D01*
X0065426Y0111551D01*
X0065426Y0110281D01*
X0065976Y0108954D01*
X0066992Y0107938D01*
X0068319Y0107388D01*
X0074481Y0107388D01*
X0075808Y0107938D01*
X0076824Y0108954D01*
X0077374Y0110281D01*
X0077374Y0111719D01*
X0076824Y0113046D01*
X0075808Y0114062D01*
X0074481Y0114612D01*
X0068487Y0114612D01*
X0071263Y0117388D01*
X0074481Y0117388D01*
X0075808Y0117938D01*
X0076824Y0118954D01*
X0076947Y0119250D01*
X0125853Y0119250D01*
X0125976Y0118954D01*
X0126992Y0117938D01*
X0128319Y0117388D01*
X0133313Y0117388D01*
X0132675Y0116750D01*
X0112675Y0116750D01*
X0077374Y0081449D01*
X0077374Y0081719D01*
X0076824Y0083046D01*
X0075808Y0084062D01*
X0074481Y0084612D01*
X0068319Y0084612D01*
X0066992Y0084062D01*
X0065976Y0083046D01*
X0065426Y0081719D01*
X0065426Y0080281D01*
X0065976Y0078954D01*
X0066179Y0078750D01*
X0045675Y0078750D01*
X0040255Y0073330D01*
X0038660Y0074926D01*
X0035636Y0074926D01*
X0033498Y0072787D01*
X0033498Y0069764D01*
X0035636Y0067626D01*
X0038660Y0067626D01*
X0039650Y0068616D01*
X0039650Y0054412D01*
X0039594Y0054356D02*
X0037519Y0054356D01*
X0038018Y0053857D02*
X0039095Y0053857D01*
X0038597Y0053359D02*
X0038516Y0053359D01*
X0043150Y0054854D02*
X0110603Y0054854D01*
X0110426Y0055281D02*
X0110976Y0053954D01*
X0111992Y0052938D01*
X0113319Y0052388D01*
X0119481Y0052388D01*
X0120808Y0052938D01*
X0121824Y0053954D01*
X0122374Y0055281D01*
X0122374Y0056719D01*
X0121824Y0058046D01*
X0120808Y0059062D01*
X0119481Y0059612D01*
X0113319Y0059612D01*
X0111992Y0059062D01*
X0110976Y0058046D01*
X0110426Y0056719D01*
X0110426Y0055281D01*
X0110426Y0055353D02*
X0043150Y0055353D01*
X0043150Y0055851D02*
X0110426Y0055851D01*
X0110426Y0056350D02*
X0043150Y0056350D01*
X0043150Y0056848D02*
X0110479Y0056848D01*
X0110686Y0057347D02*
X0043150Y0057347D01*
X0043150Y0057845D02*
X0067215Y0057845D01*
X0066586Y0058344D02*
X0043150Y0058344D01*
X0043150Y0058842D02*
X0066087Y0058842D01*
X0065815Y0059341D02*
X0043150Y0059341D01*
X0043150Y0059839D02*
X0065609Y0059839D01*
X0065426Y0060338D02*
X0043150Y0060338D01*
X0043150Y0060836D02*
X0065426Y0060836D01*
X0065426Y0061335D02*
X0058072Y0061335D01*
X0059234Y0061833D02*
X0065473Y0061833D01*
X0065680Y0062332D02*
X0059732Y0062332D01*
X0060231Y0062830D02*
X0065886Y0062830D01*
X0066258Y0063329D02*
X0060651Y0063329D01*
X0060858Y0063827D02*
X0066757Y0063827D01*
X0075585Y0057845D02*
X0110892Y0057845D01*
X0111273Y0058344D02*
X0076214Y0058344D01*
X0076713Y0058842D02*
X0111772Y0058842D01*
X0112664Y0059341D02*
X0076985Y0059341D01*
X0077191Y0059839D02*
X0125609Y0059839D01*
X0125426Y0060281D02*
X0125976Y0058954D01*
X0126992Y0057938D01*
X0128319Y0057388D01*
X0134481Y0057388D01*
X0135808Y0057938D01*
X0136824Y0058954D01*
X0137374Y0060281D01*
X0137374Y0061719D01*
X0136824Y0063046D01*
X0135808Y0064062D01*
X0134481Y0064612D01*
X0128319Y0064612D01*
X0126992Y0064062D01*
X0125976Y0063046D01*
X0125426Y0061719D01*
X0125426Y0060281D01*
X0125426Y0060338D02*
X0077374Y0060338D01*
X0077374Y0060836D02*
X0125426Y0060836D01*
X0125426Y0061335D02*
X0077374Y0061335D01*
X0077327Y0061833D02*
X0125473Y0061833D01*
X0125680Y0062332D02*
X0077120Y0062332D01*
X0076914Y0062830D02*
X0112251Y0062830D01*
X0111992Y0062938D02*
X0113319Y0062388D01*
X0119481Y0062388D01*
X0120808Y0062938D01*
X0121824Y0063954D01*
X0122374Y0065281D01*
X0122374Y0066719D01*
X0121824Y0068046D01*
X0120808Y0069062D01*
X0119481Y0069612D01*
X0113319Y0069612D01*
X0111992Y0069062D01*
X0110976Y0068046D01*
X0110426Y0066719D01*
X0110426Y0065281D01*
X0110976Y0063954D01*
X0111992Y0062938D01*
X0111601Y0063329D02*
X0076542Y0063329D01*
X0076043Y0063827D02*
X0111102Y0063827D01*
X0110821Y0064326D02*
X0098201Y0064326D01*
X0098699Y0064824D02*
X0110615Y0064824D01*
X0110426Y0065323D02*
X0099198Y0065323D01*
X0099696Y0065821D02*
X0110426Y0065821D01*
X0110426Y0066320D02*
X0100195Y0066320D01*
X0100693Y0066818D02*
X0110467Y0066818D01*
X0110673Y0067317D02*
X0101192Y0067317D01*
X0101690Y0067815D02*
X0110880Y0067815D01*
X0111243Y0068314D02*
X0102189Y0068314D01*
X0102687Y0068812D02*
X0111742Y0068812D01*
X0112592Y0069311D02*
X0103186Y0069311D01*
X0103684Y0069809D02*
X0125621Y0069809D01*
X0125426Y0070281D02*
X0125976Y0068954D01*
X0126992Y0067938D01*
X0128319Y0067388D01*
X0134481Y0067388D01*
X0135808Y0067938D01*
X0136824Y0068954D01*
X0137374Y0070281D01*
X0137374Y0071719D01*
X0136824Y0073046D01*
X0135808Y0074062D01*
X0134481Y0074612D01*
X0128319Y0074612D01*
X0126992Y0074062D01*
X0125976Y0073046D01*
X0125426Y0071719D01*
X0125426Y0070281D01*
X0125426Y0070308D02*
X0104183Y0070308D01*
X0104681Y0070806D02*
X0125426Y0070806D01*
X0125426Y0071305D02*
X0105180Y0071305D01*
X0105678Y0071803D02*
X0125461Y0071803D01*
X0125667Y0072302D02*
X0106177Y0072302D01*
X0106675Y0072801D02*
X0125874Y0072801D01*
X0126228Y0073299D02*
X0107174Y0073299D01*
X0107672Y0073798D02*
X0126727Y0073798D01*
X0127556Y0074296D02*
X0108171Y0074296D01*
X0108669Y0074795D02*
X0157650Y0074795D01*
X0157650Y0075293D02*
X0109168Y0075293D01*
X0109666Y0075792D02*
X0157650Y0075792D01*
X0157650Y0076290D02*
X0110165Y0076290D01*
X0110663Y0076789D02*
X0157650Y0076789D01*
X0157650Y0077287D02*
X0111162Y0077287D01*
X0111660Y0077786D02*
X0127359Y0077786D01*
X0126992Y0077938D02*
X0128319Y0077388D01*
X0134481Y0077388D01*
X0135808Y0077938D01*
X0136824Y0078954D01*
X0137374Y0080281D01*
X0137374Y0081719D01*
X0136824Y0083046D01*
X0135808Y0084062D01*
X0134481Y0084612D01*
X0128319Y0084612D01*
X0126992Y0084062D01*
X0125976Y0083046D01*
X0125426Y0081719D01*
X0125426Y0080281D01*
X0125976Y0078954D01*
X0126992Y0077938D01*
X0126645Y0078284D02*
X0112159Y0078284D01*
X0112658Y0078783D02*
X0126147Y0078783D01*
X0125840Y0079281D02*
X0113156Y0079281D01*
X0113655Y0079780D02*
X0125633Y0079780D01*
X0125427Y0080278D02*
X0114153Y0080278D01*
X0114652Y0080777D02*
X0125426Y0080777D01*
X0125426Y0081275D02*
X0115150Y0081275D01*
X0115649Y0081774D02*
X0125448Y0081774D01*
X0125655Y0082272D02*
X0116147Y0082272D01*
X0116646Y0082771D02*
X0125861Y0082771D01*
X0126199Y0083269D02*
X0117144Y0083269D01*
X0117643Y0083768D02*
X0126697Y0083768D01*
X0127484Y0084266D02*
X0118141Y0084266D01*
X0118640Y0084765D02*
X0140561Y0084765D01*
X0140354Y0085263D02*
X0119138Y0085263D01*
X0119637Y0085762D02*
X0140350Y0085762D01*
X0140350Y0085274D02*
X0140906Y0083932D01*
X0141932Y0082906D01*
X0143274Y0082350D01*
X0149526Y0082350D01*
X0150868Y0082906D01*
X0151894Y0083932D01*
X0152450Y0085274D01*
X0152450Y0086726D01*
X0151894Y0088068D01*
X0150868Y0089094D01*
X0149526Y0089650D01*
X0143274Y0089650D01*
X0141932Y0089094D01*
X0140906Y0088068D01*
X0140350Y0086726D01*
X0140350Y0085274D01*
X0140350Y0086260D02*
X0120135Y0086260D01*
X0120634Y0086759D02*
X0140364Y0086759D01*
X0140570Y0087257D02*
X0121132Y0087257D01*
X0121631Y0087756D02*
X0127431Y0087756D01*
X0126675Y0088254D02*
X0122129Y0088254D01*
X0122628Y0088753D02*
X0126176Y0088753D01*
X0125852Y0089251D02*
X0123126Y0089251D01*
X0123625Y0089750D02*
X0125646Y0089750D01*
X0125439Y0090248D02*
X0124123Y0090248D01*
X0124622Y0090747D02*
X0125426Y0090747D01*
X0125426Y0091245D02*
X0125120Y0091245D01*
X0122654Y0096729D02*
X0122370Y0096729D01*
X0122164Y0097228D02*
X0123153Y0097228D01*
X0123651Y0097726D02*
X0121957Y0097726D01*
X0121646Y0098225D02*
X0124150Y0098225D01*
X0124648Y0098723D02*
X0121148Y0098723D01*
X0120424Y0099222D02*
X0125865Y0099222D01*
X0125658Y0099720D02*
X0100595Y0099720D01*
X0100096Y0099222D02*
X0112376Y0099222D01*
X0111652Y0098723D02*
X0099598Y0098723D01*
X0099099Y0098225D02*
X0111154Y0098225D01*
X0110843Y0097726D02*
X0098601Y0097726D01*
X0098102Y0097228D02*
X0110636Y0097228D01*
X0110430Y0096729D02*
X0097604Y0096729D01*
X0097105Y0096231D02*
X0110426Y0096231D01*
X0110426Y0095732D02*
X0096607Y0095732D01*
X0096108Y0095234D02*
X0110445Y0095234D01*
X0110652Y0094735D02*
X0095610Y0094735D01*
X0095111Y0094237D02*
X0110858Y0094237D01*
X0111191Y0093738D02*
X0094613Y0093738D01*
X0094114Y0093239D02*
X0111690Y0093239D01*
X0112467Y0092741D02*
X0093616Y0092741D01*
X0093117Y0092242D02*
X0118168Y0092242D01*
X0117669Y0091744D02*
X0092619Y0091744D01*
X0092120Y0091245D02*
X0117171Y0091245D01*
X0116672Y0090747D02*
X0091622Y0090747D01*
X0091123Y0090248D02*
X0116174Y0090248D01*
X0115675Y0089750D02*
X0090625Y0089750D01*
X0090126Y0089251D02*
X0115177Y0089251D01*
X0114678Y0088753D02*
X0089628Y0088753D01*
X0089129Y0088254D02*
X0114180Y0088254D01*
X0113681Y0087756D02*
X0088631Y0087756D01*
X0088132Y0087257D02*
X0113182Y0087257D01*
X0112684Y0086759D02*
X0087634Y0086759D01*
X0087135Y0086260D02*
X0112185Y0086260D01*
X0111687Y0085762D02*
X0086637Y0085762D01*
X0086138Y0085263D02*
X0111188Y0085263D01*
X0110690Y0084765D02*
X0085640Y0084765D01*
X0085141Y0084266D02*
X0110191Y0084266D01*
X0109693Y0083768D02*
X0084643Y0083768D01*
X0084144Y0083269D02*
X0109194Y0083269D01*
X0108696Y0082771D02*
X0083646Y0082771D01*
X0083147Y0082272D02*
X0108197Y0082272D01*
X0107699Y0081774D02*
X0082649Y0081774D01*
X0082150Y0081275D02*
X0107200Y0081275D01*
X0106702Y0080777D02*
X0081652Y0080777D01*
X0081153Y0080278D02*
X0106203Y0080278D01*
X0105705Y0079780D02*
X0080655Y0079780D01*
X0080156Y0079281D02*
X0105206Y0079281D01*
X0104708Y0078783D02*
X0079658Y0078783D01*
X0079159Y0078284D02*
X0104209Y0078284D01*
X0103711Y0077786D02*
X0078660Y0077786D01*
X0078162Y0077287D02*
X0103212Y0077287D01*
X0102714Y0076789D02*
X0077663Y0076789D01*
X0077699Y0081774D02*
X0077352Y0081774D01*
X0077145Y0082272D02*
X0078197Y0082272D01*
X0078696Y0082771D02*
X0076939Y0082771D01*
X0076601Y0083269D02*
X0079194Y0083269D01*
X0079693Y0083768D02*
X0076103Y0083768D01*
X0075316Y0084266D02*
X0080191Y0084266D01*
X0080690Y0084765D02*
X0027073Y0084765D01*
X0027741Y0084266D02*
X0067484Y0084266D01*
X0066697Y0083768D02*
X0028279Y0083768D01*
X0028669Y0083269D02*
X0066199Y0083269D01*
X0065861Y0082771D02*
X0028957Y0082771D01*
X0029171Y0082272D02*
X0065655Y0082272D01*
X0065448Y0081774D02*
X0029323Y0081774D01*
X0029402Y0081275D02*
X0065426Y0081275D01*
X0065426Y0080777D02*
X0025272Y0080777D01*
X0024772Y0080777D02*
X0019150Y0080777D01*
X0019150Y0081275D02*
X0020642Y0081275D01*
X0020721Y0081774D02*
X0019150Y0081774D01*
X0019150Y0082272D02*
X0020873Y0082272D01*
X0021087Y0082771D02*
X0019150Y0082771D01*
X0019150Y0083269D02*
X0021376Y0083269D01*
X0021765Y0083768D02*
X0019150Y0083768D01*
X0019150Y0084266D02*
X0022304Y0084266D01*
X0022971Y0084765D02*
X0019150Y0084765D01*
X0019150Y0085263D02*
X0022214Y0085263D01*
X0021715Y0085762D02*
X0019150Y0085762D01*
X0019150Y0086260D02*
X0021261Y0086260D01*
X0021055Y0086759D02*
X0019150Y0086759D01*
X0019150Y0087257D02*
X0020848Y0087257D01*
X0020642Y0087756D02*
X0019150Y0087756D01*
X0019150Y0088254D02*
X0020622Y0088254D01*
X0020622Y0088753D02*
X0019150Y0088753D01*
X0019150Y0089251D02*
X0020622Y0089251D01*
X0020704Y0089750D02*
X0019150Y0089750D01*
X0019150Y0090248D02*
X0020911Y0090248D01*
X0021117Y0090747D02*
X0019150Y0090747D01*
X0019150Y0091245D02*
X0021368Y0091245D01*
X0021867Y0091744D02*
X0019150Y0091744D01*
X0019150Y0092242D02*
X0022365Y0092242D01*
X0022724Y0092741D02*
X0019150Y0092741D01*
X0019150Y0093239D02*
X0022112Y0093239D01*
X0021613Y0093738D02*
X0019150Y0093738D01*
X0019150Y0094237D02*
X0021219Y0094237D01*
X0021012Y0094735D02*
X0019150Y0094735D01*
X0019150Y0095234D02*
X0020806Y0095234D01*
X0020622Y0095732D02*
X0019150Y0095732D01*
X0019150Y0096231D02*
X0020622Y0096231D01*
X0020622Y0096729D02*
X0019150Y0096729D01*
X0019150Y0097228D02*
X0020622Y0097228D01*
X0020747Y0097726D02*
X0019150Y0097726D01*
X0019150Y0098225D02*
X0020953Y0098225D01*
X0021160Y0098723D02*
X0019598Y0098723D01*
X0020096Y0099222D02*
X0021470Y0099222D01*
X0021969Y0099720D02*
X0020595Y0099720D01*
X0021094Y0100219D02*
X0022468Y0100219D01*
X0021592Y0100717D02*
X0023583Y0100717D01*
X0022589Y0101714D02*
X0038639Y0101714D01*
X0038141Y0101216D02*
X0022091Y0101216D01*
X0023088Y0102213D02*
X0039138Y0102213D01*
X0039636Y0102711D02*
X0023586Y0102711D01*
X0024085Y0103210D02*
X0040135Y0103210D01*
X0040633Y0103708D02*
X0024583Y0103708D01*
X0025082Y0104207D02*
X0041132Y0104207D01*
X0041630Y0104705D02*
X0025580Y0104705D01*
X0026079Y0105204D02*
X0042129Y0105204D01*
X0042627Y0105702D02*
X0026577Y0105702D01*
X0027076Y0106201D02*
X0043126Y0106201D01*
X0043624Y0106699D02*
X0027574Y0106699D01*
X0028073Y0107198D02*
X0044123Y0107198D01*
X0044621Y0107696D02*
X0028571Y0107696D01*
X0029070Y0108195D02*
X0045120Y0108195D01*
X0045618Y0108693D02*
X0029568Y0108693D01*
X0030067Y0109192D02*
X0048198Y0109192D01*
X0047992Y0109690D02*
X0030565Y0109690D01*
X0031064Y0110189D02*
X0047785Y0110189D01*
X0047750Y0110687D02*
X0031562Y0110687D01*
X0032061Y0111186D02*
X0047750Y0111186D01*
X0047750Y0111684D02*
X0032559Y0111684D01*
X0033058Y0112183D02*
X0047939Y0112183D01*
X0048146Y0112681D02*
X0033150Y0112681D01*
X0033150Y0113180D02*
X0048418Y0113180D01*
X0048917Y0113678D02*
X0033150Y0113678D01*
X0033150Y0114177D02*
X0049532Y0114177D01*
X0050674Y0117350D02*
X0049332Y0117906D01*
X0048306Y0118932D01*
X0047750Y0120274D01*
X0047750Y0121726D01*
X0048306Y0123068D01*
X0049332Y0124094D01*
X0050674Y0124650D01*
X0056926Y0124650D01*
X0058268Y0124094D01*
X0059294Y0123068D01*
X0059850Y0121726D01*
X0059850Y0120274D01*
X0059294Y0118932D01*
X0058268Y0117906D01*
X0056926Y0117350D01*
X0050674Y0117350D01*
X0049910Y0117667D02*
X0033150Y0117667D01*
X0033150Y0118165D02*
X0049073Y0118165D01*
X0048575Y0118664D02*
X0033150Y0118664D01*
X0033150Y0119162D02*
X0048211Y0119162D01*
X0048004Y0119661D02*
X0033150Y0119661D01*
X0033150Y0120159D02*
X0047798Y0120159D01*
X0047750Y0120658D02*
X0033150Y0120658D01*
X0033150Y0121156D02*
X0047750Y0121156D01*
X0047750Y0121655D02*
X0033150Y0121655D01*
X0033150Y0122153D02*
X0047927Y0122153D01*
X0048133Y0122652D02*
X0033150Y0122652D01*
X0033150Y0123150D02*
X0048388Y0123150D01*
X0048887Y0123649D02*
X0033150Y0123649D01*
X0033150Y0124147D02*
X0049460Y0124147D01*
X0050664Y0124646D02*
X0033150Y0124646D01*
X0033150Y0125144D02*
X0136650Y0125144D01*
X0136650Y0124646D02*
X0056936Y0124646D01*
X0058140Y0124147D02*
X0067197Y0124147D01*
X0066578Y0123649D02*
X0058713Y0123649D01*
X0059212Y0123150D02*
X0066080Y0123150D01*
X0065812Y0122652D02*
X0059467Y0122652D01*
X0059673Y0122153D02*
X0065606Y0122153D01*
X0065426Y0121655D02*
X0059850Y0121655D01*
X0059850Y0121156D02*
X0065426Y0121156D01*
X0065426Y0120658D02*
X0059850Y0120658D01*
X0059802Y0120159D02*
X0065476Y0120159D01*
X0065683Y0119661D02*
X0059596Y0119661D01*
X0059389Y0119162D02*
X0065889Y0119162D01*
X0066266Y0118664D02*
X0059025Y0118664D01*
X0058527Y0118165D02*
X0066764Y0118165D01*
X0066592Y0117667D02*
X0057690Y0117667D01*
X0058068Y0114177D02*
X0063102Y0114177D01*
X0062604Y0113678D02*
X0058683Y0113678D01*
X0059182Y0113180D02*
X0062105Y0113180D01*
X0061607Y0112681D02*
X0059454Y0112681D01*
X0059661Y0112183D02*
X0061108Y0112183D01*
X0060610Y0111684D02*
X0059850Y0111684D01*
X0059850Y0111186D02*
X0060111Y0111186D01*
X0062568Y0108693D02*
X0066236Y0108693D01*
X0065877Y0109192D02*
X0063067Y0109192D01*
X0063565Y0109690D02*
X0065670Y0109690D01*
X0065464Y0110189D02*
X0064064Y0110189D01*
X0064562Y0110687D02*
X0065426Y0110687D01*
X0065426Y0111186D02*
X0065061Y0111186D01*
X0066735Y0108195D02*
X0062070Y0108195D01*
X0061571Y0107696D02*
X0067574Y0107696D01*
X0068319Y0104612D02*
X0066992Y0104062D01*
X0065976Y0103046D01*
X0065426Y0101719D01*
X0065426Y0100281D01*
X0065976Y0098954D01*
X0066992Y0097938D01*
X0068319Y0097388D01*
X0074481Y0097388D01*
X0075808Y0097938D01*
X0076824Y0098954D01*
X0077374Y0100281D01*
X0077374Y0101719D01*
X0076824Y0103046D01*
X0075808Y0104062D01*
X0074481Y0104612D01*
X0068319Y0104612D01*
X0067340Y0104207D02*
X0046082Y0104207D01*
X0046580Y0104705D02*
X0100630Y0104705D01*
X0100132Y0104207D02*
X0075460Y0104207D01*
X0076162Y0103708D02*
X0099633Y0103708D01*
X0099135Y0103210D02*
X0076661Y0103210D01*
X0076963Y0102711D02*
X0098636Y0102711D01*
X0098138Y0102213D02*
X0077170Y0102213D01*
X0077374Y0101714D02*
X0097639Y0101714D01*
X0097141Y0101216D02*
X0077374Y0101216D01*
X0077374Y0100717D02*
X0096642Y0100717D01*
X0096144Y0100219D02*
X0077348Y0100219D01*
X0077142Y0099720D02*
X0095645Y0099720D01*
X0095147Y0099222D02*
X0076935Y0099222D01*
X0076594Y0098723D02*
X0094648Y0098723D01*
X0094150Y0098225D02*
X0076095Y0098225D01*
X0075297Y0097726D02*
X0093651Y0097726D01*
X0093153Y0097228D02*
X0061249Y0097228D01*
X0061350Y0096985D02*
X0060596Y0098804D01*
X0059204Y0100196D01*
X0057385Y0100950D01*
X0055415Y0100950D01*
X0053596Y0100196D01*
X0052204Y0098804D01*
X0051450Y0096985D01*
X0051450Y0095015D01*
X0052204Y0093196D01*
X0053596Y0091804D01*
X0055415Y0091050D01*
X0057385Y0091050D01*
X0059204Y0091804D01*
X0060596Y0093196D01*
X0061350Y0095015D01*
X0061350Y0096985D01*
X0061350Y0096729D02*
X0092654Y0096729D01*
X0092156Y0096231D02*
X0061350Y0096231D01*
X0061350Y0095732D02*
X0091657Y0095732D01*
X0091159Y0095234D02*
X0061350Y0095234D01*
X0061234Y0094735D02*
X0090660Y0094735D01*
X0090162Y0094237D02*
X0075388Y0094237D01*
X0075808Y0094062D02*
X0074481Y0094612D01*
X0068319Y0094612D01*
X0066992Y0094062D01*
X0065976Y0093046D01*
X0065426Y0091719D01*
X0065426Y0090281D01*
X0065976Y0088954D01*
X0066992Y0087938D01*
X0068319Y0087388D01*
X0074481Y0087388D01*
X0075808Y0087938D01*
X0076824Y0088954D01*
X0077374Y0090281D01*
X0077374Y0091719D01*
X0076824Y0093046D01*
X0075808Y0094062D01*
X0076133Y0093738D02*
X0089663Y0093738D01*
X0089165Y0093239D02*
X0076631Y0093239D01*
X0076951Y0092741D02*
X0088666Y0092741D01*
X0088168Y0092242D02*
X0077157Y0092242D01*
X0077364Y0091744D02*
X0087669Y0091744D01*
X0087171Y0091245D02*
X0077374Y0091245D01*
X0077374Y0090747D02*
X0086672Y0090747D01*
X0086174Y0090248D02*
X0077361Y0090248D01*
X0077154Y0089750D02*
X0085675Y0089750D01*
X0085177Y0089251D02*
X0076948Y0089251D01*
X0076623Y0088753D02*
X0084678Y0088753D01*
X0084180Y0088254D02*
X0076125Y0088254D01*
X0075369Y0087756D02*
X0083681Y0087756D01*
X0083182Y0087257D02*
X0029196Y0087257D01*
X0028990Y0086759D02*
X0082684Y0086759D01*
X0082185Y0086260D02*
X0028783Y0086260D01*
X0028329Y0085762D02*
X0081687Y0085762D01*
X0081188Y0085263D02*
X0027830Y0085263D01*
X0029631Y0087756D02*
X0035506Y0087756D01*
X0035007Y0088254D02*
X0030129Y0088254D01*
X0030628Y0088753D02*
X0034509Y0088753D01*
X0034010Y0089251D02*
X0031126Y0089251D01*
X0031625Y0089750D02*
X0033512Y0089750D01*
X0033498Y0090248D02*
X0032123Y0090248D01*
X0032622Y0090747D02*
X0033498Y0090747D01*
X0033498Y0091245D02*
X0033120Y0091245D01*
X0030663Y0093738D02*
X0028431Y0093738D01*
X0028825Y0094237D02*
X0031162Y0094237D01*
X0031660Y0094735D02*
X0029032Y0094735D01*
X0029238Y0095234D02*
X0032159Y0095234D01*
X0032657Y0095732D02*
X0029422Y0095732D01*
X0029422Y0096231D02*
X0033156Y0096231D01*
X0033654Y0096729D02*
X0029422Y0096729D01*
X0029422Y0097228D02*
X0034153Y0097228D01*
X0034651Y0097726D02*
X0029297Y0097726D01*
X0029091Y0098225D02*
X0035150Y0098225D01*
X0035648Y0098723D02*
X0028884Y0098723D01*
X0028574Y0099222D02*
X0036147Y0099222D01*
X0036645Y0099720D02*
X0028075Y0099720D01*
X0027577Y0100219D02*
X0037144Y0100219D01*
X0037642Y0100717D02*
X0026461Y0100717D01*
X0027932Y0093239D02*
X0030165Y0093239D01*
X0029666Y0092741D02*
X0027320Y0092741D01*
X0027679Y0092242D02*
X0029168Y0092242D01*
X0028669Y0091744D02*
X0028177Y0091744D01*
X0037108Y0095234D02*
X0051450Y0095234D01*
X0051450Y0095732D02*
X0037607Y0095732D01*
X0038105Y0096231D02*
X0051450Y0096231D01*
X0051450Y0096729D02*
X0038604Y0096729D01*
X0039102Y0097228D02*
X0051551Y0097228D01*
X0051757Y0097726D02*
X0039601Y0097726D01*
X0040099Y0098225D02*
X0051964Y0098225D01*
X0052170Y0098723D02*
X0040598Y0098723D01*
X0041096Y0099222D02*
X0052621Y0099222D01*
X0053120Y0099720D02*
X0041595Y0099720D01*
X0042093Y0100219D02*
X0053650Y0100219D01*
X0054853Y0100717D02*
X0042592Y0100717D01*
X0043091Y0101216D02*
X0065426Y0101216D01*
X0065426Y0101714D02*
X0043589Y0101714D01*
X0044088Y0102213D02*
X0065630Y0102213D01*
X0065837Y0102711D02*
X0044586Y0102711D01*
X0045085Y0103210D02*
X0066139Y0103210D01*
X0066638Y0103708D02*
X0045583Y0103708D01*
X0047079Y0105204D02*
X0101129Y0105204D01*
X0101627Y0105702D02*
X0059577Y0105702D01*
X0060076Y0106201D02*
X0102126Y0106201D01*
X0102624Y0106699D02*
X0060574Y0106699D01*
X0061073Y0107198D02*
X0103123Y0107198D01*
X0103621Y0107696D02*
X0075226Y0107696D01*
X0076065Y0108195D02*
X0104120Y0108195D01*
X0104618Y0108693D02*
X0076564Y0108693D01*
X0076923Y0109192D02*
X0105117Y0109192D01*
X0105616Y0109690D02*
X0077130Y0109690D01*
X0077336Y0110189D02*
X0106114Y0110189D01*
X0106613Y0110687D02*
X0077374Y0110687D01*
X0077374Y0111186D02*
X0107111Y0111186D01*
X0107610Y0111684D02*
X0077374Y0111684D01*
X0077182Y0112183D02*
X0108108Y0112183D01*
X0108607Y0112681D02*
X0076976Y0112681D01*
X0076691Y0113180D02*
X0109105Y0113180D01*
X0109604Y0113678D02*
X0076192Y0113678D01*
X0075531Y0114177D02*
X0110102Y0114177D01*
X0110601Y0114675D02*
X0068550Y0114675D01*
X0069049Y0115174D02*
X0111099Y0115174D01*
X0111598Y0115672D02*
X0069547Y0115672D01*
X0070046Y0116171D02*
X0112096Y0116171D01*
X0112595Y0116670D02*
X0070544Y0116670D01*
X0071043Y0117168D02*
X0133093Y0117168D01*
X0135550Y0114675D02*
X0150601Y0114675D01*
X0150621Y0115174D02*
X0136049Y0115174D01*
X0136547Y0115672D02*
X0150544Y0115672D01*
X0150544Y0116171D02*
X0137046Y0116171D01*
X0137544Y0116670D02*
X0150544Y0116670D01*
X0150567Y0117168D02*
X0138043Y0117168D01*
X0138541Y0117667D02*
X0150774Y0117667D01*
X0150980Y0118165D02*
X0139040Y0118165D01*
X0139538Y0118664D02*
X0151187Y0118664D01*
X0151647Y0119162D02*
X0140037Y0119162D01*
X0140150Y0119661D02*
X0152146Y0119661D01*
X0152917Y0120159D02*
X0140150Y0120159D01*
X0140150Y0120658D02*
X0158650Y0120658D01*
X0158650Y0121156D02*
X0140150Y0121156D01*
X0140150Y0121655D02*
X0158650Y0121655D01*
X0158650Y0122153D02*
X0140150Y0122153D01*
X0140150Y0122652D02*
X0158650Y0122652D01*
X0158650Y0123150D02*
X0140150Y0123150D01*
X0140150Y0123649D02*
X0158650Y0123649D01*
X0158650Y0124147D02*
X0140150Y0124147D01*
X0140150Y0124646D02*
X0158650Y0124646D01*
X0158650Y0125144D02*
X0140150Y0125144D01*
X0140150Y0125643D02*
X0158650Y0125643D01*
X0158650Y0126141D02*
X0140150Y0126141D01*
X0140150Y0126640D02*
X0158650Y0126640D01*
X0158650Y0127138D02*
X0140150Y0127138D01*
X0140150Y0127637D02*
X0153942Y0127637D01*
X0152739Y0128135D02*
X0140150Y0128135D01*
X0140150Y0128634D02*
X0152072Y0128634D01*
X0151573Y0129132D02*
X0140150Y0129132D01*
X0140150Y0129631D02*
X0151156Y0129631D01*
X0150950Y0130129D02*
X0140150Y0130129D01*
X0140150Y0130628D02*
X0150743Y0130628D01*
X0150544Y0131126D02*
X0140150Y0131126D01*
X0140150Y0131625D02*
X0150544Y0131625D01*
X0150544Y0132123D02*
X0140150Y0132123D01*
X0140150Y0132622D02*
X0150544Y0132622D01*
X0150652Y0133120D02*
X0139754Y0133120D01*
X0139256Y0133619D02*
X0150858Y0133619D01*
X0151065Y0134117D02*
X0138757Y0134117D01*
X0138259Y0134616D02*
X0151353Y0134616D01*
X0151852Y0135114D02*
X0137760Y0135114D01*
X0137262Y0135613D02*
X0152350Y0135613D01*
X0152492Y0136111D02*
X0136763Y0136111D01*
X0136265Y0136610D02*
X0151970Y0136610D01*
X0151471Y0137108D02*
X0135766Y0137108D01*
X0135268Y0137607D02*
X0151114Y0137607D01*
X0150907Y0138105D02*
X0135976Y0138105D01*
X0136475Y0138604D02*
X0150701Y0138604D01*
X0150544Y0139103D02*
X0136886Y0139103D01*
X0137093Y0139601D02*
X0150544Y0139601D01*
X0150544Y0140100D02*
X0137299Y0140100D01*
X0137374Y0140598D02*
X0150544Y0140598D01*
X0150694Y0141097D02*
X0137374Y0141097D01*
X0137374Y0141595D02*
X0150901Y0141595D01*
X0151107Y0142094D02*
X0137219Y0142094D01*
X0137013Y0142592D02*
X0151455Y0142592D01*
X0151954Y0143091D02*
X0136780Y0143091D01*
X0136281Y0143589D02*
X0152454Y0143589D01*
X0153657Y0144088D02*
X0135747Y0144088D01*
X0134544Y0144586D02*
X0176347Y0144586D01*
X0176347Y0144088D02*
X0156229Y0144088D01*
X0157433Y0143589D02*
X0176347Y0143589D01*
X0176347Y0143091D02*
X0157933Y0143091D01*
X0158431Y0142592D02*
X0176347Y0142592D01*
X0176347Y0142094D02*
X0158780Y0142094D01*
X0158986Y0141595D02*
X0176347Y0141595D01*
X0176347Y0141097D02*
X0159192Y0141097D01*
X0159343Y0140598D02*
X0176347Y0140598D01*
X0176347Y0140100D02*
X0159343Y0140100D01*
X0159343Y0139601D02*
X0176347Y0139601D01*
X0176347Y0139103D02*
X0159343Y0139103D01*
X0159186Y0138604D02*
X0176347Y0138604D01*
X0176347Y0138105D02*
X0158979Y0138105D01*
X0159268Y0137607D02*
X0176347Y0137607D01*
X0176347Y0137108D02*
X0159766Y0137108D01*
X0160265Y0136610D02*
X0176347Y0136610D01*
X0176347Y0136111D02*
X0160763Y0136111D01*
X0161262Y0135613D02*
X0176347Y0135613D01*
X0176347Y0135114D02*
X0161760Y0135114D01*
X0162150Y0134616D02*
X0176347Y0134616D01*
X0176347Y0134117D02*
X0162150Y0134117D01*
X0162150Y0133619D02*
X0176347Y0133619D01*
X0176347Y0133120D02*
X0162150Y0133120D01*
X0162150Y0132622D02*
X0176347Y0132622D01*
X0176347Y0132123D02*
X0162150Y0132123D01*
X0162150Y0131625D02*
X0176347Y0131625D01*
X0176347Y0131126D02*
X0162150Y0131126D01*
X0162150Y0130628D02*
X0176347Y0130628D01*
X0176347Y0130129D02*
X0162150Y0130129D01*
X0162150Y0129631D02*
X0176347Y0129631D01*
X0176347Y0129132D02*
X0162150Y0129132D01*
X0162150Y0128634D02*
X0176347Y0128634D01*
X0176347Y0128135D02*
X0162150Y0128135D01*
X0162150Y0127637D02*
X0176347Y0127637D01*
X0176347Y0127138D02*
X0162150Y0127138D01*
X0162150Y0126640D02*
X0176347Y0126640D01*
X0176347Y0126141D02*
X0162150Y0126141D01*
X0162150Y0125643D02*
X0176347Y0125643D01*
X0176347Y0125144D02*
X0162150Y0125144D01*
X0162150Y0124646D02*
X0176347Y0124646D01*
X0176347Y0124147D02*
X0162150Y0124147D01*
X0162150Y0123649D02*
X0176347Y0123649D01*
X0176347Y0123150D02*
X0162150Y0123150D01*
X0162150Y0122652D02*
X0176347Y0122652D01*
X0176347Y0122153D02*
X0162150Y0122153D01*
X0162150Y0121655D02*
X0176347Y0121655D01*
X0176347Y0121156D02*
X0162150Y0121156D01*
X0162150Y0120658D02*
X0176347Y0120658D01*
X0176347Y0120159D02*
X0162150Y0120159D01*
X0162150Y0119661D02*
X0176347Y0119661D01*
X0176347Y0119162D02*
X0162150Y0119162D01*
X0162150Y0118664D02*
X0176347Y0118664D01*
X0176347Y0118165D02*
X0162150Y0118165D01*
X0162150Y0117667D02*
X0176347Y0117667D01*
X0176347Y0117168D02*
X0162150Y0117168D01*
X0162150Y0116670D02*
X0176347Y0116670D01*
X0176347Y0116171D02*
X0162150Y0116171D01*
X0162150Y0115672D02*
X0176347Y0115672D01*
X0176347Y0115174D02*
X0162150Y0115174D01*
X0162150Y0114675D02*
X0176347Y0114675D01*
X0176347Y0114177D02*
X0162150Y0114177D01*
X0162150Y0113678D02*
X0176347Y0113678D01*
X0176347Y0113180D02*
X0162150Y0113180D01*
X0162150Y0112681D02*
X0176347Y0112681D01*
X0176347Y0112183D02*
X0162150Y0112183D01*
X0162150Y0111684D02*
X0176347Y0111684D01*
X0176347Y0111186D02*
X0162150Y0111186D01*
X0162150Y0110687D02*
X0176347Y0110687D01*
X0176347Y0110189D02*
X0162150Y0110189D01*
X0162150Y0109690D02*
X0176347Y0109690D01*
X0176347Y0109192D02*
X0162150Y0109192D01*
X0162150Y0108693D02*
X0176347Y0108693D01*
X0176347Y0108195D02*
X0162150Y0108195D01*
X0162150Y0107696D02*
X0176347Y0107696D01*
X0176347Y0107198D02*
X0162150Y0107198D01*
X0162150Y0106699D02*
X0176347Y0106699D01*
X0176347Y0106201D02*
X0162076Y0106201D01*
X0161577Y0105702D02*
X0176347Y0105702D01*
X0176347Y0105204D02*
X0161150Y0105204D01*
X0161150Y0104705D02*
X0176347Y0104705D01*
X0176347Y0104207D02*
X0161150Y0104207D01*
X0161150Y0103708D02*
X0176347Y0103708D01*
X0176347Y0103210D02*
X0161150Y0103210D01*
X0161150Y0102711D02*
X0176347Y0102711D01*
X0176347Y0102213D02*
X0161150Y0102213D01*
X0161150Y0101714D02*
X0176347Y0101714D01*
X0176347Y0101216D02*
X0161150Y0101216D01*
X0161150Y0100717D02*
X0176347Y0100717D01*
X0176347Y0100219D02*
X0161150Y0100219D01*
X0161150Y0099720D02*
X0176347Y0099720D01*
X0176347Y0099222D02*
X0161150Y0099222D01*
X0161150Y0098723D02*
X0176347Y0098723D01*
X0176347Y0098225D02*
X0161150Y0098225D01*
X0161150Y0097726D02*
X0176347Y0097726D01*
X0176347Y0097228D02*
X0161150Y0097228D01*
X0161150Y0096729D02*
X0176347Y0096729D01*
X0176347Y0096231D02*
X0161150Y0096231D01*
X0161150Y0095732D02*
X0176347Y0095732D01*
X0176347Y0095234D02*
X0161150Y0095234D01*
X0161150Y0094735D02*
X0176347Y0094735D01*
X0176347Y0094237D02*
X0161150Y0094237D01*
X0161150Y0093738D02*
X0176347Y0093738D01*
X0176347Y0093239D02*
X0161150Y0093239D01*
X0161150Y0092741D02*
X0176347Y0092741D01*
X0176347Y0092242D02*
X0161150Y0092242D01*
X0161150Y0091744D02*
X0176347Y0091744D01*
X0176347Y0091245D02*
X0161150Y0091245D01*
X0161150Y0090747D02*
X0176347Y0090747D01*
X0176347Y0090248D02*
X0161150Y0090248D01*
X0161150Y0089750D02*
X0176347Y0089750D01*
X0176347Y0089251D02*
X0170488Y0089251D01*
X0171209Y0088753D02*
X0176347Y0088753D01*
X0176347Y0088254D02*
X0171708Y0088254D01*
X0172023Y0087756D02*
X0176347Y0087756D01*
X0176347Y0087257D02*
X0172230Y0087257D01*
X0172436Y0086759D02*
X0176347Y0086759D01*
X0176347Y0086260D02*
X0172450Y0086260D01*
X0172450Y0085762D02*
X0176347Y0085762D01*
X0176347Y0085263D02*
X0172446Y0085263D01*
X0172239Y0084765D02*
X0176347Y0084765D01*
X0176347Y0084266D02*
X0172033Y0084266D01*
X0171730Y0083768D02*
X0176347Y0083768D01*
X0176347Y0083269D02*
X0171231Y0083269D01*
X0170542Y0082771D02*
X0176347Y0082771D01*
X0176347Y0082272D02*
X0161150Y0082272D01*
X0161150Y0081774D02*
X0176347Y0081774D01*
X0176347Y0081275D02*
X0161150Y0081275D01*
X0161150Y0080777D02*
X0176347Y0080777D01*
X0176347Y0080278D02*
X0161150Y0080278D01*
X0161150Y0079780D02*
X0176347Y0079780D01*
X0176347Y0079281D02*
X0161150Y0079281D01*
X0161150Y0078783D02*
X0176347Y0078783D01*
X0176347Y0078284D02*
X0161150Y0078284D01*
X0161150Y0077786D02*
X0176347Y0077786D01*
X0176347Y0077287D02*
X0161150Y0077287D01*
X0161150Y0076789D02*
X0176347Y0076789D01*
X0176347Y0076290D02*
X0161150Y0076290D01*
X0161150Y0075792D02*
X0176347Y0075792D01*
X0176347Y0075293D02*
X0161150Y0075293D01*
X0161150Y0074795D02*
X0176347Y0074795D01*
X0176347Y0074296D02*
X0161150Y0074296D01*
X0161150Y0073798D02*
X0176347Y0073798D01*
X0176347Y0073299D02*
X0161150Y0073299D01*
X0161150Y0072801D02*
X0176347Y0072801D01*
X0176347Y0072302D02*
X0161150Y0072302D01*
X0161150Y0071803D02*
X0176347Y0071803D01*
X0176347Y0071305D02*
X0161150Y0071305D01*
X0161150Y0070806D02*
X0176347Y0070806D01*
X0176347Y0070308D02*
X0161150Y0070308D01*
X0161150Y0069809D02*
X0176347Y0069809D01*
X0176347Y0069311D02*
X0161150Y0069311D01*
X0161150Y0068812D02*
X0176347Y0068812D01*
X0176347Y0068314D02*
X0161150Y0068314D01*
X0161150Y0067815D02*
X0176347Y0067815D01*
X0176347Y0067317D02*
X0161150Y0067317D01*
X0161150Y0066818D02*
X0176347Y0066818D01*
X0176347Y0066320D02*
X0161150Y0066320D01*
X0161150Y0065821D02*
X0176347Y0065821D01*
X0176347Y0065323D02*
X0161150Y0065323D01*
X0161150Y0064824D02*
X0176347Y0064824D01*
X0176347Y0064326D02*
X0161150Y0064326D01*
X0161150Y0063827D02*
X0176347Y0063827D01*
X0176347Y0063329D02*
X0161150Y0063329D01*
X0161150Y0062830D02*
X0176347Y0062830D01*
X0176347Y0062332D02*
X0161150Y0062332D01*
X0161150Y0061833D02*
X0176347Y0061833D01*
X0176347Y0061335D02*
X0161150Y0061335D01*
X0161150Y0060836D02*
X0176347Y0060836D01*
X0176347Y0060338D02*
X0161150Y0060338D01*
X0160714Y0059839D02*
X0176347Y0059839D01*
X0176347Y0059341D02*
X0170273Y0059341D01*
X0170868Y0059094D02*
X0169526Y0059650D01*
X0163274Y0059650D01*
X0161932Y0059094D01*
X0160906Y0058068D01*
X0160350Y0056726D01*
X0160350Y0055274D01*
X0160906Y0053932D01*
X0161932Y0052906D01*
X0163274Y0052350D01*
X0169526Y0052350D01*
X0170868Y0052906D01*
X0171894Y0053932D01*
X0172450Y0055274D01*
X0172450Y0056726D01*
X0171894Y0058068D01*
X0170868Y0059094D01*
X0171120Y0058842D02*
X0176347Y0058842D01*
X0176347Y0058344D02*
X0171618Y0058344D01*
X0171986Y0057845D02*
X0176347Y0057845D01*
X0176347Y0057347D02*
X0172193Y0057347D01*
X0172399Y0056848D02*
X0176347Y0056848D01*
X0176347Y0056350D02*
X0172450Y0056350D01*
X0172450Y0055851D02*
X0176347Y0055851D01*
X0176347Y0055353D02*
X0172450Y0055353D01*
X0172276Y0054854D02*
X0176347Y0054854D01*
X0176347Y0054356D02*
X0172070Y0054356D01*
X0171819Y0053857D02*
X0176347Y0053857D01*
X0176347Y0053359D02*
X0171320Y0053359D01*
X0170757Y0052860D02*
X0176347Y0052860D01*
X0176347Y0052362D02*
X0169554Y0052362D01*
X0169526Y0049650D02*
X0163274Y0049650D01*
X0161932Y0049094D01*
X0160906Y0048068D01*
X0160350Y0046726D01*
X0160350Y0045274D01*
X0160906Y0043932D01*
X0161932Y0042906D01*
X0163274Y0042350D01*
X0169526Y0042350D01*
X0170868Y0042906D01*
X0171894Y0043932D01*
X0172450Y0045274D01*
X0172450Y0046726D01*
X0171894Y0048068D01*
X0170868Y0049094D01*
X0169526Y0049650D01*
X0170201Y0049370D02*
X0176347Y0049370D01*
X0176347Y0048872D02*
X0171090Y0048872D01*
X0171588Y0048373D02*
X0176347Y0048373D01*
X0176347Y0047875D02*
X0171974Y0047875D01*
X0172181Y0047376D02*
X0176347Y0047376D01*
X0176347Y0046878D02*
X0172387Y0046878D01*
X0172450Y0046379D02*
X0176347Y0046379D01*
X0176347Y0045881D02*
X0172450Y0045881D01*
X0172450Y0045382D02*
X0176347Y0045382D01*
X0176347Y0044884D02*
X0172288Y0044884D01*
X0172082Y0044385D02*
X0176347Y0044385D01*
X0176347Y0043887D02*
X0171849Y0043887D01*
X0171350Y0043388D02*
X0176347Y0043388D01*
X0176347Y0042890D02*
X0170829Y0042890D01*
X0169626Y0042391D02*
X0176347Y0042391D01*
X0176347Y0041893D02*
X0137302Y0041893D01*
X0137374Y0041719D02*
X0136824Y0043046D01*
X0135808Y0044062D01*
X0134481Y0044612D01*
X0128319Y0044612D01*
X0126992Y0044062D01*
X0125976Y0043046D01*
X0125426Y0041719D01*
X0125426Y0040281D01*
X0125976Y0038954D01*
X0126992Y0037938D01*
X0128319Y0037388D01*
X0134481Y0037388D01*
X0135808Y0037938D01*
X0136824Y0038954D01*
X0137374Y0040281D01*
X0137374Y0041719D01*
X0137374Y0041394D02*
X0176347Y0041394D01*
X0176347Y0040896D02*
X0137374Y0040896D01*
X0137374Y0040397D02*
X0176347Y0040397D01*
X0176347Y0039899D02*
X0137216Y0039899D01*
X0137009Y0039400D02*
X0176347Y0039400D01*
X0176347Y0038902D02*
X0136772Y0038902D01*
X0136274Y0038403D02*
X0176347Y0038403D01*
X0176347Y0037905D02*
X0135729Y0037905D01*
X0134525Y0037406D02*
X0176347Y0037406D01*
X0176347Y0036908D02*
X0055050Y0036908D01*
X0055050Y0037406D02*
X0068275Y0037406D01*
X0068319Y0037388D02*
X0074481Y0037388D01*
X0075808Y0037938D01*
X0076824Y0038954D01*
X0077374Y0040281D01*
X0077374Y0041719D01*
X0076824Y0043046D01*
X0075808Y0044062D01*
X0074481Y0044612D01*
X0068319Y0044612D01*
X0066992Y0044062D01*
X0065976Y0043046D01*
X0065426Y0041719D01*
X0065426Y0040281D01*
X0065976Y0038954D01*
X0066992Y0037938D01*
X0068319Y0037388D01*
X0067071Y0037905D02*
X0054657Y0037905D01*
X0055050Y0037512D02*
X0052912Y0039650D01*
X0051650Y0039650D01*
X0051650Y0036250D01*
X0055050Y0036250D01*
X0055050Y0037512D01*
X0055050Y0036409D02*
X0176347Y0036409D01*
X0176347Y0035911D02*
X0051650Y0035911D01*
X0051650Y0035750D02*
X0051650Y0036250D01*
X0051150Y0036250D01*
X0051150Y0039650D01*
X0049888Y0039650D01*
X0047750Y0037512D01*
X0047750Y0036250D01*
X0051150Y0036250D01*
X0051150Y0035750D01*
X0051650Y0035750D01*
X0055050Y0035750D01*
X0055050Y0034488D01*
X0052912Y0032350D01*
X0051650Y0032350D01*
X0051650Y0035750D01*
X0051650Y0035412D02*
X0051150Y0035412D01*
X0051150Y0035750D02*
X0051150Y0032350D01*
X0049888Y0032350D01*
X0047750Y0034488D01*
X0047750Y0035750D01*
X0051150Y0035750D01*
X0051150Y0035911D02*
X0045050Y0035911D01*
X0045050Y0036409D02*
X0047750Y0036409D01*
X0047750Y0036908D02*
X0045050Y0036908D01*
X0045050Y0037406D02*
X0047750Y0037406D01*
X0048143Y0037905D02*
X0044657Y0037905D01*
X0044159Y0038403D02*
X0048641Y0038403D01*
X0049140Y0038902D02*
X0043660Y0038902D01*
X0043162Y0039400D02*
X0049638Y0039400D01*
X0051150Y0039400D02*
X0051650Y0039400D01*
X0051650Y0038902D02*
X0051150Y0038902D01*
X0051150Y0038403D02*
X0051650Y0038403D01*
X0051650Y0037905D02*
X0051150Y0037905D01*
X0051150Y0037406D02*
X0051650Y0037406D01*
X0051650Y0036908D02*
X0051150Y0036908D01*
X0051150Y0036409D02*
X0051650Y0036409D01*
X0051650Y0034914D02*
X0051150Y0034914D01*
X0051150Y0034415D02*
X0051650Y0034415D01*
X0051650Y0033917D02*
X0051150Y0033917D01*
X0051150Y0033418D02*
X0051650Y0033418D01*
X0051650Y0032920D02*
X0051150Y0032920D01*
X0051150Y0032421D02*
X0051650Y0032421D01*
X0052983Y0032421D02*
X0065717Y0032421D01*
X0065923Y0032920D02*
X0053481Y0032920D01*
X0053980Y0033418D02*
X0066348Y0033418D01*
X0066846Y0033917D02*
X0054479Y0033917D01*
X0054977Y0034415D02*
X0067844Y0034415D01*
X0066526Y0038403D02*
X0054159Y0038403D01*
X0053660Y0038902D02*
X0066028Y0038902D01*
X0065791Y0039400D02*
X0053162Y0039400D01*
X0055050Y0035412D02*
X0176347Y0035412D01*
X0176347Y0034914D02*
X0055050Y0034914D01*
X0049817Y0032421D02*
X0042983Y0032421D01*
X0043481Y0032920D02*
X0049319Y0032920D01*
X0048820Y0033418D02*
X0043980Y0033418D01*
X0044479Y0033917D02*
X0048321Y0033917D01*
X0047823Y0034415D02*
X0044977Y0034415D01*
X0045050Y0034914D02*
X0047750Y0034914D01*
X0047750Y0035412D02*
X0045050Y0035412D01*
X0039976Y0039899D02*
X0065584Y0039899D01*
X0065426Y0040397D02*
X0039478Y0040397D01*
X0039150Y0040896D02*
X0065426Y0040896D01*
X0065426Y0041394D02*
X0039150Y0041394D01*
X0039150Y0041893D02*
X0065498Y0041893D01*
X0065704Y0042391D02*
X0039150Y0042391D01*
X0039150Y0042890D02*
X0065911Y0042890D01*
X0066318Y0043388D02*
X0039150Y0043388D01*
X0039150Y0043887D02*
X0066816Y0043887D01*
X0067772Y0044385D02*
X0039150Y0044385D01*
X0039150Y0044884D02*
X0140512Y0044884D01*
X0140350Y0045382D02*
X0039150Y0045382D01*
X0039150Y0045881D02*
X0140350Y0045881D01*
X0140350Y0046379D02*
X0039150Y0046379D01*
X0039150Y0046878D02*
X0140413Y0046878D01*
X0140619Y0047376D02*
X0052938Y0047376D01*
X0052912Y0047350D02*
X0055050Y0049488D01*
X0055050Y0050750D01*
X0051650Y0050750D01*
X0051650Y0051250D01*
X0055050Y0051250D01*
X0055050Y0052512D01*
X0052912Y0054650D01*
X0051650Y0054650D01*
X0051650Y0051250D01*
X0051150Y0051250D01*
X0051150Y0054650D01*
X0049888Y0054650D01*
X0047750Y0052512D01*
X0047750Y0051250D01*
X0051150Y0051250D01*
X0051150Y0050750D01*
X0051650Y0050750D01*
X0051650Y0047350D01*
X0052912Y0047350D01*
X0053437Y0047875D02*
X0067143Y0047875D01*
X0066992Y0047938D02*
X0068319Y0047388D01*
X0074481Y0047388D01*
X0075808Y0047938D01*
X0076824Y0048954D01*
X0077374Y0050281D01*
X0077374Y0051719D01*
X0076824Y0053046D01*
X0075808Y0054062D01*
X0074481Y0054612D01*
X0068319Y0054612D01*
X0066992Y0054062D01*
X0065976Y0053046D01*
X0065426Y0051719D01*
X0065426Y0050281D01*
X0065976Y0048954D01*
X0066992Y0047938D01*
X0066556Y0048373D02*
X0053935Y0048373D01*
X0054434Y0048872D02*
X0066057Y0048872D01*
X0065803Y0049370D02*
X0054932Y0049370D01*
X0055050Y0049869D02*
X0065596Y0049869D01*
X0065426Y0050368D02*
X0055050Y0050368D01*
X0055050Y0051365D02*
X0065426Y0051365D01*
X0065426Y0050866D02*
X0051650Y0050866D01*
X0051650Y0050368D02*
X0051150Y0050368D01*
X0051150Y0050750D02*
X0051150Y0047350D01*
X0049888Y0047350D01*
X0047750Y0049488D01*
X0047750Y0050750D01*
X0051150Y0050750D01*
X0051150Y0050866D02*
X0045050Y0050866D01*
X0045050Y0050368D02*
X0047750Y0050368D01*
X0047750Y0049869D02*
X0045050Y0049869D01*
X0044932Y0049370D02*
X0047868Y0049370D01*
X0048366Y0048872D02*
X0044434Y0048872D01*
X0043935Y0048373D02*
X0048865Y0048373D01*
X0049363Y0047875D02*
X0043437Y0047875D01*
X0042938Y0047376D02*
X0049862Y0047376D01*
X0051150Y0047376D02*
X0051650Y0047376D01*
X0051650Y0047875D02*
X0051150Y0047875D01*
X0051150Y0048373D02*
X0051650Y0048373D01*
X0051650Y0048872D02*
X0051150Y0048872D01*
X0051150Y0049370D02*
X0051650Y0049370D01*
X0051650Y0049869D02*
X0051150Y0049869D01*
X0051150Y0051365D02*
X0051650Y0051365D01*
X0051650Y0051863D02*
X0051150Y0051863D01*
X0051150Y0052362D02*
X0051650Y0052362D01*
X0051650Y0052860D02*
X0051150Y0052860D01*
X0051150Y0053359D02*
X0051650Y0053359D01*
X0051650Y0053857D02*
X0051150Y0053857D01*
X0051150Y0054356D02*
X0051650Y0054356D01*
X0053206Y0054356D02*
X0067700Y0054356D01*
X0066786Y0053857D02*
X0053705Y0053857D01*
X0054203Y0053359D02*
X0066288Y0053359D01*
X0065898Y0052860D02*
X0054702Y0052860D01*
X0055050Y0052362D02*
X0065692Y0052362D01*
X0065485Y0051863D02*
X0055050Y0051863D01*
X0049594Y0054356D02*
X0043206Y0054356D01*
X0043705Y0053857D02*
X0049095Y0053857D01*
X0048597Y0053359D02*
X0044203Y0053359D01*
X0044702Y0052860D02*
X0048098Y0052860D01*
X0047750Y0052362D02*
X0045050Y0052362D01*
X0045050Y0051863D02*
X0047750Y0051863D01*
X0047750Y0051365D02*
X0045050Y0051365D01*
X0039862Y0047376D02*
X0039150Y0047376D01*
X0039150Y0047875D02*
X0039363Y0047875D01*
X0043150Y0061335D02*
X0054728Y0061335D01*
X0053566Y0061833D02*
X0043150Y0061833D01*
X0043150Y0062332D02*
X0053068Y0062332D01*
X0052569Y0062830D02*
X0043150Y0062830D01*
X0043150Y0063329D02*
X0052149Y0063329D01*
X0051942Y0063827D02*
X0043150Y0063827D01*
X0043150Y0064326D02*
X0051736Y0064326D01*
X0051529Y0064824D02*
X0043150Y0064824D01*
X0043150Y0065323D02*
X0051450Y0065323D01*
X0051450Y0065821D02*
X0043150Y0065821D01*
X0043150Y0066320D02*
X0051450Y0066320D01*
X0051450Y0066818D02*
X0043150Y0066818D01*
X0043150Y0067317D02*
X0051588Y0067317D01*
X0051794Y0067815D02*
X0048377Y0067815D01*
X0048876Y0068314D02*
X0052001Y0068314D01*
X0052212Y0068812D02*
X0049374Y0068812D01*
X0044423Y0067815D02*
X0043150Y0067815D01*
X0043150Y0068314D02*
X0043924Y0068314D01*
X0043426Y0068812D02*
X0043150Y0068812D01*
X0039650Y0068314D02*
X0039348Y0068314D01*
X0039650Y0067815D02*
X0038850Y0067815D01*
X0039650Y0067317D02*
X0027150Y0067317D01*
X0027150Y0067815D02*
X0035446Y0067815D01*
X0034948Y0068314D02*
X0027150Y0068314D01*
X0027150Y0068812D02*
X0034449Y0068812D01*
X0033951Y0069311D02*
X0027626Y0069311D01*
X0028124Y0069809D02*
X0033498Y0069809D01*
X0033498Y0070308D02*
X0028623Y0070308D01*
X0028905Y0070806D02*
X0033498Y0070806D01*
X0033498Y0071305D02*
X0029111Y0071305D01*
X0029318Y0071803D02*
X0033498Y0071803D01*
X0033498Y0072302D02*
X0029422Y0072302D01*
X0029422Y0072801D02*
X0033511Y0072801D01*
X0034010Y0073299D02*
X0029422Y0073299D01*
X0029422Y0073798D02*
X0034508Y0073798D01*
X0035007Y0074296D02*
X0029218Y0074296D01*
X0029011Y0074795D02*
X0035505Y0074795D01*
X0038791Y0074795D02*
X0041720Y0074795D01*
X0042218Y0075293D02*
X0028805Y0075293D01*
X0028382Y0075792D02*
X0042717Y0075792D01*
X0043215Y0076290D02*
X0027883Y0076290D01*
X0027201Y0076789D02*
X0043714Y0076789D01*
X0044212Y0077287D02*
X0027668Y0077287D01*
X0028227Y0077786D02*
X0044711Y0077786D01*
X0045209Y0078284D02*
X0028630Y0078284D01*
X0028930Y0078783D02*
X0066147Y0078783D01*
X0065840Y0079281D02*
X0029154Y0079281D01*
X0029314Y0079780D02*
X0065633Y0079780D01*
X0065427Y0080278D02*
X0029393Y0080278D01*
X0021114Y0078783D02*
X0021092Y0078783D01*
X0020891Y0079281D02*
X0020594Y0079281D01*
X0020730Y0079780D02*
X0020095Y0079780D01*
X0019597Y0080278D02*
X0020651Y0080278D01*
X0027150Y0066818D02*
X0039650Y0066818D01*
X0039650Y0066320D02*
X0027150Y0066320D01*
X0027150Y0065821D02*
X0039650Y0065821D01*
X0039650Y0065323D02*
X0027150Y0065323D01*
X0027150Y0064824D02*
X0039650Y0064824D01*
X0039650Y0064326D02*
X0027549Y0064326D01*
X0039289Y0074296D02*
X0041221Y0074296D01*
X0040723Y0073798D02*
X0039788Y0073798D01*
X0038790Y0087756D02*
X0044482Y0087756D01*
X0044888Y0087350D02*
X0047912Y0087350D01*
X0050050Y0089488D01*
X0050050Y0092512D01*
X0047912Y0094650D01*
X0044888Y0094650D01*
X0042750Y0092512D01*
X0042750Y0089488D01*
X0044888Y0087350D01*
X0043984Y0088254D02*
X0039289Y0088254D01*
X0039787Y0088753D02*
X0043485Y0088753D01*
X0042987Y0089251D02*
X0040286Y0089251D01*
X0040784Y0089750D02*
X0042750Y0089750D01*
X0042750Y0090248D02*
X0040798Y0090248D01*
X0040798Y0090747D02*
X0042750Y0090747D01*
X0042750Y0091245D02*
X0040798Y0091245D01*
X0040798Y0091744D02*
X0042750Y0091744D01*
X0042750Y0092242D02*
X0040798Y0092242D01*
X0040798Y0092741D02*
X0042979Y0092741D01*
X0043478Y0093239D02*
X0040346Y0093239D01*
X0039847Y0093738D02*
X0043976Y0093738D01*
X0044475Y0094237D02*
X0039349Y0094237D01*
X0038850Y0094735D02*
X0051566Y0094735D01*
X0051773Y0094237D02*
X0048325Y0094237D01*
X0048824Y0093738D02*
X0051979Y0093738D01*
X0052186Y0093239D02*
X0049322Y0093239D01*
X0049821Y0092741D02*
X0052659Y0092741D01*
X0053157Y0092242D02*
X0050050Y0092242D01*
X0050050Y0091744D02*
X0053740Y0091744D01*
X0054944Y0091245D02*
X0050050Y0091245D01*
X0050050Y0090747D02*
X0065426Y0090747D01*
X0065426Y0091245D02*
X0057856Y0091245D01*
X0059060Y0091744D02*
X0065436Y0091744D01*
X0065643Y0092242D02*
X0059643Y0092242D01*
X0060141Y0092741D02*
X0065849Y0092741D01*
X0066169Y0093239D02*
X0060614Y0093239D01*
X0060821Y0093738D02*
X0066667Y0093738D01*
X0067412Y0094237D02*
X0061027Y0094237D01*
X0061043Y0097726D02*
X0067503Y0097726D01*
X0066705Y0098225D02*
X0060836Y0098225D01*
X0060630Y0098723D02*
X0066206Y0098723D01*
X0065865Y0099222D02*
X0060179Y0099222D01*
X0059680Y0099720D02*
X0065658Y0099720D01*
X0065452Y0100219D02*
X0059150Y0100219D01*
X0057947Y0100717D02*
X0065426Y0100717D01*
X0065439Y0090248D02*
X0050050Y0090248D01*
X0050050Y0089750D02*
X0065646Y0089750D01*
X0065852Y0089251D02*
X0049813Y0089251D01*
X0049315Y0088753D02*
X0066176Y0088753D01*
X0066675Y0088254D02*
X0048816Y0088254D01*
X0048318Y0087756D02*
X0067431Y0087756D01*
X0063601Y0114675D02*
X0033150Y0114675D01*
X0033150Y0115174D02*
X0064099Y0115174D01*
X0064598Y0115672D02*
X0033150Y0115672D01*
X0033150Y0116171D02*
X0065096Y0116171D01*
X0065595Y0116670D02*
X0033150Y0116670D01*
X0033150Y0117168D02*
X0066093Y0117168D01*
X0075154Y0117667D02*
X0127646Y0117667D01*
X0126764Y0118165D02*
X0076036Y0118165D01*
X0076534Y0118664D02*
X0126266Y0118664D01*
X0125889Y0119162D02*
X0076911Y0119162D01*
X0076720Y0123150D02*
X0126080Y0123150D01*
X0126578Y0123649D02*
X0076222Y0123649D01*
X0075603Y0124147D02*
X0127197Y0124147D01*
X0127984Y0127527D02*
X0127327Y0127799D01*
X0126735Y0128194D01*
X0126232Y0128697D01*
X0125837Y0129289D01*
X0125564Y0129946D01*
X0125426Y0130644D01*
X0125426Y0130750D01*
X0131150Y0130750D01*
X0131150Y0127388D01*
X0128682Y0127388D01*
X0127984Y0127527D01*
X0127718Y0127637D02*
X0075082Y0127637D01*
X0074481Y0127388D02*
X0075808Y0127938D01*
X0076824Y0128954D01*
X0077374Y0130281D01*
X0077374Y0131719D01*
X0076824Y0133046D01*
X0075808Y0134062D01*
X0074481Y0134612D01*
X0068319Y0134612D01*
X0066992Y0134062D01*
X0065976Y0133046D01*
X0065426Y0131719D01*
X0065426Y0130281D01*
X0065976Y0128954D01*
X0066992Y0127938D01*
X0068319Y0127388D01*
X0074481Y0127388D01*
X0076006Y0128135D02*
X0126823Y0128135D01*
X0126296Y0128634D02*
X0076504Y0128634D01*
X0076898Y0129132D02*
X0125941Y0129132D01*
X0125695Y0129631D02*
X0077105Y0129631D01*
X0077311Y0130129D02*
X0125528Y0130129D01*
X0125429Y0130628D02*
X0077374Y0130628D01*
X0077374Y0131126D02*
X0131150Y0131126D01*
X0131150Y0130628D02*
X0131650Y0130628D01*
X0131650Y0130129D02*
X0131150Y0130129D01*
X0131150Y0129631D02*
X0131650Y0129631D01*
X0131650Y0129132D02*
X0131150Y0129132D01*
X0131150Y0128634D02*
X0131650Y0128634D01*
X0131650Y0128135D02*
X0131150Y0128135D01*
X0131150Y0127637D02*
X0131650Y0127637D01*
X0135082Y0127637D02*
X0136650Y0127637D01*
X0136650Y0128135D02*
X0135977Y0128135D01*
X0136504Y0128634D02*
X0136650Y0128634D01*
X0136650Y0127138D02*
X0033150Y0127138D01*
X0033150Y0126640D02*
X0136650Y0126640D01*
X0136650Y0126141D02*
X0033150Y0126141D01*
X0033150Y0125643D02*
X0136650Y0125643D01*
X0136650Y0124147D02*
X0135603Y0124147D01*
X0136222Y0123649D02*
X0136650Y0123649D01*
X0131650Y0131625D02*
X0131150Y0131625D01*
X0131150Y0132123D02*
X0131650Y0132123D01*
X0131650Y0132622D02*
X0131150Y0132622D01*
X0131150Y0133120D02*
X0131650Y0133120D01*
X0131650Y0133619D02*
X0131150Y0133619D01*
X0131150Y0134117D02*
X0131650Y0134117D01*
X0132811Y0135114D02*
X0033150Y0135114D01*
X0033150Y0134616D02*
X0050592Y0134616D01*
X0050674Y0134650D02*
X0049332Y0134094D01*
X0048306Y0133068D01*
X0047750Y0131726D01*
X0047750Y0130274D01*
X0048306Y0128932D01*
X0049332Y0127906D01*
X0050674Y0127350D01*
X0056926Y0127350D01*
X0058268Y0127906D01*
X0059294Y0128932D01*
X0059850Y0130274D01*
X0059850Y0131726D01*
X0059294Y0133068D01*
X0058268Y0134094D01*
X0056926Y0134650D01*
X0050674Y0134650D01*
X0049388Y0134117D02*
X0033150Y0134117D01*
X0033150Y0133619D02*
X0048857Y0133619D01*
X0048359Y0133120D02*
X0033150Y0133120D01*
X0033150Y0132622D02*
X0048121Y0132622D01*
X0047915Y0132123D02*
X0033150Y0132123D01*
X0033150Y0131625D02*
X0047750Y0131625D01*
X0047750Y0131126D02*
X0033150Y0131126D01*
X0033150Y0130628D02*
X0047750Y0130628D01*
X0047810Y0130129D02*
X0033150Y0130129D01*
X0033150Y0129631D02*
X0048016Y0129631D01*
X0048223Y0129132D02*
X0033150Y0129132D01*
X0033150Y0128634D02*
X0048604Y0128634D01*
X0049103Y0128135D02*
X0033150Y0128135D01*
X0033150Y0127637D02*
X0049982Y0127637D01*
X0057008Y0134616D02*
X0133309Y0134616D01*
X0132312Y0135613D02*
X0033150Y0135613D01*
X0033150Y0136111D02*
X0131814Y0136111D01*
X0131315Y0136610D02*
X0033150Y0136610D01*
X0033150Y0137108D02*
X0130817Y0137108D01*
X0127790Y0137607D02*
X0075010Y0137607D01*
X0074481Y0137388D02*
X0075808Y0137938D01*
X0076824Y0138954D01*
X0077374Y0140281D01*
X0077374Y0141719D01*
X0076824Y0143046D01*
X0075808Y0144062D01*
X0074481Y0144612D01*
X0068319Y0144612D01*
X0066992Y0144062D01*
X0065976Y0143046D01*
X0065426Y0141719D01*
X0065426Y0140281D01*
X0065976Y0138954D01*
X0066992Y0137938D01*
X0068319Y0137388D01*
X0074481Y0137388D01*
X0075976Y0138105D02*
X0126824Y0138105D01*
X0126325Y0138604D02*
X0076475Y0138604D01*
X0076886Y0139103D02*
X0125914Y0139103D01*
X0125707Y0139601D02*
X0077093Y0139601D01*
X0077299Y0140100D02*
X0125501Y0140100D01*
X0125426Y0140598D02*
X0077374Y0140598D01*
X0077374Y0141097D02*
X0125426Y0141097D01*
X0125426Y0141595D02*
X0077374Y0141595D01*
X0077219Y0142094D02*
X0125581Y0142094D01*
X0125787Y0142592D02*
X0077013Y0142592D01*
X0076780Y0143091D02*
X0126020Y0143091D01*
X0126519Y0143589D02*
X0076281Y0143589D01*
X0075747Y0144088D02*
X0127053Y0144088D01*
X0127119Y0145026D02*
X0128446Y0145576D01*
X0129462Y0146592D01*
X0130012Y0147919D01*
X0130012Y0154081D01*
X0129462Y0155408D01*
X0128446Y0156424D01*
X0127119Y0156974D01*
X0125681Y0156974D01*
X0124354Y0156424D01*
X0123338Y0155408D01*
X0122788Y0154081D01*
X0122788Y0147919D01*
X0123338Y0146592D01*
X0124354Y0145576D01*
X0125681Y0145026D01*
X0127119Y0145026D01*
X0127261Y0145085D02*
X0176347Y0145085D01*
X0176347Y0145583D02*
X0128454Y0145583D01*
X0128952Y0146082D02*
X0176347Y0146082D01*
X0176347Y0146580D02*
X0129451Y0146580D01*
X0129664Y0147079D02*
X0176347Y0147079D01*
X0176347Y0147577D02*
X0129870Y0147577D01*
X0130012Y0148076D02*
X0176347Y0148076D01*
X0176347Y0148574D02*
X0130012Y0148574D01*
X0130012Y0149073D02*
X0176347Y0149073D01*
X0176347Y0149571D02*
X0130012Y0149571D01*
X0130012Y0150070D02*
X0176347Y0150070D01*
X0176347Y0150568D02*
X0130012Y0150568D01*
X0130012Y0151067D02*
X0176347Y0151067D01*
X0176347Y0151565D02*
X0130012Y0151565D01*
X0130012Y0152064D02*
X0176347Y0152064D01*
X0176347Y0152562D02*
X0130012Y0152562D01*
X0130012Y0153061D02*
X0176347Y0153061D01*
X0176347Y0153559D02*
X0130012Y0153559D01*
X0130012Y0154058D02*
X0176347Y0154058D01*
X0176347Y0154556D02*
X0129815Y0154556D01*
X0129609Y0155055D02*
X0156963Y0155055D01*
X0155760Y0155553D02*
X0129317Y0155553D01*
X0128819Y0156052D02*
X0154556Y0156052D01*
X0153764Y0156550D02*
X0128142Y0156550D01*
X0124658Y0156550D02*
X0118142Y0156550D01*
X0118446Y0156424D02*
X0117119Y0156974D01*
X0115681Y0156974D01*
X0114354Y0156424D01*
X0113338Y0155408D01*
X0112788Y0154081D01*
X0112788Y0147919D01*
X0113338Y0146592D01*
X0114354Y0145576D01*
X0115681Y0145026D01*
X0117119Y0145026D01*
X0118446Y0145576D01*
X0119462Y0146592D01*
X0120012Y0147919D01*
X0120012Y0154081D01*
X0119462Y0155408D01*
X0118446Y0156424D01*
X0118819Y0156052D02*
X0123981Y0156052D01*
X0123483Y0155553D02*
X0119317Y0155553D01*
X0119609Y0155055D02*
X0123191Y0155055D01*
X0122985Y0154556D02*
X0119815Y0154556D01*
X0120012Y0154058D02*
X0122788Y0154058D01*
X0122788Y0153559D02*
X0120012Y0153559D01*
X0120012Y0153061D02*
X0122788Y0153061D01*
X0122788Y0152562D02*
X0120012Y0152562D01*
X0120012Y0152064D02*
X0122788Y0152064D01*
X0122788Y0151565D02*
X0120012Y0151565D01*
X0120012Y0151067D02*
X0122788Y0151067D01*
X0122788Y0150568D02*
X0120012Y0150568D01*
X0120012Y0150070D02*
X0122788Y0150070D01*
X0122788Y0149571D02*
X0120012Y0149571D01*
X0120012Y0149073D02*
X0122788Y0149073D01*
X0122788Y0148574D02*
X0120012Y0148574D01*
X0120012Y0148076D02*
X0122788Y0148076D01*
X0122929Y0147577D02*
X0119870Y0147577D01*
X0119664Y0147079D02*
X0123136Y0147079D01*
X0123349Y0146580D02*
X0119451Y0146580D01*
X0118952Y0146082D02*
X0123848Y0146082D01*
X0124346Y0145583D02*
X0118454Y0145583D01*
X0117261Y0145085D02*
X0125539Y0145085D01*
X0128256Y0144586D02*
X0074544Y0144586D01*
X0074354Y0145576D02*
X0075681Y0145026D01*
X0077119Y0145026D01*
X0078446Y0145576D01*
X0079462Y0146592D01*
X0080012Y0147919D01*
X0080012Y0154081D01*
X0079462Y0155408D01*
X0078446Y0156424D01*
X0077119Y0156974D01*
X0075681Y0156974D01*
X0074354Y0156424D01*
X0073338Y0155408D01*
X0072788Y0154081D01*
X0072788Y0147919D01*
X0073338Y0146592D01*
X0074354Y0145576D01*
X0074346Y0145583D02*
X0033150Y0145583D01*
X0033150Y0145085D02*
X0075539Y0145085D01*
X0077261Y0145085D02*
X0085539Y0145085D01*
X0085681Y0145026D02*
X0087119Y0145026D01*
X0088446Y0145576D01*
X0089462Y0146592D01*
X0090012Y0147919D01*
X0090012Y0154081D01*
X0089462Y0155408D01*
X0088446Y0156424D01*
X0087119Y0156974D01*
X0085681Y0156974D01*
X0084354Y0156424D01*
X0083338Y0155408D01*
X0082788Y0154081D01*
X0082788Y0147919D01*
X0083338Y0146592D01*
X0084354Y0145576D01*
X0085681Y0145026D01*
X0084346Y0145583D02*
X0078454Y0145583D01*
X0078952Y0146082D02*
X0083848Y0146082D01*
X0083349Y0146580D02*
X0079451Y0146580D01*
X0079664Y0147079D02*
X0083136Y0147079D01*
X0082929Y0147577D02*
X0079870Y0147577D01*
X0080012Y0148076D02*
X0082788Y0148076D01*
X0082788Y0148574D02*
X0080012Y0148574D01*
X0080012Y0149073D02*
X0082788Y0149073D01*
X0082788Y0149571D02*
X0080012Y0149571D01*
X0080012Y0150070D02*
X0082788Y0150070D01*
X0082788Y0150568D02*
X0080012Y0150568D01*
X0080012Y0151067D02*
X0082788Y0151067D01*
X0082788Y0151565D02*
X0080012Y0151565D01*
X0080012Y0152064D02*
X0082788Y0152064D01*
X0082788Y0152562D02*
X0080012Y0152562D01*
X0080012Y0153061D02*
X0082788Y0153061D01*
X0082788Y0153559D02*
X0080012Y0153559D01*
X0080012Y0154058D02*
X0082788Y0154058D01*
X0082985Y0154556D02*
X0079815Y0154556D01*
X0079609Y0155055D02*
X0083191Y0155055D01*
X0083483Y0155553D02*
X0079317Y0155553D01*
X0078819Y0156052D02*
X0083981Y0156052D01*
X0084658Y0156550D02*
X0078142Y0156550D01*
X0074658Y0156550D02*
X0026201Y0156550D01*
X0026700Y0157049D02*
X0153266Y0157049D01*
X0152767Y0157547D02*
X0027198Y0157547D01*
X0027697Y0158046D02*
X0152269Y0158046D01*
X0151770Y0158544D02*
X0028195Y0158544D01*
X0028467Y0159043D02*
X0151499Y0159043D01*
X0151292Y0159541D02*
X0028673Y0159541D01*
X0028880Y0160040D02*
X0151086Y0160040D01*
X0150879Y0160539D02*
X0029086Y0160539D01*
X0029292Y0161037D02*
X0150673Y0161037D01*
X0150466Y0161536D02*
X0029499Y0161536D01*
X0029603Y0162034D02*
X0150363Y0162034D01*
X0150363Y0162533D02*
X0029603Y0162533D01*
X0029603Y0163031D02*
X0150363Y0163031D01*
X0150363Y0163530D02*
X0029603Y0163530D01*
X0029603Y0164028D02*
X0074883Y0164028D01*
X0073863Y0164527D02*
X0029603Y0164527D01*
X0029603Y0165025D02*
X0073364Y0165025D01*
X0072866Y0165524D02*
X0029458Y0165524D01*
X0029252Y0166022D02*
X0072619Y0166022D01*
X0072413Y0166521D02*
X0029045Y0166521D01*
X0028839Y0167019D02*
X0072206Y0167019D01*
X0072150Y0167518D02*
X0028632Y0167518D01*
X0028426Y0168016D02*
X0072150Y0168016D01*
X0072150Y0168515D02*
X0028097Y0168515D01*
X0027598Y0169013D02*
X0072150Y0169013D01*
X0072150Y0169512D02*
X0027099Y0169512D01*
X0026601Y0170010D02*
X0072150Y0170010D01*
X0072150Y0170509D02*
X0026102Y0170509D01*
X0025171Y0171007D02*
X0072150Y0171007D01*
X0072150Y0171506D02*
X0023968Y0171506D01*
X0025409Y0156052D02*
X0073981Y0156052D01*
X0073483Y0155553D02*
X0024206Y0155553D01*
X0023002Y0155055D02*
X0073191Y0155055D01*
X0072985Y0154556D02*
X0043005Y0154556D01*
X0042912Y0154650D02*
X0041650Y0154650D01*
X0041650Y0151250D01*
X0045050Y0151250D01*
X0045050Y0152512D01*
X0042912Y0154650D01*
X0043504Y0154058D02*
X0072788Y0154058D01*
X0072788Y0153559D02*
X0044003Y0153559D01*
X0044501Y0153061D02*
X0072788Y0153061D01*
X0072788Y0152562D02*
X0045000Y0152562D01*
X0045050Y0152064D02*
X0072788Y0152064D01*
X0072788Y0151565D02*
X0045050Y0151565D01*
X0045050Y0150750D02*
X0041650Y0150750D01*
X0041650Y0151250D01*
X0041150Y0151250D01*
X0041150Y0154650D01*
X0039888Y0154650D01*
X0037750Y0152512D01*
X0037750Y0151250D01*
X0041150Y0151250D01*
X0041150Y0150750D01*
X0041650Y0150750D01*
X0041650Y0147350D01*
X0042912Y0147350D01*
X0045050Y0149488D01*
X0045050Y0150750D01*
X0045050Y0150568D02*
X0072788Y0150568D01*
X0072788Y0150070D02*
X0045050Y0150070D01*
X0045050Y0149571D02*
X0072788Y0149571D01*
X0072788Y0149073D02*
X0044635Y0149073D01*
X0044136Y0148574D02*
X0072788Y0148574D01*
X0072788Y0148076D02*
X0043638Y0148076D01*
X0043139Y0147577D02*
X0072929Y0147577D01*
X0073136Y0147079D02*
X0033150Y0147079D01*
X0033150Y0147577D02*
X0039661Y0147577D01*
X0039888Y0147350D02*
X0041150Y0147350D01*
X0041150Y0150750D01*
X0037750Y0150750D01*
X0037750Y0149488D01*
X0039888Y0147350D01*
X0039162Y0148076D02*
X0033638Y0148076D01*
X0034136Y0148574D02*
X0038664Y0148574D01*
X0038165Y0149073D02*
X0034635Y0149073D01*
X0035050Y0149571D02*
X0037750Y0149571D01*
X0037750Y0150070D02*
X0035050Y0150070D01*
X0035050Y0150568D02*
X0037750Y0150568D01*
X0037750Y0151565D02*
X0035050Y0151565D01*
X0035050Y0151067D02*
X0041150Y0151067D01*
X0041150Y0151565D02*
X0041650Y0151565D01*
X0041650Y0151067D02*
X0072788Y0151067D01*
X0073349Y0146580D02*
X0033150Y0146580D01*
X0033150Y0146082D02*
X0073848Y0146082D01*
X0068256Y0144586D02*
X0057080Y0144586D01*
X0056926Y0144650D02*
X0058268Y0144094D01*
X0059294Y0143068D01*
X0059850Y0141726D01*
X0059850Y0140274D01*
X0059294Y0138932D01*
X0058268Y0137906D01*
X0056926Y0137350D01*
X0050674Y0137350D01*
X0049332Y0137906D01*
X0048306Y0138932D01*
X0047750Y0140274D01*
X0047750Y0141726D01*
X0048306Y0143068D01*
X0049332Y0144094D01*
X0050674Y0144650D01*
X0056926Y0144650D01*
X0058274Y0144088D02*
X0067053Y0144088D01*
X0066519Y0143589D02*
X0058773Y0143589D01*
X0059271Y0143091D02*
X0066020Y0143091D01*
X0065787Y0142592D02*
X0059491Y0142592D01*
X0059698Y0142094D02*
X0065581Y0142094D01*
X0065426Y0141595D02*
X0059850Y0141595D01*
X0059850Y0141097D02*
X0065426Y0141097D01*
X0065426Y0140598D02*
X0059850Y0140598D01*
X0059778Y0140100D02*
X0065501Y0140100D01*
X0065707Y0139601D02*
X0059571Y0139601D01*
X0059365Y0139103D02*
X0065914Y0139103D01*
X0066325Y0138604D02*
X0058966Y0138604D01*
X0058467Y0138105D02*
X0066824Y0138105D01*
X0067790Y0137607D02*
X0057546Y0137607D01*
X0058212Y0134117D02*
X0067125Y0134117D01*
X0066548Y0133619D02*
X0058743Y0133619D01*
X0059241Y0133120D02*
X0066050Y0133120D01*
X0065800Y0132622D02*
X0059479Y0132622D01*
X0059685Y0132123D02*
X0065593Y0132123D01*
X0065426Y0131625D02*
X0059850Y0131625D01*
X0059850Y0131126D02*
X0065426Y0131126D01*
X0065426Y0130628D02*
X0059850Y0130628D01*
X0059790Y0130129D02*
X0065489Y0130129D01*
X0065695Y0129631D02*
X0059584Y0129631D01*
X0059377Y0129132D02*
X0065902Y0129132D01*
X0066296Y0128634D02*
X0058996Y0128634D01*
X0058497Y0128135D02*
X0066794Y0128135D01*
X0067718Y0127637D02*
X0057618Y0127637D01*
X0050054Y0137607D02*
X0033150Y0137607D01*
X0033150Y0138105D02*
X0049133Y0138105D01*
X0048634Y0138604D02*
X0033150Y0138604D01*
X0033150Y0139103D02*
X0048235Y0139103D01*
X0048029Y0139601D02*
X0033150Y0139601D01*
X0033150Y0140100D02*
X0047822Y0140100D01*
X0047750Y0140598D02*
X0033150Y0140598D01*
X0033150Y0141097D02*
X0047750Y0141097D01*
X0047750Y0141595D02*
X0033150Y0141595D01*
X0033150Y0142094D02*
X0047902Y0142094D01*
X0048109Y0142592D02*
X0033150Y0142592D01*
X0033150Y0143091D02*
X0048329Y0143091D01*
X0048827Y0143589D02*
X0033150Y0143589D01*
X0033150Y0144088D02*
X0049326Y0144088D01*
X0050520Y0144586D02*
X0033150Y0144586D01*
X0029650Y0144586D02*
X0022280Y0144586D01*
X0023474Y0144088D02*
X0029650Y0144088D01*
X0029650Y0143589D02*
X0023973Y0143589D01*
X0024471Y0143091D02*
X0029650Y0143091D01*
X0029650Y0142592D02*
X0024691Y0142592D01*
X0024898Y0142094D02*
X0029650Y0142094D01*
X0029650Y0141595D02*
X0025050Y0141595D01*
X0025050Y0141097D02*
X0029650Y0141097D01*
X0029650Y0140598D02*
X0025050Y0140598D01*
X0024978Y0140100D02*
X0029650Y0140100D01*
X0029650Y0139601D02*
X0024771Y0139601D01*
X0024565Y0139103D02*
X0029650Y0139103D01*
X0029650Y0138604D02*
X0024166Y0138604D01*
X0023667Y0138105D02*
X0029650Y0138105D01*
X0029650Y0137607D02*
X0022746Y0137607D01*
X0029650Y0137108D02*
X0003618Y0137108D01*
X0003618Y0136610D02*
X0029650Y0136610D01*
X0029650Y0136111D02*
X0003618Y0136111D01*
X0003618Y0135613D02*
X0029650Y0135613D01*
X0029650Y0127138D02*
X0003618Y0127138D01*
X0003618Y0126640D02*
X0029650Y0126640D01*
X0029650Y0126141D02*
X0003618Y0126141D01*
X0003618Y0125643D02*
X0029650Y0125643D01*
X0029650Y0124147D02*
X0023340Y0124147D01*
X0023913Y0123649D02*
X0029650Y0123649D01*
X0029650Y0123150D02*
X0024412Y0123150D01*
X0024667Y0122652D02*
X0029650Y0122652D01*
X0029650Y0122153D02*
X0024873Y0122153D01*
X0025050Y0121655D02*
X0029650Y0121655D01*
X0029650Y0121156D02*
X0025050Y0121156D01*
X0025050Y0120658D02*
X0029650Y0120658D01*
X0029650Y0120159D02*
X0025002Y0120159D01*
X0024796Y0119661D02*
X0029650Y0119661D01*
X0029650Y0119162D02*
X0024589Y0119162D01*
X0024225Y0118664D02*
X0029650Y0118664D01*
X0029650Y0118165D02*
X0023727Y0118165D01*
X0022890Y0117667D02*
X0029650Y0117667D01*
X0029650Y0117168D02*
X0003618Y0117168D01*
X0003618Y0116670D02*
X0029650Y0116670D01*
X0029650Y0116171D02*
X0003618Y0116171D01*
X0003618Y0115672D02*
X0029650Y0115672D01*
X0029650Y0115174D02*
X0003618Y0115174D01*
X0003618Y0127637D02*
X0015182Y0127637D01*
X0014303Y0128135D02*
X0003618Y0128135D01*
X0003618Y0128634D02*
X0013804Y0128634D01*
X0013423Y0129132D02*
X0003618Y0129132D01*
X0003618Y0129631D02*
X0013216Y0129631D01*
X0013010Y0130129D02*
X0003618Y0130129D01*
X0003618Y0130628D02*
X0012950Y0130628D01*
X0012950Y0131126D02*
X0003618Y0131126D01*
X0003618Y0131625D02*
X0012950Y0131625D01*
X0013115Y0132123D02*
X0003618Y0132123D01*
X0003618Y0132622D02*
X0013321Y0132622D01*
X0013559Y0133120D02*
X0003618Y0133120D01*
X0003618Y0133619D02*
X0014057Y0133619D01*
X0014588Y0134117D02*
X0003618Y0134117D01*
X0033005Y0154556D02*
X0039795Y0154556D01*
X0039296Y0154058D02*
X0033504Y0154058D01*
X0034003Y0153559D02*
X0038797Y0153559D01*
X0038299Y0153061D02*
X0034501Y0153061D01*
X0035000Y0152562D02*
X0037800Y0152562D01*
X0037750Y0152064D02*
X0035050Y0152064D01*
X0041150Y0152064D02*
X0041650Y0152064D01*
X0041650Y0152562D02*
X0041150Y0152562D01*
X0041150Y0153061D02*
X0041650Y0153061D01*
X0041650Y0153559D02*
X0041150Y0153559D01*
X0041150Y0154058D02*
X0041650Y0154058D01*
X0041650Y0154556D02*
X0041150Y0154556D01*
X0041150Y0150568D02*
X0041650Y0150568D01*
X0041650Y0150070D02*
X0041150Y0150070D01*
X0041150Y0149571D02*
X0041650Y0149571D01*
X0041650Y0149073D02*
X0041150Y0149073D01*
X0041150Y0148574D02*
X0041650Y0148574D01*
X0041650Y0148076D02*
X0041150Y0148076D01*
X0041150Y0147577D02*
X0041650Y0147577D01*
X0075675Y0134117D02*
X0127202Y0134117D01*
X0126548Y0133619D02*
X0076252Y0133619D01*
X0076750Y0133120D02*
X0126110Y0133120D01*
X0125800Y0132622D02*
X0077000Y0132622D01*
X0077207Y0132123D02*
X0125593Y0132123D01*
X0125479Y0131625D02*
X0077374Y0131625D01*
X0087261Y0145085D02*
X0095539Y0145085D01*
X0095681Y0145026D02*
X0097119Y0145026D01*
X0098446Y0145576D01*
X0099462Y0146592D01*
X0100012Y0147919D01*
X0100012Y0154081D01*
X0099462Y0155408D01*
X0098446Y0156424D01*
X0097119Y0156974D01*
X0095681Y0156974D01*
X0094354Y0156424D01*
X0093338Y0155408D01*
X0092788Y0154081D01*
X0092788Y0147919D01*
X0093338Y0146592D01*
X0094354Y0145576D01*
X0095681Y0145026D01*
X0094346Y0145583D02*
X0088454Y0145583D01*
X0088952Y0146082D02*
X0093848Y0146082D01*
X0093349Y0146580D02*
X0089451Y0146580D01*
X0089664Y0147079D02*
X0093136Y0147079D01*
X0092929Y0147577D02*
X0089870Y0147577D01*
X0090012Y0148076D02*
X0092788Y0148076D01*
X0092788Y0148574D02*
X0090012Y0148574D01*
X0090012Y0149073D02*
X0092788Y0149073D01*
X0092788Y0149571D02*
X0090012Y0149571D01*
X0090012Y0150070D02*
X0092788Y0150070D01*
X0092788Y0150568D02*
X0090012Y0150568D01*
X0090012Y0151067D02*
X0092788Y0151067D01*
X0092788Y0151565D02*
X0090012Y0151565D01*
X0090012Y0152064D02*
X0092788Y0152064D01*
X0092788Y0152562D02*
X0090012Y0152562D01*
X0090012Y0153061D02*
X0092788Y0153061D01*
X0092788Y0153559D02*
X0090012Y0153559D01*
X0090012Y0154058D02*
X0092788Y0154058D01*
X0092985Y0154556D02*
X0089815Y0154556D01*
X0089609Y0155055D02*
X0093191Y0155055D01*
X0093483Y0155553D02*
X0089317Y0155553D01*
X0088819Y0156052D02*
X0093981Y0156052D01*
X0094658Y0156550D02*
X0088142Y0156550D01*
X0098142Y0156550D02*
X0104658Y0156550D01*
X0104354Y0156424D02*
X0105681Y0156974D01*
X0107119Y0156974D01*
X0108446Y0156424D01*
X0109462Y0155408D01*
X0110012Y0154081D01*
X0110012Y0147919D01*
X0109462Y0146592D01*
X0108446Y0145576D01*
X0107119Y0145026D01*
X0105681Y0145026D01*
X0104354Y0145576D01*
X0103338Y0146592D01*
X0102788Y0147919D01*
X0102788Y0154081D01*
X0103338Y0155408D01*
X0104354Y0156424D01*
X0103981Y0156052D02*
X0098819Y0156052D01*
X0099317Y0155553D02*
X0103483Y0155553D01*
X0103191Y0155055D02*
X0099609Y0155055D01*
X0099815Y0154556D02*
X0102985Y0154556D01*
X0102788Y0154058D02*
X0100012Y0154058D01*
X0100012Y0153559D02*
X0102788Y0153559D01*
X0102788Y0153061D02*
X0100012Y0153061D01*
X0100012Y0152562D02*
X0102788Y0152562D01*
X0102788Y0152064D02*
X0100012Y0152064D01*
X0100012Y0151565D02*
X0102788Y0151565D01*
X0102788Y0151067D02*
X0100012Y0151067D01*
X0100012Y0150568D02*
X0102788Y0150568D01*
X0102788Y0150070D02*
X0100012Y0150070D01*
X0100012Y0149571D02*
X0102788Y0149571D01*
X0102788Y0149073D02*
X0100012Y0149073D01*
X0100012Y0148574D02*
X0102788Y0148574D01*
X0102788Y0148076D02*
X0100012Y0148076D01*
X0099870Y0147577D02*
X0102929Y0147577D01*
X0103136Y0147079D02*
X0099664Y0147079D01*
X0099451Y0146580D02*
X0103349Y0146580D01*
X0103848Y0146082D02*
X0098952Y0146082D01*
X0098454Y0145583D02*
X0104346Y0145583D01*
X0105539Y0145085D02*
X0097261Y0145085D01*
X0107261Y0145085D02*
X0115539Y0145085D01*
X0114346Y0145583D02*
X0108454Y0145583D01*
X0108952Y0146082D02*
X0113848Y0146082D01*
X0113349Y0146580D02*
X0109451Y0146580D01*
X0109664Y0147079D02*
X0113136Y0147079D01*
X0112929Y0147577D02*
X0109870Y0147577D01*
X0110012Y0148076D02*
X0112788Y0148076D01*
X0112788Y0148574D02*
X0110012Y0148574D01*
X0110012Y0149073D02*
X0112788Y0149073D01*
X0112788Y0149571D02*
X0110012Y0149571D01*
X0110012Y0150070D02*
X0112788Y0150070D01*
X0112788Y0150568D02*
X0110012Y0150568D01*
X0110012Y0151067D02*
X0112788Y0151067D01*
X0112788Y0151565D02*
X0110012Y0151565D01*
X0110012Y0152064D02*
X0112788Y0152064D01*
X0112788Y0152562D02*
X0110012Y0152562D01*
X0110012Y0153061D02*
X0112788Y0153061D01*
X0112788Y0153559D02*
X0110012Y0153559D01*
X0110012Y0154058D02*
X0112788Y0154058D01*
X0112985Y0154556D02*
X0109815Y0154556D01*
X0109609Y0155055D02*
X0113191Y0155055D01*
X0113483Y0155553D02*
X0109317Y0155553D01*
X0108819Y0156052D02*
X0113981Y0156052D01*
X0114658Y0156550D02*
X0108142Y0156550D01*
X0114055Y0113180D02*
X0126109Y0113180D01*
X0125824Y0112681D02*
X0113556Y0112681D01*
X0113058Y0112183D02*
X0125618Y0112183D01*
X0125426Y0111684D02*
X0112559Y0111684D01*
X0112061Y0111186D02*
X0125426Y0111186D01*
X0125426Y0110687D02*
X0111562Y0110687D01*
X0111064Y0110189D02*
X0125464Y0110189D01*
X0125670Y0109690D02*
X0110565Y0109690D01*
X0110067Y0109192D02*
X0112304Y0109192D01*
X0111992Y0109062D02*
X0110976Y0108046D01*
X0110426Y0106719D01*
X0110426Y0105281D01*
X0110976Y0103954D01*
X0111992Y0102938D01*
X0113319Y0102388D01*
X0119481Y0102388D01*
X0120808Y0102938D01*
X0121824Y0103954D01*
X0122374Y0105281D01*
X0122374Y0106719D01*
X0121824Y0108046D01*
X0120808Y0109062D01*
X0119481Y0109612D01*
X0113319Y0109612D01*
X0111992Y0109062D01*
X0111623Y0108693D02*
X0109568Y0108693D01*
X0109070Y0108195D02*
X0111124Y0108195D01*
X0110831Y0107696D02*
X0108571Y0107696D01*
X0108073Y0107198D02*
X0110624Y0107198D01*
X0110426Y0106699D02*
X0107574Y0106699D01*
X0107076Y0106201D02*
X0110426Y0106201D01*
X0110426Y0105702D02*
X0106577Y0105702D01*
X0106079Y0105204D02*
X0110458Y0105204D01*
X0110664Y0104705D02*
X0105580Y0104705D01*
X0105082Y0104207D02*
X0110871Y0104207D01*
X0111221Y0103708D02*
X0104583Y0103708D01*
X0104085Y0103210D02*
X0111720Y0103210D01*
X0112539Y0102711D02*
X0103586Y0102711D01*
X0103088Y0102213D02*
X0125630Y0102213D01*
X0125426Y0101714D02*
X0102589Y0101714D01*
X0102091Y0101216D02*
X0125426Y0101216D01*
X0125426Y0100717D02*
X0101592Y0100717D01*
X0101093Y0100219D02*
X0125452Y0100219D01*
X0125837Y0102711D02*
X0120261Y0102711D01*
X0121080Y0103210D02*
X0126139Y0103210D01*
X0126638Y0103708D02*
X0121579Y0103708D01*
X0121929Y0104207D02*
X0127340Y0104207D01*
X0127574Y0107696D02*
X0121969Y0107696D01*
X0122176Y0107198D02*
X0143123Y0107198D01*
X0143621Y0107696D02*
X0135226Y0107696D01*
X0136065Y0108195D02*
X0144120Y0108195D01*
X0144618Y0108693D02*
X0136564Y0108693D01*
X0136923Y0109192D02*
X0145117Y0109192D01*
X0145616Y0109690D02*
X0137130Y0109690D01*
X0137336Y0110189D02*
X0146114Y0110189D01*
X0146613Y0110687D02*
X0137374Y0110687D01*
X0137374Y0111186D02*
X0147111Y0111186D01*
X0147610Y0111684D02*
X0137374Y0111684D01*
X0137182Y0112183D02*
X0148108Y0112183D01*
X0148607Y0112681D02*
X0136976Y0112681D01*
X0136691Y0113180D02*
X0149105Y0113180D01*
X0149604Y0113678D02*
X0136192Y0113678D01*
X0135531Y0114177D02*
X0150102Y0114177D01*
X0150076Y0106201D02*
X0151076Y0106201D01*
X0151381Y0105702D02*
X0149577Y0105702D01*
X0149079Y0105204D02*
X0151880Y0105204D01*
X0152378Y0104705D02*
X0148580Y0104705D01*
X0148082Y0104207D02*
X0153479Y0104207D01*
X0156408Y0104207D02*
X0157650Y0104207D01*
X0157650Y0104705D02*
X0157508Y0104705D01*
X0157650Y0103708D02*
X0147583Y0103708D01*
X0147085Y0103210D02*
X0157650Y0103210D01*
X0157650Y0102711D02*
X0146586Y0102711D01*
X0146088Y0102213D02*
X0157650Y0102213D01*
X0157650Y0101714D02*
X0145589Y0101714D01*
X0145091Y0101216D02*
X0157650Y0101216D01*
X0157650Y0100717D02*
X0144592Y0100717D01*
X0144094Y0100219D02*
X0157650Y0100219D01*
X0157650Y0099720D02*
X0143595Y0099720D01*
X0143096Y0099222D02*
X0157650Y0099222D01*
X0157650Y0098723D02*
X0142598Y0098723D01*
X0142099Y0098225D02*
X0157650Y0098225D01*
X0157650Y0097726D02*
X0141601Y0097726D01*
X0141102Y0097228D02*
X0157650Y0097228D01*
X0157650Y0096729D02*
X0140604Y0096729D01*
X0140105Y0096231D02*
X0157650Y0096231D01*
X0157650Y0095732D02*
X0139607Y0095732D01*
X0139108Y0095234D02*
X0157650Y0095234D01*
X0157650Y0094735D02*
X0138610Y0094735D01*
X0138111Y0094237D02*
X0157650Y0094237D01*
X0157650Y0093738D02*
X0137613Y0093738D01*
X0136631Y0093239D02*
X0157650Y0093239D01*
X0157650Y0092741D02*
X0136951Y0092741D01*
X0137157Y0092242D02*
X0157650Y0092242D01*
X0157650Y0091744D02*
X0137364Y0091744D01*
X0137374Y0091245D02*
X0157650Y0091245D01*
X0157650Y0090747D02*
X0137374Y0090747D01*
X0137361Y0090248D02*
X0157650Y0090248D01*
X0157650Y0089750D02*
X0137154Y0089750D01*
X0136948Y0089251D02*
X0142312Y0089251D01*
X0141591Y0088753D02*
X0136623Y0088753D01*
X0136125Y0088254D02*
X0141092Y0088254D01*
X0140777Y0087756D02*
X0135369Y0087756D01*
X0135316Y0084266D02*
X0140767Y0084266D01*
X0141070Y0083768D02*
X0136103Y0083768D01*
X0136601Y0083269D02*
X0141569Y0083269D01*
X0142258Y0082771D02*
X0136939Y0082771D01*
X0137145Y0082272D02*
X0157650Y0082272D01*
X0157650Y0081774D02*
X0137352Y0081774D01*
X0137374Y0081275D02*
X0157650Y0081275D01*
X0157650Y0080777D02*
X0137374Y0080777D01*
X0137373Y0080278D02*
X0157650Y0080278D01*
X0157650Y0079780D02*
X0137167Y0079780D01*
X0136960Y0079281D02*
X0157650Y0079281D01*
X0157650Y0078783D02*
X0136653Y0078783D01*
X0136155Y0078284D02*
X0157650Y0078284D01*
X0157650Y0077786D02*
X0135441Y0077786D01*
X0135244Y0074296D02*
X0157650Y0074296D01*
X0157650Y0073798D02*
X0136073Y0073798D01*
X0136572Y0073299D02*
X0157650Y0073299D01*
X0157650Y0072801D02*
X0136926Y0072801D01*
X0137133Y0072302D02*
X0157650Y0072302D01*
X0157650Y0071803D02*
X0137339Y0071803D01*
X0137374Y0071305D02*
X0157650Y0071305D01*
X0157650Y0070806D02*
X0137374Y0070806D01*
X0137374Y0070308D02*
X0157650Y0070308D01*
X0157650Y0069809D02*
X0137179Y0069809D01*
X0136972Y0069311D02*
X0157650Y0069311D01*
X0157650Y0068812D02*
X0136683Y0068812D01*
X0136185Y0068314D02*
X0157650Y0068314D01*
X0157650Y0067815D02*
X0135513Y0067815D01*
X0135172Y0064326D02*
X0157650Y0064326D01*
X0157650Y0064824D02*
X0122185Y0064824D01*
X0122374Y0065323D02*
X0157650Y0065323D01*
X0157650Y0065821D02*
X0122374Y0065821D01*
X0122374Y0066320D02*
X0157650Y0066320D01*
X0157650Y0066818D02*
X0122333Y0066818D01*
X0122127Y0067317D02*
X0157650Y0067317D01*
X0157650Y0063827D02*
X0136043Y0063827D01*
X0136542Y0063329D02*
X0157650Y0063329D01*
X0157650Y0062830D02*
X0136914Y0062830D01*
X0137120Y0062332D02*
X0157650Y0062332D01*
X0157650Y0061833D02*
X0137327Y0061833D01*
X0137374Y0061335D02*
X0157260Y0061335D01*
X0156761Y0060836D02*
X0137374Y0060836D01*
X0137374Y0060338D02*
X0156263Y0060338D01*
X0155764Y0059839D02*
X0137191Y0059839D01*
X0136985Y0059341D02*
X0142527Y0059341D01*
X0141680Y0058842D02*
X0136713Y0058842D01*
X0136214Y0058344D02*
X0141182Y0058344D01*
X0140814Y0057845D02*
X0135585Y0057845D01*
X0134481Y0054612D02*
X0135808Y0054062D01*
X0136824Y0053046D01*
X0137374Y0051719D01*
X0137374Y0050281D01*
X0136824Y0048954D01*
X0135808Y0047938D01*
X0134481Y0047388D01*
X0128319Y0047388D01*
X0126992Y0047938D01*
X0125976Y0048954D01*
X0125426Y0050281D01*
X0125426Y0051719D01*
X0125976Y0053046D01*
X0126992Y0054062D01*
X0128319Y0054612D01*
X0134481Y0054612D01*
X0135100Y0054356D02*
X0140730Y0054356D01*
X0140524Y0054854D02*
X0122197Y0054854D01*
X0122374Y0055353D02*
X0140350Y0055353D01*
X0140350Y0055851D02*
X0122374Y0055851D01*
X0122374Y0056350D02*
X0140350Y0056350D01*
X0140401Y0056848D02*
X0122321Y0056848D01*
X0122114Y0057347D02*
X0140607Y0057347D01*
X0140981Y0053857D02*
X0136014Y0053857D01*
X0136512Y0053359D02*
X0141480Y0053359D01*
X0142043Y0052860D02*
X0136902Y0052860D01*
X0137108Y0052362D02*
X0143246Y0052362D01*
X0142599Y0049370D02*
X0136997Y0049370D01*
X0137204Y0049869D02*
X0145794Y0049869D01*
X0146293Y0050368D02*
X0137374Y0050368D01*
X0137374Y0050866D02*
X0146791Y0050866D01*
X0147290Y0051365D02*
X0137374Y0051365D01*
X0137315Y0051863D02*
X0147788Y0051863D01*
X0150744Y0049869D02*
X0176347Y0049869D01*
X0176347Y0050368D02*
X0151242Y0050368D01*
X0151741Y0050866D02*
X0176347Y0050866D01*
X0176347Y0051365D02*
X0152239Y0051365D01*
X0152738Y0051863D02*
X0176347Y0051863D01*
X0163246Y0052362D02*
X0153236Y0052362D01*
X0153735Y0052860D02*
X0162043Y0052860D01*
X0161480Y0053359D02*
X0154233Y0053359D01*
X0154732Y0053857D02*
X0160981Y0053857D01*
X0160730Y0054356D02*
X0155230Y0054356D01*
X0155729Y0054854D02*
X0160524Y0054854D01*
X0160350Y0055353D02*
X0156227Y0055353D01*
X0156726Y0055851D02*
X0160350Y0055851D01*
X0160350Y0056350D02*
X0157224Y0056350D01*
X0157723Y0056848D02*
X0160401Y0056848D01*
X0160607Y0057347D02*
X0158222Y0057347D01*
X0158720Y0057845D02*
X0160814Y0057845D01*
X0161182Y0058344D02*
X0159219Y0058344D01*
X0159717Y0058842D02*
X0161680Y0058842D01*
X0162527Y0059341D02*
X0160216Y0059341D01*
X0155266Y0059341D02*
X0150273Y0059341D01*
X0151120Y0058842D02*
X0154767Y0058842D01*
X0154269Y0058344D02*
X0151618Y0058344D01*
X0151986Y0057845D02*
X0153770Y0057845D01*
X0153272Y0057347D02*
X0152193Y0057347D01*
X0152399Y0056848D02*
X0152773Y0056848D01*
X0150245Y0049370D02*
X0162599Y0049370D01*
X0161710Y0048872D02*
X0151090Y0048872D01*
X0151588Y0048373D02*
X0161212Y0048373D01*
X0160826Y0047875D02*
X0151974Y0047875D01*
X0152181Y0047376D02*
X0160619Y0047376D01*
X0160413Y0046878D02*
X0152387Y0046878D01*
X0152450Y0046379D02*
X0160350Y0046379D01*
X0160350Y0045881D02*
X0152450Y0045881D01*
X0152450Y0045382D02*
X0160350Y0045382D01*
X0160512Y0044884D02*
X0152288Y0044884D01*
X0152082Y0044385D02*
X0160718Y0044385D01*
X0160951Y0043887D02*
X0151849Y0043887D01*
X0151350Y0043388D02*
X0161450Y0043388D01*
X0161971Y0042890D02*
X0150829Y0042890D01*
X0149626Y0042391D02*
X0163174Y0042391D01*
X0161265Y0033917D02*
X0176347Y0033917D01*
X0176347Y0034415D02*
X0134956Y0034415D01*
X0134481Y0034612D02*
X0135808Y0034062D01*
X0136824Y0033046D01*
X0137374Y0031719D01*
X0137374Y0030281D01*
X0136824Y0028954D01*
X0135808Y0027938D01*
X0134481Y0027388D01*
X0128319Y0027388D01*
X0126992Y0027938D01*
X0125976Y0028954D01*
X0125426Y0030281D01*
X0125426Y0031719D01*
X0125976Y0033046D01*
X0126992Y0034062D01*
X0128319Y0034612D01*
X0134481Y0034612D01*
X0135954Y0033917D02*
X0156495Y0033917D01*
X0155292Y0033418D02*
X0136452Y0033418D01*
X0136877Y0032920D02*
X0154088Y0032920D01*
X0153571Y0032421D02*
X0137083Y0032421D01*
X0137290Y0031923D02*
X0153072Y0031923D01*
X0152573Y0031424D02*
X0137374Y0031424D01*
X0137374Y0030926D02*
X0152075Y0030926D01*
X0151625Y0030427D02*
X0137374Y0030427D01*
X0137228Y0029929D02*
X0151419Y0029929D01*
X0151212Y0029430D02*
X0137022Y0029430D01*
X0136802Y0028932D02*
X0151006Y0028932D01*
X0150799Y0028433D02*
X0136304Y0028433D01*
X0135801Y0027934D02*
X0150593Y0027934D01*
X0150386Y0027436D02*
X0134597Y0027436D01*
X0128203Y0027436D02*
X0074597Y0027436D01*
X0075801Y0027934D02*
X0126999Y0027934D01*
X0126496Y0028433D02*
X0076304Y0028433D01*
X0076802Y0028932D02*
X0125998Y0028932D01*
X0125778Y0029430D02*
X0077022Y0029430D01*
X0077228Y0029929D02*
X0125572Y0029929D01*
X0125426Y0030427D02*
X0077374Y0030427D01*
X0077374Y0030926D02*
X0125426Y0030926D01*
X0125426Y0031424D02*
X0077374Y0031424D01*
X0077290Y0031923D02*
X0125510Y0031923D01*
X0125717Y0032421D02*
X0077083Y0032421D01*
X0076877Y0032920D02*
X0125923Y0032920D01*
X0126348Y0033418D02*
X0076452Y0033418D01*
X0075954Y0033917D02*
X0126846Y0033917D01*
X0127844Y0034415D02*
X0074956Y0034415D01*
X0074525Y0037406D02*
X0128275Y0037406D01*
X0127071Y0037905D02*
X0075729Y0037905D01*
X0076274Y0038403D02*
X0126526Y0038403D01*
X0126028Y0038902D02*
X0076772Y0038902D01*
X0077009Y0039400D02*
X0125791Y0039400D01*
X0125584Y0039899D02*
X0077216Y0039899D01*
X0077374Y0040397D02*
X0125426Y0040397D01*
X0125426Y0040896D02*
X0077374Y0040896D01*
X0077374Y0041394D02*
X0125426Y0041394D01*
X0125498Y0041893D02*
X0077302Y0041893D01*
X0077096Y0042391D02*
X0125704Y0042391D01*
X0125911Y0042890D02*
X0076889Y0042890D01*
X0076482Y0043388D02*
X0126318Y0043388D01*
X0126816Y0043887D02*
X0075984Y0043887D01*
X0075028Y0044385D02*
X0127772Y0044385D01*
X0127143Y0047875D02*
X0075657Y0047875D01*
X0076244Y0048373D02*
X0126556Y0048373D01*
X0126057Y0048872D02*
X0076743Y0048872D01*
X0076997Y0049370D02*
X0125803Y0049370D01*
X0125596Y0049869D02*
X0077204Y0049869D01*
X0077374Y0050368D02*
X0125426Y0050368D01*
X0125426Y0050866D02*
X0077374Y0050866D01*
X0077374Y0051365D02*
X0125426Y0051365D01*
X0125485Y0051863D02*
X0077315Y0051863D01*
X0077108Y0052362D02*
X0125692Y0052362D01*
X0125898Y0052860D02*
X0120621Y0052860D01*
X0121229Y0053359D02*
X0126288Y0053359D01*
X0126786Y0053857D02*
X0121728Y0053857D01*
X0121991Y0054356D02*
X0127700Y0054356D01*
X0127215Y0057845D02*
X0121908Y0057845D01*
X0121527Y0058344D02*
X0126586Y0058344D01*
X0126087Y0058842D02*
X0121028Y0058842D01*
X0120136Y0059341D02*
X0125815Y0059341D01*
X0125886Y0062830D02*
X0120549Y0062830D01*
X0121199Y0063329D02*
X0126258Y0063329D01*
X0126757Y0063827D02*
X0121698Y0063827D01*
X0121979Y0064326D02*
X0127628Y0064326D01*
X0127287Y0067815D02*
X0121920Y0067815D01*
X0121557Y0068314D02*
X0126615Y0068314D01*
X0126117Y0068812D02*
X0121058Y0068812D01*
X0120208Y0069311D02*
X0125828Y0069311D01*
X0110809Y0054356D02*
X0075100Y0054356D01*
X0076014Y0053857D02*
X0111072Y0053857D01*
X0111571Y0053359D02*
X0076512Y0053359D01*
X0076902Y0052860D02*
X0112179Y0052860D01*
X0135657Y0047875D02*
X0140826Y0047875D01*
X0141212Y0048373D02*
X0136244Y0048373D01*
X0136743Y0048872D02*
X0141710Y0048872D01*
X0140718Y0044385D02*
X0135028Y0044385D01*
X0135984Y0043887D02*
X0140951Y0043887D01*
X0141450Y0043388D02*
X0136482Y0043388D01*
X0136889Y0042890D02*
X0141971Y0042890D01*
X0143174Y0042391D02*
X0137096Y0042391D01*
X0128468Y0021494D02*
X0127126Y0022050D01*
X0125674Y0022050D01*
X0124332Y0021494D01*
X0123306Y0020468D01*
X0122750Y0019126D01*
X0122750Y0012874D01*
X0123306Y0011532D01*
X0124332Y0010506D01*
X0125674Y0009950D01*
X0127126Y0009950D01*
X0128468Y0010506D01*
X0129494Y0011532D01*
X0130050Y0012874D01*
X0130050Y0019126D01*
X0129494Y0020468D01*
X0128468Y0021494D01*
X0128508Y0021454D02*
X0151413Y0021454D01*
X0151207Y0021952D02*
X0127362Y0021952D01*
X0129007Y0020955D02*
X0151620Y0020955D01*
X0152063Y0020457D02*
X0129499Y0020457D01*
X0129705Y0019958D02*
X0152561Y0019958D01*
X0153060Y0019460D02*
X0129912Y0019460D01*
X0130050Y0018961D02*
X0153558Y0018961D01*
X0154059Y0018463D02*
X0130050Y0018463D01*
X0130050Y0017964D02*
X0155262Y0017964D01*
X0156466Y0017466D02*
X0130050Y0017466D01*
X0130050Y0016967D02*
X0176347Y0016967D01*
X0176347Y0016469D02*
X0130050Y0016469D01*
X0130050Y0015970D02*
X0176347Y0015970D01*
X0176347Y0015472D02*
X0130050Y0015472D01*
X0130050Y0014973D02*
X0176347Y0014973D01*
X0176347Y0014475D02*
X0130050Y0014475D01*
X0130050Y0013976D02*
X0176347Y0013976D01*
X0176347Y0013478D02*
X0130050Y0013478D01*
X0130050Y0012979D02*
X0176347Y0012979D01*
X0176347Y0012481D02*
X0129887Y0012481D01*
X0129681Y0011982D02*
X0176347Y0011982D01*
X0176347Y0011484D02*
X0129446Y0011484D01*
X0128947Y0010985D02*
X0176347Y0010985D01*
X0176347Y0010487D02*
X0128422Y0010487D01*
X0127218Y0009988D02*
X0176347Y0009988D01*
X0176347Y0009490D02*
X0110364Y0009490D01*
X0109866Y0008991D02*
X0176347Y0008991D01*
X0176347Y0008493D02*
X0109367Y0008493D01*
X0110863Y0009988D02*
X0115582Y0009988D01*
X0114378Y0010487D02*
X0111361Y0010487D01*
X0111860Y0010985D02*
X0113853Y0010985D01*
X0113354Y0011484D02*
X0112358Y0011484D01*
X0112857Y0011982D02*
X0113119Y0011982D01*
X0110400Y0014475D02*
X0110050Y0014475D01*
X0110050Y0014973D02*
X0110898Y0014973D01*
X0111397Y0015472D02*
X0110050Y0015472D01*
X0110050Y0016469D02*
X0112394Y0016469D01*
X0112750Y0016967D02*
X0110050Y0016967D01*
X0110050Y0017466D02*
X0112750Y0017466D01*
X0112750Y0017964D02*
X0110050Y0017964D01*
X0110050Y0018463D02*
X0112750Y0018463D01*
X0112750Y0018961D02*
X0110010Y0018961D01*
X0109911Y0019460D02*
X0112888Y0019460D01*
X0113095Y0019958D02*
X0109705Y0019958D01*
X0109415Y0020457D02*
X0113301Y0020457D01*
X0113793Y0020955D02*
X0109007Y0020955D01*
X0108399Y0021454D02*
X0114292Y0021454D01*
X0115438Y0021952D02*
X0107250Y0021952D01*
X0103385Y0020457D02*
X0068575Y0020457D01*
X0069442Y0019958D02*
X0103095Y0019958D01*
X0102889Y0019460D02*
X0098102Y0019460D01*
X0098601Y0018961D02*
X0102790Y0018961D01*
X0102750Y0018463D02*
X0099099Y0018463D01*
X0099598Y0017964D02*
X0102750Y0017964D01*
X0102750Y0017466D02*
X0100050Y0017466D01*
X0100050Y0016967D02*
X0102750Y0016967D01*
X0102750Y0016469D02*
X0100050Y0016469D01*
X0103424Y0011484D02*
X0073391Y0011484D01*
X0073890Y0010985D02*
X0103853Y0010985D01*
X0106650Y0015970D02*
X0111895Y0015970D01*
X0117218Y0009988D02*
X0125582Y0009988D01*
X0124378Y0010487D02*
X0118422Y0010487D01*
X0118947Y0010985D02*
X0123853Y0010985D01*
X0123354Y0011484D02*
X0119446Y0011484D01*
X0119681Y0011982D02*
X0123119Y0011982D01*
X0122913Y0012481D02*
X0119887Y0012481D01*
X0120050Y0012979D02*
X0122750Y0012979D01*
X0122750Y0013478D02*
X0120050Y0013478D01*
X0120050Y0013976D02*
X0122750Y0013976D01*
X0122750Y0014475D02*
X0120050Y0014475D01*
X0120050Y0014973D02*
X0122750Y0014973D01*
X0122750Y0015472D02*
X0120050Y0015472D01*
X0120050Y0015970D02*
X0122750Y0015970D01*
X0122750Y0016469D02*
X0120050Y0016469D01*
X0120050Y0016967D02*
X0122750Y0016967D01*
X0122750Y0017466D02*
X0120050Y0017466D01*
X0120050Y0017964D02*
X0122750Y0017964D01*
X0122750Y0018463D02*
X0120050Y0018463D01*
X0120050Y0018961D02*
X0122750Y0018961D01*
X0122888Y0019460D02*
X0119912Y0019460D01*
X0119705Y0019958D02*
X0123095Y0019958D01*
X0123301Y0020457D02*
X0119499Y0020457D01*
X0119007Y0020955D02*
X0123793Y0020955D01*
X0124292Y0021454D02*
X0118508Y0021454D01*
X0117362Y0021952D02*
X0125438Y0021952D01*
X0094698Y0019460D02*
X0078102Y0019460D01*
X0077912Y0019650D02*
X0074888Y0019650D01*
X0072750Y0017512D01*
X0072750Y0014488D01*
X0074888Y0012350D01*
X0077912Y0012350D01*
X0080050Y0014488D01*
X0080050Y0017512D01*
X0077912Y0019650D01*
X0078601Y0018961D02*
X0094199Y0018961D01*
X0093701Y0018463D02*
X0079099Y0018463D01*
X0079598Y0017964D02*
X0093202Y0017964D01*
X0092750Y0017466D02*
X0080050Y0017466D01*
X0080050Y0016967D02*
X0092750Y0016967D01*
X0092750Y0016469D02*
X0080050Y0016469D01*
X0080050Y0015970D02*
X0092750Y0015970D01*
X0092750Y0015472D02*
X0080050Y0015472D01*
X0080050Y0014973D02*
X0092750Y0014973D01*
X0092763Y0014475D02*
X0080037Y0014475D01*
X0079538Y0013976D02*
X0093262Y0013976D01*
X0093760Y0013478D02*
X0079040Y0013478D01*
X0078541Y0012979D02*
X0094259Y0012979D01*
X0094757Y0012481D02*
X0078043Y0012481D01*
X0072763Y0014475D02*
X0071126Y0014475D01*
X0071333Y0014973D02*
X0072750Y0014973D01*
X0072750Y0015472D02*
X0071350Y0015472D01*
X0071350Y0015970D02*
X0072750Y0015970D01*
X0072750Y0016469D02*
X0071350Y0016469D01*
X0071350Y0016967D02*
X0072750Y0016967D01*
X0072750Y0017466D02*
X0071151Y0017466D01*
X0070944Y0017964D02*
X0073202Y0017964D01*
X0073701Y0018463D02*
X0070738Y0018463D01*
X0070439Y0018961D02*
X0074199Y0018961D01*
X0074698Y0019460D02*
X0069941Y0019460D01*
X0150542Y0082771D02*
X0157650Y0082771D01*
X0157650Y0083269D02*
X0151231Y0083269D01*
X0151730Y0083768D02*
X0157650Y0083768D01*
X0157650Y0084266D02*
X0152033Y0084266D01*
X0152239Y0084765D02*
X0157650Y0084765D01*
X0157650Y0085263D02*
X0152446Y0085263D01*
X0152450Y0085762D02*
X0157650Y0085762D01*
X0157650Y0086260D02*
X0152450Y0086260D01*
X0152436Y0086759D02*
X0157650Y0086759D01*
X0157650Y0087257D02*
X0152230Y0087257D01*
X0152023Y0087756D02*
X0157650Y0087756D01*
X0157650Y0088254D02*
X0151708Y0088254D01*
X0151209Y0088753D02*
X0157650Y0088753D01*
X0157650Y0089251D02*
X0150488Y0089251D01*
X0161150Y0089251D02*
X0162312Y0089251D01*
X0161591Y0088753D02*
X0161150Y0088753D01*
X0161150Y0083269D02*
X0161569Y0083269D01*
X0161150Y0082771D02*
X0162258Y0082771D01*
X0140630Y0104705D02*
X0122136Y0104705D01*
X0122342Y0105204D02*
X0141129Y0105204D01*
X0141627Y0105702D02*
X0122374Y0105702D01*
X0122374Y0106201D02*
X0142126Y0106201D01*
X0142624Y0106699D02*
X0122374Y0106699D01*
X0121676Y0108195D02*
X0126735Y0108195D01*
X0126236Y0108693D02*
X0121177Y0108693D01*
X0120496Y0109192D02*
X0125877Y0109192D01*
X0135460Y0104207D02*
X0140132Y0104207D01*
X0139633Y0103708D02*
X0136162Y0103708D01*
X0136661Y0103210D02*
X0139135Y0103210D01*
X0138636Y0102711D02*
X0136963Y0102711D01*
X0137170Y0102213D02*
X0138138Y0102213D01*
X0137639Y0101714D02*
X0137374Y0101714D01*
X0156969Y0120159D02*
X0158650Y0120159D01*
X0158650Y0119661D02*
X0157741Y0119661D01*
X0158239Y0119162D02*
X0158650Y0119162D01*
X0158650Y0127637D02*
X0155944Y0127637D01*
X0157148Y0128135D02*
X0158650Y0128135D01*
X0158650Y0128634D02*
X0157815Y0128634D01*
X0158313Y0129132D02*
X0158650Y0129132D01*
X0160797Y0155055D02*
X0176347Y0155055D01*
X0176347Y0155553D02*
X0162001Y0155553D01*
X0163204Y0156052D02*
X0176347Y0156052D01*
X0176347Y0156550D02*
X0163996Y0156550D01*
X0164495Y0157049D02*
X0176347Y0157049D01*
X0176347Y0157547D02*
X0164993Y0157547D01*
X0165492Y0158046D02*
X0176347Y0158046D01*
X0176347Y0158544D02*
X0165990Y0158544D01*
X0166262Y0159043D02*
X0176347Y0159043D01*
X0176347Y0159541D02*
X0166468Y0159541D01*
X0166675Y0160040D02*
X0176347Y0160040D01*
X0176347Y0160539D02*
X0166881Y0160539D01*
X0167088Y0161037D02*
X0176347Y0161037D01*
X0176347Y0161536D02*
X0167294Y0161536D01*
X0167398Y0162034D02*
X0176347Y0162034D01*
X0176347Y0162533D02*
X0167398Y0162533D01*
X0167398Y0163031D02*
X0176347Y0163031D01*
X0176347Y0163530D02*
X0167398Y0163530D01*
X0167398Y0164028D02*
X0176347Y0164028D01*
X0176347Y0164527D02*
X0167398Y0164527D01*
X0167398Y0165025D02*
X0176347Y0165025D01*
X0176347Y0165524D02*
X0167253Y0165524D01*
X0167047Y0166022D02*
X0176347Y0166022D01*
X0176347Y0166521D02*
X0166840Y0166521D01*
X0166634Y0167019D02*
X0176347Y0167019D01*
X0176347Y0167518D02*
X0166427Y0167518D01*
X0166221Y0168016D02*
X0176347Y0168016D01*
X0176347Y0168515D02*
X0165892Y0168515D01*
X0165393Y0169013D02*
X0176347Y0169013D01*
X0176347Y0169512D02*
X0164895Y0169512D01*
X0164396Y0170010D02*
X0176347Y0170010D01*
X0176347Y0170509D02*
X0163898Y0170509D01*
X0162967Y0171007D02*
X0176347Y0171007D01*
X0176347Y0171506D02*
X0161763Y0171506D01*
X0162469Y0033418D02*
X0176347Y0033418D01*
X0176347Y0032920D02*
X0163672Y0032920D01*
X0164190Y0032421D02*
X0176347Y0032421D01*
X0176347Y0031923D02*
X0164689Y0031923D01*
X0165187Y0031424D02*
X0176347Y0031424D01*
X0176347Y0030926D02*
X0165686Y0030926D01*
X0166136Y0030427D02*
X0176347Y0030427D01*
X0176347Y0029929D02*
X0166342Y0029929D01*
X0166549Y0029430D02*
X0176347Y0029430D01*
X0176347Y0028932D02*
X0166755Y0028932D01*
X0166962Y0028433D02*
X0176347Y0028433D01*
X0176347Y0027934D02*
X0167168Y0027934D01*
X0167375Y0027436D02*
X0176347Y0027436D01*
X0176347Y0026937D02*
X0167398Y0026937D01*
X0167398Y0026439D02*
X0176347Y0026439D01*
X0176347Y0025940D02*
X0167398Y0025940D01*
X0167398Y0025442D02*
X0176347Y0025442D01*
X0176347Y0024943D02*
X0167398Y0024943D01*
X0167398Y0024445D02*
X0176347Y0024445D01*
X0176347Y0023946D02*
X0167380Y0023946D01*
X0167173Y0023448D02*
X0176347Y0023448D01*
X0176347Y0022949D02*
X0166967Y0022949D01*
X0166760Y0022451D02*
X0176347Y0022451D01*
X0176347Y0021952D02*
X0166554Y0021952D01*
X0166347Y0021454D02*
X0176347Y0021454D01*
X0176347Y0020955D02*
X0166141Y0020955D01*
X0165698Y0020457D02*
X0176347Y0020457D01*
X0176347Y0019958D02*
X0165199Y0019958D01*
X0164701Y0019460D02*
X0176347Y0019460D01*
X0176347Y0018961D02*
X0164202Y0018961D01*
X0163702Y0018463D02*
X0176347Y0018463D01*
X0176347Y0017964D02*
X0162499Y0017964D01*
X0161295Y0017466D02*
X0176347Y0017466D01*
M02*
