G75*
%MOIN*%
%OFA0B0*%
%FSLAX25Y25*%
%IPPOS*%
%LPD*%
%AMOC8*
5,1,8,0,0,1.08239X$1,22.5*
%
%ADD10C,0.00000*%
D10*
X0001400Y0006000D02*
X0001400Y0183165D01*
X0178565Y0183165D01*
X0178565Y0006000D01*
X0001400Y0006000D01*
X0014786Y0025685D02*
X0014788Y0025843D01*
X0014794Y0026001D01*
X0014804Y0026159D01*
X0014818Y0026317D01*
X0014836Y0026474D01*
X0014857Y0026631D01*
X0014883Y0026787D01*
X0014913Y0026943D01*
X0014946Y0027098D01*
X0014984Y0027251D01*
X0015025Y0027404D01*
X0015070Y0027556D01*
X0015119Y0027707D01*
X0015172Y0027856D01*
X0015228Y0028004D01*
X0015288Y0028150D01*
X0015352Y0028295D01*
X0015420Y0028438D01*
X0015491Y0028580D01*
X0015565Y0028720D01*
X0015643Y0028857D01*
X0015725Y0028993D01*
X0015809Y0029127D01*
X0015898Y0029258D01*
X0015989Y0029387D01*
X0016084Y0029514D01*
X0016181Y0029639D01*
X0016282Y0029761D01*
X0016386Y0029880D01*
X0016493Y0029997D01*
X0016603Y0030111D01*
X0016716Y0030222D01*
X0016831Y0030331D01*
X0016949Y0030436D01*
X0017070Y0030538D01*
X0017193Y0030638D01*
X0017319Y0030734D01*
X0017447Y0030827D01*
X0017577Y0030917D01*
X0017710Y0031003D01*
X0017845Y0031087D01*
X0017981Y0031166D01*
X0018120Y0031243D01*
X0018261Y0031315D01*
X0018403Y0031385D01*
X0018547Y0031450D01*
X0018693Y0031512D01*
X0018840Y0031570D01*
X0018989Y0031625D01*
X0019139Y0031676D01*
X0019290Y0031723D01*
X0019442Y0031766D01*
X0019595Y0031805D01*
X0019750Y0031841D01*
X0019905Y0031872D01*
X0020061Y0031900D01*
X0020217Y0031924D01*
X0020374Y0031944D01*
X0020532Y0031960D01*
X0020689Y0031972D01*
X0020848Y0031980D01*
X0021006Y0031984D01*
X0021164Y0031984D01*
X0021322Y0031980D01*
X0021481Y0031972D01*
X0021638Y0031960D01*
X0021796Y0031944D01*
X0021953Y0031924D01*
X0022109Y0031900D01*
X0022265Y0031872D01*
X0022420Y0031841D01*
X0022575Y0031805D01*
X0022728Y0031766D01*
X0022880Y0031723D01*
X0023031Y0031676D01*
X0023181Y0031625D01*
X0023330Y0031570D01*
X0023477Y0031512D01*
X0023623Y0031450D01*
X0023767Y0031385D01*
X0023909Y0031315D01*
X0024050Y0031243D01*
X0024189Y0031166D01*
X0024325Y0031087D01*
X0024460Y0031003D01*
X0024593Y0030917D01*
X0024723Y0030827D01*
X0024851Y0030734D01*
X0024977Y0030638D01*
X0025100Y0030538D01*
X0025221Y0030436D01*
X0025339Y0030331D01*
X0025454Y0030222D01*
X0025567Y0030111D01*
X0025677Y0029997D01*
X0025784Y0029880D01*
X0025888Y0029761D01*
X0025989Y0029639D01*
X0026086Y0029514D01*
X0026181Y0029387D01*
X0026272Y0029258D01*
X0026361Y0029127D01*
X0026445Y0028993D01*
X0026527Y0028857D01*
X0026605Y0028720D01*
X0026679Y0028580D01*
X0026750Y0028438D01*
X0026818Y0028295D01*
X0026882Y0028150D01*
X0026942Y0028004D01*
X0026998Y0027856D01*
X0027051Y0027707D01*
X0027100Y0027556D01*
X0027145Y0027404D01*
X0027186Y0027251D01*
X0027224Y0027098D01*
X0027257Y0026943D01*
X0027287Y0026787D01*
X0027313Y0026631D01*
X0027334Y0026474D01*
X0027352Y0026317D01*
X0027366Y0026159D01*
X0027376Y0026001D01*
X0027382Y0025843D01*
X0027384Y0025685D01*
X0027382Y0025527D01*
X0027376Y0025369D01*
X0027366Y0025211D01*
X0027352Y0025053D01*
X0027334Y0024896D01*
X0027313Y0024739D01*
X0027287Y0024583D01*
X0027257Y0024427D01*
X0027224Y0024272D01*
X0027186Y0024119D01*
X0027145Y0023966D01*
X0027100Y0023814D01*
X0027051Y0023663D01*
X0026998Y0023514D01*
X0026942Y0023366D01*
X0026882Y0023220D01*
X0026818Y0023075D01*
X0026750Y0022932D01*
X0026679Y0022790D01*
X0026605Y0022650D01*
X0026527Y0022513D01*
X0026445Y0022377D01*
X0026361Y0022243D01*
X0026272Y0022112D01*
X0026181Y0021983D01*
X0026086Y0021856D01*
X0025989Y0021731D01*
X0025888Y0021609D01*
X0025784Y0021490D01*
X0025677Y0021373D01*
X0025567Y0021259D01*
X0025454Y0021148D01*
X0025339Y0021039D01*
X0025221Y0020934D01*
X0025100Y0020832D01*
X0024977Y0020732D01*
X0024851Y0020636D01*
X0024723Y0020543D01*
X0024593Y0020453D01*
X0024460Y0020367D01*
X0024325Y0020283D01*
X0024189Y0020204D01*
X0024050Y0020127D01*
X0023909Y0020055D01*
X0023767Y0019985D01*
X0023623Y0019920D01*
X0023477Y0019858D01*
X0023330Y0019800D01*
X0023181Y0019745D01*
X0023031Y0019694D01*
X0022880Y0019647D01*
X0022728Y0019604D01*
X0022575Y0019565D01*
X0022420Y0019529D01*
X0022265Y0019498D01*
X0022109Y0019470D01*
X0021953Y0019446D01*
X0021796Y0019426D01*
X0021638Y0019410D01*
X0021481Y0019398D01*
X0021322Y0019390D01*
X0021164Y0019386D01*
X0021006Y0019386D01*
X0020848Y0019390D01*
X0020689Y0019398D01*
X0020532Y0019410D01*
X0020374Y0019426D01*
X0020217Y0019446D01*
X0020061Y0019470D01*
X0019905Y0019498D01*
X0019750Y0019529D01*
X0019595Y0019565D01*
X0019442Y0019604D01*
X0019290Y0019647D01*
X0019139Y0019694D01*
X0018989Y0019745D01*
X0018840Y0019800D01*
X0018693Y0019858D01*
X0018547Y0019920D01*
X0018403Y0019985D01*
X0018261Y0020055D01*
X0018120Y0020127D01*
X0017981Y0020204D01*
X0017845Y0020283D01*
X0017710Y0020367D01*
X0017577Y0020453D01*
X0017447Y0020543D01*
X0017319Y0020636D01*
X0017193Y0020732D01*
X0017070Y0020832D01*
X0016949Y0020934D01*
X0016831Y0021039D01*
X0016716Y0021148D01*
X0016603Y0021259D01*
X0016493Y0021373D01*
X0016386Y0021490D01*
X0016282Y0021609D01*
X0016181Y0021731D01*
X0016084Y0021856D01*
X0015989Y0021983D01*
X0015898Y0022112D01*
X0015809Y0022243D01*
X0015725Y0022377D01*
X0015643Y0022513D01*
X0015565Y0022650D01*
X0015491Y0022790D01*
X0015420Y0022932D01*
X0015352Y0023075D01*
X0015288Y0023220D01*
X0015228Y0023366D01*
X0015172Y0023514D01*
X0015119Y0023663D01*
X0015070Y0023814D01*
X0015025Y0023966D01*
X0014984Y0024119D01*
X0014946Y0024272D01*
X0014913Y0024427D01*
X0014883Y0024583D01*
X0014857Y0024739D01*
X0014836Y0024896D01*
X0014818Y0025053D01*
X0014804Y0025211D01*
X0014794Y0025369D01*
X0014788Y0025527D01*
X0014786Y0025685D01*
X0014786Y0163480D02*
X0014788Y0163638D01*
X0014794Y0163796D01*
X0014804Y0163954D01*
X0014818Y0164112D01*
X0014836Y0164269D01*
X0014857Y0164426D01*
X0014883Y0164582D01*
X0014913Y0164738D01*
X0014946Y0164893D01*
X0014984Y0165046D01*
X0015025Y0165199D01*
X0015070Y0165351D01*
X0015119Y0165502D01*
X0015172Y0165651D01*
X0015228Y0165799D01*
X0015288Y0165945D01*
X0015352Y0166090D01*
X0015420Y0166233D01*
X0015491Y0166375D01*
X0015565Y0166515D01*
X0015643Y0166652D01*
X0015725Y0166788D01*
X0015809Y0166922D01*
X0015898Y0167053D01*
X0015989Y0167182D01*
X0016084Y0167309D01*
X0016181Y0167434D01*
X0016282Y0167556D01*
X0016386Y0167675D01*
X0016493Y0167792D01*
X0016603Y0167906D01*
X0016716Y0168017D01*
X0016831Y0168126D01*
X0016949Y0168231D01*
X0017070Y0168333D01*
X0017193Y0168433D01*
X0017319Y0168529D01*
X0017447Y0168622D01*
X0017577Y0168712D01*
X0017710Y0168798D01*
X0017845Y0168882D01*
X0017981Y0168961D01*
X0018120Y0169038D01*
X0018261Y0169110D01*
X0018403Y0169180D01*
X0018547Y0169245D01*
X0018693Y0169307D01*
X0018840Y0169365D01*
X0018989Y0169420D01*
X0019139Y0169471D01*
X0019290Y0169518D01*
X0019442Y0169561D01*
X0019595Y0169600D01*
X0019750Y0169636D01*
X0019905Y0169667D01*
X0020061Y0169695D01*
X0020217Y0169719D01*
X0020374Y0169739D01*
X0020532Y0169755D01*
X0020689Y0169767D01*
X0020848Y0169775D01*
X0021006Y0169779D01*
X0021164Y0169779D01*
X0021322Y0169775D01*
X0021481Y0169767D01*
X0021638Y0169755D01*
X0021796Y0169739D01*
X0021953Y0169719D01*
X0022109Y0169695D01*
X0022265Y0169667D01*
X0022420Y0169636D01*
X0022575Y0169600D01*
X0022728Y0169561D01*
X0022880Y0169518D01*
X0023031Y0169471D01*
X0023181Y0169420D01*
X0023330Y0169365D01*
X0023477Y0169307D01*
X0023623Y0169245D01*
X0023767Y0169180D01*
X0023909Y0169110D01*
X0024050Y0169038D01*
X0024189Y0168961D01*
X0024325Y0168882D01*
X0024460Y0168798D01*
X0024593Y0168712D01*
X0024723Y0168622D01*
X0024851Y0168529D01*
X0024977Y0168433D01*
X0025100Y0168333D01*
X0025221Y0168231D01*
X0025339Y0168126D01*
X0025454Y0168017D01*
X0025567Y0167906D01*
X0025677Y0167792D01*
X0025784Y0167675D01*
X0025888Y0167556D01*
X0025989Y0167434D01*
X0026086Y0167309D01*
X0026181Y0167182D01*
X0026272Y0167053D01*
X0026361Y0166922D01*
X0026445Y0166788D01*
X0026527Y0166652D01*
X0026605Y0166515D01*
X0026679Y0166375D01*
X0026750Y0166233D01*
X0026818Y0166090D01*
X0026882Y0165945D01*
X0026942Y0165799D01*
X0026998Y0165651D01*
X0027051Y0165502D01*
X0027100Y0165351D01*
X0027145Y0165199D01*
X0027186Y0165046D01*
X0027224Y0164893D01*
X0027257Y0164738D01*
X0027287Y0164582D01*
X0027313Y0164426D01*
X0027334Y0164269D01*
X0027352Y0164112D01*
X0027366Y0163954D01*
X0027376Y0163796D01*
X0027382Y0163638D01*
X0027384Y0163480D01*
X0027382Y0163322D01*
X0027376Y0163164D01*
X0027366Y0163006D01*
X0027352Y0162848D01*
X0027334Y0162691D01*
X0027313Y0162534D01*
X0027287Y0162378D01*
X0027257Y0162222D01*
X0027224Y0162067D01*
X0027186Y0161914D01*
X0027145Y0161761D01*
X0027100Y0161609D01*
X0027051Y0161458D01*
X0026998Y0161309D01*
X0026942Y0161161D01*
X0026882Y0161015D01*
X0026818Y0160870D01*
X0026750Y0160727D01*
X0026679Y0160585D01*
X0026605Y0160445D01*
X0026527Y0160308D01*
X0026445Y0160172D01*
X0026361Y0160038D01*
X0026272Y0159907D01*
X0026181Y0159778D01*
X0026086Y0159651D01*
X0025989Y0159526D01*
X0025888Y0159404D01*
X0025784Y0159285D01*
X0025677Y0159168D01*
X0025567Y0159054D01*
X0025454Y0158943D01*
X0025339Y0158834D01*
X0025221Y0158729D01*
X0025100Y0158627D01*
X0024977Y0158527D01*
X0024851Y0158431D01*
X0024723Y0158338D01*
X0024593Y0158248D01*
X0024460Y0158162D01*
X0024325Y0158078D01*
X0024189Y0157999D01*
X0024050Y0157922D01*
X0023909Y0157850D01*
X0023767Y0157780D01*
X0023623Y0157715D01*
X0023477Y0157653D01*
X0023330Y0157595D01*
X0023181Y0157540D01*
X0023031Y0157489D01*
X0022880Y0157442D01*
X0022728Y0157399D01*
X0022575Y0157360D01*
X0022420Y0157324D01*
X0022265Y0157293D01*
X0022109Y0157265D01*
X0021953Y0157241D01*
X0021796Y0157221D01*
X0021638Y0157205D01*
X0021481Y0157193D01*
X0021322Y0157185D01*
X0021164Y0157181D01*
X0021006Y0157181D01*
X0020848Y0157185D01*
X0020689Y0157193D01*
X0020532Y0157205D01*
X0020374Y0157221D01*
X0020217Y0157241D01*
X0020061Y0157265D01*
X0019905Y0157293D01*
X0019750Y0157324D01*
X0019595Y0157360D01*
X0019442Y0157399D01*
X0019290Y0157442D01*
X0019139Y0157489D01*
X0018989Y0157540D01*
X0018840Y0157595D01*
X0018693Y0157653D01*
X0018547Y0157715D01*
X0018403Y0157780D01*
X0018261Y0157850D01*
X0018120Y0157922D01*
X0017981Y0157999D01*
X0017845Y0158078D01*
X0017710Y0158162D01*
X0017577Y0158248D01*
X0017447Y0158338D01*
X0017319Y0158431D01*
X0017193Y0158527D01*
X0017070Y0158627D01*
X0016949Y0158729D01*
X0016831Y0158834D01*
X0016716Y0158943D01*
X0016603Y0159054D01*
X0016493Y0159168D01*
X0016386Y0159285D01*
X0016282Y0159404D01*
X0016181Y0159526D01*
X0016084Y0159651D01*
X0015989Y0159778D01*
X0015898Y0159907D01*
X0015809Y0160038D01*
X0015725Y0160172D01*
X0015643Y0160308D01*
X0015565Y0160445D01*
X0015491Y0160585D01*
X0015420Y0160727D01*
X0015352Y0160870D01*
X0015288Y0161015D01*
X0015228Y0161161D01*
X0015172Y0161309D01*
X0015119Y0161458D01*
X0015070Y0161609D01*
X0015025Y0161761D01*
X0014984Y0161914D01*
X0014946Y0162067D01*
X0014913Y0162222D01*
X0014883Y0162378D01*
X0014857Y0162534D01*
X0014836Y0162691D01*
X0014818Y0162848D01*
X0014804Y0163006D01*
X0014794Y0163164D01*
X0014788Y0163322D01*
X0014786Y0163480D01*
X0152581Y0163480D02*
X0152583Y0163638D01*
X0152589Y0163796D01*
X0152599Y0163954D01*
X0152613Y0164112D01*
X0152631Y0164269D01*
X0152652Y0164426D01*
X0152678Y0164582D01*
X0152708Y0164738D01*
X0152741Y0164893D01*
X0152779Y0165046D01*
X0152820Y0165199D01*
X0152865Y0165351D01*
X0152914Y0165502D01*
X0152967Y0165651D01*
X0153023Y0165799D01*
X0153083Y0165945D01*
X0153147Y0166090D01*
X0153215Y0166233D01*
X0153286Y0166375D01*
X0153360Y0166515D01*
X0153438Y0166652D01*
X0153520Y0166788D01*
X0153604Y0166922D01*
X0153693Y0167053D01*
X0153784Y0167182D01*
X0153879Y0167309D01*
X0153976Y0167434D01*
X0154077Y0167556D01*
X0154181Y0167675D01*
X0154288Y0167792D01*
X0154398Y0167906D01*
X0154511Y0168017D01*
X0154626Y0168126D01*
X0154744Y0168231D01*
X0154865Y0168333D01*
X0154988Y0168433D01*
X0155114Y0168529D01*
X0155242Y0168622D01*
X0155372Y0168712D01*
X0155505Y0168798D01*
X0155640Y0168882D01*
X0155776Y0168961D01*
X0155915Y0169038D01*
X0156056Y0169110D01*
X0156198Y0169180D01*
X0156342Y0169245D01*
X0156488Y0169307D01*
X0156635Y0169365D01*
X0156784Y0169420D01*
X0156934Y0169471D01*
X0157085Y0169518D01*
X0157237Y0169561D01*
X0157390Y0169600D01*
X0157545Y0169636D01*
X0157700Y0169667D01*
X0157856Y0169695D01*
X0158012Y0169719D01*
X0158169Y0169739D01*
X0158327Y0169755D01*
X0158484Y0169767D01*
X0158643Y0169775D01*
X0158801Y0169779D01*
X0158959Y0169779D01*
X0159117Y0169775D01*
X0159276Y0169767D01*
X0159433Y0169755D01*
X0159591Y0169739D01*
X0159748Y0169719D01*
X0159904Y0169695D01*
X0160060Y0169667D01*
X0160215Y0169636D01*
X0160370Y0169600D01*
X0160523Y0169561D01*
X0160675Y0169518D01*
X0160826Y0169471D01*
X0160976Y0169420D01*
X0161125Y0169365D01*
X0161272Y0169307D01*
X0161418Y0169245D01*
X0161562Y0169180D01*
X0161704Y0169110D01*
X0161845Y0169038D01*
X0161984Y0168961D01*
X0162120Y0168882D01*
X0162255Y0168798D01*
X0162388Y0168712D01*
X0162518Y0168622D01*
X0162646Y0168529D01*
X0162772Y0168433D01*
X0162895Y0168333D01*
X0163016Y0168231D01*
X0163134Y0168126D01*
X0163249Y0168017D01*
X0163362Y0167906D01*
X0163472Y0167792D01*
X0163579Y0167675D01*
X0163683Y0167556D01*
X0163784Y0167434D01*
X0163881Y0167309D01*
X0163976Y0167182D01*
X0164067Y0167053D01*
X0164156Y0166922D01*
X0164240Y0166788D01*
X0164322Y0166652D01*
X0164400Y0166515D01*
X0164474Y0166375D01*
X0164545Y0166233D01*
X0164613Y0166090D01*
X0164677Y0165945D01*
X0164737Y0165799D01*
X0164793Y0165651D01*
X0164846Y0165502D01*
X0164895Y0165351D01*
X0164940Y0165199D01*
X0164981Y0165046D01*
X0165019Y0164893D01*
X0165052Y0164738D01*
X0165082Y0164582D01*
X0165108Y0164426D01*
X0165129Y0164269D01*
X0165147Y0164112D01*
X0165161Y0163954D01*
X0165171Y0163796D01*
X0165177Y0163638D01*
X0165179Y0163480D01*
X0165177Y0163322D01*
X0165171Y0163164D01*
X0165161Y0163006D01*
X0165147Y0162848D01*
X0165129Y0162691D01*
X0165108Y0162534D01*
X0165082Y0162378D01*
X0165052Y0162222D01*
X0165019Y0162067D01*
X0164981Y0161914D01*
X0164940Y0161761D01*
X0164895Y0161609D01*
X0164846Y0161458D01*
X0164793Y0161309D01*
X0164737Y0161161D01*
X0164677Y0161015D01*
X0164613Y0160870D01*
X0164545Y0160727D01*
X0164474Y0160585D01*
X0164400Y0160445D01*
X0164322Y0160308D01*
X0164240Y0160172D01*
X0164156Y0160038D01*
X0164067Y0159907D01*
X0163976Y0159778D01*
X0163881Y0159651D01*
X0163784Y0159526D01*
X0163683Y0159404D01*
X0163579Y0159285D01*
X0163472Y0159168D01*
X0163362Y0159054D01*
X0163249Y0158943D01*
X0163134Y0158834D01*
X0163016Y0158729D01*
X0162895Y0158627D01*
X0162772Y0158527D01*
X0162646Y0158431D01*
X0162518Y0158338D01*
X0162388Y0158248D01*
X0162255Y0158162D01*
X0162120Y0158078D01*
X0161984Y0157999D01*
X0161845Y0157922D01*
X0161704Y0157850D01*
X0161562Y0157780D01*
X0161418Y0157715D01*
X0161272Y0157653D01*
X0161125Y0157595D01*
X0160976Y0157540D01*
X0160826Y0157489D01*
X0160675Y0157442D01*
X0160523Y0157399D01*
X0160370Y0157360D01*
X0160215Y0157324D01*
X0160060Y0157293D01*
X0159904Y0157265D01*
X0159748Y0157241D01*
X0159591Y0157221D01*
X0159433Y0157205D01*
X0159276Y0157193D01*
X0159117Y0157185D01*
X0158959Y0157181D01*
X0158801Y0157181D01*
X0158643Y0157185D01*
X0158484Y0157193D01*
X0158327Y0157205D01*
X0158169Y0157221D01*
X0158012Y0157241D01*
X0157856Y0157265D01*
X0157700Y0157293D01*
X0157545Y0157324D01*
X0157390Y0157360D01*
X0157237Y0157399D01*
X0157085Y0157442D01*
X0156934Y0157489D01*
X0156784Y0157540D01*
X0156635Y0157595D01*
X0156488Y0157653D01*
X0156342Y0157715D01*
X0156198Y0157780D01*
X0156056Y0157850D01*
X0155915Y0157922D01*
X0155776Y0157999D01*
X0155640Y0158078D01*
X0155505Y0158162D01*
X0155372Y0158248D01*
X0155242Y0158338D01*
X0155114Y0158431D01*
X0154988Y0158527D01*
X0154865Y0158627D01*
X0154744Y0158729D01*
X0154626Y0158834D01*
X0154511Y0158943D01*
X0154398Y0159054D01*
X0154288Y0159168D01*
X0154181Y0159285D01*
X0154077Y0159404D01*
X0153976Y0159526D01*
X0153879Y0159651D01*
X0153784Y0159778D01*
X0153693Y0159907D01*
X0153604Y0160038D01*
X0153520Y0160172D01*
X0153438Y0160308D01*
X0153360Y0160445D01*
X0153286Y0160585D01*
X0153215Y0160727D01*
X0153147Y0160870D01*
X0153083Y0161015D01*
X0153023Y0161161D01*
X0152967Y0161309D01*
X0152914Y0161458D01*
X0152865Y0161609D01*
X0152820Y0161761D01*
X0152779Y0161914D01*
X0152741Y0162067D01*
X0152708Y0162222D01*
X0152678Y0162378D01*
X0152652Y0162534D01*
X0152631Y0162691D01*
X0152613Y0162848D01*
X0152599Y0163006D01*
X0152589Y0163164D01*
X0152583Y0163322D01*
X0152581Y0163480D01*
X0152581Y0025685D02*
X0152583Y0025843D01*
X0152589Y0026001D01*
X0152599Y0026159D01*
X0152613Y0026317D01*
X0152631Y0026474D01*
X0152652Y0026631D01*
X0152678Y0026787D01*
X0152708Y0026943D01*
X0152741Y0027098D01*
X0152779Y0027251D01*
X0152820Y0027404D01*
X0152865Y0027556D01*
X0152914Y0027707D01*
X0152967Y0027856D01*
X0153023Y0028004D01*
X0153083Y0028150D01*
X0153147Y0028295D01*
X0153215Y0028438D01*
X0153286Y0028580D01*
X0153360Y0028720D01*
X0153438Y0028857D01*
X0153520Y0028993D01*
X0153604Y0029127D01*
X0153693Y0029258D01*
X0153784Y0029387D01*
X0153879Y0029514D01*
X0153976Y0029639D01*
X0154077Y0029761D01*
X0154181Y0029880D01*
X0154288Y0029997D01*
X0154398Y0030111D01*
X0154511Y0030222D01*
X0154626Y0030331D01*
X0154744Y0030436D01*
X0154865Y0030538D01*
X0154988Y0030638D01*
X0155114Y0030734D01*
X0155242Y0030827D01*
X0155372Y0030917D01*
X0155505Y0031003D01*
X0155640Y0031087D01*
X0155776Y0031166D01*
X0155915Y0031243D01*
X0156056Y0031315D01*
X0156198Y0031385D01*
X0156342Y0031450D01*
X0156488Y0031512D01*
X0156635Y0031570D01*
X0156784Y0031625D01*
X0156934Y0031676D01*
X0157085Y0031723D01*
X0157237Y0031766D01*
X0157390Y0031805D01*
X0157545Y0031841D01*
X0157700Y0031872D01*
X0157856Y0031900D01*
X0158012Y0031924D01*
X0158169Y0031944D01*
X0158327Y0031960D01*
X0158484Y0031972D01*
X0158643Y0031980D01*
X0158801Y0031984D01*
X0158959Y0031984D01*
X0159117Y0031980D01*
X0159276Y0031972D01*
X0159433Y0031960D01*
X0159591Y0031944D01*
X0159748Y0031924D01*
X0159904Y0031900D01*
X0160060Y0031872D01*
X0160215Y0031841D01*
X0160370Y0031805D01*
X0160523Y0031766D01*
X0160675Y0031723D01*
X0160826Y0031676D01*
X0160976Y0031625D01*
X0161125Y0031570D01*
X0161272Y0031512D01*
X0161418Y0031450D01*
X0161562Y0031385D01*
X0161704Y0031315D01*
X0161845Y0031243D01*
X0161984Y0031166D01*
X0162120Y0031087D01*
X0162255Y0031003D01*
X0162388Y0030917D01*
X0162518Y0030827D01*
X0162646Y0030734D01*
X0162772Y0030638D01*
X0162895Y0030538D01*
X0163016Y0030436D01*
X0163134Y0030331D01*
X0163249Y0030222D01*
X0163362Y0030111D01*
X0163472Y0029997D01*
X0163579Y0029880D01*
X0163683Y0029761D01*
X0163784Y0029639D01*
X0163881Y0029514D01*
X0163976Y0029387D01*
X0164067Y0029258D01*
X0164156Y0029127D01*
X0164240Y0028993D01*
X0164322Y0028857D01*
X0164400Y0028720D01*
X0164474Y0028580D01*
X0164545Y0028438D01*
X0164613Y0028295D01*
X0164677Y0028150D01*
X0164737Y0028004D01*
X0164793Y0027856D01*
X0164846Y0027707D01*
X0164895Y0027556D01*
X0164940Y0027404D01*
X0164981Y0027251D01*
X0165019Y0027098D01*
X0165052Y0026943D01*
X0165082Y0026787D01*
X0165108Y0026631D01*
X0165129Y0026474D01*
X0165147Y0026317D01*
X0165161Y0026159D01*
X0165171Y0026001D01*
X0165177Y0025843D01*
X0165179Y0025685D01*
X0165177Y0025527D01*
X0165171Y0025369D01*
X0165161Y0025211D01*
X0165147Y0025053D01*
X0165129Y0024896D01*
X0165108Y0024739D01*
X0165082Y0024583D01*
X0165052Y0024427D01*
X0165019Y0024272D01*
X0164981Y0024119D01*
X0164940Y0023966D01*
X0164895Y0023814D01*
X0164846Y0023663D01*
X0164793Y0023514D01*
X0164737Y0023366D01*
X0164677Y0023220D01*
X0164613Y0023075D01*
X0164545Y0022932D01*
X0164474Y0022790D01*
X0164400Y0022650D01*
X0164322Y0022513D01*
X0164240Y0022377D01*
X0164156Y0022243D01*
X0164067Y0022112D01*
X0163976Y0021983D01*
X0163881Y0021856D01*
X0163784Y0021731D01*
X0163683Y0021609D01*
X0163579Y0021490D01*
X0163472Y0021373D01*
X0163362Y0021259D01*
X0163249Y0021148D01*
X0163134Y0021039D01*
X0163016Y0020934D01*
X0162895Y0020832D01*
X0162772Y0020732D01*
X0162646Y0020636D01*
X0162518Y0020543D01*
X0162388Y0020453D01*
X0162255Y0020367D01*
X0162120Y0020283D01*
X0161984Y0020204D01*
X0161845Y0020127D01*
X0161704Y0020055D01*
X0161562Y0019985D01*
X0161418Y0019920D01*
X0161272Y0019858D01*
X0161125Y0019800D01*
X0160976Y0019745D01*
X0160826Y0019694D01*
X0160675Y0019647D01*
X0160523Y0019604D01*
X0160370Y0019565D01*
X0160215Y0019529D01*
X0160060Y0019498D01*
X0159904Y0019470D01*
X0159748Y0019446D01*
X0159591Y0019426D01*
X0159433Y0019410D01*
X0159276Y0019398D01*
X0159117Y0019390D01*
X0158959Y0019386D01*
X0158801Y0019386D01*
X0158643Y0019390D01*
X0158484Y0019398D01*
X0158327Y0019410D01*
X0158169Y0019426D01*
X0158012Y0019446D01*
X0157856Y0019470D01*
X0157700Y0019498D01*
X0157545Y0019529D01*
X0157390Y0019565D01*
X0157237Y0019604D01*
X0157085Y0019647D01*
X0156934Y0019694D01*
X0156784Y0019745D01*
X0156635Y0019800D01*
X0156488Y0019858D01*
X0156342Y0019920D01*
X0156198Y0019985D01*
X0156056Y0020055D01*
X0155915Y0020127D01*
X0155776Y0020204D01*
X0155640Y0020283D01*
X0155505Y0020367D01*
X0155372Y0020453D01*
X0155242Y0020543D01*
X0155114Y0020636D01*
X0154988Y0020732D01*
X0154865Y0020832D01*
X0154744Y0020934D01*
X0154626Y0021039D01*
X0154511Y0021148D01*
X0154398Y0021259D01*
X0154288Y0021373D01*
X0154181Y0021490D01*
X0154077Y0021609D01*
X0153976Y0021731D01*
X0153879Y0021856D01*
X0153784Y0021983D01*
X0153693Y0022112D01*
X0153604Y0022243D01*
X0153520Y0022377D01*
X0153438Y0022513D01*
X0153360Y0022650D01*
X0153286Y0022790D01*
X0153215Y0022932D01*
X0153147Y0023075D01*
X0153083Y0023220D01*
X0153023Y0023366D01*
X0152967Y0023514D01*
X0152914Y0023663D01*
X0152865Y0023814D01*
X0152820Y0023966D01*
X0152779Y0024119D01*
X0152741Y0024272D01*
X0152708Y0024427D01*
X0152678Y0024583D01*
X0152652Y0024739D01*
X0152631Y0024896D01*
X0152613Y0025053D01*
X0152599Y0025211D01*
X0152589Y0025369D01*
X0152583Y0025527D01*
X0152581Y0025685D01*
M02*
