G75*
%MOIN*%
%OFA0B0*%
%FSLAX25Y25*%
%IPPOS*%
%LPD*%
%AMOC8*
5,1,8,0,0,1.08239X$1,22.5*
%
%ADD10OC8,0.04800*%
%ADD11C,0.06299*%
%ADD12C,0.04800*%
%ADD13C,0.07400*%
%ADD14C,0.04724*%
%ADD15C,0.01000*%
%ADD16C,0.00500*%
D10*
X0041400Y0031250D03*
X0051400Y0031250D03*
X0051400Y0046250D03*
X0041400Y0046250D03*
X0046400Y0066250D03*
X0037148Y0066526D03*
X0037148Y0086526D03*
X0046400Y0086250D03*
X0041400Y0146250D03*
X0031400Y0146250D03*
X0086400Y0016250D03*
X0106400Y0016250D03*
D11*
X0025022Y0044557D03*
X0025022Y0052431D03*
X0025022Y0068179D03*
X0025022Y0076053D03*
X0025022Y0083927D03*
X0025022Y0091801D03*
X0154943Y0103612D03*
X0154943Y0111486D03*
X0154943Y0127234D03*
X0154943Y0135108D03*
D12*
X0148800Y0086250D02*
X0144000Y0086250D01*
X0164000Y0086250D02*
X0168800Y0086250D01*
X0168800Y0056250D02*
X0164000Y0056250D01*
X0164000Y0046250D02*
X0168800Y0046250D01*
X0148800Y0046250D02*
X0144000Y0046250D01*
X0144000Y0056250D02*
X0148800Y0056250D01*
X0136400Y0018650D02*
X0136400Y0013850D01*
X0126400Y0013850D02*
X0126400Y0018650D01*
X0116400Y0018650D02*
X0116400Y0013850D01*
X0056200Y0106250D02*
X0051400Y0106250D01*
X0051400Y0116250D02*
X0056200Y0116250D01*
X0056200Y0126250D02*
X0051400Y0126250D01*
X0051400Y0136250D02*
X0056200Y0136250D01*
X0021400Y0136250D02*
X0016600Y0136250D01*
X0016600Y0126250D02*
X0021400Y0126250D01*
X0021400Y0116250D02*
X0016600Y0116250D01*
X0016600Y0106250D02*
X0021400Y0106250D01*
D13*
X0056400Y0091250D03*
X0056400Y0061250D03*
X0046400Y0016250D03*
X0076400Y0016250D03*
D14*
X0073762Y0036250D02*
X0069038Y0036250D01*
X0069038Y0046250D02*
X0073762Y0046250D01*
X0073762Y0056250D02*
X0069038Y0056250D01*
X0069038Y0066250D02*
X0073762Y0066250D01*
X0073762Y0076250D02*
X0069038Y0076250D01*
X0069038Y0086250D02*
X0073762Y0086250D01*
X0073762Y0096250D02*
X0069038Y0096250D01*
X0069038Y0106250D02*
X0073762Y0106250D01*
X0073762Y0116250D02*
X0069038Y0116250D01*
X0069038Y0126250D02*
X0073762Y0126250D01*
X0073762Y0136250D02*
X0069038Y0136250D01*
X0069038Y0146250D02*
X0073762Y0146250D01*
X0076400Y0153888D02*
X0076400Y0158612D01*
X0086400Y0158612D02*
X0086400Y0153888D01*
X0096400Y0153888D02*
X0096400Y0158612D01*
X0106400Y0158612D02*
X0106400Y0153888D01*
X0116400Y0153888D02*
X0116400Y0158612D01*
X0126400Y0158612D02*
X0126400Y0153888D01*
X0129038Y0146250D02*
X0133762Y0146250D01*
X0133762Y0136250D02*
X0129038Y0136250D01*
X0129038Y0126250D02*
X0133762Y0126250D01*
X0133762Y0116250D02*
X0129038Y0116250D01*
X0129038Y0106250D02*
X0133762Y0106250D01*
X0133762Y0096250D02*
X0129038Y0096250D01*
X0129038Y0086250D02*
X0133762Y0086250D01*
X0133762Y0076250D02*
X0129038Y0076250D01*
X0129038Y0066250D02*
X0133762Y0066250D01*
X0133762Y0056250D02*
X0129038Y0056250D01*
X0129038Y0046250D02*
X0133762Y0046250D01*
X0133762Y0036250D02*
X0129038Y0036250D01*
X0118762Y0061250D02*
X0114038Y0061250D01*
X0114038Y0071250D02*
X0118762Y0071250D01*
X0118762Y0101250D02*
X0114038Y0101250D01*
X0114038Y0111250D02*
X0118762Y0111250D01*
D15*
X0131400Y0116250D02*
X0138400Y0116250D01*
X0138400Y0127250D01*
X0135400Y0130250D01*
X0055400Y0130250D01*
X0051400Y0126250D01*
X0031400Y0146250D01*
X0041400Y0146250D02*
X0045400Y0142250D01*
X0073400Y0142250D01*
X0079400Y0136250D01*
X0131400Y0136250D01*
X0131400Y0126250D02*
X0072400Y0126250D01*
X0071400Y0126250D01*
X0072400Y0126250D01*
X0058400Y0112250D01*
X0051400Y0112250D01*
X0047400Y0108250D01*
X0047400Y0106250D01*
X0025400Y0084250D01*
X0025022Y0083927D01*
X0019400Y0093250D02*
X0019400Y0066250D01*
X0024400Y0061250D01*
X0056400Y0061250D01*
X0045400Y0052250D02*
X0051400Y0046250D01*
X0045400Y0052250D02*
X0025400Y0052250D01*
X0025022Y0052431D01*
X0037148Y0066526D02*
X0037400Y0067250D01*
X0040400Y0070250D01*
X0075400Y0070250D01*
X0079400Y0066250D01*
X0131400Y0066250D01*
X0135400Y0092250D02*
X0154400Y0111250D01*
X0154943Y0111486D01*
X0157400Y0116250D02*
X0160400Y0113250D01*
X0160400Y0088250D01*
X0159400Y0087250D01*
X0159400Y0063250D01*
X0166400Y0056250D01*
X0135400Y0092250D02*
X0069400Y0092250D01*
X0062400Y0085250D01*
X0054400Y0085250D01*
X0053400Y0086250D01*
X0046400Y0086250D01*
X0025400Y0099250D02*
X0019400Y0093250D01*
X0025400Y0099250D02*
X0025400Y0108250D01*
X0021400Y0112250D01*
X0021400Y0116250D01*
X0051400Y0031250D02*
X0097400Y0031250D01*
X0112400Y0016250D01*
X0116400Y0016250D01*
X0119400Y0009250D02*
X0126400Y0016250D01*
X0119400Y0009250D02*
X0087400Y0009250D01*
X0080400Y0016250D01*
X0076400Y0016250D01*
X0138400Y0116250D02*
X0157400Y0116250D01*
D16*
X0003618Y0176197D02*
X0003618Y0003468D01*
X0176347Y0003468D01*
X0176347Y0176197D01*
X0003618Y0176197D01*
X0003618Y0175729D02*
X0176347Y0175729D01*
X0176347Y0175230D02*
X0003618Y0175230D01*
X0003618Y0174732D02*
X0176347Y0174732D01*
X0176347Y0174233D02*
X0003618Y0174233D01*
X0003618Y0173735D02*
X0176347Y0173735D01*
X0176347Y0173236D02*
X0003618Y0173236D01*
X0003618Y0172738D02*
X0176347Y0172738D01*
X0176347Y0172239D02*
X0003618Y0172239D01*
X0003618Y0171741D02*
X0176347Y0171741D01*
X0176347Y0171242D02*
X0003618Y0171242D01*
X0003618Y0170744D02*
X0176347Y0170744D01*
X0176347Y0170245D02*
X0003618Y0170245D01*
X0003618Y0169747D02*
X0176347Y0169747D01*
X0176347Y0169248D02*
X0003618Y0169248D01*
X0003618Y0168750D02*
X0176347Y0168750D01*
X0176347Y0168251D02*
X0003618Y0168251D01*
X0003618Y0167753D02*
X0176347Y0167753D01*
X0176347Y0167254D02*
X0003618Y0167254D01*
X0003618Y0166756D02*
X0018202Y0166756D01*
X0019391Y0167248D02*
X0016260Y0165951D01*
X0013864Y0163555D01*
X0012567Y0160425D01*
X0012567Y0157036D01*
X0013864Y0153905D01*
X0016260Y0151509D01*
X0019391Y0150213D01*
X0022779Y0150213D01*
X0025910Y0151509D01*
X0028306Y0153905D01*
X0029603Y0157036D01*
X0029603Y0160425D01*
X0028306Y0163555D01*
X0025910Y0165951D01*
X0022779Y0167248D01*
X0019391Y0167248D01*
X0016999Y0166257D02*
X0003618Y0166257D01*
X0003618Y0165759D02*
X0016068Y0165759D01*
X0015569Y0165260D02*
X0003618Y0165260D01*
X0003618Y0164762D02*
X0015071Y0164762D01*
X0014572Y0164263D02*
X0003618Y0164263D01*
X0003618Y0163765D02*
X0014074Y0163765D01*
X0013744Y0163266D02*
X0003618Y0163266D01*
X0003618Y0162768D02*
X0013538Y0162768D01*
X0013331Y0162269D02*
X0003618Y0162269D01*
X0003618Y0161771D02*
X0013125Y0161771D01*
X0012918Y0161272D02*
X0003618Y0161272D01*
X0003618Y0160774D02*
X0012712Y0160774D01*
X0012567Y0160275D02*
X0003618Y0160275D01*
X0003618Y0159777D02*
X0012567Y0159777D01*
X0012567Y0159278D02*
X0003618Y0159278D01*
X0003618Y0158780D02*
X0012567Y0158780D01*
X0012567Y0158281D02*
X0003618Y0158281D01*
X0003618Y0157783D02*
X0012567Y0157783D01*
X0012567Y0157284D02*
X0003618Y0157284D01*
X0003618Y0156786D02*
X0012671Y0156786D01*
X0012878Y0156287D02*
X0003618Y0156287D01*
X0003618Y0155789D02*
X0013084Y0155789D01*
X0013291Y0155290D02*
X0003618Y0155290D01*
X0003618Y0154791D02*
X0013497Y0154791D01*
X0013704Y0154293D02*
X0003618Y0154293D01*
X0003618Y0153794D02*
X0013975Y0153794D01*
X0014474Y0153296D02*
X0003618Y0153296D01*
X0003618Y0152797D02*
X0014972Y0152797D01*
X0015471Y0152299D02*
X0003618Y0152299D01*
X0003618Y0151800D02*
X0015969Y0151800D01*
X0016761Y0151302D02*
X0003618Y0151302D01*
X0003618Y0150803D02*
X0017964Y0150803D01*
X0019168Y0150305D02*
X0003618Y0150305D01*
X0003618Y0149806D02*
X0029795Y0149806D01*
X0029888Y0149900D02*
X0027750Y0147762D01*
X0027750Y0144738D01*
X0029888Y0142600D01*
X0032575Y0142600D01*
X0047882Y0127294D01*
X0047750Y0126976D01*
X0047750Y0125524D01*
X0048306Y0124182D01*
X0049332Y0123156D01*
X0050674Y0122600D01*
X0056926Y0122600D01*
X0058268Y0123156D01*
X0059294Y0124182D01*
X0059850Y0125524D01*
X0059850Y0126976D01*
X0059294Y0128318D01*
X0059112Y0128500D01*
X0066179Y0128500D01*
X0065976Y0128296D01*
X0065426Y0126969D01*
X0065426Y0125531D01*
X0065976Y0124204D01*
X0066927Y0123252D01*
X0059850Y0116175D01*
X0059850Y0116976D01*
X0059294Y0118318D01*
X0058268Y0119344D01*
X0056926Y0119900D01*
X0050674Y0119900D01*
X0049332Y0119344D01*
X0048306Y0118318D01*
X0047750Y0116976D01*
X0047750Y0115524D01*
X0048306Y0114182D01*
X0049332Y0113156D01*
X0049685Y0113010D01*
X0049650Y0112975D01*
X0045650Y0108975D01*
X0045650Y0106975D01*
X0029295Y0090620D01*
X0029422Y0090926D01*
X0029422Y0092676D01*
X0028752Y0094293D01*
X0027514Y0095531D01*
X0025897Y0096201D01*
X0024826Y0096201D01*
X0027150Y0098525D01*
X0027150Y0108975D01*
X0026125Y0110000D01*
X0023150Y0112975D01*
X0023150Y0113024D01*
X0023468Y0113156D01*
X0024494Y0114182D01*
X0025050Y0115524D01*
X0025050Y0116976D01*
X0024494Y0118318D01*
X0023468Y0119344D01*
X0022126Y0119900D01*
X0015874Y0119900D01*
X0014532Y0119344D01*
X0013506Y0118318D01*
X0012950Y0116976D01*
X0012950Y0115524D01*
X0013506Y0114182D01*
X0014532Y0113156D01*
X0015874Y0112600D01*
X0019650Y0112600D01*
X0019650Y0111525D01*
X0021275Y0109900D01*
X0015874Y0109900D01*
X0014532Y0109344D01*
X0013506Y0108318D01*
X0012950Y0106976D01*
X0012950Y0105524D01*
X0013506Y0104182D01*
X0014532Y0103156D01*
X0015874Y0102600D01*
X0022126Y0102600D01*
X0023468Y0103156D01*
X0023650Y0103338D01*
X0023650Y0099975D01*
X0018675Y0095000D01*
X0017650Y0093975D01*
X0017650Y0065525D01*
X0022650Y0060525D01*
X0023675Y0059500D01*
X0051767Y0059500D01*
X0052204Y0058446D01*
X0053596Y0057054D01*
X0055415Y0056300D01*
X0057385Y0056300D01*
X0059204Y0057054D01*
X0060596Y0058446D01*
X0061350Y0060265D01*
X0061350Y0062235D01*
X0060596Y0064054D01*
X0059204Y0065446D01*
X0057385Y0066200D01*
X0055415Y0066200D01*
X0053596Y0065446D01*
X0052204Y0064054D01*
X0051767Y0063000D01*
X0048312Y0063000D01*
X0050050Y0064738D01*
X0050050Y0067762D01*
X0049312Y0068500D01*
X0066179Y0068500D01*
X0065976Y0068296D01*
X0065426Y0066969D01*
X0065426Y0065531D01*
X0065976Y0064204D01*
X0066992Y0063188D01*
X0068319Y0062638D01*
X0074481Y0062638D01*
X0075808Y0063188D01*
X0076824Y0064204D01*
X0077374Y0065531D01*
X0077374Y0065801D01*
X0078675Y0064500D01*
X0112445Y0064500D01*
X0111992Y0064312D01*
X0110976Y0063296D01*
X0110426Y0061969D01*
X0110426Y0060531D01*
X0110976Y0059204D01*
X0111992Y0058188D01*
X0113319Y0057638D01*
X0119481Y0057638D01*
X0120808Y0058188D01*
X0121824Y0059204D01*
X0122374Y0060531D01*
X0122374Y0061969D01*
X0121824Y0063296D01*
X0120808Y0064312D01*
X0120355Y0064500D01*
X0125853Y0064500D01*
X0125976Y0064204D01*
X0126992Y0063188D01*
X0128319Y0062638D01*
X0134481Y0062638D01*
X0135808Y0063188D01*
X0136824Y0064204D01*
X0137374Y0065531D01*
X0137374Y0066969D01*
X0136824Y0068296D01*
X0135808Y0069312D01*
X0134481Y0069862D01*
X0128319Y0069862D01*
X0126992Y0069312D01*
X0125976Y0068296D01*
X0125853Y0068000D01*
X0120355Y0068000D01*
X0120808Y0068188D01*
X0121824Y0069204D01*
X0122374Y0070531D01*
X0122374Y0071969D01*
X0121824Y0073296D01*
X0120808Y0074312D01*
X0119481Y0074862D01*
X0113319Y0074862D01*
X0111992Y0074312D01*
X0110976Y0073296D01*
X0110426Y0071969D01*
X0110426Y0070531D01*
X0110976Y0069204D01*
X0111992Y0068188D01*
X0112445Y0068000D01*
X0080125Y0068000D01*
X0077150Y0070975D01*
X0076125Y0072000D01*
X0039675Y0072000D01*
X0037851Y0070176D01*
X0035636Y0070176D01*
X0033498Y0068037D01*
X0033498Y0065014D01*
X0035512Y0063000D01*
X0025125Y0063000D01*
X0024345Y0063780D01*
X0025897Y0063780D01*
X0027514Y0064449D01*
X0028752Y0065687D01*
X0029422Y0067304D01*
X0029422Y0069054D01*
X0028752Y0070671D01*
X0027514Y0071909D01*
X0026999Y0072122D01*
X0027328Y0072290D01*
X0027888Y0072697D01*
X0028378Y0073187D01*
X0028785Y0073747D01*
X0029099Y0074364D01*
X0029313Y0075023D01*
X0029422Y0075707D01*
X0029422Y0075803D01*
X0025272Y0075803D01*
X0025272Y0076303D01*
X0029422Y0076303D01*
X0029422Y0076399D01*
X0029313Y0077083D01*
X0029099Y0077742D01*
X0028785Y0078359D01*
X0028378Y0078919D01*
X0027888Y0079409D01*
X0027328Y0079816D01*
X0026999Y0079984D01*
X0027514Y0080197D01*
X0028752Y0081435D01*
X0029422Y0083052D01*
X0029422Y0084802D01*
X0029130Y0085506D01*
X0048125Y0104500D01*
X0048160Y0104535D01*
X0048306Y0104182D01*
X0049332Y0103156D01*
X0050674Y0102600D01*
X0056926Y0102600D01*
X0058268Y0103156D01*
X0059294Y0104182D01*
X0059850Y0105524D01*
X0059850Y0106976D01*
X0059294Y0108318D01*
X0058268Y0109344D01*
X0056926Y0109900D01*
X0051525Y0109900D01*
X0052125Y0110500D01*
X0059125Y0110500D01*
X0065426Y0116801D01*
X0065426Y0115531D01*
X0065976Y0114204D01*
X0066992Y0113188D01*
X0068319Y0112638D01*
X0074481Y0112638D01*
X0075808Y0113188D01*
X0076824Y0114204D01*
X0077374Y0115531D01*
X0077374Y0116969D01*
X0076824Y0118296D01*
X0075808Y0119312D01*
X0074481Y0119862D01*
X0068487Y0119862D01*
X0071263Y0122638D01*
X0074481Y0122638D01*
X0075808Y0123188D01*
X0076824Y0124204D01*
X0076947Y0124500D01*
X0125853Y0124500D01*
X0125976Y0124204D01*
X0126992Y0123188D01*
X0128319Y0122638D01*
X0134481Y0122638D01*
X0135808Y0123188D01*
X0136650Y0124029D01*
X0136650Y0118471D01*
X0135808Y0119312D01*
X0134481Y0119862D01*
X0128319Y0119862D01*
X0126992Y0119312D01*
X0125976Y0118296D01*
X0125426Y0116969D01*
X0125426Y0115531D01*
X0125976Y0114204D01*
X0126992Y0113188D01*
X0128319Y0112638D01*
X0134481Y0112638D01*
X0135808Y0113188D01*
X0136824Y0114204D01*
X0136947Y0114500D01*
X0151735Y0114500D01*
X0151213Y0113978D01*
X0150544Y0112361D01*
X0150544Y0110611D01*
X0150761Y0110086D01*
X0137374Y0096699D01*
X0137374Y0096969D01*
X0136824Y0098296D01*
X0135808Y0099312D01*
X0134481Y0099862D01*
X0128319Y0099862D01*
X0126992Y0099312D01*
X0125976Y0098296D01*
X0125426Y0096969D01*
X0125426Y0095531D01*
X0125976Y0094204D01*
X0126179Y0094000D01*
X0076621Y0094000D01*
X0076824Y0094204D01*
X0077374Y0095531D01*
X0077374Y0096969D01*
X0076824Y0098296D01*
X0075808Y0099312D01*
X0074481Y0099862D01*
X0068319Y0099862D01*
X0066992Y0099312D01*
X0065976Y0098296D01*
X0065426Y0096969D01*
X0065426Y0095531D01*
X0065976Y0094204D01*
X0066992Y0093188D01*
X0067608Y0092933D01*
X0061675Y0087000D01*
X0059074Y0087000D01*
X0059204Y0087054D01*
X0060596Y0088446D01*
X0061350Y0090265D01*
X0061350Y0092235D01*
X0060596Y0094054D01*
X0059204Y0095446D01*
X0057385Y0096200D01*
X0055415Y0096200D01*
X0053596Y0095446D01*
X0052204Y0094054D01*
X0051450Y0092235D01*
X0051450Y0090265D01*
X0052204Y0088446D01*
X0052650Y0088000D01*
X0049812Y0088000D01*
X0047912Y0089900D01*
X0044888Y0089900D01*
X0042750Y0087762D01*
X0042750Y0084738D01*
X0044888Y0082600D01*
X0047912Y0082600D01*
X0049812Y0084500D01*
X0052675Y0084500D01*
X0053675Y0083500D01*
X0063125Y0083500D01*
X0065426Y0085801D01*
X0065426Y0085531D01*
X0065976Y0084204D01*
X0066992Y0083188D01*
X0068319Y0082638D01*
X0074481Y0082638D01*
X0075808Y0083188D01*
X0076824Y0084204D01*
X0077374Y0085531D01*
X0077374Y0086969D01*
X0076824Y0088296D01*
X0075808Y0089312D01*
X0074481Y0089862D01*
X0069487Y0089862D01*
X0070125Y0090500D01*
X0136125Y0090500D01*
X0150849Y0105224D01*
X0150544Y0104487D01*
X0150544Y0102737D01*
X0151213Y0101120D01*
X0152451Y0099882D01*
X0154068Y0099213D01*
X0155818Y0099213D01*
X0157435Y0099882D01*
X0158650Y0101097D01*
X0158650Y0088975D01*
X0157650Y0087975D01*
X0157650Y0062525D01*
X0161382Y0058794D01*
X0160906Y0058318D01*
X0160350Y0056976D01*
X0160350Y0055524D01*
X0160906Y0054182D01*
X0161932Y0053156D01*
X0163274Y0052600D01*
X0169526Y0052600D01*
X0170868Y0053156D01*
X0171894Y0054182D01*
X0172450Y0055524D01*
X0172450Y0056976D01*
X0171894Y0058318D01*
X0170868Y0059344D01*
X0169526Y0059900D01*
X0165225Y0059900D01*
X0161150Y0063975D01*
X0161150Y0083938D01*
X0161932Y0083156D01*
X0163274Y0082600D01*
X0169526Y0082600D01*
X0170868Y0083156D01*
X0171894Y0084182D01*
X0172450Y0085524D01*
X0172450Y0086976D01*
X0171894Y0088318D01*
X0170868Y0089344D01*
X0169526Y0089900D01*
X0163274Y0089900D01*
X0162150Y0089434D01*
X0162150Y0113975D01*
X0161125Y0115000D01*
X0158125Y0118000D01*
X0140150Y0118000D01*
X0140150Y0127975D01*
X0137150Y0130975D01*
X0136125Y0132000D01*
X0054675Y0132000D01*
X0052575Y0129900D01*
X0050674Y0129900D01*
X0050356Y0129768D01*
X0035050Y0145075D01*
X0035050Y0147762D01*
X0032912Y0149900D01*
X0029888Y0149900D01*
X0029296Y0149308D02*
X0003618Y0149308D01*
X0003618Y0148809D02*
X0028797Y0148809D01*
X0028299Y0148311D02*
X0003618Y0148311D01*
X0003618Y0147812D02*
X0027800Y0147812D01*
X0027750Y0147314D02*
X0003618Y0147314D01*
X0003618Y0146815D02*
X0027750Y0146815D01*
X0027750Y0146317D02*
X0003618Y0146317D01*
X0003618Y0145818D02*
X0027750Y0145818D01*
X0027750Y0145320D02*
X0003618Y0145320D01*
X0003618Y0144821D02*
X0027750Y0144821D01*
X0028165Y0144323D02*
X0003618Y0144323D01*
X0003618Y0143824D02*
X0028664Y0143824D01*
X0029162Y0143326D02*
X0003618Y0143326D01*
X0003618Y0142827D02*
X0029661Y0142827D01*
X0032846Y0142329D02*
X0003618Y0142329D01*
X0003618Y0141830D02*
X0033345Y0141830D01*
X0033843Y0141332D02*
X0003618Y0141332D01*
X0003618Y0140833D02*
X0034342Y0140833D01*
X0034840Y0140335D02*
X0003618Y0140335D01*
X0003618Y0139836D02*
X0015720Y0139836D01*
X0015874Y0139900D02*
X0014532Y0139344D01*
X0013506Y0138318D01*
X0012950Y0136976D01*
X0012950Y0135524D01*
X0013506Y0134182D01*
X0014532Y0133156D01*
X0015874Y0132600D01*
X0022126Y0132600D01*
X0023468Y0133156D01*
X0024494Y0134182D01*
X0025050Y0135524D01*
X0025050Y0136976D01*
X0024494Y0138318D01*
X0023468Y0139344D01*
X0022126Y0139900D01*
X0015874Y0139900D01*
X0014526Y0139338D02*
X0003618Y0139338D01*
X0003618Y0138839D02*
X0014027Y0138839D01*
X0013529Y0138341D02*
X0003618Y0138341D01*
X0003618Y0137842D02*
X0013309Y0137842D01*
X0013102Y0137344D02*
X0003618Y0137344D01*
X0003618Y0136845D02*
X0012950Y0136845D01*
X0012950Y0136347D02*
X0003618Y0136347D01*
X0003618Y0135848D02*
X0012950Y0135848D01*
X0013022Y0135350D02*
X0003618Y0135350D01*
X0003618Y0134851D02*
X0013229Y0134851D01*
X0013435Y0134353D02*
X0003618Y0134353D01*
X0003618Y0133854D02*
X0013834Y0133854D01*
X0014333Y0133355D02*
X0003618Y0133355D01*
X0003618Y0132857D02*
X0015254Y0132857D01*
X0015874Y0129900D02*
X0014532Y0129344D01*
X0013506Y0128318D01*
X0012950Y0126976D01*
X0012950Y0125524D01*
X0013506Y0124182D01*
X0014532Y0123156D01*
X0015874Y0122600D01*
X0022126Y0122600D01*
X0023468Y0123156D01*
X0024494Y0124182D01*
X0025050Y0125524D01*
X0025050Y0126976D01*
X0024494Y0128318D01*
X0023468Y0129344D01*
X0022126Y0129900D01*
X0015874Y0129900D01*
X0015792Y0129866D02*
X0003618Y0129866D01*
X0003618Y0130364D02*
X0044811Y0130364D01*
X0045309Y0129866D02*
X0022208Y0129866D01*
X0023412Y0129367D02*
X0045808Y0129367D01*
X0046306Y0128869D02*
X0023943Y0128869D01*
X0024441Y0128370D02*
X0046805Y0128370D01*
X0047303Y0127872D02*
X0024679Y0127872D01*
X0024885Y0127373D02*
X0047802Y0127373D01*
X0047750Y0126875D02*
X0025050Y0126875D01*
X0025050Y0126376D02*
X0047750Y0126376D01*
X0047750Y0125878D02*
X0025050Y0125878D01*
X0024990Y0125379D02*
X0047810Y0125379D01*
X0048016Y0124881D02*
X0024784Y0124881D01*
X0024577Y0124382D02*
X0048223Y0124382D01*
X0048604Y0123884D02*
X0024196Y0123884D01*
X0023697Y0123385D02*
X0049103Y0123385D01*
X0049982Y0122887D02*
X0022818Y0122887D01*
X0022136Y0119896D02*
X0050664Y0119896D01*
X0049460Y0119397D02*
X0023340Y0119397D01*
X0023913Y0118899D02*
X0048887Y0118899D01*
X0048388Y0118400D02*
X0024412Y0118400D01*
X0024667Y0117902D02*
X0048133Y0117902D01*
X0047927Y0117403D02*
X0024873Y0117403D01*
X0025050Y0116905D02*
X0047750Y0116905D01*
X0047750Y0116406D02*
X0025050Y0116406D01*
X0025050Y0115908D02*
X0047750Y0115908D01*
X0047798Y0115409D02*
X0025002Y0115409D01*
X0024796Y0114911D02*
X0048004Y0114911D01*
X0048211Y0114412D02*
X0024589Y0114412D01*
X0024225Y0113914D02*
X0048575Y0113914D01*
X0049073Y0113415D02*
X0023727Y0113415D01*
X0023208Y0112917D02*
X0049592Y0112917D01*
X0049093Y0112418D02*
X0023707Y0112418D01*
X0024205Y0111920D02*
X0048595Y0111920D01*
X0048096Y0111421D02*
X0024704Y0111421D01*
X0025202Y0110922D02*
X0047598Y0110922D01*
X0047099Y0110424D02*
X0025701Y0110424D01*
X0026199Y0109925D02*
X0046601Y0109925D01*
X0046102Y0109427D02*
X0026698Y0109427D01*
X0027150Y0108928D02*
X0045650Y0108928D01*
X0045650Y0108430D02*
X0027150Y0108430D01*
X0027150Y0107931D02*
X0045650Y0107931D01*
X0045650Y0107433D02*
X0027150Y0107433D01*
X0027150Y0106934D02*
X0045610Y0106934D01*
X0045111Y0106436D02*
X0027150Y0106436D01*
X0027150Y0105937D02*
X0044613Y0105937D01*
X0044114Y0105439D02*
X0027150Y0105439D01*
X0027150Y0104940D02*
X0043616Y0104940D01*
X0043117Y0104442D02*
X0027150Y0104442D01*
X0027150Y0103943D02*
X0042618Y0103943D01*
X0042120Y0103445D02*
X0027150Y0103445D01*
X0027150Y0102946D02*
X0041621Y0102946D01*
X0041123Y0102448D02*
X0027150Y0102448D01*
X0027150Y0101949D02*
X0040624Y0101949D01*
X0040126Y0101451D02*
X0027150Y0101451D01*
X0027150Y0100952D02*
X0039627Y0100952D01*
X0039129Y0100454D02*
X0027150Y0100454D01*
X0027150Y0099955D02*
X0038630Y0099955D01*
X0038132Y0099457D02*
X0027150Y0099457D01*
X0027150Y0098958D02*
X0037633Y0098958D01*
X0037135Y0098460D02*
X0027085Y0098460D01*
X0026586Y0097961D02*
X0036636Y0097961D01*
X0036138Y0097463D02*
X0026088Y0097463D01*
X0025589Y0096964D02*
X0035639Y0096964D01*
X0035141Y0096466D02*
X0025091Y0096466D01*
X0026461Y0095967D02*
X0034642Y0095967D01*
X0034144Y0095469D02*
X0027577Y0095469D01*
X0028075Y0094970D02*
X0033645Y0094970D01*
X0033147Y0094472D02*
X0028574Y0094472D01*
X0028884Y0093973D02*
X0032648Y0093973D01*
X0032150Y0093475D02*
X0029091Y0093475D01*
X0029297Y0092976D02*
X0031651Y0092976D01*
X0031153Y0092478D02*
X0029422Y0092478D01*
X0029422Y0091979D02*
X0030654Y0091979D01*
X0030156Y0091481D02*
X0029422Y0091481D01*
X0029422Y0090982D02*
X0029657Y0090982D01*
X0032114Y0088489D02*
X0033950Y0088489D01*
X0033498Y0088037D02*
X0033498Y0085014D01*
X0035636Y0082876D01*
X0038660Y0082876D01*
X0040798Y0085014D01*
X0040798Y0088037D01*
X0038660Y0090176D01*
X0035636Y0090176D01*
X0033498Y0088037D01*
X0033498Y0087991D02*
X0031616Y0087991D01*
X0031117Y0087492D02*
X0033498Y0087492D01*
X0033498Y0086994D02*
X0030619Y0086994D01*
X0030120Y0086495D02*
X0033498Y0086495D01*
X0033498Y0085997D02*
X0029622Y0085997D01*
X0029133Y0085498D02*
X0033498Y0085498D01*
X0033512Y0085000D02*
X0029340Y0085000D01*
X0029422Y0084501D02*
X0034010Y0084501D01*
X0034509Y0084003D02*
X0029422Y0084003D01*
X0029422Y0083504D02*
X0035007Y0083504D01*
X0035506Y0083006D02*
X0029403Y0083006D01*
X0029196Y0082507D02*
X0157650Y0082507D01*
X0157650Y0082009D02*
X0028990Y0082009D01*
X0028783Y0081510D02*
X0157650Y0081510D01*
X0157650Y0081012D02*
X0028329Y0081012D01*
X0027830Y0080513D02*
X0157650Y0080513D01*
X0157650Y0080015D02*
X0027073Y0080015D01*
X0027741Y0079516D02*
X0067484Y0079516D01*
X0066992Y0079312D02*
X0065976Y0078296D01*
X0065426Y0076969D01*
X0065426Y0075531D01*
X0065976Y0074204D01*
X0066992Y0073188D01*
X0068319Y0072638D01*
X0074481Y0072638D01*
X0075808Y0073188D01*
X0076824Y0074204D01*
X0077374Y0075531D01*
X0077374Y0076969D01*
X0076824Y0078296D01*
X0075808Y0079312D01*
X0074481Y0079862D01*
X0068319Y0079862D01*
X0066992Y0079312D01*
X0066697Y0079018D02*
X0028279Y0079018D01*
X0028669Y0078519D02*
X0066199Y0078519D01*
X0065861Y0078021D02*
X0028957Y0078021D01*
X0029171Y0077522D02*
X0065655Y0077522D01*
X0065448Y0077024D02*
X0029323Y0077024D01*
X0029402Y0076525D02*
X0065426Y0076525D01*
X0065426Y0076027D02*
X0025272Y0076027D01*
X0029393Y0075528D02*
X0065427Y0075528D01*
X0065633Y0075030D02*
X0029314Y0075030D01*
X0029154Y0074531D02*
X0065840Y0074531D01*
X0066147Y0074033D02*
X0028930Y0074033D01*
X0028630Y0073534D02*
X0066645Y0073534D01*
X0067359Y0073036D02*
X0028227Y0073036D01*
X0027668Y0072537D02*
X0110661Y0072537D01*
X0110455Y0072039D02*
X0027201Y0072039D01*
X0027883Y0071540D02*
X0039215Y0071540D01*
X0038717Y0071042D02*
X0028382Y0071042D01*
X0028805Y0070543D02*
X0038218Y0070543D01*
X0035505Y0070045D02*
X0029011Y0070045D01*
X0029218Y0069546D02*
X0035007Y0069546D01*
X0034508Y0069048D02*
X0029422Y0069048D01*
X0029422Y0068549D02*
X0034010Y0068549D01*
X0033511Y0068051D02*
X0029422Y0068051D01*
X0029422Y0067552D02*
X0033498Y0067552D01*
X0033498Y0067053D02*
X0029318Y0067053D01*
X0029111Y0066555D02*
X0033498Y0066555D01*
X0033498Y0066056D02*
X0028905Y0066056D01*
X0028623Y0065558D02*
X0033498Y0065558D01*
X0033498Y0065059D02*
X0028124Y0065059D01*
X0027626Y0064561D02*
X0033951Y0064561D01*
X0034449Y0064062D02*
X0026580Y0064062D01*
X0025059Y0063065D02*
X0035446Y0063065D01*
X0034948Y0063564D02*
X0024561Y0063564D01*
X0021605Y0061570D02*
X0003618Y0061570D01*
X0003618Y0062068D02*
X0021107Y0062068D01*
X0020608Y0062567D02*
X0003618Y0062567D01*
X0003618Y0063065D02*
X0020110Y0063065D01*
X0019611Y0063564D02*
X0003618Y0063564D01*
X0003618Y0064062D02*
X0019113Y0064062D01*
X0018614Y0064561D02*
X0003618Y0064561D01*
X0003618Y0065059D02*
X0018116Y0065059D01*
X0017650Y0065558D02*
X0003618Y0065558D01*
X0003618Y0066056D02*
X0017650Y0066056D01*
X0017650Y0066555D02*
X0003618Y0066555D01*
X0003618Y0067053D02*
X0017650Y0067053D01*
X0017650Y0067552D02*
X0003618Y0067552D01*
X0003618Y0068051D02*
X0017650Y0068051D01*
X0017650Y0068549D02*
X0003618Y0068549D01*
X0003618Y0069048D02*
X0017650Y0069048D01*
X0017650Y0069546D02*
X0003618Y0069546D01*
X0003618Y0070045D02*
X0017650Y0070045D01*
X0017650Y0070543D02*
X0003618Y0070543D01*
X0003618Y0071042D02*
X0017650Y0071042D01*
X0017650Y0071540D02*
X0003618Y0071540D01*
X0003618Y0072039D02*
X0017650Y0072039D01*
X0017650Y0072537D02*
X0003618Y0072537D01*
X0003618Y0073036D02*
X0017650Y0073036D01*
X0017650Y0073534D02*
X0003618Y0073534D01*
X0003618Y0074033D02*
X0017650Y0074033D01*
X0017650Y0074531D02*
X0003618Y0074531D01*
X0003618Y0075030D02*
X0017650Y0075030D01*
X0017650Y0075528D02*
X0003618Y0075528D01*
X0003618Y0076027D02*
X0017650Y0076027D01*
X0017650Y0076525D02*
X0003618Y0076525D01*
X0003618Y0077024D02*
X0017650Y0077024D01*
X0017650Y0077522D02*
X0003618Y0077522D01*
X0003618Y0078021D02*
X0017650Y0078021D01*
X0017650Y0078519D02*
X0003618Y0078519D01*
X0003618Y0079018D02*
X0017650Y0079018D01*
X0017650Y0079516D02*
X0003618Y0079516D01*
X0003618Y0080015D02*
X0017650Y0080015D01*
X0017650Y0080513D02*
X0003618Y0080513D01*
X0003618Y0081012D02*
X0017650Y0081012D01*
X0017650Y0081510D02*
X0003618Y0081510D01*
X0003618Y0082009D02*
X0017650Y0082009D01*
X0017650Y0082507D02*
X0003618Y0082507D01*
X0003618Y0083006D02*
X0017650Y0083006D01*
X0017650Y0083504D02*
X0003618Y0083504D01*
X0003618Y0084003D02*
X0017650Y0084003D01*
X0017650Y0084501D02*
X0003618Y0084501D01*
X0003618Y0085000D02*
X0017650Y0085000D01*
X0017650Y0085498D02*
X0003618Y0085498D01*
X0003618Y0085997D02*
X0017650Y0085997D01*
X0017650Y0086495D02*
X0003618Y0086495D01*
X0003618Y0086994D02*
X0017650Y0086994D01*
X0017650Y0087492D02*
X0003618Y0087492D01*
X0003618Y0087991D02*
X0017650Y0087991D01*
X0017650Y0088489D02*
X0003618Y0088489D01*
X0003618Y0088988D02*
X0017650Y0088988D01*
X0017650Y0089487D02*
X0003618Y0089487D01*
X0003618Y0089985D02*
X0017650Y0089985D01*
X0017650Y0090484D02*
X0003618Y0090484D01*
X0003618Y0090982D02*
X0017650Y0090982D01*
X0017650Y0091481D02*
X0003618Y0091481D01*
X0003618Y0091979D02*
X0017650Y0091979D01*
X0017650Y0092478D02*
X0003618Y0092478D01*
X0003618Y0092976D02*
X0017650Y0092976D01*
X0017650Y0093475D02*
X0003618Y0093475D01*
X0003618Y0093973D02*
X0017650Y0093973D01*
X0018147Y0094472D02*
X0003618Y0094472D01*
X0003618Y0094970D02*
X0018645Y0094970D01*
X0019144Y0095469D02*
X0003618Y0095469D01*
X0003618Y0095967D02*
X0019642Y0095967D01*
X0020141Y0096466D02*
X0003618Y0096466D01*
X0003618Y0096964D02*
X0020639Y0096964D01*
X0021138Y0097463D02*
X0003618Y0097463D01*
X0003618Y0097961D02*
X0021636Y0097961D01*
X0022135Y0098460D02*
X0003618Y0098460D01*
X0003618Y0098958D02*
X0022633Y0098958D01*
X0023132Y0099457D02*
X0003618Y0099457D01*
X0003618Y0099955D02*
X0023630Y0099955D01*
X0023650Y0100454D02*
X0003618Y0100454D01*
X0003618Y0100952D02*
X0023650Y0100952D01*
X0023650Y0101451D02*
X0003618Y0101451D01*
X0003618Y0101949D02*
X0023650Y0101949D01*
X0023650Y0102448D02*
X0003618Y0102448D01*
X0003618Y0102946D02*
X0015038Y0102946D01*
X0014243Y0103445D02*
X0003618Y0103445D01*
X0003618Y0103943D02*
X0013745Y0103943D01*
X0013398Y0104442D02*
X0003618Y0104442D01*
X0003618Y0104940D02*
X0013192Y0104940D01*
X0012985Y0105439D02*
X0003618Y0105439D01*
X0003618Y0105937D02*
X0012950Y0105937D01*
X0012950Y0106436D02*
X0003618Y0106436D01*
X0003618Y0106934D02*
X0012950Y0106934D01*
X0013139Y0107433D02*
X0003618Y0107433D01*
X0003618Y0107931D02*
X0013346Y0107931D01*
X0013618Y0108430D02*
X0003618Y0108430D01*
X0003618Y0108928D02*
X0014117Y0108928D01*
X0014732Y0109427D02*
X0003618Y0109427D01*
X0003618Y0109925D02*
X0021250Y0109925D01*
X0020751Y0110424D02*
X0003618Y0110424D01*
X0003618Y0110922D02*
X0020253Y0110922D01*
X0019754Y0111421D02*
X0003618Y0111421D01*
X0003618Y0111920D02*
X0019650Y0111920D01*
X0019650Y0112418D02*
X0003618Y0112418D01*
X0003618Y0112917D02*
X0015110Y0112917D01*
X0014273Y0113415D02*
X0003618Y0113415D01*
X0003618Y0113914D02*
X0013775Y0113914D01*
X0013411Y0114412D02*
X0003618Y0114412D01*
X0003618Y0114911D02*
X0013204Y0114911D01*
X0012998Y0115409D02*
X0003618Y0115409D01*
X0003618Y0115908D02*
X0012950Y0115908D01*
X0012950Y0116406D02*
X0003618Y0116406D01*
X0003618Y0116905D02*
X0012950Y0116905D01*
X0013127Y0117403D02*
X0003618Y0117403D01*
X0003618Y0117902D02*
X0013333Y0117902D01*
X0013588Y0118400D02*
X0003618Y0118400D01*
X0003618Y0118899D02*
X0014087Y0118899D01*
X0014660Y0119397D02*
X0003618Y0119397D01*
X0003618Y0119896D02*
X0015864Y0119896D01*
X0015182Y0122887D02*
X0003618Y0122887D01*
X0003618Y0123385D02*
X0014303Y0123385D01*
X0013804Y0123884D02*
X0003618Y0123884D01*
X0003618Y0124382D02*
X0013423Y0124382D01*
X0013216Y0124881D02*
X0003618Y0124881D01*
X0003618Y0125379D02*
X0013010Y0125379D01*
X0012950Y0125878D02*
X0003618Y0125878D01*
X0003618Y0126376D02*
X0012950Y0126376D01*
X0012950Y0126875D02*
X0003618Y0126875D01*
X0003618Y0127373D02*
X0013115Y0127373D01*
X0013321Y0127872D02*
X0003618Y0127872D01*
X0003618Y0128370D02*
X0013559Y0128370D01*
X0014057Y0128869D02*
X0003618Y0128869D01*
X0003618Y0129367D02*
X0014588Y0129367D01*
X0022746Y0132857D02*
X0042318Y0132857D01*
X0041820Y0133355D02*
X0023667Y0133355D01*
X0024166Y0133854D02*
X0041321Y0133854D01*
X0040823Y0134353D02*
X0024565Y0134353D01*
X0024771Y0134851D02*
X0040324Y0134851D01*
X0039826Y0135350D02*
X0024978Y0135350D01*
X0025050Y0135848D02*
X0039327Y0135848D01*
X0038829Y0136347D02*
X0025050Y0136347D01*
X0025050Y0136845D02*
X0038330Y0136845D01*
X0037832Y0137344D02*
X0024898Y0137344D01*
X0024691Y0137842D02*
X0037333Y0137842D01*
X0036835Y0138341D02*
X0024471Y0138341D01*
X0023973Y0138839D02*
X0036336Y0138839D01*
X0035838Y0139338D02*
X0023474Y0139338D01*
X0022280Y0139836D02*
X0035339Y0139836D01*
X0037796Y0142329D02*
X0176347Y0142329D01*
X0176347Y0142827D02*
X0134938Y0142827D01*
X0134481Y0142638D02*
X0135808Y0143188D01*
X0136824Y0144204D01*
X0137374Y0145531D01*
X0137374Y0146969D01*
X0136824Y0148296D01*
X0135808Y0149312D01*
X0134481Y0149862D01*
X0128319Y0149862D01*
X0126992Y0149312D01*
X0125976Y0148296D01*
X0125426Y0146969D01*
X0125426Y0145531D01*
X0125976Y0144204D01*
X0126992Y0143188D01*
X0128319Y0142638D01*
X0134481Y0142638D01*
X0135946Y0143326D02*
X0176347Y0143326D01*
X0176347Y0143824D02*
X0136445Y0143824D01*
X0136874Y0144323D02*
X0176347Y0144323D01*
X0176347Y0144821D02*
X0137080Y0144821D01*
X0137287Y0145320D02*
X0176347Y0145320D01*
X0176347Y0145818D02*
X0137374Y0145818D01*
X0137374Y0146317D02*
X0176347Y0146317D01*
X0176347Y0146815D02*
X0137374Y0146815D01*
X0137231Y0147314D02*
X0176347Y0147314D01*
X0176347Y0147812D02*
X0137025Y0147812D01*
X0136810Y0148311D02*
X0176347Y0148311D01*
X0176347Y0148809D02*
X0136311Y0148809D01*
X0135813Y0149308D02*
X0176347Y0149308D01*
X0176347Y0149806D02*
X0134615Y0149806D01*
X0129462Y0151842D02*
X0130012Y0153169D01*
X0130012Y0159331D01*
X0129462Y0160658D01*
X0128446Y0161674D01*
X0127119Y0162224D01*
X0125681Y0162224D01*
X0124354Y0161674D01*
X0123338Y0160658D01*
X0122788Y0159331D01*
X0122788Y0153169D01*
X0123338Y0151842D01*
X0124354Y0150826D01*
X0125681Y0150276D01*
X0127119Y0150276D01*
X0128446Y0150826D01*
X0129462Y0151842D01*
X0129421Y0151800D02*
X0153764Y0151800D01*
X0154055Y0151509D02*
X0157186Y0150213D01*
X0160575Y0150213D01*
X0163705Y0151509D01*
X0166101Y0153905D01*
X0167398Y0157036D01*
X0167398Y0160425D01*
X0166101Y0163555D01*
X0163705Y0165951D01*
X0160575Y0167248D01*
X0157186Y0167248D01*
X0154055Y0165951D01*
X0151659Y0163555D01*
X0150363Y0160425D01*
X0150363Y0157036D01*
X0151659Y0153905D01*
X0154055Y0151509D01*
X0154556Y0151302D02*
X0128923Y0151302D01*
X0128393Y0150803D02*
X0155760Y0150803D01*
X0156963Y0150305D02*
X0127189Y0150305D01*
X0126987Y0149308D02*
X0075813Y0149308D01*
X0075808Y0149312D02*
X0074481Y0149862D01*
X0068319Y0149862D01*
X0066992Y0149312D01*
X0065976Y0148296D01*
X0065426Y0146969D01*
X0065426Y0145531D01*
X0065976Y0144204D01*
X0066992Y0143188D01*
X0068319Y0142638D01*
X0074481Y0142638D01*
X0075808Y0143188D01*
X0076824Y0144204D01*
X0077374Y0145531D01*
X0077374Y0146969D01*
X0076824Y0148296D01*
X0075808Y0149312D01*
X0076311Y0148809D02*
X0126489Y0148809D01*
X0125990Y0148311D02*
X0076810Y0148311D01*
X0077025Y0147812D02*
X0125775Y0147812D01*
X0125569Y0147314D02*
X0077231Y0147314D01*
X0077374Y0146815D02*
X0125426Y0146815D01*
X0125426Y0146317D02*
X0077374Y0146317D01*
X0077374Y0145818D02*
X0125426Y0145818D01*
X0125513Y0145320D02*
X0077287Y0145320D01*
X0077080Y0144821D02*
X0125720Y0144821D01*
X0125926Y0144323D02*
X0076874Y0144323D01*
X0076445Y0143824D02*
X0126355Y0143824D01*
X0126854Y0143326D02*
X0075946Y0143326D01*
X0074938Y0142827D02*
X0127862Y0142827D01*
X0128551Y0139836D02*
X0074544Y0139836D01*
X0074481Y0139862D02*
X0075808Y0139312D01*
X0076824Y0138296D01*
X0077374Y0136969D01*
X0077374Y0135531D01*
X0076824Y0134204D01*
X0075808Y0133188D01*
X0074481Y0132638D01*
X0068319Y0132638D01*
X0066992Y0133188D01*
X0065976Y0134204D01*
X0065426Y0135531D01*
X0065426Y0136969D01*
X0065976Y0138296D01*
X0066992Y0139312D01*
X0068319Y0139862D01*
X0074481Y0139862D01*
X0075747Y0139338D02*
X0127157Y0139338D01*
X0127327Y0139451D02*
X0126735Y0139056D01*
X0126232Y0138553D01*
X0125837Y0137961D01*
X0125564Y0137304D01*
X0125426Y0136606D01*
X0125426Y0136500D01*
X0131150Y0136500D01*
X0131150Y0139862D01*
X0128682Y0139862D01*
X0127984Y0139723D01*
X0127327Y0139451D01*
X0126519Y0138839D02*
X0076281Y0138839D01*
X0076780Y0138341D02*
X0126090Y0138341D01*
X0125787Y0137842D02*
X0077013Y0137842D01*
X0077219Y0137344D02*
X0125581Y0137344D01*
X0125473Y0136845D02*
X0077374Y0136845D01*
X0077374Y0136347D02*
X0131150Y0136347D01*
X0131150Y0136500D02*
X0131150Y0136000D01*
X0131650Y0136000D01*
X0131650Y0136500D01*
X0131150Y0136500D01*
X0131150Y0136845D02*
X0131650Y0136845D01*
X0131650Y0136500D02*
X0131650Y0139862D01*
X0134118Y0139862D01*
X0134816Y0139723D01*
X0135473Y0139451D01*
X0136065Y0139056D01*
X0136568Y0138553D01*
X0136963Y0137961D01*
X0137236Y0137304D01*
X0137374Y0136606D01*
X0137374Y0136500D01*
X0131650Y0136500D01*
X0131650Y0136347D02*
X0150694Y0136347D01*
X0150544Y0135983D02*
X0150544Y0134233D01*
X0151213Y0132616D01*
X0152451Y0131378D01*
X0152951Y0131171D01*
X0152451Y0130964D01*
X0151213Y0129726D01*
X0150544Y0128109D01*
X0150544Y0126359D01*
X0151213Y0124742D01*
X0152451Y0123504D01*
X0154068Y0122835D01*
X0155818Y0122835D01*
X0157435Y0123504D01*
X0158673Y0124742D01*
X0159343Y0126359D01*
X0159343Y0128109D01*
X0158673Y0129726D01*
X0157435Y0130964D01*
X0156935Y0131171D01*
X0157435Y0131378D01*
X0158673Y0132616D01*
X0159343Y0134233D01*
X0159343Y0135983D01*
X0158673Y0137600D01*
X0157435Y0138838D01*
X0155818Y0139508D01*
X0154068Y0139508D01*
X0152451Y0138838D01*
X0151213Y0137600D01*
X0150544Y0135983D01*
X0150544Y0135848D02*
X0137365Y0135848D01*
X0137374Y0135894D02*
X0137236Y0135196D01*
X0136963Y0134539D01*
X0136568Y0133947D01*
X0136065Y0133444D01*
X0135473Y0133049D01*
X0134816Y0132777D01*
X0134118Y0132638D01*
X0131650Y0132638D01*
X0131650Y0136000D01*
X0137374Y0136000D01*
X0137374Y0135894D01*
X0137266Y0135350D02*
X0150544Y0135350D01*
X0150544Y0134851D02*
X0137093Y0134851D01*
X0136839Y0134353D02*
X0150544Y0134353D01*
X0150701Y0133854D02*
X0136475Y0133854D01*
X0135932Y0133355D02*
X0150907Y0133355D01*
X0151114Y0132857D02*
X0135010Y0132857D01*
X0136265Y0131860D02*
X0151970Y0131860D01*
X0151471Y0132358D02*
X0047766Y0132358D01*
X0048265Y0131860D02*
X0054535Y0131860D01*
X0054037Y0131361D02*
X0048763Y0131361D01*
X0049262Y0130863D02*
X0053538Y0130863D01*
X0053040Y0130364D02*
X0049760Y0130364D01*
X0050259Y0129866D02*
X0050592Y0129866D01*
X0050674Y0132600D02*
X0056926Y0132600D01*
X0058268Y0133156D01*
X0059294Y0134182D01*
X0059850Y0135524D01*
X0059850Y0136976D01*
X0059294Y0138318D01*
X0058268Y0139344D01*
X0056926Y0139900D01*
X0050674Y0139900D01*
X0049332Y0139344D01*
X0048306Y0138318D01*
X0047750Y0136976D01*
X0047750Y0135524D01*
X0048306Y0134182D01*
X0049332Y0133156D01*
X0050674Y0132600D01*
X0050054Y0132857D02*
X0047268Y0132857D01*
X0046769Y0133355D02*
X0049133Y0133355D01*
X0048634Y0133854D02*
X0046271Y0133854D01*
X0045772Y0134353D02*
X0048235Y0134353D01*
X0048029Y0134851D02*
X0045274Y0134851D01*
X0044775Y0135350D02*
X0047822Y0135350D01*
X0047750Y0135848D02*
X0044277Y0135848D01*
X0043778Y0136347D02*
X0047750Y0136347D01*
X0047750Y0136845D02*
X0043280Y0136845D01*
X0042781Y0137344D02*
X0047902Y0137344D01*
X0048109Y0137842D02*
X0042283Y0137842D01*
X0041784Y0138341D02*
X0048329Y0138341D01*
X0048827Y0138839D02*
X0041286Y0138839D01*
X0040787Y0139338D02*
X0049326Y0139338D01*
X0050520Y0139836D02*
X0040289Y0139836D01*
X0039790Y0140335D02*
X0176347Y0140335D01*
X0176347Y0140833D02*
X0039292Y0140833D01*
X0038793Y0141332D02*
X0176347Y0141332D01*
X0176347Y0141830D02*
X0038295Y0141830D01*
X0037298Y0142827D02*
X0039661Y0142827D01*
X0039888Y0142600D02*
X0041150Y0142600D01*
X0041150Y0146000D01*
X0041650Y0146000D01*
X0041650Y0146500D01*
X0045050Y0146500D01*
X0045050Y0147762D01*
X0042912Y0149900D01*
X0041650Y0149900D01*
X0041650Y0146500D01*
X0041150Y0146500D01*
X0041150Y0149900D01*
X0039888Y0149900D01*
X0037750Y0147762D01*
X0037750Y0146500D01*
X0041150Y0146500D01*
X0041150Y0146000D01*
X0037750Y0146000D01*
X0037750Y0144738D01*
X0039888Y0142600D01*
X0039162Y0143326D02*
X0036799Y0143326D01*
X0036301Y0143824D02*
X0038664Y0143824D01*
X0038165Y0144323D02*
X0035802Y0144323D01*
X0035304Y0144821D02*
X0037750Y0144821D01*
X0037750Y0145320D02*
X0035050Y0145320D01*
X0035050Y0145818D02*
X0037750Y0145818D01*
X0037750Y0146815D02*
X0035050Y0146815D01*
X0035050Y0146317D02*
X0041150Y0146317D01*
X0041150Y0146815D02*
X0041650Y0146815D01*
X0041650Y0146317D02*
X0065426Y0146317D01*
X0065426Y0146815D02*
X0045050Y0146815D01*
X0045050Y0147314D02*
X0065569Y0147314D01*
X0065775Y0147812D02*
X0045000Y0147812D01*
X0044501Y0148311D02*
X0065990Y0148311D01*
X0066489Y0148809D02*
X0044003Y0148809D01*
X0043504Y0149308D02*
X0066987Y0149308D01*
X0068185Y0149806D02*
X0043005Y0149806D01*
X0041650Y0149806D02*
X0041150Y0149806D01*
X0041150Y0149308D02*
X0041650Y0149308D01*
X0041650Y0148809D02*
X0041150Y0148809D01*
X0041150Y0148311D02*
X0041650Y0148311D01*
X0041650Y0147812D02*
X0041150Y0147812D01*
X0041150Y0147314D02*
X0041650Y0147314D01*
X0041650Y0146000D02*
X0045050Y0146000D01*
X0045050Y0144738D01*
X0042912Y0142600D01*
X0041650Y0142600D01*
X0041650Y0146000D01*
X0041650Y0145818D02*
X0041150Y0145818D01*
X0041150Y0145320D02*
X0041650Y0145320D01*
X0041650Y0144821D02*
X0041150Y0144821D01*
X0041150Y0144323D02*
X0041650Y0144323D01*
X0041650Y0143824D02*
X0041150Y0143824D01*
X0041150Y0143326D02*
X0041650Y0143326D01*
X0041650Y0142827D02*
X0041150Y0142827D01*
X0043139Y0142827D02*
X0067862Y0142827D01*
X0066854Y0143326D02*
X0043638Y0143326D01*
X0044136Y0143824D02*
X0066355Y0143824D01*
X0065926Y0144323D02*
X0044635Y0144323D01*
X0045050Y0144821D02*
X0065720Y0144821D01*
X0065513Y0145320D02*
X0045050Y0145320D01*
X0045050Y0145818D02*
X0065426Y0145818D01*
X0068256Y0139836D02*
X0057080Y0139836D01*
X0058274Y0139338D02*
X0067053Y0139338D01*
X0066519Y0138839D02*
X0058773Y0138839D01*
X0059271Y0138341D02*
X0066020Y0138341D01*
X0065787Y0137842D02*
X0059491Y0137842D01*
X0059698Y0137344D02*
X0065581Y0137344D01*
X0065426Y0136845D02*
X0059850Y0136845D01*
X0059850Y0136347D02*
X0065426Y0136347D01*
X0065426Y0135848D02*
X0059850Y0135848D01*
X0059778Y0135350D02*
X0065501Y0135350D01*
X0065707Y0134851D02*
X0059571Y0134851D01*
X0059365Y0134353D02*
X0065914Y0134353D01*
X0066325Y0133854D02*
X0058966Y0133854D01*
X0058467Y0133355D02*
X0066824Y0133355D01*
X0067790Y0132857D02*
X0057546Y0132857D01*
X0059241Y0128370D02*
X0066050Y0128370D01*
X0065800Y0127872D02*
X0059479Y0127872D01*
X0059685Y0127373D02*
X0065593Y0127373D01*
X0065426Y0126875D02*
X0059850Y0126875D01*
X0059850Y0126376D02*
X0065426Y0126376D01*
X0065426Y0125878D02*
X0059850Y0125878D01*
X0059790Y0125379D02*
X0065489Y0125379D01*
X0065695Y0124881D02*
X0059584Y0124881D01*
X0059377Y0124382D02*
X0065902Y0124382D01*
X0066296Y0123884D02*
X0058996Y0123884D01*
X0058497Y0123385D02*
X0066794Y0123385D01*
X0066562Y0122887D02*
X0057618Y0122887D01*
X0056936Y0119896D02*
X0063571Y0119896D01*
X0064069Y0120394D02*
X0003618Y0120394D01*
X0003618Y0120893D02*
X0064568Y0120893D01*
X0065066Y0121391D02*
X0003618Y0121391D01*
X0003618Y0121890D02*
X0065565Y0121890D01*
X0066063Y0122388D02*
X0003618Y0122388D01*
X0003618Y0130863D02*
X0044312Y0130863D01*
X0043814Y0131361D02*
X0003618Y0131361D01*
X0003618Y0131860D02*
X0043315Y0131860D01*
X0042817Y0132358D02*
X0003618Y0132358D01*
X0023002Y0150305D02*
X0075611Y0150305D01*
X0075681Y0150276D02*
X0077119Y0150276D01*
X0078446Y0150826D01*
X0079462Y0151842D01*
X0080012Y0153169D01*
X0080012Y0159331D01*
X0079462Y0160658D01*
X0078446Y0161674D01*
X0077119Y0162224D01*
X0075681Y0162224D01*
X0074354Y0161674D01*
X0073338Y0160658D01*
X0072788Y0159331D01*
X0072788Y0153169D01*
X0073338Y0151842D01*
X0074354Y0150826D01*
X0075681Y0150276D01*
X0074615Y0149806D02*
X0128185Y0149806D01*
X0129652Y0152299D02*
X0153266Y0152299D01*
X0152767Y0152797D02*
X0129858Y0152797D01*
X0130012Y0153296D02*
X0152269Y0153296D01*
X0151770Y0153794D02*
X0130012Y0153794D01*
X0130012Y0154293D02*
X0151499Y0154293D01*
X0151292Y0154791D02*
X0130012Y0154791D01*
X0130012Y0155290D02*
X0151086Y0155290D01*
X0150879Y0155789D02*
X0130012Y0155789D01*
X0130012Y0156287D02*
X0150673Y0156287D01*
X0150466Y0156786D02*
X0130012Y0156786D01*
X0130012Y0157284D02*
X0150363Y0157284D01*
X0150363Y0157783D02*
X0130012Y0157783D01*
X0130012Y0158281D02*
X0150363Y0158281D01*
X0150363Y0158780D02*
X0130012Y0158780D01*
X0130012Y0159278D02*
X0150363Y0159278D01*
X0150363Y0159777D02*
X0129828Y0159777D01*
X0129621Y0160275D02*
X0150363Y0160275D01*
X0150507Y0160774D02*
X0129347Y0160774D01*
X0128848Y0161272D02*
X0150714Y0161272D01*
X0150920Y0161771D02*
X0128214Y0161771D01*
X0124586Y0161771D02*
X0118214Y0161771D01*
X0118446Y0161674D02*
X0117119Y0162224D01*
X0115681Y0162224D01*
X0114354Y0161674D01*
X0113338Y0160658D01*
X0112788Y0159331D01*
X0112788Y0153169D01*
X0113338Y0151842D01*
X0114354Y0150826D01*
X0115681Y0150276D01*
X0117119Y0150276D01*
X0118446Y0150826D01*
X0119462Y0151842D01*
X0120012Y0153169D01*
X0120012Y0159331D01*
X0119462Y0160658D01*
X0118446Y0161674D01*
X0118848Y0161272D02*
X0123952Y0161272D01*
X0123453Y0160774D02*
X0119347Y0160774D01*
X0119621Y0160275D02*
X0123179Y0160275D01*
X0122972Y0159777D02*
X0119828Y0159777D01*
X0120012Y0159278D02*
X0122788Y0159278D01*
X0122788Y0158780D02*
X0120012Y0158780D01*
X0120012Y0158281D02*
X0122788Y0158281D01*
X0122788Y0157783D02*
X0120012Y0157783D01*
X0120012Y0157284D02*
X0122788Y0157284D01*
X0122788Y0156786D02*
X0120012Y0156786D01*
X0120012Y0156287D02*
X0122788Y0156287D01*
X0122788Y0155789D02*
X0120012Y0155789D01*
X0120012Y0155290D02*
X0122788Y0155290D01*
X0122788Y0154791D02*
X0120012Y0154791D01*
X0120012Y0154293D02*
X0122788Y0154293D01*
X0122788Y0153794D02*
X0120012Y0153794D01*
X0120012Y0153296D02*
X0122788Y0153296D01*
X0122942Y0152797D02*
X0119858Y0152797D01*
X0119652Y0152299D02*
X0123148Y0152299D01*
X0123379Y0151800D02*
X0119421Y0151800D01*
X0118923Y0151302D02*
X0123877Y0151302D01*
X0124407Y0150803D02*
X0118393Y0150803D01*
X0117189Y0150305D02*
X0125611Y0150305D01*
X0115611Y0150305D02*
X0107189Y0150305D01*
X0107119Y0150276D02*
X0108446Y0150826D01*
X0109462Y0151842D01*
X0110012Y0153169D01*
X0110012Y0159331D01*
X0109462Y0160658D01*
X0108446Y0161674D01*
X0107119Y0162224D01*
X0105681Y0162224D01*
X0104354Y0161674D01*
X0103338Y0160658D01*
X0102788Y0159331D01*
X0102788Y0153169D01*
X0103338Y0151842D01*
X0104354Y0150826D01*
X0105681Y0150276D01*
X0107119Y0150276D01*
X0108393Y0150803D02*
X0114407Y0150803D01*
X0113877Y0151302D02*
X0108923Y0151302D01*
X0109421Y0151800D02*
X0113379Y0151800D01*
X0113148Y0152299D02*
X0109652Y0152299D01*
X0109858Y0152797D02*
X0112942Y0152797D01*
X0112788Y0153296D02*
X0110012Y0153296D01*
X0110012Y0153794D02*
X0112788Y0153794D01*
X0112788Y0154293D02*
X0110012Y0154293D01*
X0110012Y0154791D02*
X0112788Y0154791D01*
X0112788Y0155290D02*
X0110012Y0155290D01*
X0110012Y0155789D02*
X0112788Y0155789D01*
X0112788Y0156287D02*
X0110012Y0156287D01*
X0110012Y0156786D02*
X0112788Y0156786D01*
X0112788Y0157284D02*
X0110012Y0157284D01*
X0110012Y0157783D02*
X0112788Y0157783D01*
X0112788Y0158281D02*
X0110012Y0158281D01*
X0110012Y0158780D02*
X0112788Y0158780D01*
X0112788Y0159278D02*
X0110012Y0159278D01*
X0109828Y0159777D02*
X0112972Y0159777D01*
X0113179Y0160275D02*
X0109621Y0160275D01*
X0109347Y0160774D02*
X0113453Y0160774D01*
X0113952Y0161272D02*
X0108848Y0161272D01*
X0108214Y0161771D02*
X0114586Y0161771D01*
X0104586Y0161771D02*
X0098214Y0161771D01*
X0098446Y0161674D02*
X0097119Y0162224D01*
X0095681Y0162224D01*
X0094354Y0161674D01*
X0093338Y0160658D01*
X0092788Y0159331D01*
X0092788Y0153169D01*
X0093338Y0151842D01*
X0094354Y0150826D01*
X0095681Y0150276D01*
X0097119Y0150276D01*
X0098446Y0150826D01*
X0099462Y0151842D01*
X0100012Y0153169D01*
X0100012Y0159331D01*
X0099462Y0160658D01*
X0098446Y0161674D01*
X0098848Y0161272D02*
X0103952Y0161272D01*
X0103453Y0160774D02*
X0099347Y0160774D01*
X0099621Y0160275D02*
X0103179Y0160275D01*
X0102972Y0159777D02*
X0099828Y0159777D01*
X0100012Y0159278D02*
X0102788Y0159278D01*
X0102788Y0158780D02*
X0100012Y0158780D01*
X0100012Y0158281D02*
X0102788Y0158281D01*
X0102788Y0157783D02*
X0100012Y0157783D01*
X0100012Y0157284D02*
X0102788Y0157284D01*
X0102788Y0156786D02*
X0100012Y0156786D01*
X0100012Y0156287D02*
X0102788Y0156287D01*
X0102788Y0155789D02*
X0100012Y0155789D01*
X0100012Y0155290D02*
X0102788Y0155290D01*
X0102788Y0154791D02*
X0100012Y0154791D01*
X0100012Y0154293D02*
X0102788Y0154293D01*
X0102788Y0153794D02*
X0100012Y0153794D01*
X0100012Y0153296D02*
X0102788Y0153296D01*
X0102942Y0152797D02*
X0099858Y0152797D01*
X0099652Y0152299D02*
X0103148Y0152299D01*
X0103379Y0151800D02*
X0099421Y0151800D01*
X0098923Y0151302D02*
X0103877Y0151302D01*
X0104407Y0150803D02*
X0098393Y0150803D01*
X0097189Y0150305D02*
X0105611Y0150305D01*
X0095611Y0150305D02*
X0087189Y0150305D01*
X0087119Y0150276D02*
X0088446Y0150826D01*
X0089462Y0151842D01*
X0090012Y0153169D01*
X0090012Y0159331D01*
X0089462Y0160658D01*
X0088446Y0161674D01*
X0087119Y0162224D01*
X0085681Y0162224D01*
X0084354Y0161674D01*
X0083338Y0160658D01*
X0082788Y0159331D01*
X0082788Y0153169D01*
X0083338Y0151842D01*
X0084354Y0150826D01*
X0085681Y0150276D01*
X0087119Y0150276D01*
X0088393Y0150803D02*
X0094407Y0150803D01*
X0093877Y0151302D02*
X0088923Y0151302D01*
X0089421Y0151800D02*
X0093379Y0151800D01*
X0093148Y0152299D02*
X0089652Y0152299D01*
X0089858Y0152797D02*
X0092942Y0152797D01*
X0092788Y0153296D02*
X0090012Y0153296D01*
X0090012Y0153794D02*
X0092788Y0153794D01*
X0092788Y0154293D02*
X0090012Y0154293D01*
X0090012Y0154791D02*
X0092788Y0154791D01*
X0092788Y0155290D02*
X0090012Y0155290D01*
X0090012Y0155789D02*
X0092788Y0155789D01*
X0092788Y0156287D02*
X0090012Y0156287D01*
X0090012Y0156786D02*
X0092788Y0156786D01*
X0092788Y0157284D02*
X0090012Y0157284D01*
X0090012Y0157783D02*
X0092788Y0157783D01*
X0092788Y0158281D02*
X0090012Y0158281D01*
X0090012Y0158780D02*
X0092788Y0158780D01*
X0092788Y0159278D02*
X0090012Y0159278D01*
X0089828Y0159777D02*
X0092972Y0159777D01*
X0093179Y0160275D02*
X0089621Y0160275D01*
X0089347Y0160774D02*
X0093453Y0160774D01*
X0093952Y0161272D02*
X0088848Y0161272D01*
X0088214Y0161771D02*
X0094586Y0161771D01*
X0084586Y0161771D02*
X0078214Y0161771D01*
X0078848Y0161272D02*
X0083952Y0161272D01*
X0083453Y0160774D02*
X0079347Y0160774D01*
X0079621Y0160275D02*
X0083179Y0160275D01*
X0082972Y0159777D02*
X0079828Y0159777D01*
X0080012Y0159278D02*
X0082788Y0159278D01*
X0082788Y0158780D02*
X0080012Y0158780D01*
X0080012Y0158281D02*
X0082788Y0158281D01*
X0082788Y0157783D02*
X0080012Y0157783D01*
X0080012Y0157284D02*
X0082788Y0157284D01*
X0082788Y0156786D02*
X0080012Y0156786D01*
X0080012Y0156287D02*
X0082788Y0156287D01*
X0082788Y0155789D02*
X0080012Y0155789D01*
X0080012Y0155290D02*
X0082788Y0155290D01*
X0082788Y0154791D02*
X0080012Y0154791D01*
X0080012Y0154293D02*
X0082788Y0154293D01*
X0082788Y0153794D02*
X0080012Y0153794D01*
X0080012Y0153296D02*
X0082788Y0153296D01*
X0082942Y0152797D02*
X0079858Y0152797D01*
X0079652Y0152299D02*
X0083148Y0152299D01*
X0083379Y0151800D02*
X0079421Y0151800D01*
X0078923Y0151302D02*
X0083877Y0151302D01*
X0084407Y0150803D02*
X0078393Y0150803D01*
X0077189Y0150305D02*
X0085611Y0150305D01*
X0074407Y0150803D02*
X0024206Y0150803D01*
X0025409Y0151302D02*
X0073877Y0151302D01*
X0073379Y0151800D02*
X0026201Y0151800D01*
X0026700Y0152299D02*
X0073148Y0152299D01*
X0072942Y0152797D02*
X0027198Y0152797D01*
X0027697Y0153296D02*
X0072788Y0153296D01*
X0072788Y0153794D02*
X0028195Y0153794D01*
X0028467Y0154293D02*
X0072788Y0154293D01*
X0072788Y0154791D02*
X0028673Y0154791D01*
X0028880Y0155290D02*
X0072788Y0155290D01*
X0072788Y0155789D02*
X0029086Y0155789D01*
X0029292Y0156287D02*
X0072788Y0156287D01*
X0072788Y0156786D02*
X0029499Y0156786D01*
X0029603Y0157284D02*
X0072788Y0157284D01*
X0072788Y0157783D02*
X0029603Y0157783D01*
X0029603Y0158281D02*
X0072788Y0158281D01*
X0072788Y0158780D02*
X0029603Y0158780D01*
X0029603Y0159278D02*
X0072788Y0159278D01*
X0072972Y0159777D02*
X0029603Y0159777D01*
X0029603Y0160275D02*
X0073179Y0160275D01*
X0073453Y0160774D02*
X0029458Y0160774D01*
X0029252Y0161272D02*
X0073952Y0161272D01*
X0074586Y0161771D02*
X0029045Y0161771D01*
X0028839Y0162269D02*
X0151127Y0162269D01*
X0151333Y0162768D02*
X0028632Y0162768D01*
X0028426Y0163266D02*
X0151540Y0163266D01*
X0151869Y0163765D02*
X0028097Y0163765D01*
X0027598Y0164263D02*
X0152367Y0164263D01*
X0152866Y0164762D02*
X0027099Y0164762D01*
X0026601Y0165260D02*
X0153364Y0165260D01*
X0153863Y0165759D02*
X0026102Y0165759D01*
X0025171Y0166257D02*
X0154794Y0166257D01*
X0155998Y0166756D02*
X0023968Y0166756D01*
X0033005Y0149806D02*
X0039795Y0149806D01*
X0039296Y0149308D02*
X0033504Y0149308D01*
X0034003Y0148809D02*
X0038797Y0148809D01*
X0038299Y0148311D02*
X0034501Y0148311D01*
X0035000Y0147812D02*
X0037800Y0147812D01*
X0037750Y0147314D02*
X0035050Y0147314D01*
X0058140Y0119397D02*
X0063072Y0119397D01*
X0062574Y0118899D02*
X0058713Y0118899D01*
X0059212Y0118400D02*
X0062075Y0118400D01*
X0061577Y0117902D02*
X0059467Y0117902D01*
X0059673Y0117403D02*
X0061078Y0117403D01*
X0060580Y0116905D02*
X0059850Y0116905D01*
X0059850Y0116406D02*
X0060081Y0116406D01*
X0062538Y0113914D02*
X0066266Y0113914D01*
X0065889Y0114412D02*
X0063037Y0114412D01*
X0063535Y0114911D02*
X0065683Y0114911D01*
X0065476Y0115409D02*
X0064034Y0115409D01*
X0064532Y0115908D02*
X0065426Y0115908D01*
X0065426Y0116406D02*
X0065031Y0116406D01*
X0066764Y0113415D02*
X0062040Y0113415D01*
X0061541Y0112917D02*
X0067646Y0112917D01*
X0068319Y0109862D02*
X0066992Y0109312D01*
X0065976Y0108296D01*
X0065426Y0106969D01*
X0065426Y0105531D01*
X0065976Y0104204D01*
X0066992Y0103188D01*
X0068319Y0102638D01*
X0074481Y0102638D01*
X0075808Y0103188D01*
X0076824Y0104204D01*
X0077374Y0105531D01*
X0077374Y0106969D01*
X0076824Y0108296D01*
X0075808Y0109312D01*
X0074481Y0109862D01*
X0068319Y0109862D01*
X0067269Y0109427D02*
X0058068Y0109427D01*
X0058683Y0108928D02*
X0066608Y0108928D01*
X0066109Y0108430D02*
X0059182Y0108430D01*
X0059454Y0107931D02*
X0065824Y0107931D01*
X0065618Y0107433D02*
X0059661Y0107433D01*
X0059850Y0106934D02*
X0065426Y0106934D01*
X0065426Y0106436D02*
X0059850Y0106436D01*
X0059850Y0105937D02*
X0065426Y0105937D01*
X0065464Y0105439D02*
X0059815Y0105439D01*
X0059608Y0104940D02*
X0065670Y0104940D01*
X0065877Y0104442D02*
X0059402Y0104442D01*
X0059055Y0103943D02*
X0066236Y0103943D01*
X0066735Y0103445D02*
X0058557Y0103445D01*
X0057762Y0102946D02*
X0067574Y0102946D01*
X0067340Y0099457D02*
X0043082Y0099457D01*
X0043580Y0099955D02*
X0110664Y0099955D01*
X0110871Y0099457D02*
X0075460Y0099457D01*
X0076162Y0098958D02*
X0111221Y0098958D01*
X0110976Y0099204D02*
X0111992Y0098188D01*
X0113319Y0097638D01*
X0119481Y0097638D01*
X0120808Y0098188D01*
X0121824Y0099204D01*
X0122374Y0100531D01*
X0122374Y0101969D01*
X0121824Y0103296D01*
X0120808Y0104312D01*
X0119481Y0104862D01*
X0113319Y0104862D01*
X0111992Y0104312D01*
X0110976Y0103296D01*
X0110426Y0101969D01*
X0110426Y0100531D01*
X0110976Y0099204D01*
X0111720Y0098460D02*
X0076661Y0098460D01*
X0076963Y0097961D02*
X0112539Y0097961D01*
X0110458Y0100454D02*
X0044079Y0100454D01*
X0044577Y0100952D02*
X0110426Y0100952D01*
X0110426Y0101451D02*
X0045076Y0101451D01*
X0045574Y0101949D02*
X0110426Y0101949D01*
X0110624Y0102448D02*
X0046073Y0102448D01*
X0046571Y0102946D02*
X0049838Y0102946D01*
X0049043Y0103445D02*
X0047070Y0103445D01*
X0047568Y0103943D02*
X0048545Y0103943D01*
X0048198Y0104442D02*
X0048067Y0104442D01*
X0051550Y0109925D02*
X0110677Y0109925D01*
X0110883Y0109427D02*
X0075531Y0109427D01*
X0076192Y0108928D02*
X0111251Y0108928D01*
X0110976Y0109204D02*
X0111992Y0108188D01*
X0113319Y0107638D01*
X0119481Y0107638D01*
X0120808Y0108188D01*
X0121824Y0109204D01*
X0122374Y0110531D01*
X0122374Y0111969D01*
X0121824Y0113296D01*
X0120808Y0114312D01*
X0119481Y0114862D01*
X0113319Y0114862D01*
X0111992Y0114312D01*
X0110976Y0113296D01*
X0110426Y0111969D01*
X0110426Y0110531D01*
X0110976Y0109204D01*
X0111749Y0108430D02*
X0076691Y0108430D01*
X0076976Y0107931D02*
X0112610Y0107931D01*
X0110470Y0110424D02*
X0052049Y0110424D01*
X0059547Y0110922D02*
X0110426Y0110922D01*
X0110426Y0111421D02*
X0060046Y0111421D01*
X0060544Y0111920D02*
X0110426Y0111920D01*
X0110612Y0112418D02*
X0061043Y0112418D01*
X0068521Y0119896D02*
X0136650Y0119896D01*
X0136650Y0120394D02*
X0069019Y0120394D01*
X0069518Y0120893D02*
X0136650Y0120893D01*
X0136650Y0121391D02*
X0070016Y0121391D01*
X0070515Y0121890D02*
X0136650Y0121890D01*
X0136650Y0122388D02*
X0071013Y0122388D01*
X0075082Y0122887D02*
X0127718Y0122887D01*
X0126794Y0123385D02*
X0076006Y0123385D01*
X0076504Y0123884D02*
X0126296Y0123884D01*
X0125902Y0124382D02*
X0076898Y0124382D01*
X0075603Y0119397D02*
X0127197Y0119397D01*
X0126578Y0118899D02*
X0076222Y0118899D01*
X0076720Y0118400D02*
X0126080Y0118400D01*
X0125812Y0117902D02*
X0076988Y0117902D01*
X0077194Y0117403D02*
X0125606Y0117403D01*
X0125426Y0116905D02*
X0077374Y0116905D01*
X0077374Y0116406D02*
X0125426Y0116406D01*
X0125426Y0115908D02*
X0077374Y0115908D01*
X0077324Y0115409D02*
X0125476Y0115409D01*
X0125683Y0114911D02*
X0077117Y0114911D01*
X0076911Y0114412D02*
X0112233Y0114412D01*
X0111593Y0113914D02*
X0076534Y0113914D01*
X0076036Y0113415D02*
X0111094Y0113415D01*
X0110818Y0112917D02*
X0075154Y0112917D01*
X0077182Y0107433D02*
X0125618Y0107433D01*
X0125426Y0106969D02*
X0125426Y0105531D01*
X0125976Y0104204D01*
X0126992Y0103188D01*
X0128319Y0102638D01*
X0134481Y0102638D01*
X0135808Y0103188D01*
X0136824Y0104204D01*
X0137374Y0105531D01*
X0137374Y0106969D01*
X0136824Y0108296D01*
X0135808Y0109312D01*
X0134481Y0109862D01*
X0128319Y0109862D01*
X0126992Y0109312D01*
X0125976Y0108296D01*
X0125426Y0106969D01*
X0125426Y0106934D02*
X0077374Y0106934D01*
X0077374Y0106436D02*
X0125426Y0106436D01*
X0125426Y0105937D02*
X0077374Y0105937D01*
X0077336Y0105439D02*
X0125464Y0105439D01*
X0125670Y0104940D02*
X0077130Y0104940D01*
X0076923Y0104442D02*
X0112304Y0104442D01*
X0111623Y0103943D02*
X0076564Y0103943D01*
X0076065Y0103445D02*
X0111124Y0103445D01*
X0110831Y0102946D02*
X0075226Y0102946D01*
X0077170Y0097463D02*
X0125630Y0097463D01*
X0125426Y0096964D02*
X0077374Y0096964D01*
X0077374Y0096466D02*
X0125426Y0096466D01*
X0125426Y0095967D02*
X0077374Y0095967D01*
X0077348Y0095469D02*
X0125452Y0095469D01*
X0125658Y0094970D02*
X0077142Y0094970D01*
X0076935Y0094472D02*
X0125865Y0094472D01*
X0125837Y0097961D02*
X0120261Y0097961D01*
X0121080Y0098460D02*
X0126139Y0098460D01*
X0126638Y0098958D02*
X0121579Y0098958D01*
X0121929Y0099457D02*
X0127340Y0099457D01*
X0127574Y0102946D02*
X0121969Y0102946D01*
X0122176Y0102448D02*
X0143123Y0102448D01*
X0143621Y0102946D02*
X0135226Y0102946D01*
X0136065Y0103445D02*
X0144120Y0103445D01*
X0144618Y0103943D02*
X0136564Y0103943D01*
X0136923Y0104442D02*
X0145117Y0104442D01*
X0145616Y0104940D02*
X0137130Y0104940D01*
X0137336Y0105439D02*
X0146114Y0105439D01*
X0146613Y0105937D02*
X0137374Y0105937D01*
X0137374Y0106436D02*
X0147111Y0106436D01*
X0147610Y0106934D02*
X0137374Y0106934D01*
X0137182Y0107433D02*
X0148108Y0107433D01*
X0148607Y0107931D02*
X0136976Y0107931D01*
X0136691Y0108430D02*
X0149105Y0108430D01*
X0149604Y0108928D02*
X0136192Y0108928D01*
X0135531Y0109427D02*
X0150102Y0109427D01*
X0150601Y0109925D02*
X0122123Y0109925D01*
X0121917Y0109427D02*
X0127269Y0109427D01*
X0126608Y0108928D02*
X0121549Y0108928D01*
X0121051Y0108430D02*
X0126109Y0108430D01*
X0125824Y0107931D02*
X0120190Y0107931D01*
X0122330Y0110424D02*
X0150621Y0110424D01*
X0150544Y0110922D02*
X0122374Y0110922D01*
X0122374Y0111421D02*
X0150544Y0111421D01*
X0150544Y0111920D02*
X0122374Y0111920D01*
X0122188Y0112418D02*
X0150567Y0112418D01*
X0150774Y0112917D02*
X0135154Y0112917D01*
X0136036Y0113415D02*
X0150980Y0113415D01*
X0151187Y0113914D02*
X0136534Y0113914D01*
X0136911Y0114412D02*
X0151647Y0114412D01*
X0158223Y0117902D02*
X0176347Y0117902D01*
X0176347Y0118400D02*
X0140150Y0118400D01*
X0140150Y0118899D02*
X0176347Y0118899D01*
X0176347Y0119397D02*
X0140150Y0119397D01*
X0140150Y0119896D02*
X0176347Y0119896D01*
X0176347Y0120394D02*
X0140150Y0120394D01*
X0140150Y0120893D02*
X0176347Y0120893D01*
X0176347Y0121391D02*
X0140150Y0121391D01*
X0140150Y0121890D02*
X0176347Y0121890D01*
X0176347Y0122388D02*
X0140150Y0122388D01*
X0140150Y0122887D02*
X0153942Y0122887D01*
X0152739Y0123385D02*
X0140150Y0123385D01*
X0140150Y0123884D02*
X0152072Y0123884D01*
X0151573Y0124382D02*
X0140150Y0124382D01*
X0140150Y0124881D02*
X0151156Y0124881D01*
X0150950Y0125379D02*
X0140150Y0125379D01*
X0140150Y0125878D02*
X0150743Y0125878D01*
X0150544Y0126376D02*
X0140150Y0126376D01*
X0140150Y0126875D02*
X0150544Y0126875D01*
X0150544Y0127373D02*
X0140150Y0127373D01*
X0140150Y0127872D02*
X0150544Y0127872D01*
X0150652Y0128370D02*
X0139754Y0128370D01*
X0139256Y0128869D02*
X0150858Y0128869D01*
X0151065Y0129367D02*
X0138757Y0129367D01*
X0138259Y0129866D02*
X0151353Y0129866D01*
X0151852Y0130364D02*
X0137760Y0130364D01*
X0137262Y0130863D02*
X0152350Y0130863D01*
X0152492Y0131361D02*
X0136763Y0131361D01*
X0131650Y0132857D02*
X0131150Y0132857D01*
X0131150Y0132638D02*
X0131150Y0136000D01*
X0125426Y0136000D01*
X0125426Y0135894D01*
X0125564Y0135196D01*
X0125837Y0134539D01*
X0126232Y0133947D01*
X0126735Y0133444D01*
X0127327Y0133049D01*
X0127984Y0132777D01*
X0128682Y0132638D01*
X0131150Y0132638D01*
X0131150Y0133355D02*
X0131650Y0133355D01*
X0131650Y0133854D02*
X0131150Y0133854D01*
X0131150Y0134353D02*
X0131650Y0134353D01*
X0131650Y0134851D02*
X0131150Y0134851D01*
X0131150Y0135350D02*
X0131650Y0135350D01*
X0131650Y0135848D02*
X0131150Y0135848D01*
X0131150Y0137344D02*
X0131650Y0137344D01*
X0131650Y0137842D02*
X0131150Y0137842D01*
X0131150Y0138341D02*
X0131650Y0138341D01*
X0131650Y0138839D02*
X0131150Y0138839D01*
X0131150Y0139338D02*
X0131650Y0139338D01*
X0131650Y0139836D02*
X0131150Y0139836D01*
X0134249Y0139836D02*
X0176347Y0139836D01*
X0176347Y0139338D02*
X0156229Y0139338D01*
X0157433Y0138839D02*
X0176347Y0138839D01*
X0176347Y0138341D02*
X0157933Y0138341D01*
X0158431Y0137842D02*
X0176347Y0137842D01*
X0176347Y0137344D02*
X0158780Y0137344D01*
X0158986Y0136845D02*
X0176347Y0136845D01*
X0176347Y0136347D02*
X0159192Y0136347D01*
X0159343Y0135848D02*
X0176347Y0135848D01*
X0176347Y0135350D02*
X0159343Y0135350D01*
X0159343Y0134851D02*
X0176347Y0134851D01*
X0176347Y0134353D02*
X0159343Y0134353D01*
X0159186Y0133854D02*
X0176347Y0133854D01*
X0176347Y0133355D02*
X0158979Y0133355D01*
X0158773Y0132857D02*
X0176347Y0132857D01*
X0176347Y0132358D02*
X0158416Y0132358D01*
X0157917Y0131860D02*
X0176347Y0131860D01*
X0176347Y0131361D02*
X0157394Y0131361D01*
X0157537Y0130863D02*
X0176347Y0130863D01*
X0176347Y0130364D02*
X0158035Y0130364D01*
X0158534Y0129866D02*
X0176347Y0129866D01*
X0176347Y0129367D02*
X0158822Y0129367D01*
X0159028Y0128869D02*
X0176347Y0128869D01*
X0176347Y0128370D02*
X0159235Y0128370D01*
X0159343Y0127872D02*
X0176347Y0127872D01*
X0176347Y0127373D02*
X0159343Y0127373D01*
X0159343Y0126875D02*
X0176347Y0126875D01*
X0176347Y0126376D02*
X0159343Y0126376D01*
X0159144Y0125878D02*
X0176347Y0125878D01*
X0176347Y0125379D02*
X0158937Y0125379D01*
X0158731Y0124881D02*
X0176347Y0124881D01*
X0176347Y0124382D02*
X0158313Y0124382D01*
X0157815Y0123884D02*
X0176347Y0123884D01*
X0176347Y0123385D02*
X0157148Y0123385D01*
X0155944Y0122887D02*
X0176347Y0122887D01*
X0176347Y0117403D02*
X0158722Y0117403D01*
X0159220Y0116905D02*
X0176347Y0116905D01*
X0176347Y0116406D02*
X0159719Y0116406D01*
X0160217Y0115908D02*
X0176347Y0115908D01*
X0176347Y0115409D02*
X0160716Y0115409D01*
X0161214Y0114911D02*
X0176347Y0114911D01*
X0176347Y0114412D02*
X0161713Y0114412D01*
X0162150Y0113914D02*
X0176347Y0113914D01*
X0176347Y0113415D02*
X0162150Y0113415D01*
X0162150Y0112917D02*
X0176347Y0112917D01*
X0176347Y0112418D02*
X0162150Y0112418D01*
X0162150Y0111920D02*
X0176347Y0111920D01*
X0176347Y0111421D02*
X0162150Y0111421D01*
X0162150Y0110922D02*
X0176347Y0110922D01*
X0176347Y0110424D02*
X0162150Y0110424D01*
X0162150Y0109925D02*
X0176347Y0109925D01*
X0176347Y0109427D02*
X0162150Y0109427D01*
X0162150Y0108928D02*
X0176347Y0108928D01*
X0176347Y0108430D02*
X0162150Y0108430D01*
X0162150Y0107931D02*
X0176347Y0107931D01*
X0176347Y0107433D02*
X0162150Y0107433D01*
X0162150Y0106934D02*
X0176347Y0106934D01*
X0176347Y0106436D02*
X0162150Y0106436D01*
X0162150Y0105937D02*
X0176347Y0105937D01*
X0176347Y0105439D02*
X0162150Y0105439D01*
X0162150Y0104940D02*
X0176347Y0104940D01*
X0176347Y0104442D02*
X0162150Y0104442D01*
X0162150Y0103943D02*
X0176347Y0103943D01*
X0176347Y0103445D02*
X0162150Y0103445D01*
X0162150Y0102946D02*
X0176347Y0102946D01*
X0176347Y0102448D02*
X0162150Y0102448D01*
X0162150Y0101949D02*
X0176347Y0101949D01*
X0176347Y0101451D02*
X0162150Y0101451D01*
X0162150Y0100952D02*
X0176347Y0100952D01*
X0176347Y0100454D02*
X0162150Y0100454D01*
X0162150Y0099955D02*
X0176347Y0099955D01*
X0176347Y0099457D02*
X0162150Y0099457D01*
X0162150Y0098958D02*
X0176347Y0098958D01*
X0176347Y0098460D02*
X0162150Y0098460D01*
X0162150Y0097961D02*
X0176347Y0097961D01*
X0176347Y0097463D02*
X0162150Y0097463D01*
X0162150Y0096964D02*
X0176347Y0096964D01*
X0176347Y0096466D02*
X0162150Y0096466D01*
X0162150Y0095967D02*
X0176347Y0095967D01*
X0176347Y0095469D02*
X0162150Y0095469D01*
X0162150Y0094970D02*
X0176347Y0094970D01*
X0176347Y0094472D02*
X0162150Y0094472D01*
X0162150Y0093973D02*
X0176347Y0093973D01*
X0176347Y0093475D02*
X0162150Y0093475D01*
X0162150Y0092976D02*
X0176347Y0092976D01*
X0176347Y0092478D02*
X0162150Y0092478D01*
X0162150Y0091979D02*
X0176347Y0091979D01*
X0176347Y0091481D02*
X0162150Y0091481D01*
X0162150Y0090982D02*
X0176347Y0090982D01*
X0176347Y0090484D02*
X0162150Y0090484D01*
X0162150Y0089985D02*
X0176347Y0089985D01*
X0176347Y0089487D02*
X0170524Y0089487D01*
X0171224Y0088988D02*
X0176347Y0088988D01*
X0176347Y0088489D02*
X0171722Y0088489D01*
X0172030Y0087991D02*
X0176347Y0087991D01*
X0176347Y0087492D02*
X0172236Y0087492D01*
X0172443Y0086994D02*
X0176347Y0086994D01*
X0176347Y0086495D02*
X0172450Y0086495D01*
X0172450Y0085997D02*
X0176347Y0085997D01*
X0176347Y0085498D02*
X0172439Y0085498D01*
X0172233Y0085000D02*
X0176347Y0085000D01*
X0176347Y0084501D02*
X0172026Y0084501D01*
X0171715Y0084003D02*
X0176347Y0084003D01*
X0176347Y0083504D02*
X0171216Y0083504D01*
X0170506Y0083006D02*
X0176347Y0083006D01*
X0176347Y0082507D02*
X0161150Y0082507D01*
X0161150Y0082009D02*
X0176347Y0082009D01*
X0176347Y0081510D02*
X0161150Y0081510D01*
X0161150Y0081012D02*
X0176347Y0081012D01*
X0176347Y0080513D02*
X0161150Y0080513D01*
X0161150Y0080015D02*
X0176347Y0080015D01*
X0176347Y0079516D02*
X0161150Y0079516D01*
X0161150Y0079018D02*
X0176347Y0079018D01*
X0176347Y0078519D02*
X0161150Y0078519D01*
X0161150Y0078021D02*
X0176347Y0078021D01*
X0176347Y0077522D02*
X0161150Y0077522D01*
X0161150Y0077024D02*
X0176347Y0077024D01*
X0176347Y0076525D02*
X0161150Y0076525D01*
X0161150Y0076027D02*
X0176347Y0076027D01*
X0176347Y0075528D02*
X0161150Y0075528D01*
X0161150Y0075030D02*
X0176347Y0075030D01*
X0176347Y0074531D02*
X0161150Y0074531D01*
X0161150Y0074033D02*
X0176347Y0074033D01*
X0176347Y0073534D02*
X0161150Y0073534D01*
X0161150Y0073036D02*
X0176347Y0073036D01*
X0176347Y0072537D02*
X0161150Y0072537D01*
X0161150Y0072039D02*
X0176347Y0072039D01*
X0176347Y0071540D02*
X0161150Y0071540D01*
X0161150Y0071042D02*
X0176347Y0071042D01*
X0176347Y0070543D02*
X0161150Y0070543D01*
X0161150Y0070045D02*
X0176347Y0070045D01*
X0176347Y0069546D02*
X0161150Y0069546D01*
X0161150Y0069048D02*
X0176347Y0069048D01*
X0176347Y0068549D02*
X0161150Y0068549D01*
X0161150Y0068051D02*
X0176347Y0068051D01*
X0176347Y0067552D02*
X0161150Y0067552D01*
X0161150Y0067053D02*
X0176347Y0067053D01*
X0176347Y0066555D02*
X0161150Y0066555D01*
X0161150Y0066056D02*
X0176347Y0066056D01*
X0176347Y0065558D02*
X0161150Y0065558D01*
X0161150Y0065059D02*
X0176347Y0065059D01*
X0176347Y0064561D02*
X0161150Y0064561D01*
X0161150Y0064062D02*
X0176347Y0064062D01*
X0176347Y0063564D02*
X0161561Y0063564D01*
X0162059Y0063065D02*
X0176347Y0063065D01*
X0176347Y0062567D02*
X0162558Y0062567D01*
X0163056Y0062068D02*
X0176347Y0062068D01*
X0176347Y0061570D02*
X0163555Y0061570D01*
X0164053Y0061071D02*
X0176347Y0061071D01*
X0176347Y0060573D02*
X0164552Y0060573D01*
X0165051Y0060074D02*
X0176347Y0060074D01*
X0176347Y0059576D02*
X0170309Y0059576D01*
X0171135Y0059077D02*
X0176347Y0059077D01*
X0176347Y0058579D02*
X0171633Y0058579D01*
X0171993Y0058080D02*
X0176347Y0058080D01*
X0176347Y0057582D02*
X0172199Y0057582D01*
X0172406Y0057083D02*
X0176347Y0057083D01*
X0176347Y0056585D02*
X0172450Y0056585D01*
X0172450Y0056086D02*
X0176347Y0056086D01*
X0176347Y0055588D02*
X0172450Y0055588D01*
X0172270Y0055089D02*
X0176347Y0055089D01*
X0176347Y0054591D02*
X0172063Y0054591D01*
X0171804Y0054092D02*
X0176347Y0054092D01*
X0176347Y0053594D02*
X0171306Y0053594D01*
X0170722Y0053095D02*
X0176347Y0053095D01*
X0176347Y0052597D02*
X0025272Y0052597D01*
X0025272Y0052681D02*
X0029422Y0052681D01*
X0029422Y0052777D01*
X0029313Y0053461D01*
X0029099Y0054120D01*
X0028785Y0054737D01*
X0028378Y0055297D01*
X0027888Y0055787D01*
X0027328Y0056194D01*
X0026711Y0056508D01*
X0026052Y0056722D01*
X0025368Y0056831D01*
X0025272Y0056831D01*
X0025272Y0052681D01*
X0025272Y0052181D01*
X0029422Y0052181D01*
X0029422Y0052085D01*
X0029313Y0051401D01*
X0029099Y0050742D01*
X0028785Y0050125D01*
X0028378Y0049565D01*
X0027888Y0049075D01*
X0027328Y0048668D01*
X0026999Y0048500D01*
X0027514Y0048287D01*
X0028752Y0047049D01*
X0029422Y0045432D01*
X0029422Y0043682D01*
X0028752Y0042065D01*
X0027514Y0040827D01*
X0025897Y0040157D01*
X0024147Y0040157D01*
X0022530Y0040827D01*
X0021292Y0042065D01*
X0020622Y0043682D01*
X0020622Y0045432D01*
X0021292Y0047049D01*
X0022530Y0048287D01*
X0023045Y0048500D01*
X0022716Y0048668D01*
X0022156Y0049075D01*
X0021666Y0049565D01*
X0021259Y0050125D01*
X0020945Y0050742D01*
X0020731Y0051401D01*
X0020622Y0052085D01*
X0020622Y0052181D01*
X0024772Y0052181D01*
X0024772Y0052681D01*
X0020622Y0052681D01*
X0020622Y0052777D01*
X0020731Y0053461D01*
X0020945Y0054120D01*
X0021259Y0054737D01*
X0021666Y0055297D01*
X0022156Y0055787D01*
X0022716Y0056194D01*
X0023333Y0056508D01*
X0023992Y0056722D01*
X0024676Y0056831D01*
X0024772Y0056831D01*
X0024772Y0052681D01*
X0025272Y0052681D01*
X0025272Y0053095D02*
X0024772Y0053095D01*
X0024772Y0052597D02*
X0003618Y0052597D01*
X0003618Y0053095D02*
X0020673Y0053095D01*
X0020774Y0053594D02*
X0003618Y0053594D01*
X0003618Y0054092D02*
X0020936Y0054092D01*
X0021185Y0054591D02*
X0003618Y0054591D01*
X0003618Y0055089D02*
X0021515Y0055089D01*
X0021957Y0055588D02*
X0003618Y0055588D01*
X0003618Y0056086D02*
X0022568Y0056086D01*
X0023568Y0056585D02*
X0003618Y0056585D01*
X0003618Y0057083D02*
X0053566Y0057083D01*
X0053068Y0057582D02*
X0003618Y0057582D01*
X0003618Y0058080D02*
X0052569Y0058080D01*
X0052149Y0058579D02*
X0003618Y0058579D01*
X0003618Y0059077D02*
X0051942Y0059077D01*
X0054728Y0056585D02*
X0026476Y0056585D01*
X0027476Y0056086D02*
X0065426Y0056086D01*
X0065426Y0055588D02*
X0028087Y0055588D01*
X0028529Y0055089D02*
X0065609Y0055089D01*
X0065426Y0055531D02*
X0065976Y0054204D01*
X0066992Y0053188D01*
X0068319Y0052638D01*
X0074481Y0052638D01*
X0075808Y0053188D01*
X0076824Y0054204D01*
X0077374Y0055531D01*
X0077374Y0056969D01*
X0076824Y0058296D01*
X0075808Y0059312D01*
X0074481Y0059862D01*
X0068319Y0059862D01*
X0066992Y0059312D01*
X0065976Y0058296D01*
X0065426Y0056969D01*
X0065426Y0055531D01*
X0065815Y0054591D02*
X0028859Y0054591D01*
X0029108Y0054092D02*
X0066087Y0054092D01*
X0066586Y0053594D02*
X0029270Y0053594D01*
X0029371Y0053095D02*
X0067215Y0053095D01*
X0068319Y0049862D02*
X0066992Y0049312D01*
X0065976Y0048296D01*
X0065426Y0046969D01*
X0065426Y0045531D01*
X0065976Y0044204D01*
X0066992Y0043188D01*
X0068319Y0042638D01*
X0074481Y0042638D01*
X0075808Y0043188D01*
X0076824Y0044204D01*
X0077374Y0045531D01*
X0077374Y0046969D01*
X0076824Y0048296D01*
X0075808Y0049312D01*
X0074481Y0049862D01*
X0068319Y0049862D01*
X0067700Y0049606D02*
X0053206Y0049606D01*
X0052912Y0049900D02*
X0051650Y0049900D01*
X0051650Y0046500D01*
X0055050Y0046500D01*
X0055050Y0047762D01*
X0052912Y0049900D01*
X0053705Y0049107D02*
X0066786Y0049107D01*
X0066288Y0048609D02*
X0054203Y0048609D01*
X0054702Y0048110D02*
X0065898Y0048110D01*
X0065692Y0047612D02*
X0055050Y0047612D01*
X0055050Y0047113D02*
X0065485Y0047113D01*
X0065426Y0046615D02*
X0055050Y0046615D01*
X0055050Y0046000D02*
X0051650Y0046000D01*
X0051650Y0046500D01*
X0051150Y0046500D01*
X0051150Y0049900D01*
X0049888Y0049900D01*
X0047750Y0047762D01*
X0047750Y0046500D01*
X0051150Y0046500D01*
X0051150Y0046000D01*
X0051650Y0046000D01*
X0051650Y0042600D01*
X0052912Y0042600D01*
X0055050Y0044738D01*
X0055050Y0046000D01*
X0055050Y0045618D02*
X0065426Y0045618D01*
X0065426Y0046116D02*
X0051650Y0046116D01*
X0051650Y0045618D02*
X0051150Y0045618D01*
X0051150Y0046000D02*
X0051150Y0042600D01*
X0049888Y0042600D01*
X0047750Y0044738D01*
X0047750Y0046000D01*
X0051150Y0046000D01*
X0051150Y0046116D02*
X0045050Y0046116D01*
X0045050Y0045618D02*
X0047750Y0045618D01*
X0047750Y0045119D02*
X0045050Y0045119D01*
X0045050Y0044738D02*
X0042912Y0042600D01*
X0039888Y0042600D01*
X0037750Y0044738D01*
X0037750Y0047762D01*
X0039888Y0049900D01*
X0042912Y0049900D01*
X0045050Y0047762D01*
X0045050Y0044738D01*
X0044932Y0044620D02*
X0047868Y0044620D01*
X0048366Y0044122D02*
X0044434Y0044122D01*
X0043935Y0043623D02*
X0048865Y0043623D01*
X0049363Y0043125D02*
X0043437Y0043125D01*
X0042938Y0042626D02*
X0049862Y0042626D01*
X0051150Y0042626D02*
X0051650Y0042626D01*
X0051650Y0043125D02*
X0051150Y0043125D01*
X0051150Y0043623D02*
X0051650Y0043623D01*
X0051650Y0044122D02*
X0051150Y0044122D01*
X0051150Y0044620D02*
X0051650Y0044620D01*
X0051650Y0045119D02*
X0051150Y0045119D01*
X0051150Y0046615D02*
X0051650Y0046615D01*
X0051650Y0047113D02*
X0051150Y0047113D01*
X0051150Y0047612D02*
X0051650Y0047612D01*
X0051650Y0048110D02*
X0051150Y0048110D01*
X0051150Y0048609D02*
X0051650Y0048609D01*
X0051650Y0049107D02*
X0051150Y0049107D01*
X0051150Y0049606D02*
X0051650Y0049606D01*
X0049594Y0049606D02*
X0043206Y0049606D01*
X0043705Y0049107D02*
X0049095Y0049107D01*
X0048597Y0048609D02*
X0044203Y0048609D01*
X0044702Y0048110D02*
X0048098Y0048110D01*
X0047750Y0047612D02*
X0045050Y0047612D01*
X0045050Y0047113D02*
X0047750Y0047113D01*
X0047750Y0046615D02*
X0045050Y0046615D01*
X0039594Y0049606D02*
X0028407Y0049606D01*
X0028770Y0050104D02*
X0176347Y0050104D01*
X0176347Y0049606D02*
X0170237Y0049606D01*
X0170868Y0049344D02*
X0169526Y0049900D01*
X0163274Y0049900D01*
X0161932Y0049344D01*
X0160906Y0048318D01*
X0160350Y0046976D01*
X0160350Y0045524D01*
X0160906Y0044182D01*
X0161932Y0043156D01*
X0163274Y0042600D01*
X0169526Y0042600D01*
X0170868Y0043156D01*
X0171894Y0044182D01*
X0172450Y0045524D01*
X0172450Y0046976D01*
X0171894Y0048318D01*
X0170868Y0049344D01*
X0171105Y0049107D02*
X0176347Y0049107D01*
X0176347Y0048609D02*
X0171603Y0048609D01*
X0171980Y0048110D02*
X0176347Y0048110D01*
X0176347Y0047612D02*
X0172187Y0047612D01*
X0172393Y0047113D02*
X0176347Y0047113D01*
X0176347Y0046615D02*
X0172450Y0046615D01*
X0172450Y0046116D02*
X0176347Y0046116D01*
X0176347Y0045618D02*
X0172450Y0045618D01*
X0172282Y0045119D02*
X0176347Y0045119D01*
X0176347Y0044620D02*
X0172076Y0044620D01*
X0171834Y0044122D02*
X0176347Y0044122D01*
X0176347Y0043623D02*
X0171335Y0043623D01*
X0170793Y0043125D02*
X0176347Y0043125D01*
X0176347Y0042626D02*
X0169590Y0042626D01*
X0176347Y0042128D02*
X0028778Y0042128D01*
X0028984Y0042626D02*
X0039862Y0042626D01*
X0039363Y0043125D02*
X0029191Y0043125D01*
X0029397Y0043623D02*
X0038865Y0043623D01*
X0038366Y0044122D02*
X0029422Y0044122D01*
X0029422Y0044620D02*
X0037868Y0044620D01*
X0037750Y0045119D02*
X0029422Y0045119D01*
X0029345Y0045618D02*
X0037750Y0045618D01*
X0037750Y0046116D02*
X0029138Y0046116D01*
X0028932Y0046615D02*
X0037750Y0046615D01*
X0037750Y0047113D02*
X0028688Y0047113D01*
X0028190Y0047612D02*
X0037750Y0047612D01*
X0038098Y0048110D02*
X0027691Y0048110D01*
X0027211Y0048609D02*
X0038597Y0048609D01*
X0039095Y0049107D02*
X0027920Y0049107D01*
X0029028Y0050603D02*
X0176347Y0050603D01*
X0176347Y0051101D02*
X0029216Y0051101D01*
X0029345Y0051600D02*
X0176347Y0051600D01*
X0176347Y0052098D02*
X0029422Y0052098D01*
X0025272Y0053594D02*
X0024772Y0053594D01*
X0024772Y0054092D02*
X0025272Y0054092D01*
X0025272Y0054591D02*
X0024772Y0054591D01*
X0024772Y0055089D02*
X0025272Y0055089D01*
X0025272Y0055588D02*
X0024772Y0055588D01*
X0024772Y0056086D02*
X0025272Y0056086D01*
X0025272Y0056585D02*
X0024772Y0056585D01*
X0023599Y0059576D02*
X0003618Y0059576D01*
X0003618Y0060074D02*
X0023101Y0060074D01*
X0022602Y0060573D02*
X0003618Y0060573D01*
X0003618Y0061071D02*
X0022104Y0061071D01*
X0020622Y0052098D02*
X0003618Y0052098D01*
X0003618Y0051600D02*
X0020699Y0051600D01*
X0020828Y0051101D02*
X0003618Y0051101D01*
X0003618Y0050603D02*
X0021016Y0050603D01*
X0021274Y0050104D02*
X0003618Y0050104D01*
X0003618Y0049606D02*
X0021637Y0049606D01*
X0022124Y0049107D02*
X0003618Y0049107D01*
X0003618Y0048609D02*
X0022833Y0048609D01*
X0022353Y0048110D02*
X0003618Y0048110D01*
X0003618Y0047612D02*
X0021855Y0047612D01*
X0021356Y0047113D02*
X0003618Y0047113D01*
X0003618Y0046615D02*
X0021112Y0046615D01*
X0020906Y0046116D02*
X0003618Y0046116D01*
X0003618Y0045618D02*
X0020699Y0045618D01*
X0020622Y0045119D02*
X0003618Y0045119D01*
X0003618Y0044620D02*
X0020622Y0044620D01*
X0020622Y0044122D02*
X0003618Y0044122D01*
X0003618Y0043623D02*
X0020647Y0043623D01*
X0020853Y0043125D02*
X0003618Y0043125D01*
X0003618Y0042626D02*
X0021060Y0042626D01*
X0021266Y0042128D02*
X0003618Y0042128D01*
X0003618Y0041629D02*
X0021728Y0041629D01*
X0022226Y0041131D02*
X0003618Y0041131D01*
X0003618Y0040632D02*
X0023000Y0040632D01*
X0027044Y0040632D02*
X0176347Y0040632D01*
X0176347Y0040134D02*
X0003618Y0040134D01*
X0003618Y0039635D02*
X0067772Y0039635D01*
X0068319Y0039862D02*
X0066992Y0039312D01*
X0065976Y0038296D01*
X0065426Y0036969D01*
X0065426Y0035531D01*
X0065976Y0034204D01*
X0066992Y0033188D01*
X0068319Y0032638D01*
X0074481Y0032638D01*
X0075808Y0033188D01*
X0076824Y0034204D01*
X0077374Y0035531D01*
X0077374Y0036969D01*
X0076824Y0038296D01*
X0075808Y0039312D01*
X0074481Y0039862D01*
X0068319Y0039862D01*
X0066816Y0039137D02*
X0003618Y0039137D01*
X0003618Y0038638D02*
X0066318Y0038638D01*
X0065911Y0038140D02*
X0003618Y0038140D01*
X0003618Y0037641D02*
X0065704Y0037641D01*
X0065498Y0037143D02*
X0003618Y0037143D01*
X0003618Y0036644D02*
X0065426Y0036644D01*
X0065426Y0036146D02*
X0003618Y0036146D01*
X0003618Y0035647D02*
X0065426Y0035647D01*
X0065584Y0035149D02*
X0003618Y0035149D01*
X0003618Y0034650D02*
X0039638Y0034650D01*
X0039888Y0034900D02*
X0037750Y0032762D01*
X0037750Y0029738D01*
X0039888Y0027600D01*
X0042912Y0027600D01*
X0045050Y0029738D01*
X0045050Y0032762D01*
X0042912Y0034900D01*
X0039888Y0034900D01*
X0039140Y0034152D02*
X0003618Y0034152D01*
X0003618Y0033653D02*
X0038641Y0033653D01*
X0038143Y0033155D02*
X0003618Y0033155D01*
X0003618Y0032656D02*
X0037750Y0032656D01*
X0037750Y0032158D02*
X0003618Y0032158D01*
X0003618Y0031659D02*
X0037750Y0031659D01*
X0037750Y0031161D02*
X0003618Y0031161D01*
X0003618Y0030662D02*
X0037750Y0030662D01*
X0037750Y0030164D02*
X0003618Y0030164D01*
X0003618Y0029665D02*
X0037823Y0029665D01*
X0038321Y0029167D02*
X0023470Y0029167D01*
X0022779Y0029453D02*
X0025910Y0028156D01*
X0028306Y0025760D01*
X0029603Y0022629D01*
X0029603Y0019241D01*
X0028306Y0016110D01*
X0025910Y0013714D01*
X0022779Y0012417D01*
X0019391Y0012417D01*
X0016260Y0013714D01*
X0013864Y0016110D01*
X0012567Y0019241D01*
X0012567Y0022629D01*
X0013864Y0025760D01*
X0016260Y0028156D01*
X0019391Y0029453D01*
X0022779Y0029453D01*
X0024674Y0028668D02*
X0038820Y0028668D01*
X0039319Y0028170D02*
X0025877Y0028170D01*
X0026395Y0027671D02*
X0039817Y0027671D01*
X0042983Y0027671D02*
X0049817Y0027671D01*
X0049888Y0027600D02*
X0051150Y0027600D01*
X0051150Y0031000D01*
X0051650Y0031000D01*
X0051650Y0031500D01*
X0055050Y0031500D01*
X0055050Y0032762D01*
X0052912Y0034900D01*
X0051650Y0034900D01*
X0051650Y0031500D01*
X0051150Y0031500D01*
X0051150Y0034900D01*
X0049888Y0034900D01*
X0047750Y0032762D01*
X0047750Y0031500D01*
X0051150Y0031500D01*
X0051150Y0031000D01*
X0047750Y0031000D01*
X0047750Y0029738D01*
X0049888Y0027600D01*
X0049319Y0028170D02*
X0043481Y0028170D01*
X0043980Y0028668D02*
X0048820Y0028668D01*
X0048321Y0029167D02*
X0044479Y0029167D01*
X0044977Y0029665D02*
X0047823Y0029665D01*
X0047750Y0030164D02*
X0045050Y0030164D01*
X0045050Y0030662D02*
X0047750Y0030662D01*
X0047750Y0031659D02*
X0045050Y0031659D01*
X0045050Y0031161D02*
X0051150Y0031161D01*
X0051150Y0031659D02*
X0051650Y0031659D01*
X0051650Y0031161D02*
X0176347Y0031161D01*
X0176347Y0031659D02*
X0055050Y0031659D01*
X0055050Y0032158D02*
X0176347Y0032158D01*
X0176347Y0032656D02*
X0134525Y0032656D01*
X0134481Y0032638D02*
X0135808Y0033188D01*
X0136824Y0034204D01*
X0137374Y0035531D01*
X0137374Y0036969D01*
X0136824Y0038296D01*
X0135808Y0039312D01*
X0134481Y0039862D01*
X0128319Y0039862D01*
X0126992Y0039312D01*
X0125976Y0038296D01*
X0125426Y0036969D01*
X0125426Y0035531D01*
X0125976Y0034204D01*
X0126992Y0033188D01*
X0128319Y0032638D01*
X0134481Y0032638D01*
X0135729Y0033155D02*
X0176347Y0033155D01*
X0176347Y0033653D02*
X0136274Y0033653D01*
X0136772Y0034152D02*
X0176347Y0034152D01*
X0176347Y0034650D02*
X0137009Y0034650D01*
X0137216Y0035149D02*
X0176347Y0035149D01*
X0176347Y0035647D02*
X0137374Y0035647D01*
X0137374Y0036146D02*
X0176347Y0036146D01*
X0176347Y0036644D02*
X0137374Y0036644D01*
X0137302Y0037143D02*
X0176347Y0037143D01*
X0176347Y0037641D02*
X0137096Y0037641D01*
X0136889Y0038140D02*
X0176347Y0038140D01*
X0176347Y0038638D02*
X0136482Y0038638D01*
X0135984Y0039137D02*
X0176347Y0039137D01*
X0176347Y0039635D02*
X0135028Y0039635D01*
X0134481Y0042638D02*
X0135808Y0043188D01*
X0136824Y0044204D01*
X0137374Y0045531D01*
X0137374Y0046969D01*
X0136824Y0048296D01*
X0135808Y0049312D01*
X0134481Y0049862D01*
X0128319Y0049862D01*
X0126992Y0049312D01*
X0125976Y0048296D01*
X0125426Y0046969D01*
X0125426Y0045531D01*
X0125976Y0044204D01*
X0126992Y0043188D01*
X0128319Y0042638D01*
X0134481Y0042638D01*
X0135657Y0043125D02*
X0142007Y0043125D01*
X0141932Y0043156D02*
X0143274Y0042600D01*
X0149526Y0042600D01*
X0150868Y0043156D01*
X0151894Y0044182D01*
X0152450Y0045524D01*
X0152450Y0046976D01*
X0151894Y0048318D01*
X0150868Y0049344D01*
X0149526Y0049900D01*
X0143274Y0049900D01*
X0141932Y0049344D01*
X0140906Y0048318D01*
X0140350Y0046976D01*
X0140350Y0045524D01*
X0140906Y0044182D01*
X0141932Y0043156D01*
X0141465Y0043623D02*
X0136244Y0043623D01*
X0136743Y0044122D02*
X0140966Y0044122D01*
X0140724Y0044620D02*
X0136997Y0044620D01*
X0137204Y0045119D02*
X0140518Y0045119D01*
X0140350Y0045618D02*
X0137374Y0045618D01*
X0137374Y0046116D02*
X0140350Y0046116D01*
X0140350Y0046615D02*
X0137374Y0046615D01*
X0137315Y0047113D02*
X0140407Y0047113D01*
X0140613Y0047612D02*
X0137108Y0047612D01*
X0136902Y0048110D02*
X0140820Y0048110D01*
X0141197Y0048609D02*
X0136512Y0048609D01*
X0136014Y0049107D02*
X0141695Y0049107D01*
X0142563Y0049606D02*
X0135100Y0049606D01*
X0134481Y0052638D02*
X0135808Y0053188D01*
X0136824Y0054204D01*
X0137374Y0055531D01*
X0137374Y0056969D01*
X0136824Y0058296D01*
X0135808Y0059312D01*
X0134481Y0059862D01*
X0128319Y0059862D01*
X0126992Y0059312D01*
X0125976Y0058296D01*
X0125426Y0056969D01*
X0125426Y0055531D01*
X0125976Y0054204D01*
X0126992Y0053188D01*
X0128319Y0052638D01*
X0134481Y0052638D01*
X0135585Y0053095D02*
X0142078Y0053095D01*
X0141932Y0053156D02*
X0143274Y0052600D01*
X0149526Y0052600D01*
X0150868Y0053156D01*
X0151894Y0054182D01*
X0152450Y0055524D01*
X0152450Y0056976D01*
X0151894Y0058318D01*
X0150868Y0059344D01*
X0149526Y0059900D01*
X0143274Y0059900D01*
X0141932Y0059344D01*
X0140906Y0058318D01*
X0140350Y0056976D01*
X0140350Y0055524D01*
X0140906Y0054182D01*
X0141932Y0053156D01*
X0141494Y0053594D02*
X0136214Y0053594D01*
X0136713Y0054092D02*
X0140996Y0054092D01*
X0140737Y0054591D02*
X0136985Y0054591D01*
X0137191Y0055089D02*
X0140530Y0055089D01*
X0140350Y0055588D02*
X0137374Y0055588D01*
X0137374Y0056086D02*
X0140350Y0056086D01*
X0140350Y0056585D02*
X0137374Y0056585D01*
X0137327Y0057083D02*
X0140394Y0057083D01*
X0140601Y0057582D02*
X0137120Y0057582D01*
X0136914Y0058080D02*
X0140807Y0058080D01*
X0141167Y0058579D02*
X0136542Y0058579D01*
X0136043Y0059077D02*
X0141665Y0059077D01*
X0142491Y0059576D02*
X0135172Y0059576D01*
X0135513Y0063065D02*
X0157650Y0063065D01*
X0157650Y0062567D02*
X0122127Y0062567D01*
X0122333Y0062068D02*
X0158107Y0062068D01*
X0158605Y0061570D02*
X0122374Y0061570D01*
X0122374Y0061071D02*
X0159104Y0061071D01*
X0159602Y0060573D02*
X0122374Y0060573D01*
X0122185Y0060074D02*
X0160101Y0060074D01*
X0160599Y0059576D02*
X0150309Y0059576D01*
X0151135Y0059077D02*
X0161098Y0059077D01*
X0161167Y0058579D02*
X0151633Y0058579D01*
X0151993Y0058080D02*
X0160807Y0058080D01*
X0160601Y0057582D02*
X0152199Y0057582D01*
X0152406Y0057083D02*
X0160394Y0057083D01*
X0160350Y0056585D02*
X0152450Y0056585D01*
X0152450Y0056086D02*
X0160350Y0056086D01*
X0160350Y0055588D02*
X0152450Y0055588D01*
X0152270Y0055089D02*
X0160530Y0055089D01*
X0160737Y0054591D02*
X0152063Y0054591D01*
X0151804Y0054092D02*
X0160996Y0054092D01*
X0161494Y0053594D02*
X0151306Y0053594D01*
X0150722Y0053095D02*
X0162078Y0053095D01*
X0162563Y0049606D02*
X0150237Y0049606D01*
X0151105Y0049107D02*
X0161695Y0049107D01*
X0161197Y0048609D02*
X0151603Y0048609D01*
X0151980Y0048110D02*
X0160820Y0048110D01*
X0160613Y0047612D02*
X0152187Y0047612D01*
X0152393Y0047113D02*
X0160407Y0047113D01*
X0160350Y0046615D02*
X0152450Y0046615D01*
X0152450Y0046116D02*
X0160350Y0046116D01*
X0160350Y0045618D02*
X0152450Y0045618D01*
X0152282Y0045119D02*
X0160518Y0045119D01*
X0160724Y0044620D02*
X0152076Y0044620D01*
X0151834Y0044122D02*
X0160966Y0044122D01*
X0161465Y0043623D02*
X0151335Y0043623D01*
X0150793Y0043125D02*
X0162007Y0043125D01*
X0163210Y0042626D02*
X0149590Y0042626D01*
X0143210Y0042626D02*
X0052938Y0042626D01*
X0053437Y0043125D02*
X0067143Y0043125D01*
X0066556Y0043623D02*
X0053935Y0043623D01*
X0054434Y0044122D02*
X0066057Y0044122D01*
X0065803Y0044620D02*
X0054932Y0044620D01*
X0055050Y0045119D02*
X0065596Y0045119D01*
X0075100Y0049606D02*
X0127700Y0049606D01*
X0126786Y0049107D02*
X0076014Y0049107D01*
X0076512Y0048609D02*
X0126288Y0048609D01*
X0125898Y0048110D02*
X0076902Y0048110D01*
X0077108Y0047612D02*
X0125692Y0047612D01*
X0125485Y0047113D02*
X0077315Y0047113D01*
X0077374Y0046615D02*
X0125426Y0046615D01*
X0125426Y0046116D02*
X0077374Y0046116D01*
X0077374Y0045618D02*
X0125426Y0045618D01*
X0125596Y0045119D02*
X0077204Y0045119D01*
X0076997Y0044620D02*
X0125803Y0044620D01*
X0126057Y0044122D02*
X0076743Y0044122D01*
X0076244Y0043623D02*
X0126556Y0043623D01*
X0127143Y0043125D02*
X0075657Y0043125D01*
X0075028Y0039635D02*
X0127772Y0039635D01*
X0126816Y0039137D02*
X0075984Y0039137D01*
X0076482Y0038638D02*
X0126318Y0038638D01*
X0125911Y0038140D02*
X0076889Y0038140D01*
X0077096Y0037641D02*
X0125704Y0037641D01*
X0125498Y0037143D02*
X0077302Y0037143D01*
X0077374Y0036644D02*
X0125426Y0036644D01*
X0125426Y0036146D02*
X0077374Y0036146D01*
X0077374Y0035647D02*
X0125426Y0035647D01*
X0125584Y0035149D02*
X0077216Y0035149D01*
X0077009Y0034650D02*
X0125791Y0034650D01*
X0126028Y0034152D02*
X0076772Y0034152D01*
X0076274Y0033653D02*
X0126526Y0033653D01*
X0127071Y0033155D02*
X0075729Y0033155D01*
X0074525Y0032656D02*
X0128275Y0032656D01*
X0127126Y0022300D02*
X0125674Y0022300D01*
X0124332Y0021744D01*
X0123306Y0020718D01*
X0122750Y0019376D01*
X0122750Y0015075D01*
X0119309Y0011634D01*
X0119635Y0012121D01*
X0119910Y0012785D01*
X0120050Y0013490D01*
X0120050Y0016000D01*
X0116650Y0016000D01*
X0116650Y0016500D01*
X0116150Y0016500D01*
X0116150Y0022300D01*
X0116040Y0022300D01*
X0115335Y0022160D01*
X0114671Y0021885D01*
X0114073Y0021485D01*
X0113565Y0020977D01*
X0113165Y0020379D01*
X0112890Y0019715D01*
X0112750Y0019009D01*
X0112750Y0016500D01*
X0116150Y0016500D01*
X0116150Y0016000D01*
X0112750Y0016000D01*
X0112750Y0013490D01*
X0112890Y0012785D01*
X0113165Y0012121D01*
X0113565Y0011523D01*
X0114073Y0011015D01*
X0114096Y0011000D01*
X0088125Y0011000D01*
X0086525Y0012600D01*
X0087912Y0012600D01*
X0090050Y0014738D01*
X0090050Y0017762D01*
X0087912Y0019900D01*
X0084888Y0019900D01*
X0082750Y0017762D01*
X0082750Y0016375D01*
X0081125Y0018000D01*
X0081033Y0018000D01*
X0080596Y0019054D01*
X0079204Y0020446D01*
X0077385Y0021200D01*
X0075415Y0021200D01*
X0073596Y0020446D01*
X0072204Y0019054D01*
X0071450Y0017235D01*
X0071450Y0015265D01*
X0072204Y0013446D01*
X0073596Y0012054D01*
X0075415Y0011300D01*
X0077385Y0011300D01*
X0079204Y0012054D01*
X0080596Y0013446D01*
X0080635Y0013540D01*
X0085650Y0008525D01*
X0086675Y0007500D01*
X0120125Y0007500D01*
X0123856Y0011232D01*
X0124332Y0010756D01*
X0125674Y0010200D01*
X0127126Y0010200D01*
X0128468Y0010756D01*
X0129494Y0011782D01*
X0130050Y0013124D01*
X0130050Y0019376D01*
X0129494Y0020718D01*
X0128468Y0021744D01*
X0127126Y0022300D01*
X0127398Y0022187D02*
X0135402Y0022187D01*
X0135674Y0022300D02*
X0134332Y0021744D01*
X0133306Y0020718D01*
X0132750Y0019376D01*
X0132750Y0013124D01*
X0133306Y0011782D01*
X0134332Y0010756D01*
X0135674Y0010200D01*
X0137126Y0010200D01*
X0138468Y0010756D01*
X0139494Y0011782D01*
X0140050Y0013124D01*
X0140050Y0019376D01*
X0139494Y0020718D01*
X0138468Y0021744D01*
X0137126Y0022300D01*
X0135674Y0022300D01*
X0134277Y0021689D02*
X0128523Y0021689D01*
X0129021Y0021190D02*
X0133779Y0021190D01*
X0133295Y0020692D02*
X0129505Y0020692D01*
X0129711Y0020193D02*
X0133089Y0020193D01*
X0132882Y0019695D02*
X0129918Y0019695D01*
X0130050Y0019196D02*
X0132750Y0019196D01*
X0132750Y0018698D02*
X0130050Y0018698D01*
X0130050Y0018199D02*
X0132750Y0018199D01*
X0132750Y0017701D02*
X0130050Y0017701D01*
X0130050Y0017202D02*
X0132750Y0017202D01*
X0132750Y0016704D02*
X0130050Y0016704D01*
X0130050Y0016205D02*
X0132750Y0016205D01*
X0132750Y0015707D02*
X0130050Y0015707D01*
X0130050Y0015208D02*
X0132750Y0015208D01*
X0132750Y0014710D02*
X0130050Y0014710D01*
X0130050Y0014211D02*
X0132750Y0014211D01*
X0132750Y0013713D02*
X0130050Y0013713D01*
X0130050Y0013214D02*
X0132750Y0013214D01*
X0132919Y0012716D02*
X0129881Y0012716D01*
X0129674Y0012217D02*
X0133126Y0012217D01*
X0133369Y0011719D02*
X0129431Y0011719D01*
X0128932Y0011220D02*
X0133868Y0011220D01*
X0134414Y0010722D02*
X0128386Y0010722D01*
X0127182Y0010223D02*
X0135618Y0010223D01*
X0137182Y0010223D02*
X0176347Y0010223D01*
X0176347Y0009725D02*
X0122350Y0009725D01*
X0122848Y0010223D02*
X0125618Y0010223D01*
X0124414Y0010722D02*
X0123347Y0010722D01*
X0123845Y0011220D02*
X0123868Y0011220D01*
X0121851Y0009226D02*
X0176347Y0009226D01*
X0176347Y0008728D02*
X0121353Y0008728D01*
X0120854Y0008229D02*
X0176347Y0008229D01*
X0176347Y0007731D02*
X0120355Y0007731D01*
X0119394Y0011719D02*
X0119366Y0011719D01*
X0119674Y0012217D02*
X0119892Y0012217D01*
X0119881Y0012716D02*
X0120391Y0012716D01*
X0119995Y0013214D02*
X0120889Y0013214D01*
X0121388Y0013713D02*
X0120050Y0013713D01*
X0120050Y0014211D02*
X0121886Y0014211D01*
X0122385Y0014710D02*
X0120050Y0014710D01*
X0120050Y0015208D02*
X0122750Y0015208D01*
X0122750Y0015707D02*
X0120050Y0015707D01*
X0120050Y0016500D02*
X0120050Y0019009D01*
X0119910Y0019715D01*
X0119635Y0020379D01*
X0119235Y0020977D01*
X0118727Y0021485D01*
X0118129Y0021885D01*
X0117465Y0022160D01*
X0116759Y0022300D01*
X0116650Y0022300D01*
X0116650Y0016500D01*
X0120050Y0016500D01*
X0120050Y0016704D02*
X0122750Y0016704D01*
X0122750Y0017202D02*
X0120050Y0017202D01*
X0120050Y0017701D02*
X0122750Y0017701D01*
X0122750Y0018199D02*
X0120050Y0018199D01*
X0120050Y0018698D02*
X0122750Y0018698D01*
X0122750Y0019196D02*
X0120013Y0019196D01*
X0119914Y0019695D02*
X0122882Y0019695D01*
X0123089Y0020193D02*
X0119711Y0020193D01*
X0119425Y0020692D02*
X0123295Y0020692D01*
X0123779Y0021190D02*
X0119021Y0021190D01*
X0118422Y0021689D02*
X0124277Y0021689D01*
X0125402Y0022187D02*
X0117325Y0022187D01*
X0116650Y0022187D02*
X0116150Y0022187D01*
X0116150Y0021689D02*
X0116650Y0021689D01*
X0116650Y0021190D02*
X0116150Y0021190D01*
X0116150Y0020692D02*
X0116650Y0020692D01*
X0116650Y0020193D02*
X0116150Y0020193D01*
X0116150Y0019695D02*
X0116650Y0019695D01*
X0116650Y0019196D02*
X0116150Y0019196D01*
X0116150Y0018698D02*
X0116650Y0018698D01*
X0116650Y0018199D02*
X0116150Y0018199D01*
X0116150Y0017701D02*
X0116650Y0017701D01*
X0116650Y0017202D02*
X0116150Y0017202D01*
X0116150Y0016704D02*
X0116650Y0016704D01*
X0116650Y0016205D02*
X0122750Y0016205D01*
X0116150Y0016205D02*
X0110050Y0016205D01*
X0110050Y0015707D02*
X0112750Y0015707D01*
X0112750Y0015208D02*
X0110050Y0015208D01*
X0110050Y0014738D02*
X0107912Y0012600D01*
X0104888Y0012600D01*
X0102750Y0014738D01*
X0102750Y0017762D01*
X0104888Y0019900D01*
X0107912Y0019900D01*
X0110050Y0017762D01*
X0110050Y0014738D01*
X0110022Y0014710D02*
X0112750Y0014710D01*
X0112750Y0014211D02*
X0109523Y0014211D01*
X0109025Y0013713D02*
X0112750Y0013713D01*
X0112805Y0013214D02*
X0108526Y0013214D01*
X0108028Y0012716D02*
X0112919Y0012716D01*
X0113126Y0012217D02*
X0086908Y0012217D01*
X0087406Y0011719D02*
X0113434Y0011719D01*
X0113868Y0011220D02*
X0087905Y0011220D01*
X0088028Y0012716D02*
X0104772Y0012716D01*
X0104274Y0013214D02*
X0088526Y0013214D01*
X0089025Y0013713D02*
X0103775Y0013713D01*
X0103277Y0014211D02*
X0089523Y0014211D01*
X0090022Y0014710D02*
X0102778Y0014710D01*
X0102750Y0015208D02*
X0090050Y0015208D01*
X0090050Y0015707D02*
X0102750Y0015707D01*
X0102750Y0016205D02*
X0090050Y0016205D01*
X0090050Y0016704D02*
X0102750Y0016704D01*
X0102750Y0017202D02*
X0090050Y0017202D01*
X0090050Y0017701D02*
X0102750Y0017701D01*
X0103188Y0018199D02*
X0089612Y0018199D01*
X0089114Y0018698D02*
X0103686Y0018698D01*
X0104185Y0019196D02*
X0088615Y0019196D01*
X0088117Y0019695D02*
X0104683Y0019695D01*
X0108117Y0019695D02*
X0112886Y0019695D01*
X0112787Y0019196D02*
X0108615Y0019196D01*
X0109114Y0018698D02*
X0112750Y0018698D01*
X0112750Y0018199D02*
X0109612Y0018199D01*
X0110050Y0017701D02*
X0112750Y0017701D01*
X0112750Y0017202D02*
X0110050Y0017202D01*
X0110050Y0016704D02*
X0112750Y0016704D01*
X0113089Y0020193D02*
X0079457Y0020193D01*
X0079955Y0019695D02*
X0084683Y0019695D01*
X0084185Y0019196D02*
X0080454Y0019196D01*
X0080744Y0018698D02*
X0083686Y0018698D01*
X0083188Y0018199D02*
X0080950Y0018199D01*
X0081424Y0017701D02*
X0082750Y0017701D01*
X0082750Y0017202D02*
X0081922Y0017202D01*
X0082421Y0016704D02*
X0082750Y0016704D01*
X0080961Y0013214D02*
X0080365Y0013214D01*
X0079866Y0012716D02*
X0081459Y0012716D01*
X0081958Y0012217D02*
X0079368Y0012217D01*
X0078396Y0011719D02*
X0082456Y0011719D01*
X0082955Y0011220D02*
X0003618Y0011220D01*
X0003618Y0010722D02*
X0083453Y0010722D01*
X0083952Y0010223D02*
X0003618Y0010223D01*
X0003618Y0009725D02*
X0084450Y0009725D01*
X0084949Y0009226D02*
X0003618Y0009226D01*
X0003618Y0008728D02*
X0085447Y0008728D01*
X0085946Y0008229D02*
X0003618Y0008229D01*
X0003618Y0007731D02*
X0086444Y0007731D01*
X0074404Y0011719D02*
X0048396Y0011719D01*
X0049204Y0012054D02*
X0047385Y0011300D01*
X0045415Y0011300D01*
X0043596Y0012054D01*
X0042204Y0013446D01*
X0041450Y0015265D01*
X0041450Y0017235D01*
X0042204Y0019054D01*
X0043596Y0020446D01*
X0045415Y0021200D01*
X0047385Y0021200D01*
X0049204Y0020446D01*
X0050596Y0019054D01*
X0051350Y0017235D01*
X0051350Y0015265D01*
X0050596Y0013446D01*
X0049204Y0012054D01*
X0049368Y0012217D02*
X0073432Y0012217D01*
X0072934Y0012716D02*
X0049866Y0012716D01*
X0050365Y0013214D02*
X0072435Y0013214D01*
X0072093Y0013713D02*
X0050707Y0013713D01*
X0050913Y0014211D02*
X0071887Y0014211D01*
X0071680Y0014710D02*
X0051120Y0014710D01*
X0051326Y0015208D02*
X0071474Y0015208D01*
X0071450Y0015707D02*
X0051350Y0015707D01*
X0051350Y0016205D02*
X0071450Y0016205D01*
X0071450Y0016704D02*
X0051350Y0016704D01*
X0051350Y0017202D02*
X0071450Y0017202D01*
X0071643Y0017701D02*
X0051157Y0017701D01*
X0050950Y0018199D02*
X0071850Y0018199D01*
X0072056Y0018698D02*
X0050744Y0018698D01*
X0050454Y0019196D02*
X0072346Y0019196D01*
X0072845Y0019695D02*
X0049955Y0019695D01*
X0049457Y0020193D02*
X0073343Y0020193D01*
X0074189Y0020692D02*
X0048611Y0020692D01*
X0047408Y0021190D02*
X0075392Y0021190D01*
X0077408Y0021190D02*
X0113779Y0021190D01*
X0113375Y0020692D02*
X0078611Y0020692D01*
X0068275Y0032656D02*
X0055050Y0032656D01*
X0054657Y0033155D02*
X0067071Y0033155D01*
X0066526Y0033653D02*
X0054159Y0033653D01*
X0053660Y0034152D02*
X0066028Y0034152D01*
X0065791Y0034650D02*
X0053162Y0034650D01*
X0051650Y0034650D02*
X0051150Y0034650D01*
X0051150Y0034152D02*
X0051650Y0034152D01*
X0051650Y0033653D02*
X0051150Y0033653D01*
X0051150Y0033155D02*
X0051650Y0033155D01*
X0051650Y0032656D02*
X0051150Y0032656D01*
X0051150Y0032158D02*
X0051650Y0032158D01*
X0051650Y0031000D02*
X0055050Y0031000D01*
X0055050Y0029738D01*
X0052912Y0027600D01*
X0051650Y0027600D01*
X0051650Y0031000D01*
X0051650Y0030662D02*
X0051150Y0030662D01*
X0051150Y0030164D02*
X0051650Y0030164D01*
X0051650Y0029665D02*
X0051150Y0029665D01*
X0051150Y0029167D02*
X0051650Y0029167D01*
X0051650Y0028668D02*
X0051150Y0028668D01*
X0051150Y0028170D02*
X0051650Y0028170D01*
X0051650Y0027671D02*
X0051150Y0027671D01*
X0052983Y0027671D02*
X0153571Y0027671D01*
X0154055Y0028156D02*
X0151659Y0025760D01*
X0150363Y0022629D01*
X0150363Y0019241D01*
X0151659Y0016110D01*
X0154055Y0013714D01*
X0157186Y0012417D01*
X0160575Y0012417D01*
X0163705Y0013714D01*
X0166101Y0016110D01*
X0167398Y0019241D01*
X0167398Y0022629D01*
X0166101Y0025760D01*
X0163705Y0028156D01*
X0160575Y0029453D01*
X0157186Y0029453D01*
X0154055Y0028156D01*
X0154088Y0028170D02*
X0053481Y0028170D01*
X0053980Y0028668D02*
X0155292Y0028668D01*
X0156495Y0029167D02*
X0054479Y0029167D01*
X0054977Y0029665D02*
X0176347Y0029665D01*
X0176347Y0029167D02*
X0161265Y0029167D01*
X0162469Y0028668D02*
X0176347Y0028668D01*
X0176347Y0028170D02*
X0163672Y0028170D01*
X0164190Y0027671D02*
X0176347Y0027671D01*
X0176347Y0027173D02*
X0164689Y0027173D01*
X0165187Y0026674D02*
X0176347Y0026674D01*
X0176347Y0026176D02*
X0165686Y0026176D01*
X0166136Y0025677D02*
X0176347Y0025677D01*
X0176347Y0025179D02*
X0166342Y0025179D01*
X0166549Y0024680D02*
X0176347Y0024680D01*
X0176347Y0024182D02*
X0166755Y0024182D01*
X0166962Y0023683D02*
X0176347Y0023683D01*
X0176347Y0023184D02*
X0167168Y0023184D01*
X0167375Y0022686D02*
X0176347Y0022686D01*
X0176347Y0022187D02*
X0167398Y0022187D01*
X0167398Y0021689D02*
X0176347Y0021689D01*
X0176347Y0021190D02*
X0167398Y0021190D01*
X0167398Y0020692D02*
X0176347Y0020692D01*
X0176347Y0020193D02*
X0167398Y0020193D01*
X0167398Y0019695D02*
X0176347Y0019695D01*
X0176347Y0019196D02*
X0167380Y0019196D01*
X0167173Y0018698D02*
X0176347Y0018698D01*
X0176347Y0018199D02*
X0166967Y0018199D01*
X0166760Y0017701D02*
X0176347Y0017701D01*
X0176347Y0017202D02*
X0166554Y0017202D01*
X0166347Y0016704D02*
X0176347Y0016704D01*
X0176347Y0016205D02*
X0166141Y0016205D01*
X0165698Y0015707D02*
X0176347Y0015707D01*
X0176347Y0015208D02*
X0165199Y0015208D01*
X0164701Y0014710D02*
X0176347Y0014710D01*
X0176347Y0014211D02*
X0164202Y0014211D01*
X0163702Y0013713D02*
X0176347Y0013713D01*
X0176347Y0013214D02*
X0162499Y0013214D01*
X0161295Y0012716D02*
X0176347Y0012716D01*
X0176347Y0012217D02*
X0139674Y0012217D01*
X0139881Y0012716D02*
X0156466Y0012716D01*
X0155262Y0013214D02*
X0140050Y0013214D01*
X0140050Y0013713D02*
X0154059Y0013713D01*
X0153558Y0014211D02*
X0140050Y0014211D01*
X0140050Y0014710D02*
X0153060Y0014710D01*
X0152561Y0015208D02*
X0140050Y0015208D01*
X0140050Y0015707D02*
X0152063Y0015707D01*
X0151620Y0016205D02*
X0140050Y0016205D01*
X0140050Y0016704D02*
X0151413Y0016704D01*
X0151207Y0017202D02*
X0140050Y0017202D01*
X0140050Y0017701D02*
X0151000Y0017701D01*
X0150794Y0018199D02*
X0140050Y0018199D01*
X0140050Y0018698D02*
X0150587Y0018698D01*
X0150381Y0019196D02*
X0140050Y0019196D01*
X0139918Y0019695D02*
X0150363Y0019695D01*
X0150363Y0020193D02*
X0139711Y0020193D01*
X0139505Y0020692D02*
X0150363Y0020692D01*
X0150363Y0021190D02*
X0139021Y0021190D01*
X0138523Y0021689D02*
X0150363Y0021689D01*
X0150363Y0022187D02*
X0137398Y0022187D01*
X0139431Y0011719D02*
X0176347Y0011719D01*
X0176347Y0011220D02*
X0138932Y0011220D01*
X0138386Y0010722D02*
X0176347Y0010722D01*
X0176347Y0007232D02*
X0003618Y0007232D01*
X0003618Y0006734D02*
X0176347Y0006734D01*
X0176347Y0006235D02*
X0003618Y0006235D01*
X0003618Y0005737D02*
X0176347Y0005737D01*
X0176347Y0005238D02*
X0003618Y0005238D01*
X0003618Y0004740D02*
X0176347Y0004740D01*
X0176347Y0004241D02*
X0003618Y0004241D01*
X0003618Y0003743D02*
X0176347Y0003743D01*
X0151212Y0024680D02*
X0028753Y0024680D01*
X0028547Y0025179D02*
X0151419Y0025179D01*
X0151625Y0025677D02*
X0028340Y0025677D01*
X0027890Y0026176D02*
X0152075Y0026176D01*
X0152573Y0026674D02*
X0027392Y0026674D01*
X0026893Y0027173D02*
X0153072Y0027173D01*
X0151006Y0024182D02*
X0028960Y0024182D01*
X0029166Y0023683D02*
X0150799Y0023683D01*
X0150593Y0023184D02*
X0029373Y0023184D01*
X0029579Y0022686D02*
X0150386Y0022686D01*
X0176347Y0030164D02*
X0055050Y0030164D01*
X0055050Y0030662D02*
X0176347Y0030662D01*
X0176347Y0041131D02*
X0027818Y0041131D01*
X0028316Y0041629D02*
X0176347Y0041629D01*
X0157650Y0063564D02*
X0136185Y0063564D01*
X0136683Y0064062D02*
X0157650Y0064062D01*
X0157650Y0064561D02*
X0136972Y0064561D01*
X0137179Y0065059D02*
X0157650Y0065059D01*
X0157650Y0065558D02*
X0137374Y0065558D01*
X0137374Y0066056D02*
X0157650Y0066056D01*
X0157650Y0066555D02*
X0137374Y0066555D01*
X0137339Y0067053D02*
X0157650Y0067053D01*
X0157650Y0067552D02*
X0137133Y0067552D01*
X0136926Y0068051D02*
X0157650Y0068051D01*
X0157650Y0068549D02*
X0136572Y0068549D01*
X0136073Y0069048D02*
X0157650Y0069048D01*
X0157650Y0069546D02*
X0135244Y0069546D01*
X0134481Y0072638D02*
X0135808Y0073188D01*
X0136824Y0074204D01*
X0137374Y0075531D01*
X0137374Y0076969D01*
X0136824Y0078296D01*
X0135808Y0079312D01*
X0134481Y0079862D01*
X0128319Y0079862D01*
X0126992Y0079312D01*
X0125976Y0078296D01*
X0125426Y0076969D01*
X0125426Y0075531D01*
X0125976Y0074204D01*
X0126992Y0073188D01*
X0128319Y0072638D01*
X0134481Y0072638D01*
X0135441Y0073036D02*
X0157650Y0073036D01*
X0157650Y0073534D02*
X0136155Y0073534D01*
X0136653Y0074033D02*
X0157650Y0074033D01*
X0157650Y0074531D02*
X0136960Y0074531D01*
X0137167Y0075030D02*
X0157650Y0075030D01*
X0157650Y0075528D02*
X0137373Y0075528D01*
X0137374Y0076027D02*
X0157650Y0076027D01*
X0157650Y0076525D02*
X0137374Y0076525D01*
X0137352Y0077024D02*
X0157650Y0077024D01*
X0157650Y0077522D02*
X0137145Y0077522D01*
X0136939Y0078021D02*
X0157650Y0078021D01*
X0157650Y0078519D02*
X0136601Y0078519D01*
X0136103Y0079018D02*
X0157650Y0079018D01*
X0157650Y0079516D02*
X0135316Y0079516D01*
X0134481Y0082638D02*
X0135808Y0083188D01*
X0136824Y0084204D01*
X0137374Y0085531D01*
X0137374Y0086969D01*
X0136824Y0088296D01*
X0135808Y0089312D01*
X0134481Y0089862D01*
X0128319Y0089862D01*
X0126992Y0089312D01*
X0125976Y0088296D01*
X0125426Y0086969D01*
X0125426Y0085531D01*
X0125976Y0084204D01*
X0126992Y0083188D01*
X0128319Y0082638D01*
X0134481Y0082638D01*
X0135369Y0083006D02*
X0142294Y0083006D01*
X0141932Y0083156D02*
X0143274Y0082600D01*
X0149526Y0082600D01*
X0150868Y0083156D01*
X0151894Y0084182D01*
X0152450Y0085524D01*
X0152450Y0086976D01*
X0151894Y0088318D01*
X0150868Y0089344D01*
X0149526Y0089900D01*
X0143274Y0089900D01*
X0141932Y0089344D01*
X0140906Y0088318D01*
X0140350Y0086976D01*
X0140350Y0085524D01*
X0140906Y0084182D01*
X0141932Y0083156D01*
X0141584Y0083504D02*
X0136125Y0083504D01*
X0136623Y0084003D02*
X0141085Y0084003D01*
X0140774Y0084501D02*
X0136948Y0084501D01*
X0137154Y0085000D02*
X0140567Y0085000D01*
X0140361Y0085498D02*
X0137361Y0085498D01*
X0137374Y0085997D02*
X0140350Y0085997D01*
X0140350Y0086495D02*
X0137374Y0086495D01*
X0137364Y0086994D02*
X0140357Y0086994D01*
X0140564Y0087492D02*
X0137157Y0087492D01*
X0136951Y0087991D02*
X0140770Y0087991D01*
X0141078Y0088489D02*
X0136631Y0088489D01*
X0136133Y0088988D02*
X0141576Y0088988D01*
X0142276Y0089487D02*
X0135388Y0089487D01*
X0136607Y0090982D02*
X0158650Y0090982D01*
X0158650Y0090484D02*
X0070108Y0090484D01*
X0069610Y0089985D02*
X0158650Y0089985D01*
X0158650Y0089487D02*
X0150524Y0089487D01*
X0151224Y0088988D02*
X0158650Y0088988D01*
X0158165Y0088489D02*
X0151722Y0088489D01*
X0152030Y0087991D02*
X0157666Y0087991D01*
X0157650Y0087492D02*
X0152236Y0087492D01*
X0152443Y0086994D02*
X0157650Y0086994D01*
X0157650Y0086495D02*
X0152450Y0086495D01*
X0152450Y0085997D02*
X0157650Y0085997D01*
X0157650Y0085498D02*
X0152439Y0085498D01*
X0152233Y0085000D02*
X0157650Y0085000D01*
X0157650Y0084501D02*
X0152026Y0084501D01*
X0151715Y0084003D02*
X0157650Y0084003D01*
X0157650Y0083504D02*
X0151216Y0083504D01*
X0150506Y0083006D02*
X0157650Y0083006D01*
X0161150Y0083006D02*
X0162294Y0083006D01*
X0161584Y0083504D02*
X0161150Y0083504D01*
X0162150Y0089487D02*
X0162276Y0089487D01*
X0158650Y0091481D02*
X0137105Y0091481D01*
X0137604Y0091979D02*
X0158650Y0091979D01*
X0158650Y0092478D02*
X0138102Y0092478D01*
X0138601Y0092976D02*
X0158650Y0092976D01*
X0158650Y0093475D02*
X0139099Y0093475D01*
X0139598Y0093973D02*
X0158650Y0093973D01*
X0158650Y0094472D02*
X0140096Y0094472D01*
X0140595Y0094970D02*
X0158650Y0094970D01*
X0158650Y0095469D02*
X0141093Y0095469D01*
X0141592Y0095967D02*
X0158650Y0095967D01*
X0158650Y0096466D02*
X0142091Y0096466D01*
X0142589Y0096964D02*
X0158650Y0096964D01*
X0158650Y0097463D02*
X0143088Y0097463D01*
X0143586Y0097961D02*
X0158650Y0097961D01*
X0158650Y0098460D02*
X0144085Y0098460D01*
X0144583Y0098958D02*
X0158650Y0098958D01*
X0158650Y0099457D02*
X0156408Y0099457D01*
X0157508Y0099955D02*
X0158650Y0099955D01*
X0158650Y0100454D02*
X0158007Y0100454D01*
X0158505Y0100952D02*
X0158650Y0100952D01*
X0153479Y0099457D02*
X0145082Y0099457D01*
X0145580Y0099955D02*
X0152378Y0099955D01*
X0151880Y0100454D02*
X0146079Y0100454D01*
X0146577Y0100952D02*
X0151381Y0100952D01*
X0151076Y0101451D02*
X0147076Y0101451D01*
X0147574Y0101949D02*
X0150870Y0101949D01*
X0150664Y0102448D02*
X0148073Y0102448D01*
X0148571Y0102946D02*
X0150544Y0102946D01*
X0150544Y0103445D02*
X0149070Y0103445D01*
X0149568Y0103943D02*
X0150544Y0103943D01*
X0150544Y0104442D02*
X0150067Y0104442D01*
X0150565Y0104940D02*
X0150731Y0104940D01*
X0142624Y0101949D02*
X0122374Y0101949D01*
X0122374Y0101451D02*
X0142126Y0101451D01*
X0141627Y0100952D02*
X0122374Y0100952D01*
X0122342Y0100454D02*
X0141129Y0100454D01*
X0140630Y0099955D02*
X0122136Y0099955D01*
X0121676Y0103445D02*
X0126735Y0103445D01*
X0126236Y0103943D02*
X0121177Y0103943D01*
X0120496Y0104442D02*
X0125877Y0104442D01*
X0127646Y0112917D02*
X0121982Y0112917D01*
X0121706Y0113415D02*
X0126764Y0113415D01*
X0126266Y0113914D02*
X0121207Y0113914D01*
X0120567Y0114412D02*
X0125889Y0114412D01*
X0135603Y0119397D02*
X0136650Y0119397D01*
X0136650Y0118899D02*
X0136222Y0118899D01*
X0136650Y0122887D02*
X0135082Y0122887D01*
X0136006Y0123385D02*
X0136650Y0123385D01*
X0136650Y0123884D02*
X0136504Y0123884D01*
X0127790Y0132857D02*
X0075010Y0132857D01*
X0075976Y0133355D02*
X0126868Y0133355D01*
X0126325Y0133854D02*
X0076475Y0133854D01*
X0076886Y0134353D02*
X0125961Y0134353D01*
X0125707Y0134851D02*
X0077093Y0134851D01*
X0077299Y0135350D02*
X0125534Y0135350D01*
X0125435Y0135848D02*
X0077374Y0135848D01*
X0066638Y0098958D02*
X0042583Y0098958D01*
X0042085Y0098460D02*
X0066139Y0098460D01*
X0065837Y0097961D02*
X0041586Y0097961D01*
X0041088Y0097463D02*
X0065630Y0097463D01*
X0065426Y0096964D02*
X0040589Y0096964D01*
X0040091Y0096466D02*
X0065426Y0096466D01*
X0065426Y0095967D02*
X0057947Y0095967D01*
X0059150Y0095469D02*
X0065452Y0095469D01*
X0065658Y0094970D02*
X0059680Y0094970D01*
X0060179Y0094472D02*
X0065865Y0094472D01*
X0066206Y0093973D02*
X0060630Y0093973D01*
X0060836Y0093475D02*
X0066705Y0093475D01*
X0067503Y0092976D02*
X0061043Y0092976D01*
X0061249Y0092478D02*
X0067153Y0092478D01*
X0066654Y0091979D02*
X0061350Y0091979D01*
X0061350Y0091481D02*
X0066156Y0091481D01*
X0065657Y0090982D02*
X0061350Y0090982D01*
X0061350Y0090484D02*
X0065159Y0090484D01*
X0064660Y0089985D02*
X0061234Y0089985D01*
X0061027Y0089487D02*
X0064162Y0089487D01*
X0063663Y0088988D02*
X0060821Y0088988D01*
X0060614Y0088489D02*
X0063165Y0088489D01*
X0062666Y0087991D02*
X0060141Y0087991D01*
X0059643Y0087492D02*
X0062168Y0087492D01*
X0064625Y0085000D02*
X0065646Y0085000D01*
X0065439Y0085498D02*
X0065123Y0085498D01*
X0065852Y0084501D02*
X0064126Y0084501D01*
X0063628Y0084003D02*
X0066176Y0084003D01*
X0066675Y0083504D02*
X0063129Y0083504D01*
X0067431Y0083006D02*
X0048318Y0083006D01*
X0048816Y0083504D02*
X0053671Y0083504D01*
X0053172Y0084003D02*
X0049315Y0084003D01*
X0049322Y0088489D02*
X0052186Y0088489D01*
X0051979Y0088988D02*
X0048824Y0088988D01*
X0048325Y0089487D02*
X0051773Y0089487D01*
X0051566Y0089985D02*
X0038850Y0089985D01*
X0039349Y0089487D02*
X0044475Y0089487D01*
X0043976Y0088988D02*
X0039847Y0088988D01*
X0040346Y0088489D02*
X0043478Y0088489D01*
X0042979Y0087991D02*
X0040798Y0087991D01*
X0040798Y0087492D02*
X0042750Y0087492D01*
X0042750Y0086994D02*
X0040798Y0086994D01*
X0040798Y0086495D02*
X0042750Y0086495D01*
X0042750Y0085997D02*
X0040798Y0085997D01*
X0040798Y0085498D02*
X0042750Y0085498D01*
X0042750Y0085000D02*
X0040784Y0085000D01*
X0040286Y0084501D02*
X0042987Y0084501D01*
X0043485Y0084003D02*
X0039787Y0084003D01*
X0039289Y0083504D02*
X0043984Y0083504D01*
X0044482Y0083006D02*
X0038790Y0083006D01*
X0034449Y0088988D02*
X0032613Y0088988D01*
X0033111Y0089487D02*
X0034947Y0089487D01*
X0035446Y0089985D02*
X0033610Y0089985D01*
X0034108Y0090484D02*
X0051450Y0090484D01*
X0051450Y0090982D02*
X0034607Y0090982D01*
X0035105Y0091481D02*
X0051450Y0091481D01*
X0051450Y0091979D02*
X0035604Y0091979D01*
X0036102Y0092478D02*
X0051551Y0092478D01*
X0051757Y0092976D02*
X0036601Y0092976D01*
X0037099Y0093475D02*
X0051964Y0093475D01*
X0052170Y0093973D02*
X0037598Y0093973D01*
X0038096Y0094472D02*
X0052621Y0094472D01*
X0053120Y0094970D02*
X0038595Y0094970D01*
X0039093Y0095469D02*
X0053650Y0095469D01*
X0054853Y0095967D02*
X0039592Y0095967D01*
X0023650Y0102946D02*
X0022962Y0102946D01*
X0049761Y0068051D02*
X0065874Y0068051D01*
X0065667Y0067552D02*
X0050050Y0067552D01*
X0050050Y0067053D02*
X0065461Y0067053D01*
X0065426Y0066555D02*
X0050050Y0066555D01*
X0050050Y0066056D02*
X0055069Y0066056D01*
X0053865Y0065558D02*
X0050050Y0065558D01*
X0050050Y0065059D02*
X0053209Y0065059D01*
X0052711Y0064561D02*
X0049873Y0064561D01*
X0049374Y0064062D02*
X0052212Y0064062D01*
X0052001Y0063564D02*
X0048876Y0063564D01*
X0048377Y0063065D02*
X0051794Y0063065D01*
X0057731Y0066056D02*
X0065426Y0066056D01*
X0065426Y0065558D02*
X0058935Y0065558D01*
X0059591Y0065059D02*
X0065621Y0065059D01*
X0065828Y0064561D02*
X0060089Y0064561D01*
X0060588Y0064062D02*
X0066117Y0064062D01*
X0066615Y0063564D02*
X0060799Y0063564D01*
X0061006Y0063065D02*
X0067287Y0063065D01*
X0067628Y0059576D02*
X0061064Y0059576D01*
X0061271Y0060074D02*
X0110615Y0060074D01*
X0110426Y0060573D02*
X0061350Y0060573D01*
X0061350Y0061071D02*
X0110426Y0061071D01*
X0110426Y0061570D02*
X0061350Y0061570D01*
X0061350Y0062068D02*
X0110467Y0062068D01*
X0110673Y0062567D02*
X0061212Y0062567D01*
X0060858Y0059077D02*
X0066757Y0059077D01*
X0066258Y0058579D02*
X0060651Y0058579D01*
X0060231Y0058080D02*
X0065886Y0058080D01*
X0065680Y0057582D02*
X0059732Y0057582D01*
X0059234Y0057083D02*
X0065473Y0057083D01*
X0065426Y0056585D02*
X0058072Y0056585D01*
X0075172Y0059576D02*
X0110821Y0059576D01*
X0111102Y0059077D02*
X0076043Y0059077D01*
X0076542Y0058579D02*
X0111601Y0058579D01*
X0112251Y0058080D02*
X0076914Y0058080D01*
X0077120Y0057582D02*
X0125680Y0057582D01*
X0125886Y0058080D02*
X0120549Y0058080D01*
X0121199Y0058579D02*
X0126258Y0058579D01*
X0126757Y0059077D02*
X0121698Y0059077D01*
X0121979Y0059576D02*
X0127628Y0059576D01*
X0125473Y0057083D02*
X0077327Y0057083D01*
X0077374Y0056585D02*
X0125426Y0056585D01*
X0125426Y0056086D02*
X0077374Y0056086D01*
X0077374Y0055588D02*
X0125426Y0055588D01*
X0125609Y0055089D02*
X0077191Y0055089D01*
X0076985Y0054591D02*
X0125815Y0054591D01*
X0126087Y0054092D02*
X0076713Y0054092D01*
X0076214Y0053594D02*
X0126586Y0053594D01*
X0127215Y0053095D02*
X0075585Y0053095D01*
X0075513Y0063065D02*
X0110880Y0063065D01*
X0111243Y0063564D02*
X0076185Y0063564D01*
X0076683Y0064062D02*
X0111742Y0064062D01*
X0112323Y0068051D02*
X0080074Y0068051D01*
X0079576Y0068549D02*
X0111630Y0068549D01*
X0111132Y0069048D02*
X0079077Y0069048D01*
X0078579Y0069546D02*
X0110834Y0069546D01*
X0110627Y0070045D02*
X0078080Y0070045D01*
X0077582Y0070543D02*
X0110426Y0070543D01*
X0110426Y0071042D02*
X0077083Y0071042D01*
X0076585Y0071540D02*
X0110426Y0071540D01*
X0110868Y0073036D02*
X0075441Y0073036D01*
X0076155Y0073534D02*
X0111214Y0073534D01*
X0111712Y0074033D02*
X0076653Y0074033D01*
X0076960Y0074531D02*
X0112520Y0074531D01*
X0120280Y0074531D02*
X0125840Y0074531D01*
X0125633Y0075030D02*
X0077167Y0075030D01*
X0077373Y0075528D02*
X0125427Y0075528D01*
X0125426Y0076027D02*
X0077374Y0076027D01*
X0077374Y0076525D02*
X0125426Y0076525D01*
X0125448Y0077024D02*
X0077352Y0077024D01*
X0077145Y0077522D02*
X0125655Y0077522D01*
X0125861Y0078021D02*
X0076939Y0078021D01*
X0076601Y0078519D02*
X0126199Y0078519D01*
X0126697Y0079018D02*
X0076103Y0079018D01*
X0075316Y0079516D02*
X0127484Y0079516D01*
X0127431Y0083006D02*
X0075369Y0083006D01*
X0076125Y0083504D02*
X0126675Y0083504D01*
X0126176Y0084003D02*
X0076623Y0084003D01*
X0076948Y0084501D02*
X0125852Y0084501D01*
X0125646Y0085000D02*
X0077154Y0085000D01*
X0077361Y0085498D02*
X0125439Y0085498D01*
X0125426Y0085997D02*
X0077374Y0085997D01*
X0077374Y0086495D02*
X0125426Y0086495D01*
X0125436Y0086994D02*
X0077364Y0086994D01*
X0077157Y0087492D02*
X0125643Y0087492D01*
X0125849Y0087991D02*
X0076951Y0087991D01*
X0076631Y0088489D02*
X0126169Y0088489D01*
X0126667Y0088988D02*
X0076133Y0088988D01*
X0075388Y0089487D02*
X0127412Y0089487D01*
X0136661Y0098460D02*
X0139135Y0098460D01*
X0139633Y0098958D02*
X0136162Y0098958D01*
X0135460Y0099457D02*
X0140132Y0099457D01*
X0138636Y0097961D02*
X0136963Y0097961D01*
X0137170Y0097463D02*
X0138138Y0097463D01*
X0137639Y0096964D02*
X0137374Y0096964D01*
X0126147Y0074033D02*
X0121088Y0074033D01*
X0121586Y0073534D02*
X0126645Y0073534D01*
X0127359Y0073036D02*
X0121932Y0073036D01*
X0122139Y0072537D02*
X0157650Y0072537D01*
X0157650Y0072039D02*
X0122345Y0072039D01*
X0122374Y0071540D02*
X0157650Y0071540D01*
X0157650Y0071042D02*
X0122374Y0071042D01*
X0122374Y0070543D02*
X0157650Y0070543D01*
X0157650Y0070045D02*
X0122173Y0070045D01*
X0121966Y0069546D02*
X0127556Y0069546D01*
X0126727Y0069048D02*
X0121668Y0069048D01*
X0121170Y0068549D02*
X0126228Y0068549D01*
X0125874Y0068051D02*
X0120477Y0068051D01*
X0121058Y0064062D02*
X0126117Y0064062D01*
X0126615Y0063564D02*
X0121557Y0063564D01*
X0121920Y0063065D02*
X0127287Y0063065D01*
X0115475Y0022187D02*
X0029603Y0022187D01*
X0029603Y0021689D02*
X0114378Y0021689D01*
X0078614Y0064561D02*
X0076972Y0064561D01*
X0077179Y0065059D02*
X0078116Y0065059D01*
X0077617Y0065558D02*
X0077374Y0065558D01*
X0049638Y0034650D02*
X0043162Y0034650D01*
X0043660Y0034152D02*
X0049140Y0034152D01*
X0048641Y0033653D02*
X0044159Y0033653D01*
X0044657Y0033155D02*
X0048143Y0033155D01*
X0047750Y0032656D02*
X0045050Y0032656D01*
X0045050Y0032158D02*
X0047750Y0032158D01*
X0045392Y0021190D02*
X0029603Y0021190D01*
X0029603Y0020692D02*
X0044189Y0020692D01*
X0043343Y0020193D02*
X0029603Y0020193D01*
X0029603Y0019695D02*
X0042845Y0019695D01*
X0042346Y0019196D02*
X0029584Y0019196D01*
X0029378Y0018698D02*
X0042056Y0018698D01*
X0041850Y0018199D02*
X0029171Y0018199D01*
X0028965Y0017701D02*
X0041643Y0017701D01*
X0041450Y0017202D02*
X0028758Y0017202D01*
X0028552Y0016704D02*
X0041450Y0016704D01*
X0041450Y0016205D02*
X0028345Y0016205D01*
X0027903Y0015707D02*
X0041450Y0015707D01*
X0041474Y0015208D02*
X0027404Y0015208D01*
X0026906Y0014710D02*
X0041680Y0014710D01*
X0041887Y0014211D02*
X0026407Y0014211D01*
X0025907Y0013713D02*
X0042093Y0013713D01*
X0042435Y0013214D02*
X0024703Y0013214D01*
X0023500Y0012716D02*
X0042934Y0012716D01*
X0043432Y0012217D02*
X0003618Y0012217D01*
X0003618Y0011719D02*
X0044404Y0011719D01*
X0018670Y0012716D02*
X0003618Y0012716D01*
X0003618Y0013214D02*
X0017467Y0013214D01*
X0016263Y0013713D02*
X0003618Y0013713D01*
X0003618Y0014211D02*
X0015763Y0014211D01*
X0015264Y0014710D02*
X0003618Y0014710D01*
X0003618Y0015208D02*
X0014766Y0015208D01*
X0014267Y0015707D02*
X0003618Y0015707D01*
X0003618Y0016205D02*
X0013825Y0016205D01*
X0013618Y0016704D02*
X0003618Y0016704D01*
X0003618Y0017202D02*
X0013412Y0017202D01*
X0013205Y0017701D02*
X0003618Y0017701D01*
X0003618Y0018199D02*
X0012999Y0018199D01*
X0012792Y0018698D02*
X0003618Y0018698D01*
X0003618Y0019196D02*
X0012586Y0019196D01*
X0012567Y0019695D02*
X0003618Y0019695D01*
X0003618Y0020193D02*
X0012567Y0020193D01*
X0012567Y0020692D02*
X0003618Y0020692D01*
X0003618Y0021190D02*
X0012567Y0021190D01*
X0012567Y0021689D02*
X0003618Y0021689D01*
X0003618Y0022187D02*
X0012567Y0022187D01*
X0012591Y0022686D02*
X0003618Y0022686D01*
X0003618Y0023184D02*
X0012797Y0023184D01*
X0013004Y0023683D02*
X0003618Y0023683D01*
X0003618Y0024182D02*
X0013210Y0024182D01*
X0013417Y0024680D02*
X0003618Y0024680D01*
X0003618Y0025179D02*
X0013623Y0025179D01*
X0013830Y0025677D02*
X0003618Y0025677D01*
X0003618Y0026176D02*
X0014280Y0026176D01*
X0014778Y0026674D02*
X0003618Y0026674D01*
X0003618Y0027173D02*
X0015277Y0027173D01*
X0015775Y0027671D02*
X0003618Y0027671D01*
X0003618Y0028170D02*
X0016293Y0028170D01*
X0017497Y0028668D02*
X0003618Y0028668D01*
X0003618Y0029167D02*
X0018700Y0029167D01*
X0135643Y0139338D02*
X0153657Y0139338D01*
X0152454Y0138839D02*
X0136281Y0138839D01*
X0136710Y0138341D02*
X0151954Y0138341D01*
X0151455Y0137842D02*
X0137013Y0137842D01*
X0137219Y0137344D02*
X0151107Y0137344D01*
X0150901Y0136845D02*
X0137327Y0136845D01*
X0160797Y0150305D02*
X0176347Y0150305D01*
X0176347Y0150803D02*
X0162001Y0150803D01*
X0163204Y0151302D02*
X0176347Y0151302D01*
X0176347Y0151800D02*
X0163996Y0151800D01*
X0164495Y0152299D02*
X0176347Y0152299D01*
X0176347Y0152797D02*
X0164993Y0152797D01*
X0165492Y0153296D02*
X0176347Y0153296D01*
X0176347Y0153794D02*
X0165990Y0153794D01*
X0166262Y0154293D02*
X0176347Y0154293D01*
X0176347Y0154791D02*
X0166468Y0154791D01*
X0166675Y0155290D02*
X0176347Y0155290D01*
X0176347Y0155789D02*
X0166881Y0155789D01*
X0167088Y0156287D02*
X0176347Y0156287D01*
X0176347Y0156786D02*
X0167294Y0156786D01*
X0167398Y0157284D02*
X0176347Y0157284D01*
X0176347Y0157783D02*
X0167398Y0157783D01*
X0167398Y0158281D02*
X0176347Y0158281D01*
X0176347Y0158780D02*
X0167398Y0158780D01*
X0167398Y0159278D02*
X0176347Y0159278D01*
X0176347Y0159777D02*
X0167398Y0159777D01*
X0167398Y0160275D02*
X0176347Y0160275D01*
X0176347Y0160774D02*
X0167253Y0160774D01*
X0167047Y0161272D02*
X0176347Y0161272D01*
X0176347Y0161771D02*
X0166840Y0161771D01*
X0166634Y0162269D02*
X0176347Y0162269D01*
X0176347Y0162768D02*
X0166427Y0162768D01*
X0166221Y0163266D02*
X0176347Y0163266D01*
X0176347Y0163765D02*
X0165892Y0163765D01*
X0165393Y0164263D02*
X0176347Y0164263D01*
X0176347Y0164762D02*
X0164895Y0164762D01*
X0164396Y0165260D02*
X0176347Y0165260D01*
X0176347Y0165759D02*
X0163898Y0165759D01*
X0162967Y0166257D02*
X0176347Y0166257D01*
X0176347Y0166756D02*
X0161763Y0166756D01*
M02*
