%
M48
M72
T01C0.02756
T02C0.03150
T03C0.03200
T04C0.03543
T05C0.04000
T06C0.12598
%
T01
X25022Y49307
X25022Y57181
X25022Y72929
X25022Y80803
X25022Y88677
X25022Y96551
X154943Y108362
X154943Y116236
X154943Y131984
X154943Y139858
T02
X131400Y141000
X131400Y131000
X131400Y121000
X131400Y111000
X131400Y101000
X131400Y91000
X131400Y81000
X131400Y71000
X131400Y61000
X131400Y51000
X131400Y41000
X131400Y31000
X116400Y56000
X116400Y66000
X116400Y96000
X116400Y106000
X116400Y151000
X106400Y151000
X96400Y151000
X86400Y151000
X76400Y151000
X71400Y141000
X71400Y131000
X71400Y121000
X71400Y111000
X71400Y101000
X71400Y91000
X71400Y81000
X71400Y71000
X71400Y61000
X71400Y51000
X71400Y41000
X71400Y31000
X126400Y151000
T03
X146400Y86000
X166400Y86000
X166400Y56000
X166400Y46000
X146400Y46000
X146400Y56000
X126400Y16000
X116400Y16000
X106400Y16000
X96400Y16000
X76400Y16000
X51400Y36000
X41400Y36000
X41400Y51000
X51400Y51000
X46400Y71000
X37148Y71276
X37148Y91276
X46400Y91000
X51400Y111000
X51400Y121000
X51400Y131000
X51400Y141000
X41400Y151000
X31400Y151000
X21400Y141000
X21400Y131000
X21400Y121000
X21400Y111000
T04
X56400Y96000
X56400Y66000
X66400Y16000
X36400Y16000
T05
X76400Y171000
X86400Y171000
X96400Y171000
X106400Y171000
X116400Y171000
X126400Y171000
T06
X21085Y25685
X21085Y163480
X158880Y163480
X158880Y25685
M30
