G75*
%MOIN*%
%OFA0B0*%
%FSLAX25Y25*%
%IPPOS*%
%LPD*%
%AMOC8*
5,1,8,0,0,1.08239X$1,22.5*
%
%ADD10C,0.00300*%
%ADD11C,0.00600*%
%ADD12C,0.01000*%
%ADD13C,0.00200*%
%ADD14C,0.00800*%
%ADD15C,0.00500*%
D10*
X0033046Y0167567D02*
X0033046Y0170467D01*
X0033852Y0170467D01*
X0033852Y0170468D02*
X0033907Y0170466D01*
X0033962Y0170460D01*
X0034016Y0170451D01*
X0034069Y0170438D01*
X0034122Y0170421D01*
X0034173Y0170401D01*
X0034223Y0170378D01*
X0034271Y0170351D01*
X0034317Y0170320D01*
X0034361Y0170287D01*
X0034402Y0170251D01*
X0034441Y0170212D01*
X0034477Y0170171D01*
X0034510Y0170127D01*
X0034541Y0170081D01*
X0034568Y0170033D01*
X0034591Y0169983D01*
X0034611Y0169932D01*
X0034628Y0169879D01*
X0034641Y0169826D01*
X0034650Y0169772D01*
X0034656Y0169717D01*
X0034658Y0169662D01*
X0034656Y0169607D01*
X0034650Y0169552D01*
X0034641Y0169498D01*
X0034628Y0169445D01*
X0034611Y0169392D01*
X0034591Y0169341D01*
X0034568Y0169291D01*
X0034541Y0169243D01*
X0034510Y0169197D01*
X0034477Y0169153D01*
X0034441Y0169112D01*
X0034402Y0169073D01*
X0034361Y0169037D01*
X0034317Y0169004D01*
X0034271Y0168973D01*
X0034223Y0168946D01*
X0034173Y0168923D01*
X0034122Y0168903D01*
X0034069Y0168886D01*
X0034016Y0168873D01*
X0033962Y0168864D01*
X0033907Y0168858D01*
X0033852Y0168856D01*
X0033046Y0168856D01*
X0035725Y0169501D02*
X0035725Y0167567D01*
X0037001Y0167567D02*
X0037001Y0169501D01*
X0037806Y0169501D01*
X0037806Y0169500D02*
X0037848Y0169498D01*
X0037890Y0169493D01*
X0037931Y0169484D01*
X0037971Y0169471D01*
X0038010Y0169455D01*
X0038048Y0169435D01*
X0038083Y0169413D01*
X0038116Y0169387D01*
X0038148Y0169359D01*
X0038176Y0169327D01*
X0038202Y0169294D01*
X0038224Y0169259D01*
X0038244Y0169221D01*
X0038260Y0169182D01*
X0038273Y0169142D01*
X0038282Y0169101D01*
X0038287Y0169059D01*
X0038289Y0169017D01*
X0038290Y0169017D02*
X0038290Y0167567D01*
X0039593Y0168051D02*
X0039593Y0168856D01*
X0039593Y0168534D02*
X0040882Y0168534D01*
X0040882Y0168856D01*
X0040881Y0168856D02*
X0040879Y0168905D01*
X0040873Y0168954D01*
X0040864Y0169003D01*
X0040851Y0169050D01*
X0040834Y0169097D01*
X0040814Y0169142D01*
X0040791Y0169185D01*
X0040764Y0169227D01*
X0040734Y0169266D01*
X0040701Y0169303D01*
X0040665Y0169337D01*
X0040627Y0169368D01*
X0040587Y0169397D01*
X0040545Y0169422D01*
X0040500Y0169444D01*
X0040455Y0169462D01*
X0040408Y0169477D01*
X0040360Y0169488D01*
X0040311Y0169496D01*
X0040262Y0169500D01*
X0040212Y0169500D01*
X0040163Y0169496D01*
X0040114Y0169488D01*
X0040066Y0169477D01*
X0040019Y0169462D01*
X0039974Y0169444D01*
X0039929Y0169422D01*
X0039887Y0169397D01*
X0039847Y0169368D01*
X0039809Y0169337D01*
X0039773Y0169303D01*
X0039740Y0169266D01*
X0039710Y0169227D01*
X0039683Y0169185D01*
X0039660Y0169142D01*
X0039640Y0169097D01*
X0039623Y0169050D01*
X0039610Y0169003D01*
X0039601Y0168954D01*
X0039595Y0168905D01*
X0039593Y0168856D01*
X0039593Y0168051D02*
X0039595Y0168009D01*
X0039600Y0167967D01*
X0039609Y0167926D01*
X0039622Y0167886D01*
X0039638Y0167847D01*
X0039658Y0167810D01*
X0039680Y0167774D01*
X0039706Y0167741D01*
X0039734Y0167709D01*
X0039766Y0167681D01*
X0039799Y0167655D01*
X0039835Y0167633D01*
X0039872Y0167613D01*
X0039911Y0167597D01*
X0039951Y0167584D01*
X0039992Y0167575D01*
X0040034Y0167570D01*
X0040076Y0167568D01*
X0040076Y0167567D02*
X0040882Y0167567D01*
X0042637Y0167567D02*
X0043362Y0167567D01*
X0043362Y0169017D01*
X0043362Y0168695D02*
X0042637Y0168695D01*
X0043361Y0169017D02*
X0043359Y0169059D01*
X0043354Y0169101D01*
X0043345Y0169142D01*
X0043332Y0169182D01*
X0043316Y0169221D01*
X0043296Y0169259D01*
X0043274Y0169294D01*
X0043248Y0169327D01*
X0043220Y0169359D01*
X0043188Y0169387D01*
X0043155Y0169413D01*
X0043120Y0169435D01*
X0043082Y0169455D01*
X0043043Y0169471D01*
X0043003Y0169484D01*
X0042962Y0169493D01*
X0042920Y0169498D01*
X0042878Y0169500D01*
X0042878Y0169501D02*
X0042234Y0169501D01*
X0042637Y0168695D02*
X0042590Y0168693D01*
X0042544Y0168687D01*
X0042499Y0168678D01*
X0042454Y0168664D01*
X0042410Y0168647D01*
X0042369Y0168627D01*
X0042329Y0168603D01*
X0042291Y0168576D01*
X0042255Y0168546D01*
X0042222Y0168513D01*
X0042192Y0168477D01*
X0042165Y0168439D01*
X0042141Y0168399D01*
X0042121Y0168358D01*
X0042104Y0168314D01*
X0042090Y0168269D01*
X0042081Y0168224D01*
X0042075Y0168178D01*
X0042073Y0168131D01*
X0042075Y0168084D01*
X0042081Y0168038D01*
X0042090Y0167993D01*
X0042104Y0167948D01*
X0042121Y0167904D01*
X0042141Y0167863D01*
X0042165Y0167823D01*
X0042192Y0167785D01*
X0042222Y0167749D01*
X0042255Y0167716D01*
X0042291Y0167686D01*
X0042329Y0167659D01*
X0042369Y0167635D01*
X0042410Y0167615D01*
X0042454Y0167598D01*
X0042499Y0167584D01*
X0042544Y0167575D01*
X0042590Y0167569D01*
X0042637Y0167567D01*
X0044793Y0167567D02*
X0045598Y0167567D01*
X0045598Y0167568D02*
X0045640Y0167570D01*
X0045682Y0167575D01*
X0045723Y0167584D01*
X0045763Y0167597D01*
X0045802Y0167613D01*
X0045840Y0167633D01*
X0045875Y0167655D01*
X0045908Y0167681D01*
X0045940Y0167709D01*
X0045968Y0167741D01*
X0045994Y0167774D01*
X0046016Y0167810D01*
X0046036Y0167847D01*
X0046052Y0167886D01*
X0046065Y0167926D01*
X0046074Y0167967D01*
X0046079Y0168009D01*
X0046081Y0168051D01*
X0046082Y0168051D02*
X0046082Y0169017D01*
X0046081Y0169017D02*
X0046079Y0169059D01*
X0046074Y0169101D01*
X0046065Y0169142D01*
X0046052Y0169182D01*
X0046036Y0169221D01*
X0046016Y0169259D01*
X0045994Y0169294D01*
X0045968Y0169327D01*
X0045940Y0169359D01*
X0045908Y0169387D01*
X0045875Y0169413D01*
X0045840Y0169435D01*
X0045802Y0169455D01*
X0045763Y0169471D01*
X0045723Y0169484D01*
X0045682Y0169493D01*
X0045640Y0169498D01*
X0045598Y0169500D01*
X0045598Y0169501D02*
X0044793Y0169501D01*
X0044793Y0166601D01*
X0047385Y0166601D02*
X0047385Y0169501D01*
X0048190Y0169501D01*
X0048190Y0169500D02*
X0048232Y0169498D01*
X0048274Y0169493D01*
X0048315Y0169484D01*
X0048355Y0169471D01*
X0048394Y0169455D01*
X0048432Y0169435D01*
X0048467Y0169413D01*
X0048500Y0169387D01*
X0048532Y0169359D01*
X0048560Y0169327D01*
X0048586Y0169294D01*
X0048608Y0169259D01*
X0048628Y0169221D01*
X0048644Y0169182D01*
X0048657Y0169142D01*
X0048666Y0169101D01*
X0048671Y0169059D01*
X0048673Y0169017D01*
X0048674Y0169017D02*
X0048674Y0168051D01*
X0048673Y0168051D02*
X0048671Y0168009D01*
X0048666Y0167967D01*
X0048657Y0167926D01*
X0048644Y0167886D01*
X0048628Y0167847D01*
X0048608Y0167810D01*
X0048586Y0167774D01*
X0048560Y0167741D01*
X0048532Y0167709D01*
X0048500Y0167681D01*
X0048467Y0167655D01*
X0048432Y0167633D01*
X0048394Y0167613D01*
X0048355Y0167597D01*
X0048315Y0167584D01*
X0048274Y0167575D01*
X0048232Y0167570D01*
X0048190Y0167568D01*
X0048190Y0167567D02*
X0047385Y0167567D01*
X0049897Y0168051D02*
X0049897Y0170467D01*
X0051401Y0168856D02*
X0051401Y0168051D01*
X0051401Y0168534D02*
X0052690Y0168534D01*
X0052690Y0168856D01*
X0052689Y0168856D02*
X0052687Y0168905D01*
X0052681Y0168954D01*
X0052672Y0169003D01*
X0052659Y0169050D01*
X0052642Y0169097D01*
X0052622Y0169142D01*
X0052599Y0169185D01*
X0052572Y0169227D01*
X0052542Y0169266D01*
X0052509Y0169303D01*
X0052473Y0169337D01*
X0052435Y0169368D01*
X0052395Y0169397D01*
X0052353Y0169422D01*
X0052308Y0169444D01*
X0052263Y0169462D01*
X0052216Y0169477D01*
X0052168Y0169488D01*
X0052119Y0169496D01*
X0052070Y0169500D01*
X0052020Y0169500D01*
X0051971Y0169496D01*
X0051922Y0169488D01*
X0051874Y0169477D01*
X0051827Y0169462D01*
X0051782Y0169444D01*
X0051737Y0169422D01*
X0051695Y0169397D01*
X0051655Y0169368D01*
X0051617Y0169337D01*
X0051581Y0169303D01*
X0051548Y0169266D01*
X0051518Y0169227D01*
X0051491Y0169185D01*
X0051468Y0169142D01*
X0051448Y0169097D01*
X0051431Y0169050D01*
X0051418Y0169003D01*
X0051409Y0168954D01*
X0051403Y0168905D01*
X0051401Y0168856D01*
X0051401Y0168051D02*
X0051403Y0168009D01*
X0051408Y0167967D01*
X0051417Y0167926D01*
X0051430Y0167886D01*
X0051446Y0167847D01*
X0051466Y0167810D01*
X0051488Y0167774D01*
X0051514Y0167741D01*
X0051542Y0167709D01*
X0051574Y0167681D01*
X0051607Y0167655D01*
X0051643Y0167633D01*
X0051680Y0167613D01*
X0051719Y0167597D01*
X0051759Y0167584D01*
X0051800Y0167575D01*
X0051842Y0167570D01*
X0051884Y0167568D01*
X0051884Y0167567D02*
X0052690Y0167567D01*
X0055560Y0167567D02*
X0056365Y0167567D01*
X0055560Y0167567D02*
X0055560Y0170467D01*
X0056365Y0170467D01*
X0056365Y0170468D02*
X0056420Y0170466D01*
X0056475Y0170460D01*
X0056529Y0170451D01*
X0056582Y0170438D01*
X0056635Y0170421D01*
X0056686Y0170401D01*
X0056736Y0170378D01*
X0056784Y0170351D01*
X0056830Y0170320D01*
X0056874Y0170287D01*
X0056915Y0170251D01*
X0056954Y0170212D01*
X0056990Y0170171D01*
X0057023Y0170127D01*
X0057054Y0170081D01*
X0057081Y0170033D01*
X0057104Y0169983D01*
X0057124Y0169932D01*
X0057141Y0169879D01*
X0057154Y0169826D01*
X0057163Y0169772D01*
X0057169Y0169717D01*
X0057171Y0169662D01*
X0057171Y0168373D01*
X0057169Y0168318D01*
X0057163Y0168263D01*
X0057154Y0168209D01*
X0057141Y0168156D01*
X0057124Y0168103D01*
X0057104Y0168052D01*
X0057081Y0168002D01*
X0057054Y0167954D01*
X0057023Y0167908D01*
X0056990Y0167864D01*
X0056954Y0167823D01*
X0056915Y0167784D01*
X0056874Y0167748D01*
X0056830Y0167715D01*
X0056784Y0167684D01*
X0056736Y0167657D01*
X0056686Y0167634D01*
X0056635Y0167614D01*
X0056582Y0167597D01*
X0056529Y0167584D01*
X0056475Y0167575D01*
X0056420Y0167569D01*
X0056365Y0167567D01*
X0058505Y0168051D02*
X0058505Y0168856D01*
X0058505Y0168534D02*
X0059794Y0168534D01*
X0059794Y0168856D01*
X0059793Y0168856D02*
X0059791Y0168905D01*
X0059785Y0168954D01*
X0059776Y0169003D01*
X0059763Y0169050D01*
X0059746Y0169097D01*
X0059726Y0169142D01*
X0059703Y0169185D01*
X0059676Y0169227D01*
X0059646Y0169266D01*
X0059613Y0169303D01*
X0059577Y0169337D01*
X0059539Y0169368D01*
X0059499Y0169397D01*
X0059457Y0169422D01*
X0059412Y0169444D01*
X0059367Y0169462D01*
X0059320Y0169477D01*
X0059272Y0169488D01*
X0059223Y0169496D01*
X0059174Y0169500D01*
X0059124Y0169500D01*
X0059075Y0169496D01*
X0059026Y0169488D01*
X0058978Y0169477D01*
X0058931Y0169462D01*
X0058886Y0169444D01*
X0058841Y0169422D01*
X0058799Y0169397D01*
X0058759Y0169368D01*
X0058721Y0169337D01*
X0058685Y0169303D01*
X0058652Y0169266D01*
X0058622Y0169227D01*
X0058595Y0169185D01*
X0058572Y0169142D01*
X0058552Y0169097D01*
X0058535Y0169050D01*
X0058522Y0169003D01*
X0058513Y0168954D01*
X0058507Y0168905D01*
X0058505Y0168856D01*
X0058505Y0168051D02*
X0058507Y0168009D01*
X0058512Y0167967D01*
X0058521Y0167926D01*
X0058534Y0167886D01*
X0058550Y0167847D01*
X0058570Y0167810D01*
X0058592Y0167774D01*
X0058618Y0167741D01*
X0058646Y0167709D01*
X0058678Y0167681D01*
X0058711Y0167655D01*
X0058747Y0167633D01*
X0058784Y0167613D01*
X0058823Y0167597D01*
X0058863Y0167584D01*
X0058904Y0167575D01*
X0058946Y0167570D01*
X0058988Y0167568D01*
X0058988Y0167567D02*
X0059794Y0167567D01*
X0061403Y0169501D02*
X0061486Y0169498D01*
X0061569Y0169491D01*
X0061651Y0169480D01*
X0061733Y0169466D01*
X0061814Y0169448D01*
X0061895Y0169426D01*
X0061974Y0169401D01*
X0062052Y0169372D01*
X0062128Y0169340D01*
X0061404Y0169501D02*
X0061364Y0169500D01*
X0061324Y0169494D01*
X0061285Y0169486D01*
X0061247Y0169473D01*
X0061211Y0169457D01*
X0061176Y0169437D01*
X0061143Y0169414D01*
X0061113Y0169388D01*
X0061085Y0169360D01*
X0061060Y0169329D01*
X0061038Y0169295D01*
X0061019Y0169260D01*
X0061004Y0169223D01*
X0060993Y0169184D01*
X0060985Y0169145D01*
X0060981Y0169105D01*
X0060980Y0169066D01*
X0060984Y0169026D01*
X0060991Y0168986D01*
X0061002Y0168948D01*
X0061017Y0168911D01*
X0061035Y0168875D01*
X0061057Y0168841D01*
X0061081Y0168810D01*
X0061109Y0168781D01*
X0061139Y0168755D01*
X0061172Y0168732D01*
X0061206Y0168712D01*
X0061243Y0168695D01*
X0061242Y0168695D02*
X0062048Y0168373D01*
X0062085Y0168356D01*
X0062119Y0168336D01*
X0062152Y0168313D01*
X0062182Y0168287D01*
X0062210Y0168258D01*
X0062234Y0168227D01*
X0062256Y0168193D01*
X0062274Y0168157D01*
X0062289Y0168120D01*
X0062300Y0168082D01*
X0062307Y0168042D01*
X0062311Y0168002D01*
X0062310Y0167963D01*
X0062306Y0167923D01*
X0062298Y0167884D01*
X0062287Y0167845D01*
X0062272Y0167808D01*
X0062253Y0167773D01*
X0062231Y0167739D01*
X0062206Y0167708D01*
X0062178Y0167680D01*
X0062148Y0167654D01*
X0062115Y0167631D01*
X0062080Y0167611D01*
X0062044Y0167595D01*
X0062006Y0167582D01*
X0061967Y0167574D01*
X0061927Y0167568D01*
X0061887Y0167567D01*
X0063469Y0167567D02*
X0063469Y0169501D01*
X0063389Y0170306D02*
X0063550Y0170306D01*
X0063550Y0170467D01*
X0063389Y0170467D01*
X0063389Y0170306D01*
X0061887Y0167567D02*
X0061787Y0167571D01*
X0061686Y0167578D01*
X0061586Y0167588D01*
X0061487Y0167603D01*
X0061388Y0167621D01*
X0061290Y0167642D01*
X0061192Y0167667D01*
X0061096Y0167696D01*
X0061001Y0167728D01*
X0064633Y0168051D02*
X0064633Y0169017D01*
X0064635Y0169059D01*
X0064640Y0169101D01*
X0064649Y0169142D01*
X0064662Y0169182D01*
X0064678Y0169221D01*
X0064698Y0169259D01*
X0064720Y0169294D01*
X0064746Y0169327D01*
X0064774Y0169359D01*
X0064806Y0169387D01*
X0064839Y0169413D01*
X0064875Y0169435D01*
X0064912Y0169455D01*
X0064951Y0169471D01*
X0064991Y0169484D01*
X0065032Y0169493D01*
X0065074Y0169498D01*
X0065116Y0169500D01*
X0065116Y0169501D02*
X0065921Y0169501D01*
X0065921Y0167084D01*
X0065919Y0167042D01*
X0065914Y0167000D01*
X0065905Y0166959D01*
X0065892Y0166919D01*
X0065876Y0166880D01*
X0065856Y0166843D01*
X0065834Y0166807D01*
X0065808Y0166774D01*
X0065780Y0166742D01*
X0065748Y0166714D01*
X0065715Y0166688D01*
X0065680Y0166666D01*
X0065642Y0166646D01*
X0065603Y0166630D01*
X0065563Y0166617D01*
X0065522Y0166608D01*
X0065480Y0166603D01*
X0065438Y0166601D01*
X0064794Y0166601D01*
X0065116Y0167567D02*
X0065921Y0167567D01*
X0065116Y0167568D02*
X0065074Y0167570D01*
X0065032Y0167575D01*
X0064991Y0167584D01*
X0064951Y0167597D01*
X0064912Y0167613D01*
X0064875Y0167633D01*
X0064839Y0167655D01*
X0064806Y0167681D01*
X0064774Y0167709D01*
X0064746Y0167741D01*
X0064720Y0167774D01*
X0064698Y0167810D01*
X0064678Y0167847D01*
X0064662Y0167886D01*
X0064649Y0167926D01*
X0064640Y0167967D01*
X0064635Y0168009D01*
X0064633Y0168051D01*
X0067337Y0167567D02*
X0067337Y0169501D01*
X0068142Y0169501D01*
X0068142Y0169500D02*
X0068184Y0169498D01*
X0068226Y0169493D01*
X0068267Y0169484D01*
X0068307Y0169471D01*
X0068346Y0169455D01*
X0068384Y0169435D01*
X0068419Y0169413D01*
X0068452Y0169387D01*
X0068484Y0169359D01*
X0068512Y0169327D01*
X0068538Y0169294D01*
X0068560Y0169259D01*
X0068580Y0169221D01*
X0068596Y0169182D01*
X0068609Y0169142D01*
X0068618Y0169101D01*
X0068623Y0169059D01*
X0068625Y0169017D01*
X0068626Y0169017D02*
X0068626Y0167567D01*
X0068350Y0172367D02*
X0068189Y0172367D01*
X0068189Y0172528D01*
X0068350Y0172528D01*
X0068350Y0172367D01*
X0067059Y0172367D02*
X0065448Y0172367D01*
X0066253Y0172367D02*
X0066253Y0175267D01*
X0065448Y0174623D01*
X0062782Y0175106D02*
X0062621Y0175106D01*
X0062621Y0175267D01*
X0062782Y0175267D01*
X0062782Y0175106D01*
X0062701Y0174301D02*
X0062701Y0172367D01*
X0061426Y0172367D02*
X0061426Y0173817D01*
X0061425Y0173817D02*
X0061423Y0173859D01*
X0061418Y0173901D01*
X0061409Y0173942D01*
X0061396Y0173982D01*
X0061380Y0174021D01*
X0061360Y0174059D01*
X0061338Y0174094D01*
X0061312Y0174127D01*
X0061284Y0174159D01*
X0061252Y0174187D01*
X0061219Y0174213D01*
X0061184Y0174235D01*
X0061146Y0174255D01*
X0061107Y0174271D01*
X0061067Y0174284D01*
X0061026Y0174293D01*
X0060984Y0174298D01*
X0060942Y0174300D01*
X0060942Y0174301D02*
X0060137Y0174301D01*
X0060137Y0172367D01*
X0058861Y0172367D02*
X0058861Y0174301D01*
X0058781Y0175106D02*
X0058942Y0175106D01*
X0058942Y0175267D01*
X0058781Y0175267D01*
X0058781Y0175106D01*
X0057524Y0175267D02*
X0057524Y0172367D01*
X0056557Y0173656D02*
X0057524Y0175267D01*
X0056557Y0173656D02*
X0055591Y0175267D01*
X0055591Y0172367D01*
X0052690Y0172367D02*
X0051884Y0172367D01*
X0051884Y0172368D02*
X0051842Y0172370D01*
X0051800Y0172375D01*
X0051759Y0172384D01*
X0051719Y0172397D01*
X0051680Y0172413D01*
X0051643Y0172433D01*
X0051607Y0172455D01*
X0051574Y0172481D01*
X0051542Y0172509D01*
X0051514Y0172541D01*
X0051488Y0172574D01*
X0051466Y0172610D01*
X0051446Y0172647D01*
X0051430Y0172686D01*
X0051417Y0172726D01*
X0051408Y0172767D01*
X0051403Y0172809D01*
X0051401Y0172851D01*
X0051401Y0173656D01*
X0051401Y0173334D02*
X0052690Y0173334D01*
X0052690Y0173656D01*
X0052689Y0173656D02*
X0052687Y0173705D01*
X0052681Y0173754D01*
X0052672Y0173803D01*
X0052659Y0173850D01*
X0052642Y0173897D01*
X0052622Y0173942D01*
X0052599Y0173985D01*
X0052572Y0174027D01*
X0052542Y0174066D01*
X0052509Y0174103D01*
X0052473Y0174137D01*
X0052435Y0174168D01*
X0052395Y0174197D01*
X0052353Y0174222D01*
X0052308Y0174244D01*
X0052263Y0174262D01*
X0052216Y0174277D01*
X0052168Y0174288D01*
X0052119Y0174296D01*
X0052070Y0174300D01*
X0052020Y0174300D01*
X0051971Y0174296D01*
X0051922Y0174288D01*
X0051874Y0174277D01*
X0051827Y0174262D01*
X0051782Y0174244D01*
X0051737Y0174222D01*
X0051695Y0174197D01*
X0051655Y0174168D01*
X0051617Y0174137D01*
X0051581Y0174103D01*
X0051548Y0174066D01*
X0051518Y0174027D01*
X0051491Y0173985D01*
X0051468Y0173942D01*
X0051448Y0173897D01*
X0051431Y0173850D01*
X0051418Y0173803D01*
X0051409Y0173754D01*
X0051403Y0173705D01*
X0051401Y0173656D01*
X0050381Y0172368D02*
X0050339Y0172370D01*
X0050297Y0172375D01*
X0050256Y0172384D01*
X0050216Y0172397D01*
X0050177Y0172413D01*
X0050140Y0172433D01*
X0050104Y0172455D01*
X0050071Y0172481D01*
X0050039Y0172509D01*
X0050011Y0172541D01*
X0049985Y0172574D01*
X0049963Y0172610D01*
X0049943Y0172647D01*
X0049927Y0172686D01*
X0049914Y0172726D01*
X0049905Y0172767D01*
X0049900Y0172809D01*
X0049898Y0172851D01*
X0049897Y0172851D02*
X0049897Y0175267D01*
X0048674Y0173817D02*
X0048674Y0172851D01*
X0048673Y0172851D02*
X0048671Y0172809D01*
X0048666Y0172767D01*
X0048657Y0172726D01*
X0048644Y0172686D01*
X0048628Y0172647D01*
X0048608Y0172610D01*
X0048586Y0172574D01*
X0048560Y0172541D01*
X0048532Y0172509D01*
X0048500Y0172481D01*
X0048467Y0172455D01*
X0048432Y0172433D01*
X0048394Y0172413D01*
X0048355Y0172397D01*
X0048315Y0172384D01*
X0048274Y0172375D01*
X0048232Y0172370D01*
X0048190Y0172368D01*
X0048190Y0172367D02*
X0047385Y0172367D01*
X0047385Y0171401D02*
X0047385Y0174301D01*
X0048190Y0174301D01*
X0048190Y0174300D02*
X0048232Y0174298D01*
X0048274Y0174293D01*
X0048315Y0174284D01*
X0048355Y0174271D01*
X0048394Y0174255D01*
X0048432Y0174235D01*
X0048467Y0174213D01*
X0048500Y0174187D01*
X0048532Y0174159D01*
X0048560Y0174127D01*
X0048586Y0174094D01*
X0048608Y0174059D01*
X0048628Y0174021D01*
X0048644Y0173982D01*
X0048657Y0173942D01*
X0048666Y0173901D01*
X0048671Y0173859D01*
X0048673Y0173817D01*
X0046082Y0173817D02*
X0046082Y0172851D01*
X0046081Y0172851D02*
X0046079Y0172809D01*
X0046074Y0172767D01*
X0046065Y0172726D01*
X0046052Y0172686D01*
X0046036Y0172647D01*
X0046016Y0172610D01*
X0045994Y0172574D01*
X0045968Y0172541D01*
X0045940Y0172509D01*
X0045908Y0172481D01*
X0045875Y0172455D01*
X0045840Y0172433D01*
X0045802Y0172413D01*
X0045763Y0172397D01*
X0045723Y0172384D01*
X0045682Y0172375D01*
X0045640Y0172370D01*
X0045598Y0172368D01*
X0045598Y0172367D02*
X0044793Y0172367D01*
X0044793Y0171401D02*
X0044793Y0174301D01*
X0045598Y0174301D01*
X0045598Y0174300D02*
X0045640Y0174298D01*
X0045682Y0174293D01*
X0045723Y0174284D01*
X0045763Y0174271D01*
X0045802Y0174255D01*
X0045840Y0174235D01*
X0045875Y0174213D01*
X0045908Y0174187D01*
X0045940Y0174159D01*
X0045968Y0174127D01*
X0045994Y0174094D01*
X0046016Y0174059D01*
X0046036Y0174021D01*
X0046052Y0173982D01*
X0046065Y0173942D01*
X0046074Y0173901D01*
X0046079Y0173859D01*
X0046081Y0173817D01*
X0043362Y0173817D02*
X0043362Y0172367D01*
X0042637Y0172367D01*
X0042590Y0172369D01*
X0042544Y0172375D01*
X0042499Y0172384D01*
X0042454Y0172398D01*
X0042410Y0172415D01*
X0042369Y0172435D01*
X0042329Y0172459D01*
X0042291Y0172486D01*
X0042255Y0172516D01*
X0042222Y0172549D01*
X0042192Y0172585D01*
X0042165Y0172623D01*
X0042141Y0172663D01*
X0042121Y0172704D01*
X0042104Y0172748D01*
X0042090Y0172793D01*
X0042081Y0172838D01*
X0042075Y0172884D01*
X0042073Y0172931D01*
X0042075Y0172978D01*
X0042081Y0173024D01*
X0042090Y0173069D01*
X0042104Y0173114D01*
X0042121Y0173158D01*
X0042141Y0173199D01*
X0042165Y0173239D01*
X0042192Y0173277D01*
X0042222Y0173313D01*
X0042255Y0173346D01*
X0042291Y0173376D01*
X0042329Y0173403D01*
X0042369Y0173427D01*
X0042410Y0173447D01*
X0042454Y0173464D01*
X0042499Y0173478D01*
X0042544Y0173487D01*
X0042590Y0173493D01*
X0042637Y0173495D01*
X0043362Y0173495D01*
X0043361Y0173817D02*
X0043359Y0173859D01*
X0043354Y0173901D01*
X0043345Y0173942D01*
X0043332Y0173982D01*
X0043316Y0174021D01*
X0043296Y0174059D01*
X0043274Y0174094D01*
X0043248Y0174127D01*
X0043220Y0174159D01*
X0043188Y0174187D01*
X0043155Y0174213D01*
X0043120Y0174235D01*
X0043082Y0174255D01*
X0043043Y0174271D01*
X0043003Y0174284D01*
X0042962Y0174293D01*
X0042920Y0174298D01*
X0042878Y0174300D01*
X0042878Y0174301D02*
X0042234Y0174301D01*
X0040882Y0173656D02*
X0040882Y0173334D01*
X0039593Y0173334D01*
X0039593Y0173656D02*
X0039593Y0172851D01*
X0039595Y0172809D01*
X0039600Y0172767D01*
X0039609Y0172726D01*
X0039622Y0172686D01*
X0039638Y0172647D01*
X0039658Y0172610D01*
X0039680Y0172574D01*
X0039706Y0172541D01*
X0039734Y0172509D01*
X0039766Y0172481D01*
X0039799Y0172455D01*
X0039835Y0172433D01*
X0039872Y0172413D01*
X0039911Y0172397D01*
X0039951Y0172384D01*
X0039992Y0172375D01*
X0040034Y0172370D01*
X0040076Y0172368D01*
X0040076Y0172367D02*
X0040882Y0172367D01*
X0040881Y0173656D02*
X0040879Y0173705D01*
X0040873Y0173754D01*
X0040864Y0173803D01*
X0040851Y0173850D01*
X0040834Y0173897D01*
X0040814Y0173942D01*
X0040791Y0173985D01*
X0040764Y0174027D01*
X0040734Y0174066D01*
X0040701Y0174103D01*
X0040665Y0174137D01*
X0040627Y0174168D01*
X0040587Y0174197D01*
X0040545Y0174222D01*
X0040500Y0174244D01*
X0040455Y0174262D01*
X0040408Y0174277D01*
X0040360Y0174288D01*
X0040311Y0174296D01*
X0040262Y0174300D01*
X0040212Y0174300D01*
X0040163Y0174296D01*
X0040114Y0174288D01*
X0040066Y0174277D01*
X0040019Y0174262D01*
X0039974Y0174244D01*
X0039929Y0174222D01*
X0039887Y0174197D01*
X0039847Y0174168D01*
X0039809Y0174137D01*
X0039773Y0174103D01*
X0039740Y0174066D01*
X0039710Y0174027D01*
X0039683Y0173985D01*
X0039660Y0173942D01*
X0039640Y0173897D01*
X0039623Y0173850D01*
X0039610Y0173803D01*
X0039601Y0173754D01*
X0039595Y0173705D01*
X0039593Y0173656D01*
X0038290Y0173817D02*
X0038290Y0172367D01*
X0037001Y0172367D02*
X0037001Y0174301D01*
X0037806Y0174301D01*
X0037806Y0174300D02*
X0037848Y0174298D01*
X0037890Y0174293D01*
X0037931Y0174284D01*
X0037971Y0174271D01*
X0038010Y0174255D01*
X0038048Y0174235D01*
X0038083Y0174213D01*
X0038116Y0174187D01*
X0038148Y0174159D01*
X0038176Y0174127D01*
X0038202Y0174094D01*
X0038224Y0174059D01*
X0038244Y0174021D01*
X0038260Y0173982D01*
X0038273Y0173942D01*
X0038282Y0173901D01*
X0038287Y0173859D01*
X0038289Y0173817D01*
X0035725Y0174301D02*
X0035725Y0172367D01*
X0035645Y0170467D02*
X0035806Y0170467D01*
X0035806Y0170306D01*
X0035645Y0170306D01*
X0035645Y0170467D01*
X0033046Y0172367D02*
X0033046Y0175267D01*
X0033852Y0175267D01*
X0033852Y0175268D02*
X0033907Y0175266D01*
X0033962Y0175260D01*
X0034016Y0175251D01*
X0034069Y0175238D01*
X0034122Y0175221D01*
X0034173Y0175201D01*
X0034223Y0175178D01*
X0034271Y0175151D01*
X0034317Y0175120D01*
X0034361Y0175087D01*
X0034402Y0175051D01*
X0034441Y0175012D01*
X0034477Y0174971D01*
X0034510Y0174927D01*
X0034541Y0174881D01*
X0034568Y0174833D01*
X0034591Y0174783D01*
X0034611Y0174732D01*
X0034628Y0174679D01*
X0034641Y0174626D01*
X0034650Y0174572D01*
X0034656Y0174517D01*
X0034658Y0174462D01*
X0034656Y0174407D01*
X0034650Y0174352D01*
X0034641Y0174298D01*
X0034628Y0174245D01*
X0034611Y0174192D01*
X0034591Y0174141D01*
X0034568Y0174091D01*
X0034541Y0174043D01*
X0034510Y0173997D01*
X0034477Y0173953D01*
X0034441Y0173912D01*
X0034402Y0173873D01*
X0034361Y0173837D01*
X0034317Y0173804D01*
X0034271Y0173773D01*
X0034223Y0173746D01*
X0034173Y0173723D01*
X0034122Y0173703D01*
X0034069Y0173686D01*
X0034016Y0173673D01*
X0033962Y0173664D01*
X0033907Y0173658D01*
X0033852Y0173656D01*
X0033046Y0173656D01*
X0035645Y0175106D02*
X0035645Y0175267D01*
X0035806Y0175267D01*
X0035806Y0175106D01*
X0035645Y0175106D01*
X0049898Y0168051D02*
X0049900Y0168009D01*
X0049905Y0167967D01*
X0049914Y0167926D01*
X0049927Y0167886D01*
X0049943Y0167847D01*
X0049963Y0167810D01*
X0049985Y0167774D01*
X0050011Y0167741D01*
X0050039Y0167709D01*
X0050071Y0167681D01*
X0050104Y0167655D01*
X0050140Y0167633D01*
X0050177Y0167613D01*
X0050216Y0167597D01*
X0050256Y0167584D01*
X0050297Y0167575D01*
X0050339Y0167570D01*
X0050381Y0167568D01*
X0070849Y0172770D02*
X0070887Y0172852D01*
X0070922Y0172935D01*
X0070954Y0173020D01*
X0070983Y0173105D01*
X0071008Y0173192D01*
X0071030Y0173280D01*
X0071048Y0173368D01*
X0071064Y0173457D01*
X0071076Y0173547D01*
X0071084Y0173636D01*
X0071089Y0173727D01*
X0071091Y0173817D01*
X0069479Y0173817D02*
X0069481Y0173907D01*
X0069486Y0173998D01*
X0069494Y0174087D01*
X0069506Y0174177D01*
X0069522Y0174266D01*
X0069540Y0174354D01*
X0069562Y0174442D01*
X0069587Y0174529D01*
X0069616Y0174614D01*
X0069648Y0174699D01*
X0069683Y0174782D01*
X0069721Y0174864D01*
X0070285Y0175267D02*
X0070331Y0175265D01*
X0070377Y0175260D01*
X0070422Y0175251D01*
X0070467Y0175239D01*
X0070510Y0175223D01*
X0070552Y0175204D01*
X0070593Y0175181D01*
X0070631Y0175156D01*
X0070668Y0175128D01*
X0070702Y0175097D01*
X0070734Y0175063D01*
X0070763Y0175027D01*
X0070789Y0174989D01*
X0070812Y0174949D01*
X0070832Y0174907D01*
X0070849Y0174864D01*
X0070930Y0174623D02*
X0069641Y0173012D01*
X0070285Y0172367D02*
X0070331Y0172369D01*
X0070377Y0172374D01*
X0070422Y0172383D01*
X0070467Y0172395D01*
X0070510Y0172411D01*
X0070552Y0172430D01*
X0070593Y0172453D01*
X0070631Y0172478D01*
X0070668Y0172506D01*
X0070702Y0172537D01*
X0070734Y0172571D01*
X0070763Y0172607D01*
X0070789Y0172645D01*
X0070812Y0172685D01*
X0070832Y0172727D01*
X0070849Y0172770D01*
X0070285Y0172367D02*
X0070239Y0172369D01*
X0070193Y0172374D01*
X0070148Y0172383D01*
X0070103Y0172395D01*
X0070060Y0172411D01*
X0070018Y0172430D01*
X0069977Y0172453D01*
X0069939Y0172478D01*
X0069902Y0172506D01*
X0069868Y0172537D01*
X0069836Y0172571D01*
X0069807Y0172607D01*
X0069781Y0172645D01*
X0069758Y0172685D01*
X0069738Y0172727D01*
X0069721Y0172770D01*
X0071091Y0173817D02*
X0071089Y0173907D01*
X0071084Y0173998D01*
X0071076Y0174087D01*
X0071064Y0174177D01*
X0071048Y0174266D01*
X0071030Y0174354D01*
X0071008Y0174442D01*
X0070983Y0174529D01*
X0070954Y0174614D01*
X0070922Y0174699D01*
X0070887Y0174782D01*
X0070849Y0174864D01*
X0070285Y0175267D02*
X0070239Y0175265D01*
X0070193Y0175260D01*
X0070148Y0175251D01*
X0070103Y0175239D01*
X0070060Y0175223D01*
X0070018Y0175204D01*
X0069977Y0175181D01*
X0069939Y0175156D01*
X0069902Y0175128D01*
X0069868Y0175097D01*
X0069836Y0175063D01*
X0069807Y0175027D01*
X0069781Y0174989D01*
X0069758Y0174949D01*
X0069738Y0174907D01*
X0069721Y0174864D01*
X0069480Y0173817D02*
X0069482Y0173727D01*
X0069487Y0173636D01*
X0069495Y0173547D01*
X0069507Y0173457D01*
X0069523Y0173368D01*
X0069541Y0173280D01*
X0069563Y0173192D01*
X0069588Y0173105D01*
X0069617Y0173020D01*
X0069649Y0172935D01*
X0069684Y0172852D01*
X0069722Y0172770D01*
X0072221Y0172528D02*
X0072382Y0172528D01*
X0072382Y0172367D01*
X0072221Y0172367D01*
X0072221Y0172528D01*
X0074881Y0172770D02*
X0074919Y0172852D01*
X0074954Y0172935D01*
X0074986Y0173020D01*
X0075015Y0173105D01*
X0075040Y0173192D01*
X0075062Y0173280D01*
X0075080Y0173368D01*
X0075096Y0173457D01*
X0075108Y0173547D01*
X0075116Y0173636D01*
X0075121Y0173727D01*
X0075123Y0173817D01*
X0073511Y0173817D02*
X0073513Y0173907D01*
X0073518Y0173998D01*
X0073526Y0174087D01*
X0073538Y0174177D01*
X0073554Y0174266D01*
X0073572Y0174354D01*
X0073594Y0174442D01*
X0073619Y0174529D01*
X0073648Y0174614D01*
X0073680Y0174699D01*
X0073715Y0174782D01*
X0073753Y0174864D01*
X0074317Y0175267D02*
X0074363Y0175265D01*
X0074409Y0175260D01*
X0074454Y0175251D01*
X0074499Y0175239D01*
X0074542Y0175223D01*
X0074584Y0175204D01*
X0074625Y0175181D01*
X0074663Y0175156D01*
X0074700Y0175128D01*
X0074734Y0175097D01*
X0074766Y0175063D01*
X0074795Y0175027D01*
X0074821Y0174989D01*
X0074844Y0174949D01*
X0074864Y0174907D01*
X0074881Y0174864D01*
X0074962Y0174623D02*
X0073673Y0173012D01*
X0074317Y0172367D02*
X0074363Y0172369D01*
X0074409Y0172374D01*
X0074454Y0172383D01*
X0074499Y0172395D01*
X0074542Y0172411D01*
X0074584Y0172430D01*
X0074625Y0172453D01*
X0074663Y0172478D01*
X0074700Y0172506D01*
X0074734Y0172537D01*
X0074766Y0172571D01*
X0074795Y0172607D01*
X0074821Y0172645D01*
X0074844Y0172685D01*
X0074864Y0172727D01*
X0074881Y0172770D01*
X0074317Y0172367D02*
X0074271Y0172369D01*
X0074225Y0172374D01*
X0074180Y0172383D01*
X0074135Y0172395D01*
X0074092Y0172411D01*
X0074050Y0172430D01*
X0074009Y0172453D01*
X0073971Y0172478D01*
X0073934Y0172506D01*
X0073900Y0172537D01*
X0073868Y0172571D01*
X0073839Y0172607D01*
X0073813Y0172645D01*
X0073790Y0172685D01*
X0073770Y0172727D01*
X0073753Y0172770D01*
X0075123Y0173817D02*
X0075121Y0173907D01*
X0075116Y0173998D01*
X0075108Y0174087D01*
X0075096Y0174177D01*
X0075080Y0174266D01*
X0075062Y0174354D01*
X0075040Y0174442D01*
X0075015Y0174529D01*
X0074986Y0174614D01*
X0074954Y0174699D01*
X0074919Y0174782D01*
X0074881Y0174864D01*
X0074317Y0175267D02*
X0074271Y0175265D01*
X0074225Y0175260D01*
X0074180Y0175251D01*
X0074135Y0175239D01*
X0074092Y0175223D01*
X0074050Y0175204D01*
X0074009Y0175181D01*
X0073971Y0175156D01*
X0073934Y0175128D01*
X0073900Y0175097D01*
X0073868Y0175063D01*
X0073839Y0175027D01*
X0073813Y0174989D01*
X0073790Y0174949D01*
X0073770Y0174907D01*
X0073753Y0174864D01*
X0073512Y0173817D02*
X0073514Y0173727D01*
X0073519Y0173636D01*
X0073527Y0173547D01*
X0073539Y0173457D01*
X0073555Y0173368D01*
X0073573Y0173280D01*
X0073595Y0173192D01*
X0073620Y0173105D01*
X0073649Y0173020D01*
X0073681Y0172935D01*
X0073716Y0172852D01*
X0073754Y0172770D01*
X0137143Y0172450D02*
X0137143Y0169550D01*
X0137143Y0171161D02*
X0138432Y0171161D01*
X0138432Y0172450D02*
X0137143Y0172450D01*
X0139345Y0172450D02*
X0140956Y0172450D01*
X0140151Y0172450D02*
X0140151Y0169550D01*
X0142129Y0169550D02*
X0142935Y0169550D01*
X0142990Y0169552D01*
X0143045Y0169558D01*
X0143099Y0169567D01*
X0143152Y0169580D01*
X0143205Y0169597D01*
X0143256Y0169617D01*
X0143306Y0169640D01*
X0143354Y0169667D01*
X0143400Y0169698D01*
X0143444Y0169731D01*
X0143485Y0169767D01*
X0143524Y0169806D01*
X0143560Y0169847D01*
X0143593Y0169891D01*
X0143624Y0169937D01*
X0143651Y0169985D01*
X0143674Y0170035D01*
X0143694Y0170086D01*
X0143711Y0170139D01*
X0143724Y0170192D01*
X0143733Y0170246D01*
X0143739Y0170301D01*
X0143741Y0170356D01*
X0143740Y0170356D02*
X0143740Y0171644D01*
X0143741Y0171644D02*
X0143739Y0171699D01*
X0143733Y0171754D01*
X0143724Y0171808D01*
X0143711Y0171861D01*
X0143694Y0171914D01*
X0143674Y0171965D01*
X0143651Y0172015D01*
X0143624Y0172063D01*
X0143593Y0172109D01*
X0143560Y0172153D01*
X0143524Y0172194D01*
X0143485Y0172233D01*
X0143444Y0172269D01*
X0143400Y0172302D01*
X0143354Y0172333D01*
X0143306Y0172360D01*
X0143256Y0172383D01*
X0143205Y0172403D01*
X0143152Y0172420D01*
X0143099Y0172433D01*
X0143045Y0172442D01*
X0142990Y0172448D01*
X0142935Y0172450D01*
X0142129Y0172450D01*
X0142129Y0169550D01*
X0145012Y0169550D02*
X0145657Y0169550D01*
X0145335Y0169550D02*
X0145335Y0172450D01*
X0145657Y0172450D02*
X0145012Y0172450D01*
D11*
X0036900Y0040000D02*
X0036900Y0032000D01*
X0036902Y0031940D01*
X0036907Y0031879D01*
X0036916Y0031820D01*
X0036929Y0031761D01*
X0036945Y0031702D01*
X0036965Y0031645D01*
X0036988Y0031590D01*
X0037015Y0031535D01*
X0037044Y0031483D01*
X0037077Y0031432D01*
X0037113Y0031383D01*
X0037151Y0031337D01*
X0037193Y0031293D01*
X0037237Y0031251D01*
X0037283Y0031213D01*
X0037332Y0031177D01*
X0037383Y0031144D01*
X0037435Y0031115D01*
X0037490Y0031088D01*
X0037545Y0031065D01*
X0037602Y0031045D01*
X0037661Y0031029D01*
X0037720Y0031016D01*
X0037779Y0031007D01*
X0037840Y0031002D01*
X0037900Y0031000D01*
X0054900Y0031000D01*
X0054960Y0031002D01*
X0055021Y0031007D01*
X0055080Y0031016D01*
X0055139Y0031029D01*
X0055198Y0031045D01*
X0055255Y0031065D01*
X0055310Y0031088D01*
X0055365Y0031115D01*
X0055417Y0031144D01*
X0055468Y0031177D01*
X0055517Y0031213D01*
X0055563Y0031251D01*
X0055607Y0031293D01*
X0055649Y0031337D01*
X0055687Y0031383D01*
X0055723Y0031432D01*
X0055756Y0031483D01*
X0055785Y0031535D01*
X0055812Y0031590D01*
X0055835Y0031645D01*
X0055855Y0031702D01*
X0055871Y0031761D01*
X0055884Y0031820D01*
X0055893Y0031879D01*
X0055898Y0031940D01*
X0055900Y0032000D01*
X0055900Y0040000D01*
X0055898Y0040060D01*
X0055893Y0040121D01*
X0055884Y0040180D01*
X0055871Y0040239D01*
X0055855Y0040298D01*
X0055835Y0040355D01*
X0055812Y0040410D01*
X0055785Y0040465D01*
X0055756Y0040517D01*
X0055723Y0040568D01*
X0055687Y0040617D01*
X0055649Y0040663D01*
X0055607Y0040707D01*
X0055563Y0040749D01*
X0055517Y0040787D01*
X0055468Y0040823D01*
X0055417Y0040856D01*
X0055365Y0040885D01*
X0055310Y0040912D01*
X0055255Y0040935D01*
X0055198Y0040955D01*
X0055139Y0040971D01*
X0055080Y0040984D01*
X0055021Y0040993D01*
X0054960Y0040998D01*
X0054900Y0041000D01*
X0037900Y0041000D01*
X0037840Y0040998D01*
X0037779Y0040993D01*
X0037720Y0040984D01*
X0037661Y0040971D01*
X0037602Y0040955D01*
X0037545Y0040935D01*
X0037490Y0040912D01*
X0037435Y0040885D01*
X0037383Y0040856D01*
X0037332Y0040823D01*
X0037283Y0040787D01*
X0037237Y0040749D01*
X0037193Y0040707D01*
X0037151Y0040663D01*
X0037113Y0040617D01*
X0037077Y0040568D01*
X0037044Y0040517D01*
X0037015Y0040465D01*
X0036988Y0040410D01*
X0036965Y0040355D01*
X0036945Y0040298D01*
X0036929Y0040239D01*
X0036916Y0040180D01*
X0036907Y0040121D01*
X0036902Y0040060D01*
X0036900Y0040000D01*
X0037900Y0046000D02*
X0054900Y0046000D01*
X0054960Y0046002D01*
X0055021Y0046007D01*
X0055080Y0046016D01*
X0055139Y0046029D01*
X0055198Y0046045D01*
X0055255Y0046065D01*
X0055310Y0046088D01*
X0055365Y0046115D01*
X0055417Y0046144D01*
X0055468Y0046177D01*
X0055517Y0046213D01*
X0055563Y0046251D01*
X0055607Y0046293D01*
X0055649Y0046337D01*
X0055687Y0046383D01*
X0055723Y0046432D01*
X0055756Y0046483D01*
X0055785Y0046535D01*
X0055812Y0046590D01*
X0055835Y0046645D01*
X0055855Y0046702D01*
X0055871Y0046761D01*
X0055884Y0046820D01*
X0055893Y0046879D01*
X0055898Y0046940D01*
X0055900Y0047000D01*
X0055900Y0055000D01*
X0055898Y0055060D01*
X0055893Y0055121D01*
X0055884Y0055180D01*
X0055871Y0055239D01*
X0055855Y0055298D01*
X0055835Y0055355D01*
X0055812Y0055410D01*
X0055785Y0055465D01*
X0055756Y0055517D01*
X0055723Y0055568D01*
X0055687Y0055617D01*
X0055649Y0055663D01*
X0055607Y0055707D01*
X0055563Y0055749D01*
X0055517Y0055787D01*
X0055468Y0055823D01*
X0055417Y0055856D01*
X0055365Y0055885D01*
X0055310Y0055912D01*
X0055255Y0055935D01*
X0055198Y0055955D01*
X0055139Y0055971D01*
X0055080Y0055984D01*
X0055021Y0055993D01*
X0054960Y0055998D01*
X0054900Y0056000D01*
X0037900Y0056000D01*
X0037840Y0055998D01*
X0037779Y0055993D01*
X0037720Y0055984D01*
X0037661Y0055971D01*
X0037602Y0055955D01*
X0037545Y0055935D01*
X0037490Y0055912D01*
X0037435Y0055885D01*
X0037383Y0055856D01*
X0037332Y0055823D01*
X0037283Y0055787D01*
X0037237Y0055749D01*
X0037193Y0055707D01*
X0037151Y0055663D01*
X0037113Y0055617D01*
X0037077Y0055568D01*
X0037044Y0055517D01*
X0037015Y0055465D01*
X0036988Y0055410D01*
X0036965Y0055355D01*
X0036945Y0055298D01*
X0036929Y0055239D01*
X0036916Y0055180D01*
X0036907Y0055121D01*
X0036902Y0055060D01*
X0036900Y0055000D01*
X0036900Y0047000D01*
X0036902Y0046940D01*
X0036907Y0046879D01*
X0036916Y0046820D01*
X0036929Y0046761D01*
X0036945Y0046702D01*
X0036965Y0046645D01*
X0036988Y0046590D01*
X0037015Y0046535D01*
X0037044Y0046483D01*
X0037077Y0046432D01*
X0037113Y0046383D01*
X0037151Y0046337D01*
X0037193Y0046293D01*
X0037237Y0046251D01*
X0037283Y0046213D01*
X0037332Y0046177D01*
X0037383Y0046144D01*
X0037435Y0046115D01*
X0037490Y0046088D01*
X0037545Y0046065D01*
X0037602Y0046045D01*
X0037661Y0046029D01*
X0037720Y0046016D01*
X0037779Y0046007D01*
X0037840Y0046002D01*
X0037900Y0046000D01*
X0044900Y0051000D02*
X0045400Y0051000D01*
X0047400Y0051000D02*
X0047900Y0051000D01*
X0047900Y0036000D02*
X0047400Y0036000D01*
X0045400Y0036000D02*
X0044900Y0036000D01*
X0080400Y0019500D02*
X0081400Y0019500D01*
X0081900Y0019000D01*
X0090900Y0019000D01*
X0091400Y0019500D01*
X0092400Y0019500D01*
X0092460Y0019498D01*
X0092521Y0019493D01*
X0092580Y0019484D01*
X0092639Y0019471D01*
X0092698Y0019455D01*
X0092755Y0019435D01*
X0092810Y0019412D01*
X0092865Y0019385D01*
X0092917Y0019356D01*
X0092968Y0019323D01*
X0093017Y0019287D01*
X0093063Y0019249D01*
X0093107Y0019207D01*
X0093149Y0019163D01*
X0093187Y0019117D01*
X0093223Y0019068D01*
X0093256Y0019017D01*
X0093285Y0018965D01*
X0093312Y0018910D01*
X0093335Y0018855D01*
X0093355Y0018798D01*
X0093371Y0018739D01*
X0093384Y0018680D01*
X0093393Y0018621D01*
X0093398Y0018560D01*
X0093400Y0018500D01*
X0093400Y0013500D02*
X0093398Y0013440D01*
X0093393Y0013379D01*
X0093384Y0013320D01*
X0093371Y0013261D01*
X0093355Y0013202D01*
X0093335Y0013145D01*
X0093312Y0013090D01*
X0093285Y0013035D01*
X0093256Y0012983D01*
X0093223Y0012932D01*
X0093187Y0012883D01*
X0093149Y0012837D01*
X0093107Y0012793D01*
X0093063Y0012751D01*
X0093017Y0012713D01*
X0092968Y0012677D01*
X0092917Y0012644D01*
X0092865Y0012615D01*
X0092810Y0012588D01*
X0092755Y0012565D01*
X0092698Y0012545D01*
X0092639Y0012529D01*
X0092580Y0012516D01*
X0092521Y0012507D01*
X0092460Y0012502D01*
X0092400Y0012500D01*
X0091400Y0012500D01*
X0090900Y0013000D01*
X0081900Y0013000D01*
X0081400Y0012500D01*
X0080400Y0012500D01*
X0080340Y0012502D01*
X0080279Y0012507D01*
X0080220Y0012516D01*
X0080161Y0012529D01*
X0080102Y0012545D01*
X0080045Y0012565D01*
X0079990Y0012588D01*
X0079935Y0012615D01*
X0079883Y0012644D01*
X0079832Y0012677D01*
X0079783Y0012713D01*
X0079737Y0012751D01*
X0079693Y0012793D01*
X0079651Y0012837D01*
X0079613Y0012883D01*
X0079577Y0012932D01*
X0079544Y0012983D01*
X0079515Y0013035D01*
X0079488Y0013090D01*
X0079465Y0013145D01*
X0079445Y0013202D01*
X0079429Y0013261D01*
X0079416Y0013320D01*
X0079407Y0013379D01*
X0079402Y0013440D01*
X0079400Y0013500D01*
X0079400Y0018500D02*
X0079402Y0018560D01*
X0079407Y0018621D01*
X0079416Y0018680D01*
X0079429Y0018739D01*
X0079445Y0018798D01*
X0079465Y0018855D01*
X0079488Y0018910D01*
X0079515Y0018965D01*
X0079544Y0019017D01*
X0079577Y0019068D01*
X0079613Y0019117D01*
X0079651Y0019163D01*
X0079693Y0019207D01*
X0079737Y0019249D01*
X0079783Y0019287D01*
X0079832Y0019323D01*
X0079883Y0019356D01*
X0079935Y0019385D01*
X0079990Y0019412D01*
X0080045Y0019435D01*
X0080102Y0019455D01*
X0080161Y0019471D01*
X0080220Y0019484D01*
X0080279Y0019493D01*
X0080340Y0019498D01*
X0080400Y0019500D01*
X0049900Y0075000D02*
X0049900Y0076000D01*
X0049400Y0076500D01*
X0049400Y0085500D01*
X0049900Y0086000D01*
X0049900Y0087000D01*
X0049898Y0087060D01*
X0049893Y0087121D01*
X0049884Y0087180D01*
X0049871Y0087239D01*
X0049855Y0087298D01*
X0049835Y0087355D01*
X0049812Y0087410D01*
X0049785Y0087465D01*
X0049756Y0087517D01*
X0049723Y0087568D01*
X0049687Y0087617D01*
X0049649Y0087663D01*
X0049607Y0087707D01*
X0049563Y0087749D01*
X0049517Y0087787D01*
X0049468Y0087823D01*
X0049417Y0087856D01*
X0049365Y0087885D01*
X0049310Y0087912D01*
X0049255Y0087935D01*
X0049198Y0087955D01*
X0049139Y0087971D01*
X0049080Y0087984D01*
X0049021Y0087993D01*
X0048960Y0087998D01*
X0048900Y0088000D01*
X0043900Y0088000D02*
X0043840Y0087998D01*
X0043779Y0087993D01*
X0043720Y0087984D01*
X0043661Y0087971D01*
X0043602Y0087955D01*
X0043545Y0087935D01*
X0043490Y0087912D01*
X0043435Y0087885D01*
X0043383Y0087856D01*
X0043332Y0087823D01*
X0043283Y0087787D01*
X0043237Y0087749D01*
X0043193Y0087707D01*
X0043151Y0087663D01*
X0043113Y0087617D01*
X0043077Y0087568D01*
X0043044Y0087517D01*
X0043015Y0087465D01*
X0042988Y0087410D01*
X0042965Y0087355D01*
X0042945Y0087298D01*
X0042929Y0087239D01*
X0042916Y0087180D01*
X0042907Y0087121D01*
X0042902Y0087060D01*
X0042900Y0087000D01*
X0042900Y0086000D01*
X0043400Y0085500D01*
X0043400Y0076500D01*
X0042900Y0076000D01*
X0042900Y0075000D01*
X0042902Y0074940D01*
X0042907Y0074879D01*
X0042916Y0074820D01*
X0042929Y0074761D01*
X0042945Y0074702D01*
X0042965Y0074645D01*
X0042988Y0074590D01*
X0043015Y0074535D01*
X0043044Y0074483D01*
X0043077Y0074432D01*
X0043113Y0074383D01*
X0043151Y0074337D01*
X0043193Y0074293D01*
X0043237Y0074251D01*
X0043283Y0074213D01*
X0043332Y0074177D01*
X0043383Y0074144D01*
X0043435Y0074115D01*
X0043490Y0074088D01*
X0043545Y0074065D01*
X0043602Y0074045D01*
X0043661Y0074029D01*
X0043720Y0074016D01*
X0043779Y0074007D01*
X0043840Y0074002D01*
X0043900Y0074000D01*
X0040648Y0075276D02*
X0040648Y0076276D01*
X0040148Y0076776D01*
X0040148Y0085776D01*
X0040648Y0086276D01*
X0040648Y0087276D01*
X0040646Y0087336D01*
X0040641Y0087397D01*
X0040632Y0087456D01*
X0040619Y0087515D01*
X0040603Y0087574D01*
X0040583Y0087631D01*
X0040560Y0087686D01*
X0040533Y0087741D01*
X0040504Y0087793D01*
X0040471Y0087844D01*
X0040435Y0087893D01*
X0040397Y0087939D01*
X0040355Y0087983D01*
X0040311Y0088025D01*
X0040265Y0088063D01*
X0040216Y0088099D01*
X0040165Y0088132D01*
X0040113Y0088161D01*
X0040058Y0088188D01*
X0040003Y0088211D01*
X0039946Y0088231D01*
X0039887Y0088247D01*
X0039828Y0088260D01*
X0039769Y0088269D01*
X0039708Y0088274D01*
X0039648Y0088276D01*
X0034648Y0088276D02*
X0034588Y0088274D01*
X0034527Y0088269D01*
X0034468Y0088260D01*
X0034409Y0088247D01*
X0034350Y0088231D01*
X0034293Y0088211D01*
X0034238Y0088188D01*
X0034183Y0088161D01*
X0034131Y0088132D01*
X0034080Y0088099D01*
X0034031Y0088063D01*
X0033985Y0088025D01*
X0033941Y0087983D01*
X0033899Y0087939D01*
X0033861Y0087893D01*
X0033825Y0087844D01*
X0033792Y0087793D01*
X0033763Y0087741D01*
X0033736Y0087686D01*
X0033713Y0087631D01*
X0033693Y0087574D01*
X0033677Y0087515D01*
X0033664Y0087456D01*
X0033655Y0087397D01*
X0033650Y0087336D01*
X0033648Y0087276D01*
X0033648Y0086276D01*
X0034148Y0085776D01*
X0034148Y0076776D01*
X0033648Y0076276D01*
X0033648Y0075276D01*
X0033650Y0075216D01*
X0033655Y0075155D01*
X0033664Y0075096D01*
X0033677Y0075037D01*
X0033693Y0074978D01*
X0033713Y0074921D01*
X0033736Y0074866D01*
X0033763Y0074811D01*
X0033792Y0074759D01*
X0033825Y0074708D01*
X0033861Y0074659D01*
X0033899Y0074613D01*
X0033941Y0074569D01*
X0033985Y0074527D01*
X0034031Y0074489D01*
X0034080Y0074453D01*
X0034131Y0074420D01*
X0034183Y0074391D01*
X0034238Y0074364D01*
X0034293Y0074341D01*
X0034350Y0074321D01*
X0034409Y0074305D01*
X0034468Y0074292D01*
X0034527Y0074283D01*
X0034588Y0074278D01*
X0034648Y0074276D01*
X0039648Y0074276D02*
X0039708Y0074278D01*
X0039769Y0074283D01*
X0039828Y0074292D01*
X0039887Y0074305D01*
X0039946Y0074321D01*
X0040003Y0074341D01*
X0040058Y0074364D01*
X0040113Y0074391D01*
X0040165Y0074420D01*
X0040216Y0074453D01*
X0040265Y0074489D01*
X0040311Y0074527D01*
X0040355Y0074569D01*
X0040397Y0074613D01*
X0040435Y0074659D01*
X0040471Y0074708D01*
X0040504Y0074759D01*
X0040533Y0074811D01*
X0040560Y0074866D01*
X0040583Y0074921D01*
X0040603Y0074978D01*
X0040619Y0075037D01*
X0040632Y0075096D01*
X0040641Y0075155D01*
X0040646Y0075216D01*
X0040648Y0075276D01*
X0048900Y0074000D02*
X0048960Y0074002D01*
X0049021Y0074007D01*
X0049080Y0074016D01*
X0049139Y0074029D01*
X0049198Y0074045D01*
X0049255Y0074065D01*
X0049310Y0074088D01*
X0049365Y0074115D01*
X0049417Y0074144D01*
X0049468Y0074177D01*
X0049517Y0074213D01*
X0049563Y0074251D01*
X0049607Y0074293D01*
X0049649Y0074337D01*
X0049687Y0074383D01*
X0049723Y0074432D01*
X0049756Y0074483D01*
X0049785Y0074535D01*
X0049812Y0074590D01*
X0049835Y0074645D01*
X0049855Y0074702D01*
X0049871Y0074761D01*
X0049884Y0074820D01*
X0049893Y0074879D01*
X0049898Y0074940D01*
X0049900Y0075000D01*
X0047900Y0106000D02*
X0024900Y0106000D01*
X0024900Y0146000D01*
X0032400Y0146000D01*
X0032402Y0145874D01*
X0032408Y0145749D01*
X0032418Y0145624D01*
X0032432Y0145499D01*
X0032449Y0145374D01*
X0032471Y0145250D01*
X0032496Y0145127D01*
X0032526Y0145005D01*
X0032559Y0144884D01*
X0032596Y0144764D01*
X0032636Y0144645D01*
X0032681Y0144528D01*
X0032729Y0144411D01*
X0032781Y0144297D01*
X0032836Y0144184D01*
X0032895Y0144073D01*
X0032957Y0143964D01*
X0033023Y0143857D01*
X0033092Y0143752D01*
X0033164Y0143649D01*
X0033239Y0143548D01*
X0033318Y0143450D01*
X0033400Y0143355D01*
X0033484Y0143262D01*
X0033572Y0143172D01*
X0033662Y0143084D01*
X0033755Y0143000D01*
X0033850Y0142918D01*
X0033948Y0142839D01*
X0034049Y0142764D01*
X0034152Y0142692D01*
X0034257Y0142623D01*
X0034364Y0142557D01*
X0034473Y0142495D01*
X0034584Y0142436D01*
X0034697Y0142381D01*
X0034811Y0142329D01*
X0034928Y0142281D01*
X0035045Y0142236D01*
X0035164Y0142196D01*
X0035284Y0142159D01*
X0035405Y0142126D01*
X0035527Y0142096D01*
X0035650Y0142071D01*
X0035774Y0142049D01*
X0035899Y0142032D01*
X0036024Y0142018D01*
X0036149Y0142008D01*
X0036274Y0142002D01*
X0036400Y0142000D01*
X0036526Y0142002D01*
X0036651Y0142008D01*
X0036776Y0142018D01*
X0036901Y0142032D01*
X0037026Y0142049D01*
X0037150Y0142071D01*
X0037273Y0142096D01*
X0037395Y0142126D01*
X0037516Y0142159D01*
X0037636Y0142196D01*
X0037755Y0142236D01*
X0037872Y0142281D01*
X0037989Y0142329D01*
X0038103Y0142381D01*
X0038216Y0142436D01*
X0038327Y0142495D01*
X0038436Y0142557D01*
X0038543Y0142623D01*
X0038648Y0142692D01*
X0038751Y0142764D01*
X0038852Y0142839D01*
X0038950Y0142918D01*
X0039045Y0143000D01*
X0039138Y0143084D01*
X0039228Y0143172D01*
X0039316Y0143262D01*
X0039400Y0143355D01*
X0039482Y0143450D01*
X0039561Y0143548D01*
X0039636Y0143649D01*
X0039708Y0143752D01*
X0039777Y0143857D01*
X0039843Y0143964D01*
X0039905Y0144073D01*
X0039964Y0144184D01*
X0040019Y0144297D01*
X0040071Y0144411D01*
X0040119Y0144528D01*
X0040164Y0144645D01*
X0040204Y0144764D01*
X0040241Y0144884D01*
X0040274Y0145005D01*
X0040304Y0145127D01*
X0040329Y0145250D01*
X0040351Y0145374D01*
X0040368Y0145499D01*
X0040382Y0145624D01*
X0040392Y0145749D01*
X0040398Y0145874D01*
X0040400Y0146000D01*
X0047900Y0146000D01*
X0047900Y0106000D01*
X0044900Y0146000D02*
X0027900Y0146000D01*
X0027840Y0146002D01*
X0027779Y0146007D01*
X0027720Y0146016D01*
X0027661Y0146029D01*
X0027602Y0146045D01*
X0027545Y0146065D01*
X0027490Y0146088D01*
X0027435Y0146115D01*
X0027383Y0146144D01*
X0027332Y0146177D01*
X0027283Y0146213D01*
X0027237Y0146251D01*
X0027193Y0146293D01*
X0027151Y0146337D01*
X0027113Y0146383D01*
X0027077Y0146432D01*
X0027044Y0146483D01*
X0027015Y0146535D01*
X0026988Y0146590D01*
X0026965Y0146645D01*
X0026945Y0146702D01*
X0026929Y0146761D01*
X0026916Y0146820D01*
X0026907Y0146879D01*
X0026902Y0146940D01*
X0026900Y0147000D01*
X0026900Y0155000D01*
X0026902Y0155060D01*
X0026907Y0155121D01*
X0026916Y0155180D01*
X0026929Y0155239D01*
X0026945Y0155298D01*
X0026965Y0155355D01*
X0026988Y0155410D01*
X0027015Y0155465D01*
X0027044Y0155517D01*
X0027077Y0155568D01*
X0027113Y0155617D01*
X0027151Y0155663D01*
X0027193Y0155707D01*
X0027237Y0155749D01*
X0027283Y0155787D01*
X0027332Y0155823D01*
X0027383Y0155856D01*
X0027435Y0155885D01*
X0027490Y0155912D01*
X0027545Y0155935D01*
X0027602Y0155955D01*
X0027661Y0155971D01*
X0027720Y0155984D01*
X0027779Y0155993D01*
X0027840Y0155998D01*
X0027900Y0156000D01*
X0044900Y0156000D01*
X0044960Y0155998D01*
X0045021Y0155993D01*
X0045080Y0155984D01*
X0045139Y0155971D01*
X0045198Y0155955D01*
X0045255Y0155935D01*
X0045310Y0155912D01*
X0045365Y0155885D01*
X0045417Y0155856D01*
X0045468Y0155823D01*
X0045517Y0155787D01*
X0045563Y0155749D01*
X0045607Y0155707D01*
X0045649Y0155663D01*
X0045687Y0155617D01*
X0045723Y0155568D01*
X0045756Y0155517D01*
X0045785Y0155465D01*
X0045812Y0155410D01*
X0045835Y0155355D01*
X0045855Y0155298D01*
X0045871Y0155239D01*
X0045884Y0155180D01*
X0045893Y0155121D01*
X0045898Y0155060D01*
X0045900Y0155000D01*
X0045900Y0147000D01*
X0045898Y0146940D01*
X0045893Y0146879D01*
X0045884Y0146820D01*
X0045871Y0146761D01*
X0045855Y0146702D01*
X0045835Y0146645D01*
X0045812Y0146590D01*
X0045785Y0146535D01*
X0045756Y0146483D01*
X0045723Y0146432D01*
X0045687Y0146383D01*
X0045649Y0146337D01*
X0045607Y0146293D01*
X0045563Y0146251D01*
X0045517Y0146213D01*
X0045468Y0146177D01*
X0045417Y0146144D01*
X0045365Y0146115D01*
X0045310Y0146088D01*
X0045255Y0146065D01*
X0045198Y0146045D01*
X0045139Y0146029D01*
X0045080Y0146016D01*
X0045021Y0146007D01*
X0044960Y0146002D01*
X0044900Y0146000D01*
X0037900Y0151000D02*
X0037400Y0151000D01*
X0035400Y0151000D02*
X0034900Y0151000D01*
X0071400Y0168500D02*
X0073900Y0166000D01*
X0078900Y0166000D01*
X0081400Y0168500D01*
X0083900Y0166000D01*
X0088900Y0166000D01*
X0091400Y0168500D01*
X0091400Y0173500D01*
X0088900Y0176000D01*
X0083900Y0176000D01*
X0081400Y0173500D01*
X0081400Y0168500D01*
X0081400Y0173500D02*
X0078900Y0176000D01*
X0073900Y0176000D01*
X0071400Y0173500D01*
X0071400Y0168500D01*
X0091400Y0168500D02*
X0093900Y0166000D01*
X0098900Y0166000D01*
X0101400Y0168500D01*
X0103900Y0166000D01*
X0108900Y0166000D01*
X0111400Y0168500D01*
X0113900Y0166000D01*
X0118900Y0166000D01*
X0121400Y0168500D01*
X0123900Y0166000D01*
X0128900Y0166000D01*
X0131400Y0168500D01*
X0131400Y0173500D01*
X0128900Y0176000D01*
X0123900Y0176000D01*
X0121400Y0173500D01*
X0121400Y0168500D01*
X0121400Y0173500D02*
X0118900Y0176000D01*
X0113900Y0176000D01*
X0111400Y0173500D01*
X0111400Y0168500D01*
X0111400Y0173500D02*
X0108900Y0176000D01*
X0103900Y0176000D01*
X0101400Y0173500D01*
X0101400Y0168500D01*
X0101400Y0173500D02*
X0098900Y0176000D01*
X0093900Y0176000D01*
X0091400Y0173500D01*
X0145769Y0142076D02*
X0146997Y0141209D01*
X0148369Y0141209D01*
X0146997Y0141209D02*
X0145769Y0140343D01*
X0145769Y0138330D02*
X0148369Y0139196D01*
X0147719Y0138980D02*
X0147719Y0137680D01*
X0148369Y0137463D02*
X0145769Y0138330D01*
X0145769Y0135217D02*
X0148369Y0135217D01*
X0148369Y0136372D01*
X0148369Y0133876D02*
X0148369Y0132721D01*
X0145769Y0132721D01*
X0145769Y0133876D01*
X0146925Y0133588D02*
X0146925Y0132721D01*
X0148369Y0131211D02*
X0147214Y0130633D01*
X0147214Y0130489D02*
X0147214Y0129766D01*
X0147214Y0130489D02*
X0147212Y0130542D01*
X0147206Y0130594D01*
X0147197Y0130646D01*
X0147183Y0130697D01*
X0147166Y0130747D01*
X0147146Y0130795D01*
X0147122Y0130842D01*
X0147094Y0130887D01*
X0147063Y0130930D01*
X0147030Y0130971D01*
X0146993Y0131009D01*
X0146954Y0131044D01*
X0146912Y0131076D01*
X0146868Y0131105D01*
X0146822Y0131131D01*
X0146774Y0131153D01*
X0146725Y0131172D01*
X0146675Y0131188D01*
X0146623Y0131199D01*
X0146571Y0131207D01*
X0146518Y0131211D01*
X0146466Y0131211D01*
X0146413Y0131207D01*
X0146361Y0131199D01*
X0146309Y0131188D01*
X0146259Y0131172D01*
X0146210Y0131153D01*
X0146162Y0131131D01*
X0146116Y0131105D01*
X0146072Y0131076D01*
X0146030Y0131044D01*
X0145991Y0131009D01*
X0145954Y0130971D01*
X0145921Y0130930D01*
X0145890Y0130887D01*
X0145862Y0130842D01*
X0145838Y0130795D01*
X0145818Y0130747D01*
X0145801Y0130697D01*
X0145787Y0130646D01*
X0145778Y0130594D01*
X0145772Y0130542D01*
X0145770Y0130489D01*
X0145769Y0130489D02*
X0145769Y0129766D01*
X0148369Y0129766D01*
X0148369Y0118854D02*
X0145769Y0118854D01*
X0145769Y0117409D02*
X0148369Y0118854D01*
X0148369Y0117409D02*
X0145769Y0117409D01*
X0145769Y0116020D02*
X0145769Y0115443D01*
X0145769Y0115731D02*
X0148369Y0115731D01*
X0148369Y0115443D02*
X0148369Y0116020D01*
X0148369Y0114292D02*
X0148369Y0113715D01*
X0148369Y0114003D02*
X0145769Y0114003D01*
X0145769Y0113715D02*
X0145769Y0114292D01*
X0146492Y0112326D02*
X0147647Y0112326D01*
X0147647Y0112325D02*
X0147699Y0112323D01*
X0147750Y0112318D01*
X0147800Y0112309D01*
X0147850Y0112296D01*
X0147899Y0112279D01*
X0147947Y0112260D01*
X0147993Y0112237D01*
X0148037Y0112210D01*
X0148080Y0112181D01*
X0148120Y0112149D01*
X0148158Y0112114D01*
X0148193Y0112076D01*
X0148225Y0112036D01*
X0148254Y0111993D01*
X0148281Y0111949D01*
X0148304Y0111903D01*
X0148323Y0111855D01*
X0148340Y0111806D01*
X0148353Y0111756D01*
X0148362Y0111706D01*
X0148367Y0111655D01*
X0148369Y0111603D01*
X0148369Y0110881D01*
X0145769Y0110881D01*
X0145769Y0111603D01*
X0145770Y0111603D02*
X0145772Y0111655D01*
X0145777Y0111706D01*
X0145787Y0111756D01*
X0145799Y0111806D01*
X0145816Y0111855D01*
X0145835Y0111903D01*
X0145858Y0111949D01*
X0145885Y0111993D01*
X0145914Y0112036D01*
X0145946Y0112076D01*
X0145981Y0112114D01*
X0146019Y0112149D01*
X0146059Y0112181D01*
X0146102Y0112210D01*
X0146146Y0112237D01*
X0146192Y0112260D01*
X0146240Y0112279D01*
X0146289Y0112296D01*
X0146339Y0112309D01*
X0146389Y0112318D01*
X0146441Y0112323D01*
X0146492Y0112325D01*
X0145769Y0109492D02*
X0145769Y0108915D01*
X0145769Y0109203D02*
X0148369Y0109203D01*
X0148369Y0108915D02*
X0148369Y0109492D01*
X0148369Y0107478D02*
X0145769Y0107478D01*
X0147214Y0106611D01*
X0145769Y0105745D01*
X0148369Y0105745D01*
D12*
X0047400Y0054000D02*
X0047400Y0051000D01*
X0047400Y0048000D01*
X0045400Y0048000D02*
X0045400Y0051000D01*
X0045400Y0054000D01*
X0045400Y0039000D02*
X0045400Y0036000D01*
X0045400Y0033000D01*
X0047400Y0033000D02*
X0047400Y0036000D01*
X0047400Y0039000D01*
X0037400Y0148000D02*
X0037400Y0151000D01*
X0037400Y0154000D01*
X0035400Y0154000D02*
X0035400Y0151000D01*
X0035400Y0148000D01*
D13*
X0035894Y0137100D02*
X0035894Y0134900D01*
X0035894Y0135756D02*
X0037116Y0137100D01*
X0037949Y0136611D02*
X0038560Y0137100D01*
X0038560Y0134900D01*
X0037949Y0134900D02*
X0039171Y0134900D01*
X0037116Y0134900D02*
X0036382Y0136244D01*
X0034851Y0136489D02*
X0034851Y0135511D01*
X0034849Y0135463D01*
X0034843Y0135415D01*
X0034834Y0135368D01*
X0034821Y0135322D01*
X0034804Y0135277D01*
X0034784Y0135234D01*
X0034761Y0135192D01*
X0034734Y0135152D01*
X0034705Y0135114D01*
X0034672Y0135079D01*
X0034637Y0135046D01*
X0034599Y0135017D01*
X0034559Y0134990D01*
X0034517Y0134967D01*
X0034474Y0134947D01*
X0034429Y0134930D01*
X0034383Y0134917D01*
X0034336Y0134908D01*
X0034288Y0134902D01*
X0034240Y0134900D01*
X0034192Y0134902D01*
X0034144Y0134908D01*
X0034097Y0134917D01*
X0034051Y0134930D01*
X0034006Y0134947D01*
X0033963Y0134967D01*
X0033921Y0134990D01*
X0033881Y0135017D01*
X0033843Y0135046D01*
X0033808Y0135079D01*
X0033775Y0135114D01*
X0033746Y0135152D01*
X0033719Y0135192D01*
X0033696Y0135234D01*
X0033676Y0135277D01*
X0033659Y0135322D01*
X0033646Y0135368D01*
X0033637Y0135415D01*
X0033631Y0135463D01*
X0033629Y0135511D01*
X0033629Y0136489D01*
X0033631Y0136537D01*
X0033637Y0136585D01*
X0033646Y0136632D01*
X0033659Y0136678D01*
X0033676Y0136723D01*
X0033696Y0136766D01*
X0033719Y0136808D01*
X0033746Y0136848D01*
X0033775Y0136886D01*
X0033808Y0136921D01*
X0033843Y0136954D01*
X0033881Y0136983D01*
X0033921Y0137010D01*
X0033963Y0137033D01*
X0034006Y0137053D01*
X0034051Y0137070D01*
X0034097Y0137083D01*
X0034144Y0137092D01*
X0034192Y0137098D01*
X0034240Y0137100D01*
X0034288Y0137098D01*
X0034336Y0137092D01*
X0034383Y0137083D01*
X0034429Y0137070D01*
X0034474Y0137053D01*
X0034517Y0137033D01*
X0034559Y0137010D01*
X0034599Y0136983D01*
X0034637Y0136954D01*
X0034672Y0136921D01*
X0034705Y0136886D01*
X0034734Y0136848D01*
X0034761Y0136808D01*
X0034784Y0136766D01*
X0034804Y0136723D01*
X0034821Y0136678D01*
X0034834Y0136632D01*
X0034843Y0136585D01*
X0034849Y0136537D01*
X0034851Y0136489D01*
X0035375Y0159900D02*
X0035863Y0159900D01*
X0035375Y0159900D02*
X0035332Y0159902D01*
X0035290Y0159907D01*
X0035248Y0159917D01*
X0035208Y0159929D01*
X0035168Y0159946D01*
X0035131Y0159966D01*
X0035095Y0159988D01*
X0035061Y0160014D01*
X0035029Y0160043D01*
X0035000Y0160075D01*
X0034974Y0160109D01*
X0034952Y0160145D01*
X0034932Y0160182D01*
X0034915Y0160222D01*
X0034903Y0160262D01*
X0034893Y0160304D01*
X0034888Y0160346D01*
X0034886Y0160389D01*
X0034886Y0161611D01*
X0034888Y0161654D01*
X0034893Y0161696D01*
X0034903Y0161738D01*
X0034915Y0161778D01*
X0034932Y0161818D01*
X0034952Y0161855D01*
X0034974Y0161891D01*
X0035000Y0161925D01*
X0035029Y0161957D01*
X0035061Y0161986D01*
X0035095Y0162012D01*
X0035130Y0162034D01*
X0035168Y0162054D01*
X0035208Y0162071D01*
X0035248Y0162083D01*
X0035290Y0162093D01*
X0035332Y0162098D01*
X0035375Y0162100D01*
X0035863Y0162100D01*
X0036692Y0162100D02*
X0037425Y0162100D01*
X0037468Y0162098D01*
X0037510Y0162093D01*
X0037552Y0162083D01*
X0037592Y0162071D01*
X0037632Y0162054D01*
X0037670Y0162034D01*
X0037705Y0162012D01*
X0037739Y0161986D01*
X0037771Y0161957D01*
X0037800Y0161925D01*
X0037826Y0161891D01*
X0037848Y0161856D01*
X0037868Y0161818D01*
X0037885Y0161778D01*
X0037897Y0161738D01*
X0037907Y0161696D01*
X0037912Y0161654D01*
X0037914Y0161611D01*
X0037912Y0161568D01*
X0037907Y0161526D01*
X0037897Y0161484D01*
X0037885Y0161444D01*
X0037868Y0161404D01*
X0037848Y0161367D01*
X0037826Y0161331D01*
X0037800Y0161297D01*
X0037771Y0161265D01*
X0037739Y0161236D01*
X0037705Y0161210D01*
X0037670Y0161188D01*
X0037632Y0161168D01*
X0037592Y0161151D01*
X0037552Y0161139D01*
X0037510Y0161129D01*
X0037468Y0161124D01*
X0037425Y0161122D01*
X0036937Y0161122D01*
X0037303Y0161122D02*
X0037351Y0161120D01*
X0037399Y0161114D01*
X0037446Y0161105D01*
X0037492Y0161092D01*
X0037537Y0161075D01*
X0037580Y0161055D01*
X0037622Y0161032D01*
X0037662Y0161005D01*
X0037700Y0160976D01*
X0037735Y0160943D01*
X0037768Y0160908D01*
X0037797Y0160870D01*
X0037824Y0160830D01*
X0037847Y0160788D01*
X0037867Y0160745D01*
X0037884Y0160700D01*
X0037897Y0160654D01*
X0037906Y0160607D01*
X0037912Y0160559D01*
X0037914Y0160511D01*
X0037912Y0160463D01*
X0037906Y0160415D01*
X0037897Y0160368D01*
X0037884Y0160322D01*
X0037867Y0160277D01*
X0037847Y0160234D01*
X0037824Y0160192D01*
X0037797Y0160152D01*
X0037768Y0160114D01*
X0037735Y0160079D01*
X0037700Y0160046D01*
X0037662Y0160017D01*
X0037622Y0159990D01*
X0037580Y0159967D01*
X0037537Y0159947D01*
X0037492Y0159930D01*
X0037446Y0159917D01*
X0037399Y0159908D01*
X0037351Y0159902D01*
X0037303Y0159900D01*
X0036692Y0159900D01*
X0038248Y0067960D02*
X0038248Y0066737D01*
X0038248Y0067348D02*
X0036048Y0067348D01*
X0036537Y0066737D01*
X0036048Y0065203D02*
X0036050Y0065251D01*
X0036056Y0065299D01*
X0036065Y0065346D01*
X0036078Y0065392D01*
X0036095Y0065437D01*
X0036115Y0065480D01*
X0036138Y0065522D01*
X0036165Y0065562D01*
X0036194Y0065600D01*
X0036227Y0065635D01*
X0036262Y0065668D01*
X0036300Y0065697D01*
X0036340Y0065724D01*
X0036382Y0065747D01*
X0036425Y0065767D01*
X0036470Y0065784D01*
X0036516Y0065797D01*
X0036563Y0065806D01*
X0036611Y0065812D01*
X0036659Y0065814D01*
X0036707Y0065812D01*
X0036755Y0065806D01*
X0036802Y0065797D01*
X0036848Y0065784D01*
X0036893Y0065767D01*
X0036936Y0065747D01*
X0036978Y0065724D01*
X0037018Y0065697D01*
X0037056Y0065668D01*
X0037091Y0065635D01*
X0037124Y0065600D01*
X0037153Y0065562D01*
X0037180Y0065522D01*
X0037203Y0065480D01*
X0037223Y0065437D01*
X0037240Y0065392D01*
X0037253Y0065346D01*
X0037262Y0065299D01*
X0037268Y0065251D01*
X0037270Y0065203D01*
X0037270Y0064592D01*
X0037270Y0065325D02*
X0038248Y0065814D01*
X0038248Y0064592D02*
X0036048Y0064592D01*
X0036048Y0065203D01*
X0045300Y0064927D02*
X0045300Y0064316D01*
X0047500Y0064316D01*
X0046522Y0064316D02*
X0046522Y0064927D01*
X0046522Y0065049D02*
X0047500Y0065538D01*
X0047500Y0066462D02*
X0047500Y0067073D01*
X0047498Y0067121D01*
X0047492Y0067169D01*
X0047483Y0067216D01*
X0047470Y0067262D01*
X0047453Y0067307D01*
X0047433Y0067350D01*
X0047410Y0067392D01*
X0047383Y0067432D01*
X0047354Y0067470D01*
X0047321Y0067505D01*
X0047286Y0067538D01*
X0047248Y0067567D01*
X0047208Y0067594D01*
X0047166Y0067617D01*
X0047123Y0067637D01*
X0047078Y0067654D01*
X0047032Y0067667D01*
X0046985Y0067676D01*
X0046937Y0067682D01*
X0046889Y0067684D01*
X0046841Y0067682D01*
X0046793Y0067676D01*
X0046746Y0067667D01*
X0046700Y0067654D01*
X0046655Y0067637D01*
X0046612Y0067617D01*
X0046570Y0067594D01*
X0046530Y0067567D01*
X0046492Y0067538D01*
X0046457Y0067505D01*
X0046424Y0067470D01*
X0046395Y0067432D01*
X0046368Y0067392D01*
X0046345Y0067350D01*
X0046325Y0067307D01*
X0046308Y0067262D01*
X0046295Y0067216D01*
X0046286Y0067169D01*
X0046280Y0067121D01*
X0046278Y0067073D01*
X0046278Y0067195D02*
X0046278Y0066706D01*
X0046278Y0067195D02*
X0046276Y0067238D01*
X0046271Y0067280D01*
X0046261Y0067322D01*
X0046249Y0067362D01*
X0046232Y0067402D01*
X0046212Y0067440D01*
X0046190Y0067475D01*
X0046164Y0067509D01*
X0046135Y0067541D01*
X0046103Y0067570D01*
X0046069Y0067596D01*
X0046034Y0067618D01*
X0045996Y0067638D01*
X0045956Y0067655D01*
X0045916Y0067667D01*
X0045874Y0067677D01*
X0045832Y0067682D01*
X0045789Y0067684D01*
X0045746Y0067682D01*
X0045704Y0067677D01*
X0045662Y0067667D01*
X0045622Y0067655D01*
X0045582Y0067638D01*
X0045545Y0067618D01*
X0045509Y0067596D01*
X0045475Y0067570D01*
X0045443Y0067541D01*
X0045414Y0067509D01*
X0045388Y0067475D01*
X0045366Y0067440D01*
X0045346Y0067402D01*
X0045329Y0067362D01*
X0045317Y0067322D01*
X0045307Y0067280D01*
X0045302Y0067238D01*
X0045300Y0067195D01*
X0045300Y0066462D01*
X0045300Y0064927D02*
X0045302Y0064975D01*
X0045308Y0065023D01*
X0045317Y0065070D01*
X0045330Y0065116D01*
X0045347Y0065161D01*
X0045367Y0065204D01*
X0045390Y0065246D01*
X0045417Y0065286D01*
X0045446Y0065324D01*
X0045479Y0065359D01*
X0045514Y0065392D01*
X0045552Y0065421D01*
X0045592Y0065448D01*
X0045634Y0065471D01*
X0045677Y0065491D01*
X0045722Y0065508D01*
X0045768Y0065521D01*
X0045815Y0065530D01*
X0045863Y0065536D01*
X0045911Y0065538D01*
X0045959Y0065536D01*
X0046007Y0065530D01*
X0046054Y0065521D01*
X0046100Y0065508D01*
X0046145Y0065491D01*
X0046188Y0065471D01*
X0046230Y0065448D01*
X0046270Y0065421D01*
X0046308Y0065392D01*
X0046343Y0065359D01*
X0046376Y0065324D01*
X0046405Y0065286D01*
X0046432Y0065246D01*
X0046455Y0065204D01*
X0046475Y0065161D01*
X0046492Y0065116D01*
X0046505Y0065070D01*
X0046514Y0065023D01*
X0046520Y0064975D01*
X0046522Y0064927D01*
X0059886Y0051611D02*
X0059886Y0050389D01*
X0059888Y0050346D01*
X0059893Y0050304D01*
X0059903Y0050262D01*
X0059915Y0050222D01*
X0059932Y0050182D01*
X0059952Y0050145D01*
X0059974Y0050109D01*
X0060000Y0050075D01*
X0060029Y0050043D01*
X0060061Y0050014D01*
X0060095Y0049988D01*
X0060131Y0049966D01*
X0060168Y0049946D01*
X0060208Y0049929D01*
X0060248Y0049917D01*
X0060290Y0049907D01*
X0060332Y0049902D01*
X0060375Y0049900D01*
X0060863Y0049900D01*
X0061692Y0049900D02*
X0062914Y0049900D01*
X0062303Y0049900D02*
X0062303Y0052100D01*
X0061692Y0051611D01*
X0060863Y0052100D02*
X0060375Y0052100D01*
X0060332Y0052098D01*
X0060290Y0052093D01*
X0060248Y0052083D01*
X0060208Y0052071D01*
X0060168Y0052054D01*
X0060130Y0052034D01*
X0060095Y0052012D01*
X0060061Y0051986D01*
X0060029Y0051957D01*
X0060000Y0051925D01*
X0059974Y0051891D01*
X0059952Y0051855D01*
X0059932Y0051818D01*
X0059915Y0051778D01*
X0059903Y0051738D01*
X0059893Y0051696D01*
X0059888Y0051654D01*
X0059886Y0051611D01*
X0060375Y0037100D02*
X0060863Y0037100D01*
X0060375Y0037100D02*
X0060332Y0037098D01*
X0060290Y0037093D01*
X0060248Y0037083D01*
X0060208Y0037071D01*
X0060168Y0037054D01*
X0060130Y0037034D01*
X0060095Y0037012D01*
X0060061Y0036986D01*
X0060029Y0036957D01*
X0060000Y0036925D01*
X0059974Y0036891D01*
X0059952Y0036855D01*
X0059932Y0036818D01*
X0059915Y0036778D01*
X0059903Y0036738D01*
X0059893Y0036696D01*
X0059888Y0036654D01*
X0059886Y0036611D01*
X0059886Y0035389D01*
X0059888Y0035346D01*
X0059893Y0035304D01*
X0059903Y0035262D01*
X0059915Y0035222D01*
X0059932Y0035182D01*
X0059952Y0035145D01*
X0059974Y0035109D01*
X0060000Y0035075D01*
X0060029Y0035043D01*
X0060061Y0035014D01*
X0060095Y0034988D01*
X0060131Y0034966D01*
X0060168Y0034946D01*
X0060208Y0034929D01*
X0060248Y0034917D01*
X0060290Y0034907D01*
X0060332Y0034902D01*
X0060375Y0034900D01*
X0060863Y0034900D01*
X0061692Y0034900D02*
X0062731Y0036122D01*
X0062364Y0037100D02*
X0062312Y0037098D01*
X0062260Y0037092D01*
X0062208Y0037083D01*
X0062158Y0037069D01*
X0062108Y0037052D01*
X0062060Y0037031D01*
X0062014Y0037007D01*
X0061970Y0036980D01*
X0061927Y0036949D01*
X0061887Y0036915D01*
X0061850Y0036879D01*
X0061816Y0036839D01*
X0061784Y0036797D01*
X0061756Y0036754D01*
X0061731Y0036708D01*
X0061709Y0036660D01*
X0061691Y0036611D01*
X0062732Y0036122D02*
X0062765Y0036156D01*
X0062795Y0036193D01*
X0062823Y0036233D01*
X0062847Y0036274D01*
X0062867Y0036317D01*
X0062884Y0036362D01*
X0062898Y0036408D01*
X0062907Y0036455D01*
X0062913Y0036502D01*
X0062915Y0036550D01*
X0062914Y0036550D02*
X0062912Y0036595D01*
X0062906Y0036641D01*
X0062897Y0036685D01*
X0062884Y0036729D01*
X0062868Y0036771D01*
X0062848Y0036812D01*
X0062824Y0036851D01*
X0062798Y0036888D01*
X0062769Y0036923D01*
X0062737Y0036955D01*
X0062702Y0036984D01*
X0062665Y0037010D01*
X0062626Y0037034D01*
X0062585Y0037054D01*
X0062543Y0037070D01*
X0062499Y0037083D01*
X0062455Y0037092D01*
X0062409Y0037098D01*
X0062364Y0037100D01*
X0062914Y0034900D02*
X0061692Y0034900D01*
X0084716Y0012100D02*
X0084716Y0009900D01*
X0084716Y0010878D02*
X0085327Y0010878D01*
X0085449Y0010878D02*
X0085938Y0009900D01*
X0086862Y0009900D02*
X0087901Y0011122D01*
X0087534Y0012100D02*
X0087482Y0012098D01*
X0087430Y0012092D01*
X0087378Y0012083D01*
X0087328Y0012069D01*
X0087278Y0012052D01*
X0087230Y0012031D01*
X0087184Y0012007D01*
X0087140Y0011980D01*
X0087097Y0011949D01*
X0087057Y0011915D01*
X0087020Y0011879D01*
X0086986Y0011839D01*
X0086954Y0011797D01*
X0086926Y0011754D01*
X0086901Y0011708D01*
X0086879Y0011660D01*
X0086861Y0011611D01*
X0087901Y0011122D02*
X0087934Y0011156D01*
X0087964Y0011193D01*
X0087992Y0011233D01*
X0088016Y0011274D01*
X0088036Y0011317D01*
X0088053Y0011362D01*
X0088067Y0011408D01*
X0088076Y0011455D01*
X0088082Y0011502D01*
X0088084Y0011550D01*
X0088082Y0011595D01*
X0088076Y0011641D01*
X0088067Y0011685D01*
X0088054Y0011729D01*
X0088038Y0011771D01*
X0088018Y0011812D01*
X0087994Y0011851D01*
X0087968Y0011888D01*
X0087939Y0011923D01*
X0087907Y0011955D01*
X0087872Y0011984D01*
X0087835Y0012010D01*
X0087796Y0012034D01*
X0087755Y0012054D01*
X0087713Y0012070D01*
X0087669Y0012083D01*
X0087625Y0012092D01*
X0087579Y0012098D01*
X0087534Y0012100D01*
X0085327Y0012100D02*
X0084716Y0012100D01*
X0085327Y0012100D02*
X0085375Y0012098D01*
X0085423Y0012092D01*
X0085470Y0012083D01*
X0085516Y0012070D01*
X0085561Y0012053D01*
X0085604Y0012033D01*
X0085646Y0012010D01*
X0085686Y0011983D01*
X0085724Y0011954D01*
X0085759Y0011921D01*
X0085792Y0011886D01*
X0085821Y0011848D01*
X0085848Y0011808D01*
X0085871Y0011766D01*
X0085891Y0011723D01*
X0085908Y0011678D01*
X0085921Y0011632D01*
X0085930Y0011585D01*
X0085936Y0011537D01*
X0085938Y0011489D01*
X0085936Y0011441D01*
X0085930Y0011393D01*
X0085921Y0011346D01*
X0085908Y0011300D01*
X0085891Y0011255D01*
X0085871Y0011212D01*
X0085848Y0011170D01*
X0085821Y0011130D01*
X0085792Y0011092D01*
X0085759Y0011057D01*
X0085724Y0011024D01*
X0085686Y0010995D01*
X0085646Y0010968D01*
X0085604Y0010945D01*
X0085561Y0010925D01*
X0085516Y0010908D01*
X0085470Y0010895D01*
X0085423Y0010886D01*
X0085375Y0010880D01*
X0085327Y0010878D01*
X0086862Y0009900D02*
X0088084Y0009900D01*
X0129781Y0017100D02*
X0131003Y0017100D01*
X0130392Y0017100D02*
X0130392Y0014900D01*
X0131797Y0014900D02*
X0133019Y0014900D01*
X0132408Y0014900D02*
X0132408Y0017100D01*
X0131797Y0016611D01*
X0155300Y0034361D02*
X0157500Y0034361D01*
X0156644Y0034361D02*
X0155300Y0035583D01*
X0155789Y0036417D02*
X0155300Y0037028D01*
X0157500Y0037028D01*
X0157500Y0036417D02*
X0157500Y0037639D01*
X0157500Y0035583D02*
X0156156Y0034850D01*
D14*
X0142581Y0042181D02*
X0170376Y0042181D01*
X0170376Y0089819D01*
X0142581Y0089819D01*
X0142581Y0042181D01*
X0148644Y0100685D02*
X0148644Y0103244D01*
X0154943Y0103244D01*
X0148644Y0100685D02*
X0178565Y0100685D01*
X0178565Y0123913D01*
X0148644Y0123913D01*
X0148644Y0121354D01*
X0154943Y0121354D01*
X0154943Y0126866D02*
X0148644Y0126866D01*
X0148644Y0124307D01*
X0178565Y0124307D01*
X0178565Y0147535D01*
X0148644Y0147535D01*
X0148644Y0144976D01*
X0154943Y0144976D01*
X0059400Y0091000D02*
X0059400Y0071000D01*
X0056400Y0071000D01*
X0056400Y0070000D01*
X0056400Y0071000D02*
X0053400Y0071000D01*
X0053400Y0091000D01*
X0056400Y0091000D01*
X0056400Y0092000D01*
X0056400Y0091000D02*
X0059400Y0091000D01*
X0058900Y0088500D02*
X0053900Y0088500D01*
X0031321Y0101669D02*
X0025022Y0101669D01*
X0031321Y0101669D02*
X0031321Y0104228D01*
X0001400Y0104228D01*
X0001400Y0065252D01*
X0031321Y0065252D01*
X0031321Y0067811D01*
X0025022Y0067811D01*
X0025022Y0062299D02*
X0031321Y0062299D01*
X0031321Y0064858D01*
X0001400Y0064858D01*
X0001400Y0041630D01*
X0031321Y0041630D01*
X0031321Y0044189D01*
X0025022Y0044189D01*
X0041400Y0019000D02*
X0061400Y0019000D01*
X0061400Y0016000D01*
X0062400Y0016000D01*
X0061400Y0016000D02*
X0061400Y0013000D01*
X0041400Y0013000D01*
X0041400Y0016000D01*
X0040400Y0016000D01*
X0041400Y0016000D02*
X0041400Y0019000D01*
X0043900Y0018500D02*
X0043900Y0013500D01*
D15*
X0049756Y0011950D02*
X0049756Y0010050D01*
X0050284Y0010050D01*
X0050328Y0010052D01*
X0050371Y0010057D01*
X0050414Y0010066D01*
X0050455Y0010079D01*
X0050496Y0010094D01*
X0050535Y0010114D01*
X0050573Y0010136D01*
X0050608Y0010161D01*
X0050642Y0010190D01*
X0050672Y0010220D01*
X0050701Y0010254D01*
X0050726Y0010289D01*
X0050748Y0010327D01*
X0050768Y0010366D01*
X0050783Y0010407D01*
X0050796Y0010448D01*
X0050805Y0010491D01*
X0050810Y0010534D01*
X0050812Y0010578D01*
X0050812Y0011422D01*
X0050810Y0011466D01*
X0050805Y0011509D01*
X0050796Y0011552D01*
X0050783Y0011593D01*
X0050768Y0011634D01*
X0050748Y0011673D01*
X0050726Y0011711D01*
X0050701Y0011746D01*
X0050672Y0011780D01*
X0050642Y0011810D01*
X0050608Y0011839D01*
X0050573Y0011864D01*
X0050535Y0011886D01*
X0050496Y0011906D01*
X0050455Y0011921D01*
X0050414Y0011934D01*
X0050371Y0011943D01*
X0050328Y0011948D01*
X0050284Y0011950D01*
X0049756Y0011950D01*
X0051988Y0010050D02*
X0053044Y0010050D01*
X0051988Y0010050D02*
X0052885Y0011106D01*
X0052569Y0011950D02*
X0052521Y0011948D01*
X0052474Y0011942D01*
X0052426Y0011933D01*
X0052380Y0011920D01*
X0052335Y0011903D01*
X0052292Y0011883D01*
X0052250Y0011860D01*
X0052210Y0011833D01*
X0052173Y0011804D01*
X0052137Y0011771D01*
X0052105Y0011736D01*
X0052075Y0011698D01*
X0052049Y0011658D01*
X0052025Y0011616D01*
X0052005Y0011573D01*
X0051989Y0011528D01*
X0052886Y0011106D02*
X0052914Y0011135D01*
X0052941Y0011167D01*
X0052964Y0011201D01*
X0052985Y0011237D01*
X0053003Y0011274D01*
X0053017Y0011313D01*
X0053029Y0011352D01*
X0053037Y0011393D01*
X0053042Y0011434D01*
X0053044Y0011475D01*
X0053042Y0011516D01*
X0053037Y0011557D01*
X0053028Y0011598D01*
X0053015Y0011637D01*
X0052999Y0011676D01*
X0052980Y0011713D01*
X0052958Y0011747D01*
X0052933Y0011780D01*
X0052905Y0011811D01*
X0052874Y0011839D01*
X0052841Y0011864D01*
X0052807Y0011886D01*
X0052770Y0011905D01*
X0052731Y0011921D01*
X0052692Y0011934D01*
X0052651Y0011943D01*
X0052610Y0011948D01*
X0052569Y0011950D01*
X0033846Y0047004D02*
X0031946Y0047004D01*
X0031946Y0047532D01*
X0031948Y0047577D01*
X0031954Y0047621D01*
X0031963Y0047665D01*
X0031976Y0047708D01*
X0031993Y0047749D01*
X0032013Y0047790D01*
X0032037Y0047828D01*
X0032063Y0047864D01*
X0032093Y0047897D01*
X0032125Y0047928D01*
X0032160Y0047957D01*
X0032197Y0047982D01*
X0032236Y0048003D01*
X0032277Y0048022D01*
X0032319Y0048037D01*
X0032363Y0048048D01*
X0032407Y0048056D01*
X0032452Y0048060D01*
X0032496Y0048060D01*
X0032541Y0048056D01*
X0032585Y0048048D01*
X0032629Y0048037D01*
X0032671Y0048022D01*
X0032712Y0048003D01*
X0032751Y0047982D01*
X0032788Y0047957D01*
X0032823Y0047928D01*
X0032855Y0047897D01*
X0032885Y0047864D01*
X0032911Y0047828D01*
X0032935Y0047790D01*
X0032955Y0047749D01*
X0032972Y0047708D01*
X0032985Y0047665D01*
X0032994Y0047621D01*
X0033000Y0047577D01*
X0033002Y0047532D01*
X0033002Y0047004D01*
X0031946Y0049006D02*
X0033846Y0049428D01*
X0032579Y0049851D01*
X0033846Y0050273D01*
X0031946Y0050695D01*
X0031946Y0051868D02*
X0031946Y0052396D01*
X0031948Y0052441D01*
X0031954Y0052485D01*
X0031963Y0052529D01*
X0031976Y0052572D01*
X0031993Y0052613D01*
X0032013Y0052654D01*
X0032037Y0052692D01*
X0032063Y0052728D01*
X0032093Y0052761D01*
X0032125Y0052792D01*
X0032160Y0052821D01*
X0032197Y0052846D01*
X0032236Y0052867D01*
X0032277Y0052886D01*
X0032319Y0052901D01*
X0032363Y0052912D01*
X0032407Y0052920D01*
X0032452Y0052924D01*
X0032496Y0052924D01*
X0032541Y0052920D01*
X0032585Y0052912D01*
X0032629Y0052901D01*
X0032671Y0052886D01*
X0032712Y0052867D01*
X0032751Y0052846D01*
X0032788Y0052821D01*
X0032823Y0052792D01*
X0032855Y0052761D01*
X0032885Y0052728D01*
X0032911Y0052692D01*
X0032935Y0052654D01*
X0032955Y0052613D01*
X0032972Y0052572D01*
X0032985Y0052529D01*
X0032994Y0052485D01*
X0033000Y0052441D01*
X0033002Y0052396D01*
X0033002Y0051868D01*
X0033002Y0052501D02*
X0033846Y0052923D01*
X0033846Y0051868D02*
X0031946Y0051868D01*
X0032368Y0054003D02*
X0031946Y0054530D01*
X0033846Y0054530D01*
X0033846Y0054003D02*
X0033846Y0055058D01*
X0033846Y0056163D02*
X0033846Y0057218D01*
X0033846Y0056163D02*
X0032791Y0057060D01*
X0031946Y0056743D02*
X0031948Y0056695D01*
X0031954Y0056648D01*
X0031963Y0056601D01*
X0031976Y0056554D01*
X0031992Y0056509D01*
X0032013Y0056466D01*
X0032036Y0056424D01*
X0032063Y0056384D01*
X0032092Y0056347D01*
X0032125Y0056311D01*
X0032160Y0056279D01*
X0032198Y0056249D01*
X0032238Y0056223D01*
X0032280Y0056199D01*
X0032323Y0056179D01*
X0032368Y0056163D01*
X0032790Y0057060D02*
X0032761Y0057088D01*
X0032729Y0057115D01*
X0032695Y0057138D01*
X0032659Y0057159D01*
X0032622Y0057177D01*
X0032583Y0057191D01*
X0032544Y0057203D01*
X0032503Y0057211D01*
X0032462Y0057216D01*
X0032421Y0057218D01*
X0032380Y0057216D01*
X0032339Y0057211D01*
X0032298Y0057202D01*
X0032259Y0057189D01*
X0032220Y0057173D01*
X0032184Y0057154D01*
X0032149Y0057132D01*
X0032116Y0057107D01*
X0032085Y0057079D01*
X0032057Y0057048D01*
X0032032Y0057015D01*
X0032010Y0056981D01*
X0031991Y0056944D01*
X0031975Y0056905D01*
X0031962Y0056866D01*
X0031953Y0056826D01*
X0031948Y0056784D01*
X0031946Y0056743D01*
X0031946Y0058217D02*
X0033846Y0058850D01*
X0031946Y0059484D01*
X0031946Y0080040D02*
X0031946Y0080885D01*
X0032791Y0080885D02*
X0032791Y0080040D01*
X0031946Y0080040D02*
X0033846Y0080040D01*
X0033846Y0081930D02*
X0031946Y0081930D01*
X0031946Y0082457D01*
X0031948Y0082502D01*
X0031954Y0082546D01*
X0031963Y0082590D01*
X0031976Y0082633D01*
X0031993Y0082674D01*
X0032013Y0082715D01*
X0032037Y0082753D01*
X0032063Y0082789D01*
X0032093Y0082822D01*
X0032125Y0082853D01*
X0032160Y0082882D01*
X0032197Y0082907D01*
X0032236Y0082928D01*
X0032277Y0082947D01*
X0032319Y0082962D01*
X0032363Y0082973D01*
X0032407Y0082981D01*
X0032452Y0082985D01*
X0032496Y0082985D01*
X0032541Y0082981D01*
X0032585Y0082973D01*
X0032629Y0082962D01*
X0032671Y0082947D01*
X0032712Y0082928D01*
X0032751Y0082907D01*
X0032788Y0082882D01*
X0032823Y0082853D01*
X0032855Y0082822D01*
X0032885Y0082789D01*
X0032911Y0082753D01*
X0032935Y0082715D01*
X0032955Y0082674D01*
X0032972Y0082633D01*
X0032985Y0082590D01*
X0032994Y0082546D01*
X0033000Y0082502D01*
X0033002Y0082457D01*
X0033002Y0081930D01*
X0033002Y0082563D02*
X0033846Y0082985D01*
X0033318Y0084065D02*
X0032474Y0084065D01*
X0032474Y0084064D02*
X0032429Y0084066D01*
X0032385Y0084072D01*
X0032341Y0084081D01*
X0032298Y0084094D01*
X0032257Y0084111D01*
X0032216Y0084131D01*
X0032178Y0084155D01*
X0032142Y0084181D01*
X0032109Y0084211D01*
X0032078Y0084243D01*
X0032049Y0084278D01*
X0032024Y0084315D01*
X0032003Y0084354D01*
X0031984Y0084395D01*
X0031969Y0084437D01*
X0031958Y0084481D01*
X0031950Y0084525D01*
X0031946Y0084570D01*
X0031946Y0084614D01*
X0031950Y0084659D01*
X0031958Y0084703D01*
X0031969Y0084747D01*
X0031984Y0084789D01*
X0032003Y0084830D01*
X0032024Y0084869D01*
X0032049Y0084906D01*
X0032078Y0084941D01*
X0032109Y0084973D01*
X0032142Y0085003D01*
X0032178Y0085029D01*
X0032216Y0085053D01*
X0032257Y0085073D01*
X0032298Y0085090D01*
X0032341Y0085103D01*
X0032385Y0085112D01*
X0032429Y0085118D01*
X0032474Y0085120D01*
X0033318Y0085120D01*
X0033363Y0085118D01*
X0033407Y0085112D01*
X0033451Y0085103D01*
X0033494Y0085090D01*
X0033535Y0085073D01*
X0033576Y0085053D01*
X0033614Y0085029D01*
X0033650Y0085003D01*
X0033683Y0084973D01*
X0033714Y0084941D01*
X0033743Y0084906D01*
X0033768Y0084869D01*
X0033789Y0084830D01*
X0033808Y0084789D01*
X0033823Y0084747D01*
X0033834Y0084703D01*
X0033842Y0084659D01*
X0033846Y0084614D01*
X0033846Y0084570D01*
X0033842Y0084525D01*
X0033834Y0084481D01*
X0033823Y0084437D01*
X0033808Y0084395D01*
X0033789Y0084354D01*
X0033768Y0084315D01*
X0033743Y0084278D01*
X0033714Y0084243D01*
X0033683Y0084211D01*
X0033650Y0084181D01*
X0033614Y0084155D01*
X0033576Y0084131D01*
X0033535Y0084111D01*
X0033494Y0084094D01*
X0033451Y0084081D01*
X0033407Y0084072D01*
X0033363Y0084066D01*
X0033318Y0084064D01*
X0033846Y0086297D02*
X0031946Y0086297D01*
X0033846Y0087352D01*
X0031946Y0087352D01*
X0031946Y0088385D02*
X0031946Y0089440D01*
X0031946Y0088912D02*
X0033846Y0088912D01*
X0060450Y0082116D02*
X0062350Y0082116D01*
X0062350Y0081588D02*
X0062350Y0082644D01*
X0060872Y0081588D02*
X0060450Y0082116D01*
X0060978Y0080412D02*
X0061822Y0080412D01*
X0061866Y0080410D01*
X0061909Y0080405D01*
X0061952Y0080396D01*
X0061993Y0080383D01*
X0062034Y0080368D01*
X0062073Y0080348D01*
X0062111Y0080326D01*
X0062146Y0080301D01*
X0062180Y0080272D01*
X0062210Y0080242D01*
X0062239Y0080208D01*
X0062264Y0080173D01*
X0062286Y0080135D01*
X0062306Y0080096D01*
X0062321Y0080055D01*
X0062334Y0080014D01*
X0062343Y0079971D01*
X0062348Y0079928D01*
X0062350Y0079884D01*
X0062350Y0079356D01*
X0060450Y0079356D01*
X0060450Y0079884D01*
X0060452Y0079928D01*
X0060457Y0079971D01*
X0060466Y0080014D01*
X0060479Y0080055D01*
X0060494Y0080096D01*
X0060514Y0080135D01*
X0060536Y0080173D01*
X0060561Y0080208D01*
X0060590Y0080242D01*
X0060620Y0080272D01*
X0060654Y0080301D01*
X0060689Y0080326D01*
X0060727Y0080348D01*
X0060766Y0080368D01*
X0060807Y0080383D01*
X0060848Y0080396D01*
X0060891Y0080405D01*
X0060934Y0080410D01*
X0060978Y0080412D01*
X0110872Y0015500D02*
X0111928Y0015500D01*
X0106898Y0011528D02*
X0107002Y0011313D01*
X0107111Y0011100D01*
X0107225Y0010890D01*
X0107344Y0010683D01*
X0107467Y0010478D01*
X0107595Y0010276D01*
X0107728Y0010077D01*
X0107865Y0009882D01*
X0108006Y0009689D01*
X0108152Y0009500D01*
X0124648Y0009500D01*
X0121928Y0015500D02*
X0120872Y0015500D01*
X0125946Y0011622D02*
X0125839Y0011397D01*
X0125727Y0011174D01*
X0125610Y0010954D01*
X0125488Y0010737D01*
X0125360Y0010522D01*
X0125227Y0010311D01*
X0125090Y0010103D01*
X0124947Y0009899D01*
X0124800Y0009697D01*
X0124648Y0009500D01*
X0125900Y0020472D02*
X0125788Y0020702D01*
X0125671Y0020929D01*
X0125549Y0021153D01*
X0125421Y0021374D01*
X0125287Y0021591D01*
X0125149Y0021806D01*
X0125005Y0022017D01*
X0124856Y0022224D01*
X0124702Y0022428D01*
X0124544Y0022628D01*
X0124380Y0022824D01*
X0124212Y0023016D01*
X0124039Y0023204D01*
X0123861Y0023388D01*
X0123680Y0023567D01*
X0123493Y0023742D01*
X0123303Y0023912D01*
X0123109Y0024077D01*
X0122910Y0024238D01*
X0122708Y0024394D01*
X0122502Y0024545D01*
X0122292Y0024691D01*
X0122079Y0024831D01*
X0121863Y0024967D01*
X0121643Y0025097D01*
X0121420Y0025222D01*
X0121195Y0025341D01*
X0120966Y0025455D01*
X0120735Y0025563D01*
X0120501Y0025666D01*
X0120265Y0025763D01*
X0120026Y0025854D01*
X0119786Y0025939D01*
X0119543Y0026019D01*
X0119298Y0026092D01*
X0119052Y0026160D01*
X0118804Y0026221D01*
X0118555Y0026276D01*
X0118305Y0026326D01*
X0118053Y0026369D01*
X0117800Y0026406D01*
X0117547Y0026437D01*
X0117293Y0026462D01*
X0117038Y0026481D01*
X0116783Y0026493D01*
X0116528Y0026499D01*
X0116272Y0026499D01*
X0116017Y0026493D01*
X0115762Y0026481D01*
X0115507Y0026462D01*
X0115253Y0026437D01*
X0115000Y0026406D01*
X0114747Y0026369D01*
X0114495Y0026326D01*
X0114245Y0026276D01*
X0113996Y0026221D01*
X0113748Y0026160D01*
X0113502Y0026092D01*
X0113257Y0026019D01*
X0113014Y0025939D01*
X0112774Y0025854D01*
X0112535Y0025763D01*
X0112299Y0025666D01*
X0112065Y0025563D01*
X0111834Y0025455D01*
X0111605Y0025341D01*
X0111380Y0025222D01*
X0111157Y0025097D01*
X0110937Y0024967D01*
X0110721Y0024831D01*
X0110508Y0024691D01*
X0110298Y0024545D01*
X0110092Y0024394D01*
X0109890Y0024238D01*
X0109691Y0024077D01*
X0109497Y0023912D01*
X0109307Y0023742D01*
X0109120Y0023567D01*
X0108939Y0023388D01*
X0108761Y0023204D01*
X0108588Y0023016D01*
X0108420Y0022824D01*
X0108256Y0022628D01*
X0108098Y0022428D01*
X0107944Y0022224D01*
X0107795Y0022017D01*
X0107651Y0021806D01*
X0107513Y0021591D01*
X0107379Y0021374D01*
X0107251Y0021153D01*
X0107129Y0020929D01*
X0107012Y0020702D01*
X0106900Y0020472D01*
M02*
