%
M48
M72
T01C0.02756
T02C0.03150
T03C0.03200
T04C0.03543
T05C0.12598
%
T01
X25022Y44557
X25022Y52431
X25022Y68179
X25022Y76053
X25022Y83927
X25022Y91801
X154943Y103612
X154943Y111486
X154943Y127234
X154943Y135108
T02
X131400Y136250
X131400Y126250
X131400Y116250
X131400Y106250
X131400Y96250
X131400Y86250
X131400Y76250
X131400Y66250
X131400Y56250
X131400Y46250
X131400Y36250
X116400Y61250
X116400Y71250
X116400Y101250
X116400Y111250
X131400Y146250
X126400Y156250
X116400Y156250
X106400Y156250
X96400Y156250
X86400Y156250
X76400Y156250
X71400Y146250
X71400Y136250
X71400Y126250
X71400Y116250
X71400Y106250
X71400Y96250
X71400Y86250
X71400Y76250
X71400Y66250
X71400Y56250
X71400Y46250
X71400Y36250
T03
X51400Y31250
X41400Y31250
X41400Y46250
X51400Y46250
X46400Y66250
X37148Y66526
X37148Y86526
X46400Y86250
X51400Y106250
X51400Y116250
X51400Y126250
X51400Y136250
X41400Y146250
X31400Y146250
X21400Y136250
X21400Y126250
X21400Y116250
X21400Y106250
X86400Y16250
X106400Y16250
X116400Y16250
X126400Y16250
X136400Y16250
X146400Y46250
X146400Y56250
X166400Y56250
X166400Y46250
X166400Y86250
X146400Y86250
T04
X76400Y16250
X46400Y16250
X56400Y61250
X56400Y91250
T05
X21085Y20935
X21085Y158730
X158880Y158730
X158880Y20935
M30
