G75*
%MOIN*%
%OFA0B0*%
%FSLAX25Y25*%
%IPPOS*%
%LPD*%
%AMOC8*
5,1,8,0,0,1.08239X$1,22.5*
%
%ADD10C,0.13398*%
%ADD11OC8,0.05600*%
%ADD12C,0.07099*%
%ADD13C,0.05600*%
%ADD14C,0.08200*%
%ADD15C,0.05524*%
%ADD16C,0.06800*%
D10*
X0021085Y0025685D03*
X0021085Y0163480D03*
X0158880Y0163480D03*
X0158880Y0025685D03*
D11*
X0096400Y0016000D03*
X0076400Y0016000D03*
X0051400Y0036000D03*
X0041400Y0036000D03*
X0041400Y0051000D03*
X0051400Y0051000D03*
X0046400Y0071000D03*
X0037148Y0071276D03*
X0037148Y0091276D03*
X0046400Y0091000D03*
X0041400Y0151000D03*
X0031400Y0151000D03*
D12*
X0025022Y0096551D03*
X0025022Y0088677D03*
X0025022Y0080803D03*
X0025022Y0072929D03*
X0025022Y0057181D03*
X0025022Y0049307D03*
X0154943Y0108362D03*
X0154943Y0116236D03*
X0154943Y0131984D03*
X0154943Y0139858D03*
D13*
X0148800Y0086000D02*
X0144000Y0086000D01*
X0164000Y0086000D02*
X0168800Y0086000D01*
X0168800Y0056000D02*
X0164000Y0056000D01*
X0164000Y0046000D02*
X0168800Y0046000D01*
X0148800Y0046000D02*
X0144000Y0046000D01*
X0144000Y0056000D02*
X0148800Y0056000D01*
X0126400Y0018400D02*
X0126400Y0013600D01*
X0116400Y0013600D02*
X0116400Y0018400D01*
X0106400Y0018400D02*
X0106400Y0013600D01*
X0056200Y0111000D02*
X0051400Y0111000D01*
X0051400Y0121000D02*
X0056200Y0121000D01*
X0056200Y0131000D02*
X0051400Y0131000D01*
X0051400Y0141000D02*
X0056200Y0141000D01*
X0021400Y0141000D02*
X0016600Y0141000D01*
X0016600Y0131000D02*
X0021400Y0131000D01*
X0021400Y0121000D02*
X0016600Y0121000D01*
X0016600Y0111000D02*
X0021400Y0111000D01*
D14*
X0056400Y0096000D03*
X0056400Y0066000D03*
X0066400Y0016000D03*
X0036400Y0016000D03*
D15*
X0069038Y0031000D02*
X0073762Y0031000D01*
X0073762Y0041000D02*
X0069038Y0041000D01*
X0069038Y0051000D02*
X0073762Y0051000D01*
X0073762Y0061000D02*
X0069038Y0061000D01*
X0069038Y0071000D02*
X0073762Y0071000D01*
X0073762Y0081000D02*
X0069038Y0081000D01*
X0069038Y0091000D02*
X0073762Y0091000D01*
X0073762Y0101000D02*
X0069038Y0101000D01*
X0069038Y0111000D02*
X0073762Y0111000D01*
X0073762Y0121000D02*
X0069038Y0121000D01*
X0069038Y0131000D02*
X0073762Y0131000D01*
X0073762Y0141000D02*
X0069038Y0141000D01*
X0076400Y0148638D02*
X0076400Y0153362D01*
X0086400Y0153362D02*
X0086400Y0148638D01*
X0096400Y0148638D02*
X0096400Y0153362D01*
X0106400Y0153362D02*
X0106400Y0148638D01*
X0116400Y0148638D02*
X0116400Y0153362D01*
X0126400Y0153362D02*
X0126400Y0148638D01*
X0129038Y0141000D02*
X0133762Y0141000D01*
X0133762Y0131000D02*
X0129038Y0131000D01*
X0129038Y0121000D02*
X0133762Y0121000D01*
X0133762Y0111000D02*
X0129038Y0111000D01*
X0129038Y0101000D02*
X0133762Y0101000D01*
X0133762Y0091000D02*
X0129038Y0091000D01*
X0129038Y0081000D02*
X0133762Y0081000D01*
X0133762Y0071000D02*
X0129038Y0071000D01*
X0129038Y0061000D02*
X0133762Y0061000D01*
X0133762Y0051000D02*
X0129038Y0051000D01*
X0129038Y0041000D02*
X0133762Y0041000D01*
X0133762Y0031000D02*
X0129038Y0031000D01*
X0118762Y0056000D02*
X0114038Y0056000D01*
X0114038Y0066000D02*
X0118762Y0066000D01*
X0118762Y0096000D02*
X0114038Y0096000D01*
X0114038Y0106000D02*
X0118762Y0106000D01*
D16*
X0116400Y0168000D02*
X0116400Y0174000D01*
X0106400Y0174000D02*
X0106400Y0168000D01*
X0096400Y0168000D02*
X0096400Y0174000D01*
X0086400Y0174000D02*
X0086400Y0168000D01*
X0076400Y0168000D02*
X0076400Y0174000D01*
X0126400Y0174000D02*
X0126400Y0168000D01*
M02*
